<svg width="97" height="97" viewBox="0 0 97 97" fill="none" xmlns="http://www.w3.org/2000/svg">
<path d="M75.8079 10.3538H72.463V6.96919C72.463 5.03536 70.8954 3.46777 68.9616 3.46777C67.0277 3.46777 65.4602 5.03536 65.4602 6.96919V10.3538H31.1065V6.96919C31.1065 5.03536 29.5389 3.46777 27.6051 3.46777C25.6713 3.46777 24.1037 5.03536 24.1037 6.96919V10.3538H20.759C11.2122 10.3538 3.44531 18.1207 3.44531 27.6673V75.7904C3.44531 85.3372 11.2122 93.104 20.759 93.104H75.8081C85.3547 93.104 93.1215 85.3372 93.1215 75.7904V27.6673C93.1215 18.1207 85.3547 10.3538 75.8079 10.3538V10.3538ZM20.759 17.3567H24.1037V24.1844C24.1037 26.1183 25.6713 27.6858 27.6051 27.6858C29.5389 27.6858 31.1065 26.1183 31.1065 24.1844V17.3567H65.4603V24.1844C65.4603 26.1183 67.0279 27.6858 68.9618 27.6858C70.8956 27.6858 72.4632 26.1183 72.4632 24.1844V17.3567H75.8081C81.4933 17.3567 86.1187 21.982 86.1187 27.6673V31.0122H10.4481V27.6673C10.4481 21.982 15.0735 17.3567 20.759 17.3567V17.3567ZM75.8079 86.1012H20.759C15.0735 86.1012 10.4481 81.4758 10.4481 75.7904V38.015H86.1187V75.7904C86.1187 81.4758 81.4933 86.1012 75.8079 86.1012V86.1012ZM34.5496 51.7873C34.5496 53.7212 32.9821 55.2887 31.0482 55.2887H24.1622C22.2283 55.2887 20.6607 53.7212 20.6607 51.7873C20.6607 49.8535 22.2283 48.2859 24.1622 48.2859H31.0482C32.9819 48.2859 34.5496 49.8535 34.5496 51.7873ZM75.9063 51.7873C75.9063 53.7212 74.3387 55.2887 72.4049 55.2887H65.5188C63.585 55.2887 62.0174 53.7212 62.0174 51.7873C62.0174 49.8535 63.585 48.2859 65.5188 48.2859H72.4049C74.3385 48.2859 75.9063 49.8535 75.9063 51.7873V51.7873ZM55.208 51.7873C55.208 53.7212 53.6404 55.2887 51.7066 55.2887H44.8205C42.8867 55.2887 41.3191 53.7212 41.3191 51.7873C41.3191 49.8535 42.8867 48.2859 44.8205 48.2859H51.7066C53.6402 48.2859 55.208 49.8535 55.208 51.7873ZM34.5496 72.4457C34.5496 74.3795 32.9821 75.9471 31.0482 75.9471H24.1622C22.2283 75.9471 20.6607 74.3795 20.6607 72.4457C20.6607 70.5119 22.2283 68.9443 24.1622 68.9443H31.0482C32.9819 68.9443 34.5496 70.5119 34.5496 72.4457ZM75.9063 72.4457C75.9063 74.3795 74.3387 75.9471 72.4049 75.9471H65.5188C63.585 75.9471 62.0174 74.3795 62.0174 72.4457C62.0174 70.5119 63.585 68.9443 65.5188 68.9443H72.4049C74.3385 68.9443 75.9063 70.5119 75.9063 72.4457V72.4457ZM55.208 72.4457C55.208 74.3795 53.6404 75.9471 51.7066 75.9471H44.8205C42.8867 75.9471 41.3191 74.3795 41.3191 72.4457C41.3191 70.5119 42.8867 68.9443 44.8205 68.9443H51.7066C53.6402 68.9443 55.208 70.5119 55.208 72.4457Z" fill="#5C3EBB"/>
</svg>
