<svg width="266" height="232" viewBox="0 0 266 232" fill="none" xmlns="http://www.w3.org/2000/svg">
<g style="mix-blend-mode:multiply" opacity="0.8">
<path d="M107.015 7.74148C114.741 2.69016 123.773 0 133.004 0C142.235 0 151.266 2.69016 158.993 7.74148L261.694 74.8794C263.155 75.8333 264.325 77.1712 265.076 78.7463C265.827 80.3213 266.129 82.0727 265.95 83.8083C265.977 84.1115 265.99 84.4158 265.988 84.7202V160.711C265.988 163.23 264.987 165.646 263.206 167.428C261.424 169.209 259.008 170.21 256.489 170.21C253.97 170.21 251.554 169.209 249.772 167.428C247.991 165.646 246.99 163.23 246.99 160.711V100.754L227.992 113.616V183.527C227.992 185.807 227.175 187.992 225.713 189.702L225.675 189.759L225.561 189.892L225.181 190.309L223.889 191.715C222.768 192.893 221.153 194.527 219.063 196.465C214.884 200.321 208.748 205.413 200.845 210.523C185.077 220.687 161.918 231.041 133.004 231.041C104.089 231.041 80.9501 220.687 65.163 210.523C57.2599 205.413 51.1237 200.321 46.9442 196.465C44.82 194.499 42.7792 192.446 40.8269 190.309L40.4469 189.892L40.3329 189.759L40.295 189.721L40.276 189.683C38.8199 187.969 38.0188 185.795 38.0152 183.546V113.597L4.19931 90.7045C2.83513 89.8982 1.72188 88.7287 0.983845 87.3265C0.245814 85.9242 -0.0879517 84.3444 0.0198055 82.7634C0.0320441 81.1954 0.432267 79.6549 1.18475 78.2792C1.93724 76.9035 3.01858 75.7355 4.33229 74.8794L107.015 7.74148ZM57.0129 126.439V179.766C62.6411 185.309 68.8223 190.262 75.4597 194.546C89.1381 203.342 108.725 212.024 133.004 212.024C157.283 212.024 176.889 203.342 190.548 194.546C197.186 190.256 203.367 185.297 208.995 179.747V126.458L159.62 159.875C151.762 165.192 142.491 168.034 133.004 168.034C123.516 168.034 114.246 165.192 106.388 159.875L57.0129 126.439ZM218.494 183.527L225.713 189.683L218.494 183.508V183.527ZM148.601 23.6426C143.964 20.6102 138.544 18.9952 133.004 18.9952C127.464 18.9952 122.043 20.6102 117.407 23.6426L26.6736 82.8204L117.027 144.145C121.743 147.338 127.308 149.045 133.004 149.045C138.7 149.045 144.265 147.338 148.981 144.145L239.353 82.9724L148.582 23.6426H148.601Z" fill="#F2F4F7"/>
</g>
</svg>
