<svg width="40" height="40" viewBox="0 0 40 40" fill="none" xmlns="http://www.w3.org/2000/svg">
<path d="M20.2521 0.00200325C9.23823 -0.152578 0.156584 8.65855 0.00200322 19.6724C-0.152578 30.6864 8.65855 39.768 19.7111 39.9226H36.2899C38.7246 39.9226 39.9999 38.6859 39.9999 36.4059V20.0975C40.0385 9.16093 31.266 0.156584 20.2521 0.00200325ZM19.7111 35.2851C11.2864 35.1692 4.56215 28.2517 4.67808 19.827C4.79402 11.4024 11.7115 4.67808 20.1362 4.79402C28.5609 4.90995 35.2851 11.8275 35.1692 20.2521C35.0533 28.6768 28.1358 35.4011 19.7111 35.2851Z" fill="#56A3D9"/>
<path d="M14.5717 17.4702C15.0741 16.3881 15.9243 15.4606 17.045 14.8423C18.1271 14.2626 19.3251 14.0307 20.4458 14.1467L22.0689 8.19529C19.441 7.73155 16.6199 8.07936 14.108 9.50923C11.4801 10.9778 9.62511 13.2578 8.65898 15.8471L14.5717 17.4702ZM17.3542 25.4311C16.2721 24.9287 15.306 24.0785 14.6876 22.9578C14.108 21.8757 13.8761 20.6777 13.992 19.557L8.04066 17.9339C7.53827 20.5618 7.92472 23.3829 9.3546 25.9335C10.8231 28.5227 13.1418 30.3777 15.7311 31.3438L17.3542 25.4311Z" fill="#56A3D9"/>
<path d="M25.2765 22.6094C24.7741 23.6914 23.9239 24.6576 22.8032 25.2759C21.7211 25.8556 20.5618 26.0875 19.441 25.9715L17.7793 31.9229C20.4072 32.3866 23.2283 32.0002 25.7402 30.6089C28.3681 29.1404 30.2231 26.8604 31.1892 24.2325L25.2765 22.6094Z" fill="#F1626E"/>
</svg>
