<svg width="22" height="22" viewBox="0 0 22 22" fill="none" xmlns="http://www.w3.org/2000/svg">
<path d="M18.3338 11C18.9791 10.9905 19.5954 10.7299 20.0518 10.2735C20.5082 9.81714 20.7687 9.20087 20.7782 8.55551V3.66662H14.6671V2.70718C14.6663 2.51136 14.6269 2.31762 14.5513 2.13702C14.4756 1.95642 14.3651 1.79249 14.226 1.65459C14.087 1.5167 13.9222 1.40754 13.741 1.33334C13.5598 1.25915 13.3657 1.22138 13.1699 1.22218H8.83099C8.63517 1.22138 8.44112 1.25915 8.2599 1.33334C8.07868 1.40754 7.91385 1.5167 7.77482 1.65459C7.63579 1.79249 7.52528 1.95642 7.44961 2.13702C7.37393 2.31762 7.33457 2.51136 7.33377 2.70718V3.66662H1.22266V8.55551C1.23227 9.20611 1.49707 9.8269 1.96002 10.2841C2.42296 10.7414 3.04699 10.9984 3.69766 11H6.1421V9.72885H7.36432V13.2122C7.36432 13.3743 7.29994 13.5297 7.18533 13.6443C7.07073 13.7589 6.91529 13.8233 6.75321 13.8233C6.59113 13.8233 6.4357 13.7589 6.32109 13.6443C6.20649 13.5297 6.1421 13.3743 6.1421 13.2122V12.2588H3.70377C2.78645 12.2574 1.90232 11.9155 1.22266 11.2994V17.0744C1.22266 17.3986 1.35143 17.7094 1.58064 17.9386C1.80985 18.1679 2.12072 18.2966 2.44488 18.2966H19.556C19.8801 18.2966 20.191 18.1679 20.4202 17.9386C20.6494 17.7094 20.7782 17.3986 20.7782 17.0744V11.2994C20.1004 11.9185 19.2151 12.2609 18.2971 12.2588H17.1115V11H18.3338ZM8.55599 2.70718C8.55914 2.63638 8.5895 2.56954 8.64073 2.52058C8.69197 2.47162 8.76012 2.44433 8.83099 2.4444H13.1699C13.2407 2.44433 13.3089 2.47162 13.3601 2.52058C13.4114 2.56954 13.4417 2.63638 13.4449 2.70718V3.66662H8.55599V2.70718ZM15.8893 13.2122C15.8893 13.3743 15.8249 13.5297 15.7103 13.6443C15.5957 13.7589 15.4403 13.8233 15.2782 13.8233C15.1161 13.8233 14.9607 13.7589 14.8461 13.6443C14.7315 13.5297 14.6671 13.3743 14.6671 13.2122V12.2588H8.55599V11H14.6671V9.72885H15.8893V13.2122Z" fill="white"/>
</svg>
