<svg width="97" height="97" viewBox="0 0 97 97" fill="none" xmlns="http://www.w3.org/2000/svg">
<path d="M81.2067 1.72412H15.3625C13.058 1.72412 12.0703 3.69945 12.0703 5.01633V81.0664C12.0703 83.3709 14.0456 84.0293 14.7041 84.3586L61.1242 94.2352C63.758 94.2352 64.4164 91.9306 64.4164 90.943V84.6878H81.2067C83.182 84.6878 84.4989 83.3709 84.4989 81.3956V5.01633C84.4989 3.041 83.182 1.72412 81.2067 1.72412V1.72412ZM57.832 86.6631L18.6547 78.4326V9.2962L57.832 16.8683V86.6631ZM77.9145 77.7741H64.4164V13.9053C64.4164 12.2592 63.4288 10.9423 61.7827 10.6131L49.9307 8.30854H77.9145V77.7741Z" fill="#5C3EBB"/>
<path d="M48.2844 57.6917C50.2597 57.6917 51.5766 56.0456 51.5766 54.3995V41.2307C51.5766 39.2554 50.2597 37.9385 48.2844 37.9385C46.3091 37.9385 44.9922 39.5846 44.9922 41.2307V54.3995C44.9922 56.0456 46.6383 57.6917 48.2844 57.6917Z" fill="#5C3EBB"/>
</svg>
