<svg width="502" height="242" viewBox="0 0 502 242" fill="none" xmlns="http://www.w3.org/2000/svg">
<g style="mix-blend-mode:multiply">
<path d="M262.381 4.76239C263.696 4.76239 264.762 3.6963 264.762 2.3812C264.762 1.0661 263.696 0 262.381 0C261.066 0 260 1.0661 260 2.3812C260 3.6963 261.066 4.76239 262.381 4.76239Z" fill="#666666" fill-opacity="0.12"/>
<path d="M286.104 4.76239C287.419 4.76239 288.485 3.6963 288.485 2.3812C288.485 1.0661 287.419 0 286.104 0C284.789 0 283.723 1.0661 283.723 2.3812C283.723 3.6963 284.789 4.76239 286.104 4.76239Z" fill="#666666" fill-opacity="0.12"/>
<path d="M309.83 4.76239C311.146 4.76239 312.212 3.6963 312.212 2.3812C312.212 1.0661 311.146 0 309.83 0C308.515 0 307.449 1.0661 307.449 2.3812C307.449 3.6963 308.515 4.76239 309.83 4.76239Z" fill="#666666" fill-opacity="0.12"/>
<path d="M333.553 4.76239C334.868 4.76239 335.934 3.6963 335.934 2.3812C335.934 1.0661 334.868 0 333.553 0C332.238 0 331.172 1.0661 331.172 2.3812C331.172 3.6963 332.238 4.76239 333.553 4.76239Z" fill="#666666" fill-opacity="0.12"/>
<path d="M357.276 4.76239C358.591 4.76239 359.657 3.6963 359.657 2.3812C359.657 1.0661 358.591 0 357.276 0C355.961 0 354.895 1.0661 354.895 2.3812C354.895 3.6963 355.961 4.76239 357.276 4.76239Z" fill="#666666" fill-opacity="0.12"/>
<path d="M380.998 4.76239C382.313 4.76239 383.38 3.6963 383.38 2.3812C383.38 1.0661 382.313 0 380.998 0C379.683 0 378.617 1.0661 378.617 2.3812C378.617 3.6963 379.683 4.76239 380.998 4.76239Z" fill="#666666" fill-opacity="0.12"/>
<path d="M404.725 4.76239C406.04 4.76239 407.106 3.6963 407.106 2.3812C407.106 1.0661 406.04 0 404.725 0C403.41 0 402.344 1.0661 402.344 2.3812C402.344 3.6963 403.41 4.76239 404.725 4.76239Z" fill="#666666" fill-opacity="0.12"/>
<path d="M428.448 4.76239C429.763 4.76239 430.829 3.6963 430.829 2.3812C430.829 1.0661 429.763 0 428.448 0C427.133 0 426.066 1.0661 426.066 2.3812C426.066 3.6963 427.133 4.76239 428.448 4.76239Z" fill="#666666" fill-opacity="0.12"/>
<path d="M452.17 4.76239C453.485 4.76239 454.551 3.6963 454.551 2.3812C454.551 1.0661 453.485 0 452.17 0C450.855 0 449.789 1.0661 449.789 2.3812C449.789 3.6963 450.855 4.76239 452.17 4.76239Z" fill="#666666" fill-opacity="0.12"/>
<path d="M475.897 4.76239C477.212 4.76239 478.278 3.6963 478.278 2.3812C478.278 1.0661 477.212 0 475.897 0C474.582 0 473.516 1.0661 473.516 2.3812C473.516 3.6963 474.582 4.76239 475.897 4.76239Z" fill="#666666" fill-opacity="0.12"/>
<path d="M499.619 4.76239C500.935 4.76239 502.001 3.6963 502.001 2.3812C502.001 1.0661 500.935 0 499.619 0C498.304 0 497.238 1.0661 497.238 2.3812C497.238 3.6963 498.304 4.76239 499.619 4.76239Z" fill="#666666" fill-opacity="0.12"/>
<path d="M262.381 28.486C263.696 28.486 264.762 27.4199 264.762 26.1048C264.762 24.7897 263.696 23.7236 262.381 23.7236C261.066 23.7236 260 24.7897 260 26.1048C260 27.4199 261.066 28.486 262.381 28.486Z" fill="#666666" fill-opacity="0.12"/>
<path d="M286.104 28.486C287.419 28.486 288.485 27.4199 288.485 26.1048C288.485 24.7897 287.419 23.7236 286.104 23.7236C284.789 23.7236 283.723 24.7897 283.723 26.1048C283.723 27.4199 284.789 28.486 286.104 28.486Z" fill="#666666" fill-opacity="0.12"/>
<path d="M309.83 28.486C311.146 28.486 312.212 27.4199 312.212 26.1048C312.212 24.7897 311.146 23.7236 309.83 23.7236C308.515 23.7236 307.449 24.7897 307.449 26.1048C307.449 27.4199 308.515 28.486 309.83 28.486Z" fill="#666666" fill-opacity="0.12"/>
<path d="M333.553 28.486C334.868 28.486 335.934 27.4199 335.934 26.1048C335.934 24.7897 334.868 23.7236 333.553 23.7236C332.238 23.7236 331.172 24.7897 331.172 26.1048C331.172 27.4199 332.238 28.486 333.553 28.486Z" fill="#666666" fill-opacity="0.12"/>
<path d="M357.276 28.486C358.591 28.486 359.657 27.4199 359.657 26.1048C359.657 24.7897 358.591 23.7236 357.276 23.7236C355.961 23.7236 354.895 24.7897 354.895 26.1048C354.895 27.4199 355.961 28.486 357.276 28.486Z" fill="#666666" fill-opacity="0.12"/>
<path d="M380.998 28.486C382.313 28.486 383.38 27.4199 383.38 26.1048C383.38 24.7897 382.313 23.7236 380.998 23.7236C379.683 23.7236 378.617 24.7897 378.617 26.1048C378.617 27.4199 379.683 28.486 380.998 28.486Z" fill="#666666" fill-opacity="0.12"/>
<path d="M404.725 28.486C406.04 28.486 407.106 27.4199 407.106 26.1048C407.106 24.7897 406.04 23.7236 404.725 23.7236C403.41 23.7236 402.344 24.7897 402.344 26.1048C402.344 27.4199 403.41 28.486 404.725 28.486Z" fill="#666666" fill-opacity="0.12"/>
<path d="M428.448 28.486C429.763 28.486 430.829 27.4199 430.829 26.1048C430.829 24.7897 429.763 23.7236 428.448 23.7236C427.133 23.7236 426.066 24.7897 426.066 26.1048C426.066 27.4199 427.133 28.486 428.448 28.486Z" fill="#666666" fill-opacity="0.12"/>
<path d="M452.17 28.486C453.485 28.486 454.551 27.4199 454.551 26.1048C454.551 24.7897 453.485 23.7236 452.17 23.7236C450.855 23.7236 449.789 24.7897 449.789 26.1048C449.789 27.4199 450.855 28.486 452.17 28.486Z" fill="#666666" fill-opacity="0.12"/>
<path d="M475.897 28.486C477.212 28.486 478.278 27.4199 478.278 26.1048C478.278 24.7897 477.212 23.7236 475.897 23.7236C474.582 23.7236 473.516 24.7897 473.516 26.1048C473.516 27.4199 474.582 28.486 475.897 28.486Z" fill="#666666" fill-opacity="0.12"/>
<path d="M499.619 28.486C500.935 28.486 502.001 27.4199 502.001 26.1048C502.001 24.7897 500.935 23.7236 499.619 23.7236C498.304 23.7236 497.238 24.7897 497.238 26.1048C497.238 27.4199 498.304 28.486 499.619 28.486Z" fill="#666666" fill-opacity="0.12"/>
<path d="M262.381 52.2097C263.696 52.2097 264.762 51.1436 264.762 49.8285C264.762 48.5134 263.696 47.4473 262.381 47.4473C261.066 47.4473 260 48.5134 260 49.8285C260 51.1436 261.066 52.2097 262.381 52.2097Z" fill="#666666" fill-opacity="0.12"/>
<path d="M286.104 52.2097C287.419 52.2097 288.485 51.1436 288.485 49.8285C288.485 48.5134 287.419 47.4473 286.104 47.4473C284.789 47.4473 283.723 48.5134 283.723 49.8285C283.723 51.1436 284.789 52.2097 286.104 52.2097Z" fill="#666666" fill-opacity="0.12"/>
<path d="M309.83 52.2097C311.146 52.2097 312.212 51.1436 312.212 49.8285C312.212 48.5134 311.146 47.4473 309.83 47.4473C308.515 47.4473 307.449 48.5134 307.449 49.8285C307.449 51.1436 308.515 52.2097 309.83 52.2097Z" fill="#666666" fill-opacity="0.12"/>
<path d="M333.553 52.2097C334.868 52.2097 335.934 51.1436 335.934 49.8285C335.934 48.5134 334.868 47.4473 333.553 47.4473C332.238 47.4473 331.172 48.5134 331.172 49.8285C331.172 51.1436 332.238 52.2097 333.553 52.2097Z" fill="#666666" fill-opacity="0.12"/>
<path d="M357.276 52.2097C358.591 52.2097 359.657 51.1436 359.657 49.8285C359.657 48.5134 358.591 47.4473 357.276 47.4473C355.961 47.4473 354.895 48.5134 354.895 49.8285C354.895 51.1436 355.961 52.2097 357.276 52.2097Z" fill="#666666" fill-opacity="0.12"/>
<path d="M380.998 52.2097C382.313 52.2097 383.38 51.1436 383.38 49.8285C383.38 48.5134 382.313 47.4473 380.998 47.4473C379.683 47.4473 378.617 48.5134 378.617 49.8285C378.617 51.1436 379.683 52.2097 380.998 52.2097Z" fill="#666666" fill-opacity="0.12"/>
<path d="M404.725 52.2097C406.04 52.2097 407.106 51.1436 407.106 49.8285C407.106 48.5134 406.04 47.4473 404.725 47.4473C403.41 47.4473 402.344 48.5134 402.344 49.8285C402.344 51.1436 403.41 52.2097 404.725 52.2097Z" fill="#666666" fill-opacity="0.12"/>
<path d="M428.448 52.2097C429.763 52.2097 430.829 51.1436 430.829 49.8285C430.829 48.5134 429.763 47.4473 428.448 47.4473C427.133 47.4473 426.066 48.5134 426.066 49.8285C426.066 51.1436 427.133 52.2097 428.448 52.2097Z" fill="#666666" fill-opacity="0.12"/>
<path d="M452.17 52.2097C453.485 52.2097 454.551 51.1436 454.551 49.8285C454.551 48.5134 453.485 47.4473 452.17 47.4473C450.855 47.4473 449.789 48.5134 449.789 49.8285C449.789 51.1436 450.855 52.2097 452.17 52.2097Z" fill="#666666" fill-opacity="0.12"/>
<path d="M475.897 52.2097C477.212 52.2097 478.278 51.1436 478.278 49.8285C478.278 48.5134 477.212 47.4473 475.897 47.4473C474.582 47.4473 473.516 48.5134 473.516 49.8285C473.516 51.1436 474.582 52.2097 475.897 52.2097Z" fill="#666666" fill-opacity="0.12"/>
<path d="M499.619 52.2097C500.935 52.2097 502.001 51.1436 502.001 49.8285C502.001 48.5134 500.935 47.4473 499.619 47.4473C498.304 47.4473 497.238 48.5134 497.238 49.8285C497.238 51.1436 498.304 52.2097 499.619 52.2097Z" fill="#666666" fill-opacity="0.12"/>
<path d="M262.381 75.9338C263.696 75.9338 264.762 74.8677 264.762 73.5526C264.762 72.2375 263.696 71.1714 262.381 71.1714C261.066 71.1714 260 72.2375 260 73.5526C260 74.8677 261.066 75.9338 262.381 75.9338Z" fill="#666666" fill-opacity="0.12"/>
<path d="M286.104 75.9338C287.419 75.9338 288.485 74.8677 288.485 73.5526C288.485 72.2375 287.419 71.1714 286.104 71.1714C284.789 71.1714 283.723 72.2375 283.723 73.5526C283.723 74.8677 284.789 75.9338 286.104 75.9338Z" fill="#666666" fill-opacity="0.12"/>
<path d="M309.83 75.9338C311.146 75.9338 312.212 74.8677 312.212 73.5526C312.212 72.2375 311.146 71.1714 309.83 71.1714C308.515 71.1714 307.449 72.2375 307.449 73.5526C307.449 74.8677 308.515 75.9338 309.83 75.9338Z" fill="#666666" fill-opacity="0.12"/>
<path d="M333.553 75.9338C334.868 75.9338 335.934 74.8677 335.934 73.5526C335.934 72.2375 334.868 71.1714 333.553 71.1714C332.238 71.1714 331.172 72.2375 331.172 73.5526C331.172 74.8677 332.238 75.9338 333.553 75.9338Z" fill="#666666" fill-opacity="0.12"/>
<path d="M357.276 75.9338C358.591 75.9338 359.657 74.8677 359.657 73.5526C359.657 72.2375 358.591 71.1714 357.276 71.1714C355.961 71.1714 354.895 72.2375 354.895 73.5526C354.895 74.8677 355.961 75.9338 357.276 75.9338Z" fill="#666666" fill-opacity="0.12"/>
<path d="M380.998 75.9338C382.313 75.9338 383.38 74.8677 383.38 73.5526C383.38 72.2375 382.313 71.1714 380.998 71.1714C379.683 71.1714 378.617 72.2375 378.617 73.5526C378.617 74.8677 379.683 75.9338 380.998 75.9338Z" fill="#666666" fill-opacity="0.12"/>
<path d="M404.725 75.9338C406.04 75.9338 407.106 74.8677 407.106 73.5526C407.106 72.2375 406.04 71.1714 404.725 71.1714C403.41 71.1714 402.344 72.2375 402.344 73.5526C402.344 74.8677 403.41 75.9338 404.725 75.9338Z" fill="#666666" fill-opacity="0.12"/>
<path d="M428.448 75.9338C429.763 75.9338 430.829 74.8677 430.829 73.5526C430.829 72.2375 429.763 71.1714 428.448 71.1714C427.133 71.1714 426.066 72.2375 426.066 73.5526C426.066 74.8677 427.133 75.9338 428.448 75.9338Z" fill="#666666" fill-opacity="0.12"/>
<path d="M452.17 75.9338C453.485 75.9338 454.551 74.8677 454.551 73.5526C454.551 72.2375 453.485 71.1714 452.17 71.1714C450.855 71.1714 449.789 72.2375 449.789 73.5526C449.789 74.8677 450.855 75.9338 452.17 75.9338Z" fill="#666666" fill-opacity="0.12"/>
<path d="M475.897 75.9338C477.212 75.9338 478.278 74.8677 478.278 73.5526C478.278 72.2375 477.212 71.1714 475.897 71.1714C474.582 71.1714 473.516 72.2375 473.516 73.5526C473.516 74.8677 474.582 75.9338 475.897 75.9338Z" fill="#666666" fill-opacity="0.12"/>
<path d="M499.619 75.9338C500.935 75.9338 502.001 74.8677 502.001 73.5526C502.001 72.2375 500.935 71.1714 499.619 71.1714C498.304 71.1714 497.238 72.2375 497.238 73.5526C497.238 74.8677 498.304 75.9338 499.619 75.9338Z" fill="#666666" fill-opacity="0.12"/>
<path d="M262.381 99.6574C263.696 99.6574 264.762 98.5913 264.762 97.2762C264.762 95.9611 263.696 94.895 262.381 94.895C261.066 94.895 260 95.9611 260 97.2762C260 98.5913 261.066 99.6574 262.381 99.6574Z" fill="#666666" fill-opacity="0.12"/>
<path d="M286.104 99.6574C287.419 99.6574 288.485 98.5913 288.485 97.2762C288.485 95.9611 287.419 94.895 286.104 94.895C284.789 94.895 283.723 95.9611 283.723 97.2762C283.723 98.5913 284.789 99.6574 286.104 99.6574Z" fill="#666666" fill-opacity="0.12"/>
<path d="M309.83 99.6574C311.146 99.6574 312.212 98.5913 312.212 97.2762C312.212 95.9611 311.146 94.895 309.83 94.895C308.515 94.895 307.449 95.9611 307.449 97.2762C307.449 98.5913 308.515 99.6574 309.83 99.6574Z" fill="#666666" fill-opacity="0.12"/>
<path d="M333.553 99.6574C334.868 99.6574 335.934 98.5913 335.934 97.2762C335.934 95.9611 334.868 94.895 333.553 94.895C332.238 94.895 331.172 95.9611 331.172 97.2762C331.172 98.5913 332.238 99.6574 333.553 99.6574Z" fill="#666666" fill-opacity="0.12"/>
<path d="M357.276 99.6574C358.591 99.6574 359.657 98.5913 359.657 97.2762C359.657 95.9611 358.591 94.895 357.276 94.895C355.961 94.895 354.895 95.9611 354.895 97.2762C354.895 98.5913 355.961 99.6574 357.276 99.6574Z" fill="#666666" fill-opacity="0.12"/>
<path d="M380.998 99.6574C382.313 99.6574 383.38 98.5913 383.38 97.2762C383.38 95.9611 382.313 94.895 380.998 94.895C379.683 94.895 378.617 95.9611 378.617 97.2762C378.617 98.5913 379.683 99.6574 380.998 99.6574Z" fill="#666666" fill-opacity="0.12"/>
<path d="M404.725 99.6574C406.04 99.6574 407.106 98.5913 407.106 97.2762C407.106 95.9611 406.04 94.895 404.725 94.895C403.41 94.895 402.344 95.9611 402.344 97.2762C402.344 98.5913 403.41 99.6574 404.725 99.6574Z" fill="#666666" fill-opacity="0.12"/>
<path d="M428.448 99.6574C429.763 99.6574 430.829 98.5913 430.829 97.2762C430.829 95.9611 429.763 94.895 428.448 94.895C427.133 94.895 426.066 95.9611 426.066 97.2762C426.066 98.5913 427.133 99.6574 428.448 99.6574Z" fill="#666666" fill-opacity="0.12"/>
<path d="M452.17 99.6574C453.485 99.6574 454.551 98.5913 454.551 97.2762C454.551 95.9611 453.485 94.895 452.17 94.895C450.855 94.895 449.789 95.9611 449.789 97.2762C449.789 98.5913 450.855 99.6574 452.17 99.6574Z" fill="#666666" fill-opacity="0.12"/>
<path d="M475.897 99.6574C477.212 99.6574 478.278 98.5913 478.278 97.2762C478.278 95.9611 477.212 94.895 475.897 94.895C474.582 94.895 473.516 95.9611 473.516 97.2762C473.516 98.5913 474.582 99.6574 475.897 99.6574Z" fill="#666666" fill-opacity="0.12"/>
<path d="M499.619 99.6574C500.935 99.6574 502.001 98.5913 502.001 97.2762C502.001 95.9611 500.935 94.895 499.619 94.895C498.304 94.895 497.238 95.9611 497.238 97.2762C497.238 98.5913 498.304 99.6574 499.619 99.6574Z" fill="#666666" fill-opacity="0.12"/>
<path d="M262.381 123.381C263.696 123.381 264.762 122.315 264.762 121C264.762 119.685 263.696 118.619 262.381 118.619C261.066 118.619 260 119.685 260 121C260 122.315 261.066 123.381 262.381 123.381Z" fill="#666666" fill-opacity="0.12"/>
<path d="M286.104 123.381C287.419 123.381 288.485 122.315 288.485 121C288.485 119.685 287.419 118.619 286.104 118.619C284.789 118.619 283.723 119.685 283.723 121C283.723 122.315 284.789 123.381 286.104 123.381Z" fill="#666666" fill-opacity="0.12"/>
<path d="M309.83 123.381C311.146 123.381 312.212 122.315 312.212 121C312.212 119.685 311.146 118.619 309.83 118.619C308.515 118.619 307.449 119.685 307.449 121C307.449 122.315 308.515 123.381 309.83 123.381Z" fill="#666666" fill-opacity="0.12"/>
<path d="M333.553 123.381C334.868 123.381 335.934 122.315 335.934 121C335.934 119.685 334.868 118.619 333.553 118.619C332.238 118.619 331.172 119.685 331.172 121C331.172 122.315 332.238 123.381 333.553 123.381Z" fill="#666666" fill-opacity="0.12"/>
<path d="M357.276 123.381C358.591 123.381 359.657 122.315 359.657 121C359.657 119.685 358.591 118.619 357.276 118.619C355.961 118.619 354.895 119.685 354.895 121C354.895 122.315 355.961 123.381 357.276 123.381Z" fill="#666666" fill-opacity="0.12"/>
<path d="M380.998 123.381C382.313 123.381 383.38 122.315 383.38 121C383.38 119.685 382.313 118.619 380.998 118.619C379.683 118.619 378.617 119.685 378.617 121C378.617 122.315 379.683 123.381 380.998 123.381Z" fill="#666666" fill-opacity="0.12"/>
<path d="M404.725 123.381C406.04 123.381 407.106 122.315 407.106 121C407.106 119.685 406.04 118.619 404.725 118.619C403.41 118.619 402.344 119.685 402.344 121C402.344 122.315 403.41 123.381 404.725 123.381Z" fill="#666666" fill-opacity="0.12"/>
<path d="M428.448 123.381C429.763 123.381 430.829 122.315 430.829 121C430.829 119.685 429.763 118.619 428.448 118.619C427.133 118.619 426.066 119.685 426.066 121C426.066 122.315 427.133 123.381 428.448 123.381Z" fill="#666666" fill-opacity="0.12"/>
<path d="M452.17 123.381C453.485 123.381 454.551 122.315 454.551 121C454.551 119.685 453.485 118.619 452.17 118.619C450.855 118.619 449.789 119.685 449.789 121C449.789 122.315 450.855 123.381 452.17 123.381Z" fill="#666666" fill-opacity="0.12"/>
<path d="M475.897 123.381C477.212 123.381 478.278 122.315 478.278 121C478.278 119.685 477.212 118.619 475.897 118.619C474.582 118.619 473.516 119.685 473.516 121C473.516 122.315 474.582 123.381 475.897 123.381Z" fill="#666666" fill-opacity="0.12"/>
<path d="M499.619 123.381C500.935 123.381 502.001 122.315 502.001 121C502.001 119.685 500.935 118.619 499.619 118.619C498.304 118.619 497.238 119.685 497.238 121C497.238 122.315 498.304 123.381 499.619 123.381Z" fill="#666666" fill-opacity="0.12"/>
<path d="M262.381 147.105C263.696 147.105 264.762 146.039 264.762 144.724C264.762 143.409 263.696 142.343 262.381 142.343C261.066 142.343 260 143.409 260 144.724C260 146.039 261.066 147.105 262.381 147.105Z" fill="#666666" fill-opacity="0.12"/>
<path d="M286.104 147.105C287.419 147.105 288.485 146.039 288.485 144.724C288.485 143.409 287.419 142.343 286.104 142.343C284.789 142.343 283.723 143.409 283.723 144.724C283.723 146.039 284.789 147.105 286.104 147.105Z" fill="#666666" fill-opacity="0.12"/>
<path d="M309.83 147.105C311.146 147.105 312.212 146.039 312.212 144.724C312.212 143.409 311.146 142.343 309.83 142.343C308.515 142.343 307.449 143.409 307.449 144.724C307.449 146.039 308.515 147.105 309.83 147.105Z" fill="#666666" fill-opacity="0.12"/>
<path d="M333.553 147.105C334.868 147.105 335.934 146.039 335.934 144.724C335.934 143.409 334.868 142.343 333.553 142.343C332.238 142.343 331.172 143.409 331.172 144.724C331.172 146.039 332.238 147.105 333.553 147.105Z" fill="#666666" fill-opacity="0.12"/>
<path d="M357.276 147.105C358.591 147.105 359.657 146.039 359.657 144.724C359.657 143.409 358.591 142.343 357.276 142.343C355.961 142.343 354.895 143.409 354.895 144.724C354.895 146.039 355.961 147.105 357.276 147.105Z" fill="#666666" fill-opacity="0.12"/>
<path d="M380.998 147.105C382.313 147.105 383.38 146.039 383.38 144.724C383.38 143.409 382.313 142.343 380.998 142.343C379.683 142.343 378.617 143.409 378.617 144.724C378.617 146.039 379.683 147.105 380.998 147.105Z" fill="#666666" fill-opacity="0.12"/>
<path d="M404.725 147.105C406.04 147.105 407.106 146.039 407.106 144.724C407.106 143.409 406.04 142.343 404.725 142.343C403.41 142.343 402.344 143.409 402.344 144.724C402.344 146.039 403.41 147.105 404.725 147.105Z" fill="#666666" fill-opacity="0.12"/>
<path d="M428.448 147.105C429.763 147.105 430.829 146.039 430.829 144.724C430.829 143.409 429.763 142.343 428.448 142.343C427.133 142.343 426.066 143.409 426.066 144.724C426.066 146.039 427.133 147.105 428.448 147.105Z" fill="#666666" fill-opacity="0.12"/>
<path d="M452.17 147.105C453.485 147.105 454.551 146.039 454.551 144.724C454.551 143.409 453.485 142.343 452.17 142.343C450.855 142.343 449.789 143.409 449.789 144.724C449.789 146.039 450.855 147.105 452.17 147.105Z" fill="#666666" fill-opacity="0.12"/>
<path d="M475.897 147.105C477.212 147.105 478.278 146.039 478.278 144.724C478.278 143.409 477.212 142.343 475.897 142.343C474.582 142.343 473.516 143.409 473.516 144.724C473.516 146.039 474.582 147.105 475.897 147.105Z" fill="#666666" fill-opacity="0.12"/>
<path d="M499.619 147.105C500.935 147.105 502.001 146.039 502.001 144.724C502.001 143.409 500.935 142.343 499.619 142.343C498.304 142.343 497.238 143.409 497.238 144.724C497.238 146.039 498.304 147.105 499.619 147.105Z" fill="#666666" fill-opacity="0.12"/>
<path d="M262.381 170.829C263.696 170.829 264.762 169.763 264.762 168.448C264.762 167.133 263.696 166.066 262.381 166.066C261.066 166.066 260 167.133 260 168.448C260 169.763 261.066 170.829 262.381 170.829Z" fill="#666666" fill-opacity="0.12"/>
<path d="M286.104 170.829C287.419 170.829 288.485 169.763 288.485 168.448C288.485 167.133 287.419 166.066 286.104 166.066C284.789 166.066 283.723 167.133 283.723 168.448C283.723 169.763 284.789 170.829 286.104 170.829Z" fill="#666666" fill-opacity="0.12"/>
<path d="M309.83 170.829C311.146 170.829 312.212 169.763 312.212 168.448C312.212 167.133 311.146 166.066 309.83 166.066C308.515 166.066 307.449 167.133 307.449 168.448C307.449 169.763 308.515 170.829 309.83 170.829Z" fill="#666666" fill-opacity="0.12"/>
<path d="M333.553 170.829C334.868 170.829 335.934 169.763 335.934 168.448C335.934 167.133 334.868 166.066 333.553 166.066C332.238 166.066 331.172 167.133 331.172 168.448C331.172 169.763 332.238 170.829 333.553 170.829Z" fill="#666666" fill-opacity="0.12"/>
<path d="M357.276 170.829C358.591 170.829 359.657 169.763 359.657 168.448C359.657 167.133 358.591 166.066 357.276 166.066C355.961 166.066 354.895 167.133 354.895 168.448C354.895 169.763 355.961 170.829 357.276 170.829Z" fill="#666666" fill-opacity="0.12"/>
<path d="M380.998 170.829C382.313 170.829 383.38 169.763 383.38 168.448C383.38 167.133 382.313 166.066 380.998 166.066C379.683 166.066 378.617 167.133 378.617 168.448C378.617 169.763 379.683 170.829 380.998 170.829Z" fill="#666666" fill-opacity="0.12"/>
<path d="M404.725 170.829C406.04 170.829 407.106 169.763 407.106 168.448C407.106 167.133 406.04 166.066 404.725 166.066C403.41 166.066 402.344 167.133 402.344 168.448C402.344 169.763 403.41 170.829 404.725 170.829Z" fill="#666666" fill-opacity="0.12"/>
<path d="M428.448 170.829C429.763 170.829 430.829 169.763 430.829 168.448C430.829 167.133 429.763 166.066 428.448 166.066C427.133 166.066 426.066 167.133 426.066 168.448C426.066 169.763 427.133 170.829 428.448 170.829Z" fill="#666666" fill-opacity="0.12"/>
<path d="M452.17 170.829C453.485 170.829 454.551 169.763 454.551 168.448C454.551 167.133 453.485 166.066 452.17 166.066C450.855 166.066 449.789 167.133 449.789 168.448C449.789 169.763 450.855 170.829 452.17 170.829Z" fill="#666666" fill-opacity="0.12"/>
<path d="M475.897 170.829C477.212 170.829 478.278 169.763 478.278 168.448C478.278 167.133 477.212 166.066 475.897 166.066C474.582 166.066 473.516 167.133 473.516 168.448C473.516 169.763 474.582 170.829 475.897 170.829Z" fill="#666666" fill-opacity="0.12"/>
<path d="M499.619 170.829C500.935 170.829 502.001 169.763 502.001 168.448C502.001 167.133 500.935 166.066 499.619 166.066C498.304 166.066 497.238 167.133 497.238 168.448C497.238 169.763 498.304 170.829 499.619 170.829Z" fill="#666666" fill-opacity="0.12"/>
<path d="M262.381 194.552C263.696 194.552 264.762 193.486 264.762 192.171C264.762 190.856 263.696 189.79 262.381 189.79C261.066 189.79 260 190.856 260 192.171C260 193.486 261.066 194.552 262.381 194.552Z" fill="#666666" fill-opacity="0.12"/>
<path d="M286.104 194.552C287.419 194.552 288.485 193.486 288.485 192.171C288.485 190.856 287.419 189.79 286.104 189.79C284.789 189.79 283.723 190.856 283.723 192.171C283.723 193.486 284.789 194.552 286.104 194.552Z" fill="#666666" fill-opacity="0.12"/>
<path d="M309.83 194.552C311.146 194.552 312.212 193.486 312.212 192.171C312.212 190.856 311.146 189.79 309.83 189.79C308.515 189.79 307.449 190.856 307.449 192.171C307.449 193.486 308.515 194.552 309.83 194.552Z" fill="#666666" fill-opacity="0.12"/>
<path d="M333.553 194.552C334.868 194.552 335.934 193.486 335.934 192.171C335.934 190.856 334.868 189.79 333.553 189.79C332.238 189.79 331.172 190.856 331.172 192.171C331.172 193.486 332.238 194.552 333.553 194.552Z" fill="#666666" fill-opacity="0.12"/>
<path d="M357.276 194.552C358.591 194.552 359.657 193.486 359.657 192.171C359.657 190.856 358.591 189.79 357.276 189.79C355.961 189.79 354.895 190.856 354.895 192.171C354.895 193.486 355.961 194.552 357.276 194.552Z" fill="#666666" fill-opacity="0.12"/>
<path d="M380.998 194.552C382.313 194.552 383.38 193.486 383.38 192.171C383.38 190.856 382.313 189.79 380.998 189.79C379.683 189.79 378.617 190.856 378.617 192.171C378.617 193.486 379.683 194.552 380.998 194.552Z" fill="#666666" fill-opacity="0.12"/>
<path d="M404.725 194.552C406.04 194.552 407.106 193.486 407.106 192.171C407.106 190.856 406.04 189.79 404.725 189.79C403.41 189.79 402.344 190.856 402.344 192.171C402.344 193.486 403.41 194.552 404.725 194.552Z" fill="#666666" fill-opacity="0.12"/>
<path d="M428.448 194.552C429.763 194.552 430.829 193.486 430.829 192.171C430.829 190.856 429.763 189.79 428.448 189.79C427.133 189.79 426.066 190.856 426.066 192.171C426.066 193.486 427.133 194.552 428.448 194.552Z" fill="#666666" fill-opacity="0.12"/>
<path d="M452.17 194.552C453.485 194.552 454.551 193.486 454.551 192.171C454.551 190.856 453.485 189.79 452.17 189.79C450.855 189.79 449.789 190.856 449.789 192.171C449.789 193.486 450.855 194.552 452.17 194.552Z" fill="#666666" fill-opacity="0.12"/>
<path d="M475.897 194.552C477.212 194.552 478.278 193.486 478.278 192.171C478.278 190.856 477.212 189.79 475.897 189.79C474.582 189.79 473.516 190.856 473.516 192.171C473.516 193.486 474.582 194.552 475.897 194.552Z" fill="#666666" fill-opacity="0.12"/>
<path d="M499.619 194.552C500.935 194.552 502.001 193.486 502.001 192.171C502.001 190.856 500.935 189.79 499.619 189.79C498.304 189.79 497.238 190.856 497.238 192.171C497.238 193.486 498.304 194.552 499.619 194.552Z" fill="#666666" fill-opacity="0.12"/>
<path d="M262.381 218.276C263.696 218.276 264.762 217.21 264.762 215.895C264.762 214.58 263.696 213.514 262.381 213.514C261.066 213.514 260 214.58 260 215.895C260 217.21 261.066 218.276 262.381 218.276Z" fill="#666666" fill-opacity="0.12"/>
<path d="M286.104 218.276C287.419 218.276 288.485 217.21 288.485 215.895C288.485 214.58 287.419 213.514 286.104 213.514C284.789 213.514 283.723 214.58 283.723 215.895C283.723 217.21 284.789 218.276 286.104 218.276Z" fill="#666666" fill-opacity="0.12"/>
<path d="M309.83 218.276C311.146 218.276 312.212 217.21 312.212 215.895C312.212 214.58 311.146 213.514 309.83 213.514C308.515 213.514 307.449 214.58 307.449 215.895C307.449 217.21 308.515 218.276 309.83 218.276Z" fill="#666666" fill-opacity="0.12"/>
<path d="M333.553 218.276C334.868 218.276 335.934 217.21 335.934 215.895C335.934 214.58 334.868 213.514 333.553 213.514C332.238 213.514 331.172 214.58 331.172 215.895C331.172 217.21 332.238 218.276 333.553 218.276Z" fill="#666666" fill-opacity="0.12"/>
<path d="M357.276 218.276C358.591 218.276 359.657 217.21 359.657 215.895C359.657 214.58 358.591 213.514 357.276 213.514C355.961 213.514 354.895 214.58 354.895 215.895C354.895 217.21 355.961 218.276 357.276 218.276Z" fill="#666666" fill-opacity="0.12"/>
<path d="M380.998 218.276C382.313 218.276 383.38 217.21 383.38 215.895C383.38 214.58 382.313 213.514 380.998 213.514C379.683 213.514 378.617 214.58 378.617 215.895C378.617 217.21 379.683 218.276 380.998 218.276Z" fill="#666666" fill-opacity="0.12"/>
<path d="M404.725 218.276C406.04 218.276 407.106 217.21 407.106 215.895C407.106 214.58 406.04 213.514 404.725 213.514C403.41 213.514 402.344 214.58 402.344 215.895C402.344 217.21 403.41 218.276 404.725 218.276Z" fill="#666666" fill-opacity="0.12"/>
<path d="M428.448 218.276C429.763 218.276 430.829 217.21 430.829 215.895C430.829 214.58 429.763 213.514 428.448 213.514C427.133 213.514 426.066 214.58 426.066 215.895C426.066 217.21 427.133 218.276 428.448 218.276Z" fill="#666666" fill-opacity="0.12"/>
<path d="M452.17 218.276C453.485 218.276 454.551 217.21 454.551 215.895C454.551 214.58 453.485 213.514 452.17 213.514C450.855 213.514 449.789 214.58 449.789 215.895C449.789 217.21 450.855 218.276 452.17 218.276Z" fill="#666666" fill-opacity="0.12"/>
<path d="M475.897 218.276C477.212 218.276 478.278 217.21 478.278 215.895C478.278 214.58 477.212 213.514 475.897 213.514C474.582 213.514 473.516 214.58 473.516 215.895C473.516 217.21 474.582 218.276 475.897 218.276Z" fill="#666666" fill-opacity="0.12"/>
<path d="M499.619 218.276C500.935 218.276 502.001 217.21 502.001 215.895C502.001 214.58 500.935 213.514 499.619 213.514C498.304 213.514 497.238 214.58 497.238 215.895C497.238 217.21 498.304 218.276 499.619 218.276Z" fill="#666666" fill-opacity="0.12"/>
<path d="M262.381 242C263.696 242 264.762 240.934 264.762 239.618C264.762 238.303 263.696 237.237 262.381 237.237C261.066 237.237 260 238.303 260 239.618C260 240.934 261.066 242 262.381 242Z" fill="#666666" fill-opacity="0.12"/>
<path d="M286.104 242C287.419 242 288.485 240.934 288.485 239.618C288.485 238.303 287.419 237.237 286.104 237.237C284.789 237.237 283.723 238.303 283.723 239.618C283.723 240.934 284.789 242 286.104 242Z" fill="#666666" fill-opacity="0.12"/>
<path d="M309.83 242C311.146 242 312.212 240.934 312.212 239.618C312.212 238.303 311.146 237.237 309.83 237.237C308.515 237.237 307.449 238.303 307.449 239.618C307.449 240.934 308.515 242 309.83 242Z" fill="#666666" fill-opacity="0.12"/>
<path d="M333.553 242C334.868 242 335.934 240.934 335.934 239.618C335.934 238.303 334.868 237.237 333.553 237.237C332.238 237.237 331.172 238.303 331.172 239.618C331.172 240.934 332.238 242 333.553 242Z" fill="#666666" fill-opacity="0.12"/>
<path d="M357.276 242C358.591 242 359.657 240.934 359.657 239.618C359.657 238.303 358.591 237.237 357.276 237.237C355.961 237.237 354.895 238.303 354.895 239.618C354.895 240.934 355.961 242 357.276 242Z" fill="#666666" fill-opacity="0.12"/>
<path d="M380.998 242C382.313 242 383.38 240.934 383.38 239.618C383.38 238.303 382.313 237.237 380.998 237.237C379.683 237.237 378.617 238.303 378.617 239.618C378.617 240.934 379.683 242 380.998 242Z" fill="#666666" fill-opacity="0.12"/>
<path d="M404.725 242C406.04 242 407.106 240.934 407.106 239.618C407.106 238.303 406.04 237.237 404.725 237.237C403.41 237.237 402.344 238.303 402.344 239.618C402.344 240.934 403.41 242 404.725 242Z" fill="#666666" fill-opacity="0.12"/>
<path d="M428.448 242C429.763 242 430.829 240.934 430.829 239.618C430.829 238.303 429.763 237.237 428.448 237.237C427.133 237.237 426.066 238.303 426.066 239.618C426.066 240.934 427.133 242 428.448 242Z" fill="#666666" fill-opacity="0.12"/>
<path d="M452.17 242C453.485 242 454.551 240.934 454.551 239.618C454.551 238.303 453.485 237.237 452.17 237.237C450.855 237.237 449.789 238.303 449.789 239.618C449.789 240.934 450.855 242 452.17 242Z" fill="#666666" fill-opacity="0.12"/>
<path d="M475.897 242C477.212 242 478.278 240.934 478.278 239.618C478.278 238.303 477.212 237.237 475.897 237.237C474.582 237.237 473.516 238.303 473.516 239.618C473.516 240.934 474.582 242 475.897 242Z" fill="#666666" fill-opacity="0.12"/>
<path d="M499.619 242C500.935 242 502.001 240.934 502.001 239.618C502.001 238.303 500.935 237.237 499.619 237.237C498.304 237.237 497.238 238.303 497.238 239.618C497.238 240.934 498.304 242 499.619 242Z" fill="#666666" fill-opacity="0.12"/>
<path d="M2.3812 4.76239C3.6963 4.76239 4.76239 3.6963 4.76239 2.3812C4.76239 1.0661 3.6963 0 2.3812 0C1.0661 0 0 1.0661 0 2.3812C0 3.6963 1.0661 4.76239 2.3812 4.76239Z" fill="#666666" fill-opacity="0.12"/>
<path d="M26.1039 4.76239C27.419 4.76239 28.485 3.6963 28.485 2.3812C28.485 1.0661 27.419 0 26.1039 0C24.7888 0 23.7227 1.0661 23.7227 2.3812C23.7227 3.6963 24.7888 4.76239 26.1039 4.76239Z" fill="#666666" fill-opacity="0.12"/>
<path d="M49.8304 4.76239C51.1455 4.76239 52.2116 3.6963 52.2116 2.3812C52.2116 1.0661 51.1455 0 49.8304 0C48.5153 0 47.4492 1.0661 47.4492 2.3812C47.4492 3.6963 48.5153 4.76239 49.8304 4.76239Z" fill="#666666" fill-opacity="0.12"/>
<path d="M73.5531 4.76239C74.8682 4.76239 75.9343 3.6963 75.9343 2.3812C75.9343 1.0661 74.8682 0 73.5531 0C72.238 0 71.1719 1.0661 71.1719 2.3812C71.1719 3.6963 72.238 4.76239 73.5531 4.76239Z" fill="#666666" fill-opacity="0.12"/>
<path d="M97.2757 4.76239C98.5908 4.76239 99.6569 3.6963 99.6569 2.3812C99.6569 1.0661 98.5908 0 97.2757 0C95.9606 0 94.8945 1.0661 94.8945 2.3812C94.8945 3.6963 95.9606 4.76239 97.2757 4.76239Z" fill="#666666" fill-opacity="0.12"/>
<path d="M120.998 4.76239C122.313 4.76239 123.38 3.6963 123.38 2.3812C123.38 1.0661 122.313 0 120.998 0C119.683 0 118.617 1.0661 118.617 2.3812C118.617 3.6963 119.683 4.76239 120.998 4.76239Z" fill="#666666" fill-opacity="0.12"/>
<path d="M144.725 4.76239C146.04 4.76239 147.106 3.6963 147.106 2.3812C147.106 1.0661 146.04 0 144.725 0C143.41 0 142.344 1.0661 142.344 2.3812C142.344 3.6963 143.41 4.76239 144.725 4.76239Z" fill="#666666" fill-opacity="0.12"/>
<path d="M168.448 4.76239C169.763 4.76239 170.829 3.6963 170.829 2.3812C170.829 1.0661 169.763 0 168.448 0C167.133 0 166.066 1.0661 166.066 2.3812C166.066 3.6963 167.133 4.76239 168.448 4.76239Z" fill="#666666" fill-opacity="0.12"/>
<path d="M192.17 4.76239C193.485 4.76239 194.551 3.6963 194.551 2.3812C194.551 1.0661 193.485 0 192.17 0C190.855 0 189.789 1.0661 189.789 2.3812C189.789 3.6963 190.855 4.76239 192.17 4.76239Z" fill="#666666" fill-opacity="0.12"/>
<path d="M215.897 4.76239C217.212 4.76239 218.278 3.6963 218.278 2.3812C218.278 1.0661 217.212 0 215.897 0C214.582 0 213.516 1.0661 213.516 2.3812C213.516 3.6963 214.582 4.76239 215.897 4.76239Z" fill="#666666" fill-opacity="0.12"/>
<path d="M239.619 4.76239C240.935 4.76239 242.001 3.6963 242.001 2.3812C242.001 1.0661 240.935 0 239.619 0C238.304 0 237.238 1.0661 237.238 2.3812C237.238 3.6963 238.304 4.76239 239.619 4.76239Z" fill="#666666" fill-opacity="0.12"/>
<path d="M2.3812 28.486C3.6963 28.486 4.76239 27.4199 4.76239 26.1048C4.76239 24.7897 3.6963 23.7236 2.3812 23.7236C1.0661 23.7236 0 24.7897 0 26.1048C0 27.4199 1.0661 28.486 2.3812 28.486Z" fill="#666666" fill-opacity="0.12"/>
<path d="M26.1039 28.486C27.419 28.486 28.485 27.4199 28.485 26.1048C28.485 24.7897 27.419 23.7236 26.1039 23.7236C24.7888 23.7236 23.7227 24.7897 23.7227 26.1048C23.7227 27.4199 24.7888 28.486 26.1039 28.486Z" fill="#666666" fill-opacity="0.12"/>
<path d="M49.8304 28.486C51.1455 28.486 52.2116 27.4199 52.2116 26.1048C52.2116 24.7897 51.1455 23.7236 49.8304 23.7236C48.5153 23.7236 47.4492 24.7897 47.4492 26.1048C47.4492 27.4199 48.5153 28.486 49.8304 28.486Z" fill="#666666" fill-opacity="0.12"/>
<path d="M73.5531 28.486C74.8682 28.486 75.9343 27.4199 75.9343 26.1048C75.9343 24.7897 74.8682 23.7236 73.5531 23.7236C72.238 23.7236 71.1719 24.7897 71.1719 26.1048C71.1719 27.4199 72.238 28.486 73.5531 28.486Z" fill="#666666" fill-opacity="0.12"/>
<path d="M97.2757 28.486C98.5908 28.486 99.6569 27.4199 99.6569 26.1048C99.6569 24.7897 98.5908 23.7236 97.2757 23.7236C95.9606 23.7236 94.8945 24.7897 94.8945 26.1048C94.8945 27.4199 95.9606 28.486 97.2757 28.486Z" fill="#666666" fill-opacity="0.12"/>
<path d="M120.998 28.486C122.313 28.486 123.38 27.4199 123.38 26.1048C123.38 24.7897 122.313 23.7236 120.998 23.7236C119.683 23.7236 118.617 24.7897 118.617 26.1048C118.617 27.4199 119.683 28.486 120.998 28.486Z" fill="#666666" fill-opacity="0.12"/>
<path d="M144.725 28.486C146.04 28.486 147.106 27.4199 147.106 26.1048C147.106 24.7897 146.04 23.7236 144.725 23.7236C143.41 23.7236 142.344 24.7897 142.344 26.1048C142.344 27.4199 143.41 28.486 144.725 28.486Z" fill="#666666" fill-opacity="0.12"/>
<path d="M168.448 28.486C169.763 28.486 170.829 27.4199 170.829 26.1048C170.829 24.7897 169.763 23.7236 168.448 23.7236C167.133 23.7236 166.066 24.7897 166.066 26.1048C166.066 27.4199 167.133 28.486 168.448 28.486Z" fill="#666666" fill-opacity="0.12"/>
<path d="M192.17 28.486C193.485 28.486 194.551 27.4199 194.551 26.1048C194.551 24.7897 193.485 23.7236 192.17 23.7236C190.855 23.7236 189.789 24.7897 189.789 26.1048C189.789 27.4199 190.855 28.486 192.17 28.486Z" fill="#666666" fill-opacity="0.12"/>
<path d="M215.897 28.486C217.212 28.486 218.278 27.4199 218.278 26.1048C218.278 24.7897 217.212 23.7236 215.897 23.7236C214.582 23.7236 213.516 24.7897 213.516 26.1048C213.516 27.4199 214.582 28.486 215.897 28.486Z" fill="#666666" fill-opacity="0.12"/>
<path d="M239.619 28.486C240.935 28.486 242.001 27.4199 242.001 26.1048C242.001 24.7897 240.935 23.7236 239.619 23.7236C238.304 23.7236 237.238 24.7897 237.238 26.1048C237.238 27.4199 238.304 28.486 239.619 28.486Z" fill="#666666" fill-opacity="0.12"/>
<path d="M2.3812 52.2097C3.6963 52.2097 4.76239 51.1436 4.76239 49.8285C4.76239 48.5134 3.6963 47.4473 2.3812 47.4473C1.0661 47.4473 0 48.5134 0 49.8285C0 51.1436 1.0661 52.2097 2.3812 52.2097Z" fill="#666666" fill-opacity="0.12"/>
<path d="M26.1039 52.2097C27.419 52.2097 28.485 51.1436 28.485 49.8285C28.485 48.5134 27.419 47.4473 26.1039 47.4473C24.7888 47.4473 23.7227 48.5134 23.7227 49.8285C23.7227 51.1436 24.7888 52.2097 26.1039 52.2097Z" fill="#666666" fill-opacity="0.12"/>
<path d="M49.8304 52.2097C51.1455 52.2097 52.2116 51.1436 52.2116 49.8285C52.2116 48.5134 51.1455 47.4473 49.8304 47.4473C48.5153 47.4473 47.4492 48.5134 47.4492 49.8285C47.4492 51.1436 48.5153 52.2097 49.8304 52.2097Z" fill="#666666" fill-opacity="0.12"/>
<path d="M73.5531 52.2097C74.8682 52.2097 75.9343 51.1436 75.9343 49.8285C75.9343 48.5134 74.8682 47.4473 73.5531 47.4473C72.238 47.4473 71.1719 48.5134 71.1719 49.8285C71.1719 51.1436 72.238 52.2097 73.5531 52.2097Z" fill="#666666" fill-opacity="0.12"/>
<path d="M97.2757 52.2097C98.5908 52.2097 99.6569 51.1436 99.6569 49.8285C99.6569 48.5134 98.5908 47.4473 97.2757 47.4473C95.9606 47.4473 94.8945 48.5134 94.8945 49.8285C94.8945 51.1436 95.9606 52.2097 97.2757 52.2097Z" fill="#666666" fill-opacity="0.12"/>
<path d="M120.998 52.2097C122.313 52.2097 123.38 51.1436 123.38 49.8285C123.38 48.5134 122.313 47.4473 120.998 47.4473C119.683 47.4473 118.617 48.5134 118.617 49.8285C118.617 51.1436 119.683 52.2097 120.998 52.2097Z" fill="#666666" fill-opacity="0.12"/>
<path d="M144.725 52.2097C146.04 52.2097 147.106 51.1436 147.106 49.8285C147.106 48.5134 146.04 47.4473 144.725 47.4473C143.41 47.4473 142.344 48.5134 142.344 49.8285C142.344 51.1436 143.41 52.2097 144.725 52.2097Z" fill="#666666" fill-opacity="0.12"/>
<path d="M168.448 52.2097C169.763 52.2097 170.829 51.1436 170.829 49.8285C170.829 48.5134 169.763 47.4473 168.448 47.4473C167.133 47.4473 166.066 48.5134 166.066 49.8285C166.066 51.1436 167.133 52.2097 168.448 52.2097Z" fill="#666666" fill-opacity="0.12"/>
<path d="M192.17 52.2097C193.485 52.2097 194.551 51.1436 194.551 49.8285C194.551 48.5134 193.485 47.4473 192.17 47.4473C190.855 47.4473 189.789 48.5134 189.789 49.8285C189.789 51.1436 190.855 52.2097 192.17 52.2097Z" fill="#666666" fill-opacity="0.12"/>
<path d="M215.897 52.2097C217.212 52.2097 218.278 51.1436 218.278 49.8285C218.278 48.5134 217.212 47.4473 215.897 47.4473C214.582 47.4473 213.516 48.5134 213.516 49.8285C213.516 51.1436 214.582 52.2097 215.897 52.2097Z" fill="#666666" fill-opacity="0.12"/>
<path d="M239.619 52.2097C240.935 52.2097 242.001 51.1436 242.001 49.8285C242.001 48.5134 240.935 47.4473 239.619 47.4473C238.304 47.4473 237.238 48.5134 237.238 49.8285C237.238 51.1436 238.304 52.2097 239.619 52.2097Z" fill="#666666" fill-opacity="0.12"/>
<path d="M2.3812 75.9338C3.6963 75.9338 4.76239 74.8677 4.76239 73.5526C4.76239 72.2375 3.6963 71.1714 2.3812 71.1714C1.0661 71.1714 0 72.2375 0 73.5526C0 74.8677 1.0661 75.9338 2.3812 75.9338Z" fill="#666666" fill-opacity="0.12"/>
<path d="M26.1039 75.9338C27.419 75.9338 28.485 74.8677 28.485 73.5526C28.485 72.2375 27.419 71.1714 26.1039 71.1714C24.7888 71.1714 23.7227 72.2375 23.7227 73.5526C23.7227 74.8677 24.7888 75.9338 26.1039 75.9338Z" fill="#666666" fill-opacity="0.12"/>
<path d="M49.8304 75.9338C51.1455 75.9338 52.2116 74.8677 52.2116 73.5526C52.2116 72.2375 51.1455 71.1714 49.8304 71.1714C48.5153 71.1714 47.4492 72.2375 47.4492 73.5526C47.4492 74.8677 48.5153 75.9338 49.8304 75.9338Z" fill="#666666" fill-opacity="0.12"/>
<path d="M73.5531 75.9338C74.8682 75.9338 75.9343 74.8677 75.9343 73.5526C75.9343 72.2375 74.8682 71.1714 73.5531 71.1714C72.238 71.1714 71.1719 72.2375 71.1719 73.5526C71.1719 74.8677 72.238 75.9338 73.5531 75.9338Z" fill="#666666" fill-opacity="0.12"/>
<path d="M97.2757 75.9338C98.5908 75.9338 99.6569 74.8677 99.6569 73.5526C99.6569 72.2375 98.5908 71.1714 97.2757 71.1714C95.9606 71.1714 94.8945 72.2375 94.8945 73.5526C94.8945 74.8677 95.9606 75.9338 97.2757 75.9338Z" fill="#666666" fill-opacity="0.12"/>
<path d="M120.998 75.9338C122.313 75.9338 123.38 74.8677 123.38 73.5526C123.38 72.2375 122.313 71.1714 120.998 71.1714C119.683 71.1714 118.617 72.2375 118.617 73.5526C118.617 74.8677 119.683 75.9338 120.998 75.9338Z" fill="#666666" fill-opacity="0.12"/>
<path d="M144.725 75.9338C146.04 75.9338 147.106 74.8677 147.106 73.5526C147.106 72.2375 146.04 71.1714 144.725 71.1714C143.41 71.1714 142.344 72.2375 142.344 73.5526C142.344 74.8677 143.41 75.9338 144.725 75.9338Z" fill="#666666" fill-opacity="0.12"/>
<path d="M168.448 75.9338C169.763 75.9338 170.829 74.8677 170.829 73.5526C170.829 72.2375 169.763 71.1714 168.448 71.1714C167.133 71.1714 166.066 72.2375 166.066 73.5526C166.066 74.8677 167.133 75.9338 168.448 75.9338Z" fill="#666666" fill-opacity="0.12"/>
<path d="M192.17 75.9338C193.485 75.9338 194.551 74.8677 194.551 73.5526C194.551 72.2375 193.485 71.1714 192.17 71.1714C190.855 71.1714 189.789 72.2375 189.789 73.5526C189.789 74.8677 190.855 75.9338 192.17 75.9338Z" fill="#666666" fill-opacity="0.12"/>
<path d="M215.897 75.9338C217.212 75.9338 218.278 74.8677 218.278 73.5526C218.278 72.2375 217.212 71.1714 215.897 71.1714C214.582 71.1714 213.516 72.2375 213.516 73.5526C213.516 74.8677 214.582 75.9338 215.897 75.9338Z" fill="#666666" fill-opacity="0.12"/>
<path d="M239.619 75.9338C240.935 75.9338 242.001 74.8677 242.001 73.5526C242.001 72.2375 240.935 71.1714 239.619 71.1714C238.304 71.1714 237.238 72.2375 237.238 73.5526C237.238 74.8677 238.304 75.9338 239.619 75.9338Z" fill="#666666" fill-opacity="0.12"/>
<path d="M2.3812 99.6574C3.6963 99.6574 4.76239 98.5913 4.76239 97.2762C4.76239 95.9611 3.6963 94.895 2.3812 94.895C1.0661 94.895 0 95.9611 0 97.2762C0 98.5913 1.0661 99.6574 2.3812 99.6574Z" fill="#666666" fill-opacity="0.12"/>
<path d="M26.1039 99.6574C27.419 99.6574 28.485 98.5913 28.485 97.2762C28.485 95.9611 27.419 94.895 26.1039 94.895C24.7888 94.895 23.7227 95.9611 23.7227 97.2762C23.7227 98.5913 24.7888 99.6574 26.1039 99.6574Z" fill="#666666" fill-opacity="0.12"/>
<path d="M49.8304 99.6574C51.1455 99.6574 52.2116 98.5913 52.2116 97.2762C52.2116 95.9611 51.1455 94.895 49.8304 94.895C48.5153 94.895 47.4492 95.9611 47.4492 97.2762C47.4492 98.5913 48.5153 99.6574 49.8304 99.6574Z" fill="#666666" fill-opacity="0.12"/>
<path d="M73.5531 99.6574C74.8682 99.6574 75.9343 98.5913 75.9343 97.2762C75.9343 95.9611 74.8682 94.895 73.5531 94.895C72.238 94.895 71.1719 95.9611 71.1719 97.2762C71.1719 98.5913 72.238 99.6574 73.5531 99.6574Z" fill="#666666" fill-opacity="0.12"/>
<path d="M97.2757 99.6574C98.5908 99.6574 99.6569 98.5913 99.6569 97.2762C99.6569 95.9611 98.5908 94.895 97.2757 94.895C95.9606 94.895 94.8945 95.9611 94.8945 97.2762C94.8945 98.5913 95.9606 99.6574 97.2757 99.6574Z" fill="#666666" fill-opacity="0.12"/>
<path d="M120.998 99.6574C122.313 99.6574 123.38 98.5913 123.38 97.2762C123.38 95.9611 122.313 94.895 120.998 94.895C119.683 94.895 118.617 95.9611 118.617 97.2762C118.617 98.5913 119.683 99.6574 120.998 99.6574Z" fill="#666666" fill-opacity="0.12"/>
<path d="M144.725 99.6574C146.04 99.6574 147.106 98.5913 147.106 97.2762C147.106 95.9611 146.04 94.895 144.725 94.895C143.41 94.895 142.344 95.9611 142.344 97.2762C142.344 98.5913 143.41 99.6574 144.725 99.6574Z" fill="#666666" fill-opacity="0.12"/>
<path d="M168.448 99.6574C169.763 99.6574 170.829 98.5913 170.829 97.2762C170.829 95.9611 169.763 94.895 168.448 94.895C167.133 94.895 166.066 95.9611 166.066 97.2762C166.066 98.5913 167.133 99.6574 168.448 99.6574Z" fill="#666666" fill-opacity="0.12"/>
<path d="M192.17 99.6574C193.485 99.6574 194.551 98.5913 194.551 97.2762C194.551 95.9611 193.485 94.895 192.17 94.895C190.855 94.895 189.789 95.9611 189.789 97.2762C189.789 98.5913 190.855 99.6574 192.17 99.6574Z" fill="#666666" fill-opacity="0.12"/>
<path d="M215.897 99.6574C217.212 99.6574 218.278 98.5913 218.278 97.2762C218.278 95.9611 217.212 94.895 215.897 94.895C214.582 94.895 213.516 95.9611 213.516 97.2762C213.516 98.5913 214.582 99.6574 215.897 99.6574Z" fill="#666666" fill-opacity="0.12"/>
<path d="M239.619 99.6574C240.935 99.6574 242.001 98.5913 242.001 97.2762C242.001 95.9611 240.935 94.895 239.619 94.895C238.304 94.895 237.238 95.9611 237.238 97.2762C237.238 98.5913 238.304 99.6574 239.619 99.6574Z" fill="#666666" fill-opacity="0.12"/>
<path d="M2.3812 123.381C3.6963 123.381 4.76239 122.315 4.76239 121C4.76239 119.685 3.6963 118.619 2.3812 118.619C1.0661 118.619 0 119.685 0 121C0 122.315 1.0661 123.381 2.3812 123.381Z" fill="#666666" fill-opacity="0.12"/>
<path d="M26.1039 123.381C27.419 123.381 28.485 122.315 28.485 121C28.485 119.685 27.419 118.619 26.1039 118.619C24.7888 118.619 23.7227 119.685 23.7227 121C23.7227 122.315 24.7888 123.381 26.1039 123.381Z" fill="#666666" fill-opacity="0.12"/>
<path d="M49.8304 123.381C51.1455 123.381 52.2116 122.315 52.2116 121C52.2116 119.685 51.1455 118.619 49.8304 118.619C48.5153 118.619 47.4492 119.685 47.4492 121C47.4492 122.315 48.5153 123.381 49.8304 123.381Z" fill="#666666" fill-opacity="0.12"/>
<path d="M73.5531 123.381C74.8682 123.381 75.9343 122.315 75.9343 121C75.9343 119.685 74.8682 118.619 73.5531 118.619C72.238 118.619 71.1719 119.685 71.1719 121C71.1719 122.315 72.238 123.381 73.5531 123.381Z" fill="#666666" fill-opacity="0.12"/>
<path d="M97.2757 123.381C98.5908 123.381 99.6569 122.315 99.6569 121C99.6569 119.685 98.5908 118.619 97.2757 118.619C95.9606 118.619 94.8945 119.685 94.8945 121C94.8945 122.315 95.9606 123.381 97.2757 123.381Z" fill="#666666" fill-opacity="0.12"/>
<path d="M120.998 123.381C122.313 123.381 123.38 122.315 123.38 121C123.38 119.685 122.313 118.619 120.998 118.619C119.683 118.619 118.617 119.685 118.617 121C118.617 122.315 119.683 123.381 120.998 123.381Z" fill="#666666" fill-opacity="0.12"/>
<path d="M144.725 123.381C146.04 123.381 147.106 122.315 147.106 121C147.106 119.685 146.04 118.619 144.725 118.619C143.41 118.619 142.344 119.685 142.344 121C142.344 122.315 143.41 123.381 144.725 123.381Z" fill="#666666" fill-opacity="0.12"/>
<path d="M168.448 123.381C169.763 123.381 170.829 122.315 170.829 121C170.829 119.685 169.763 118.619 168.448 118.619C167.133 118.619 166.066 119.685 166.066 121C166.066 122.315 167.133 123.381 168.448 123.381Z" fill="#666666" fill-opacity="0.12"/>
<path d="M192.17 123.381C193.485 123.381 194.551 122.315 194.551 121C194.551 119.685 193.485 118.619 192.17 118.619C190.855 118.619 189.789 119.685 189.789 121C189.789 122.315 190.855 123.381 192.17 123.381Z" fill="#666666" fill-opacity="0.12"/>
<path d="M215.897 123.381C217.212 123.381 218.278 122.315 218.278 121C218.278 119.685 217.212 118.619 215.897 118.619C214.582 118.619 213.516 119.685 213.516 121C213.516 122.315 214.582 123.381 215.897 123.381Z" fill="#666666" fill-opacity="0.12"/>
<path d="M239.619 123.381C240.935 123.381 242.001 122.315 242.001 121C242.001 119.685 240.935 118.619 239.619 118.619C238.304 118.619 237.238 119.685 237.238 121C237.238 122.315 238.304 123.381 239.619 123.381Z" fill="#666666" fill-opacity="0.12"/>
<path d="M2.3812 147.105C3.6963 147.105 4.76239 146.039 4.76239 144.724C4.76239 143.409 3.6963 142.343 2.3812 142.343C1.0661 142.343 0 143.409 0 144.724C0 146.039 1.0661 147.105 2.3812 147.105Z" fill="#666666" fill-opacity="0.12"/>
<path d="M26.1039 147.105C27.419 147.105 28.485 146.039 28.485 144.724C28.485 143.409 27.419 142.343 26.1039 142.343C24.7888 142.343 23.7227 143.409 23.7227 144.724C23.7227 146.039 24.7888 147.105 26.1039 147.105Z" fill="#666666" fill-opacity="0.12"/>
<path d="M49.8304 147.105C51.1455 147.105 52.2116 146.039 52.2116 144.724C52.2116 143.409 51.1455 142.343 49.8304 142.343C48.5153 142.343 47.4492 143.409 47.4492 144.724C47.4492 146.039 48.5153 147.105 49.8304 147.105Z" fill="#666666" fill-opacity="0.12"/>
<path d="M73.5531 147.105C74.8682 147.105 75.9343 146.039 75.9343 144.724C75.9343 143.409 74.8682 142.343 73.5531 142.343C72.238 142.343 71.1719 143.409 71.1719 144.724C71.1719 146.039 72.238 147.105 73.5531 147.105Z" fill="#666666" fill-opacity="0.12"/>
<path d="M97.2757 147.105C98.5908 147.105 99.6569 146.039 99.6569 144.724C99.6569 143.409 98.5908 142.343 97.2757 142.343C95.9606 142.343 94.8945 143.409 94.8945 144.724C94.8945 146.039 95.9606 147.105 97.2757 147.105Z" fill="#666666" fill-opacity="0.12"/>
<path d="M120.998 147.105C122.313 147.105 123.38 146.039 123.38 144.724C123.38 143.409 122.313 142.343 120.998 142.343C119.683 142.343 118.617 143.409 118.617 144.724C118.617 146.039 119.683 147.105 120.998 147.105Z" fill="#666666" fill-opacity="0.12"/>
<path d="M144.725 147.105C146.04 147.105 147.106 146.039 147.106 144.724C147.106 143.409 146.04 142.343 144.725 142.343C143.41 142.343 142.344 143.409 142.344 144.724C142.344 146.039 143.41 147.105 144.725 147.105Z" fill="#666666" fill-opacity="0.12"/>
<path d="M168.448 147.105C169.763 147.105 170.829 146.039 170.829 144.724C170.829 143.409 169.763 142.343 168.448 142.343C167.133 142.343 166.066 143.409 166.066 144.724C166.066 146.039 167.133 147.105 168.448 147.105Z" fill="#666666" fill-opacity="0.12"/>
<path d="M192.17 147.105C193.485 147.105 194.551 146.039 194.551 144.724C194.551 143.409 193.485 142.343 192.17 142.343C190.855 142.343 189.789 143.409 189.789 144.724C189.789 146.039 190.855 147.105 192.17 147.105Z" fill="#666666" fill-opacity="0.12"/>
<path d="M215.897 147.105C217.212 147.105 218.278 146.039 218.278 144.724C218.278 143.409 217.212 142.343 215.897 142.343C214.582 142.343 213.516 143.409 213.516 144.724C213.516 146.039 214.582 147.105 215.897 147.105Z" fill="#666666" fill-opacity="0.12"/>
<path d="M239.619 147.105C240.935 147.105 242.001 146.039 242.001 144.724C242.001 143.409 240.935 142.343 239.619 142.343C238.304 142.343 237.238 143.409 237.238 144.724C237.238 146.039 238.304 147.105 239.619 147.105Z" fill="#666666" fill-opacity="0.12"/>
<path d="M2.3812 170.829C3.6963 170.829 4.76239 169.763 4.76239 168.448C4.76239 167.133 3.6963 166.066 2.3812 166.066C1.0661 166.066 0 167.133 0 168.448C0 169.763 1.0661 170.829 2.3812 170.829Z" fill="#666666" fill-opacity="0.12"/>
<path d="M26.1039 170.829C27.419 170.829 28.485 169.763 28.485 168.448C28.485 167.133 27.419 166.066 26.1039 166.066C24.7888 166.066 23.7227 167.133 23.7227 168.448C23.7227 169.763 24.7888 170.829 26.1039 170.829Z" fill="#666666" fill-opacity="0.12"/>
<path d="M49.8304 170.829C51.1455 170.829 52.2116 169.763 52.2116 168.448C52.2116 167.133 51.1455 166.066 49.8304 166.066C48.5153 166.066 47.4492 167.133 47.4492 168.448C47.4492 169.763 48.5153 170.829 49.8304 170.829Z" fill="#666666" fill-opacity="0.12"/>
<path d="M73.5531 170.829C74.8682 170.829 75.9343 169.763 75.9343 168.448C75.9343 167.133 74.8682 166.066 73.5531 166.066C72.238 166.066 71.1719 167.133 71.1719 168.448C71.1719 169.763 72.238 170.829 73.5531 170.829Z" fill="#666666" fill-opacity="0.12"/>
<path d="M97.2757 170.829C98.5908 170.829 99.6569 169.763 99.6569 168.448C99.6569 167.133 98.5908 166.066 97.2757 166.066C95.9606 166.066 94.8945 167.133 94.8945 168.448C94.8945 169.763 95.9606 170.829 97.2757 170.829Z" fill="#666666" fill-opacity="0.12"/>
<path d="M120.998 170.829C122.313 170.829 123.38 169.763 123.38 168.448C123.38 167.133 122.313 166.066 120.998 166.066C119.683 166.066 118.617 167.133 118.617 168.448C118.617 169.763 119.683 170.829 120.998 170.829Z" fill="#666666" fill-opacity="0.12"/>
<path d="M144.725 170.829C146.04 170.829 147.106 169.763 147.106 168.448C147.106 167.133 146.04 166.066 144.725 166.066C143.41 166.066 142.344 167.133 142.344 168.448C142.344 169.763 143.41 170.829 144.725 170.829Z" fill="#666666" fill-opacity="0.12"/>
<path d="M168.448 170.829C169.763 170.829 170.829 169.763 170.829 168.448C170.829 167.133 169.763 166.066 168.448 166.066C167.133 166.066 166.066 167.133 166.066 168.448C166.066 169.763 167.133 170.829 168.448 170.829Z" fill="#666666" fill-opacity="0.12"/>
<path d="M192.17 170.829C193.485 170.829 194.551 169.763 194.551 168.448C194.551 167.133 193.485 166.066 192.17 166.066C190.855 166.066 189.789 167.133 189.789 168.448C189.789 169.763 190.855 170.829 192.17 170.829Z" fill="#666666" fill-opacity="0.12"/>
<path d="M215.897 170.829C217.212 170.829 218.278 169.763 218.278 168.448C218.278 167.133 217.212 166.066 215.897 166.066C214.582 166.066 213.516 167.133 213.516 168.448C213.516 169.763 214.582 170.829 215.897 170.829Z" fill="#666666" fill-opacity="0.12"/>
<path d="M239.619 170.829C240.935 170.829 242.001 169.763 242.001 168.448C242.001 167.133 240.935 166.066 239.619 166.066C238.304 166.066 237.238 167.133 237.238 168.448C237.238 169.763 238.304 170.829 239.619 170.829Z" fill="#666666" fill-opacity="0.12"/>
<path d="M2.3812 194.552C3.6963 194.552 4.76239 193.486 4.76239 192.171C4.76239 190.856 3.6963 189.79 2.3812 189.79C1.0661 189.79 0 190.856 0 192.171C0 193.486 1.0661 194.552 2.3812 194.552Z" fill="#666666" fill-opacity="0.12"/>
<path d="M26.1039 194.552C27.419 194.552 28.485 193.486 28.485 192.171C28.485 190.856 27.419 189.79 26.1039 189.79C24.7888 189.79 23.7227 190.856 23.7227 192.171C23.7227 193.486 24.7888 194.552 26.1039 194.552Z" fill="#666666" fill-opacity="0.12"/>
<path d="M49.8304 194.552C51.1455 194.552 52.2116 193.486 52.2116 192.171C52.2116 190.856 51.1455 189.79 49.8304 189.79C48.5153 189.79 47.4492 190.856 47.4492 192.171C47.4492 193.486 48.5153 194.552 49.8304 194.552Z" fill="#666666" fill-opacity="0.12"/>
<path d="M73.5531 194.552C74.8682 194.552 75.9343 193.486 75.9343 192.171C75.9343 190.856 74.8682 189.79 73.5531 189.79C72.238 189.79 71.1719 190.856 71.1719 192.171C71.1719 193.486 72.238 194.552 73.5531 194.552Z" fill="#666666" fill-opacity="0.12"/>
<path d="M97.2757 194.552C98.5908 194.552 99.6569 193.486 99.6569 192.171C99.6569 190.856 98.5908 189.79 97.2757 189.79C95.9606 189.79 94.8945 190.856 94.8945 192.171C94.8945 193.486 95.9606 194.552 97.2757 194.552Z" fill="#666666" fill-opacity="0.12"/>
<path d="M120.998 194.552C122.313 194.552 123.38 193.486 123.38 192.171C123.38 190.856 122.313 189.79 120.998 189.79C119.683 189.79 118.617 190.856 118.617 192.171C118.617 193.486 119.683 194.552 120.998 194.552Z" fill="#666666" fill-opacity="0.12"/>
<path d="M144.725 194.552C146.04 194.552 147.106 193.486 147.106 192.171C147.106 190.856 146.04 189.79 144.725 189.79C143.41 189.79 142.344 190.856 142.344 192.171C142.344 193.486 143.41 194.552 144.725 194.552Z" fill="#666666" fill-opacity="0.12"/>
<path d="M168.448 194.552C169.763 194.552 170.829 193.486 170.829 192.171C170.829 190.856 169.763 189.79 168.448 189.79C167.133 189.79 166.066 190.856 166.066 192.171C166.066 193.486 167.133 194.552 168.448 194.552Z" fill="#666666" fill-opacity="0.12"/>
<path d="M192.17 194.552C193.485 194.552 194.551 193.486 194.551 192.171C194.551 190.856 193.485 189.79 192.17 189.79C190.855 189.79 189.789 190.856 189.789 192.171C189.789 193.486 190.855 194.552 192.17 194.552Z" fill="#666666" fill-opacity="0.12"/>
<path d="M215.897 194.552C217.212 194.552 218.278 193.486 218.278 192.171C218.278 190.856 217.212 189.79 215.897 189.79C214.582 189.79 213.516 190.856 213.516 192.171C213.516 193.486 214.582 194.552 215.897 194.552Z" fill="#666666" fill-opacity="0.12"/>
<path d="M239.619 194.552C240.935 194.552 242.001 193.486 242.001 192.171C242.001 190.856 240.935 189.79 239.619 189.79C238.304 189.79 237.238 190.856 237.238 192.171C237.238 193.486 238.304 194.552 239.619 194.552Z" fill="#666666" fill-opacity="0.12"/>
<path d="M2.3812 218.276C3.6963 218.276 4.76239 217.21 4.76239 215.895C4.76239 214.58 3.6963 213.514 2.3812 213.514C1.0661 213.514 0 214.58 0 215.895C0 217.21 1.0661 218.276 2.3812 218.276Z" fill="#666666" fill-opacity="0.12"/>
<path d="M26.1039 218.276C27.419 218.276 28.485 217.21 28.485 215.895C28.485 214.58 27.419 213.514 26.1039 213.514C24.7888 213.514 23.7227 214.58 23.7227 215.895C23.7227 217.21 24.7888 218.276 26.1039 218.276Z" fill="#666666" fill-opacity="0.12"/>
<path d="M49.8304 218.276C51.1455 218.276 52.2116 217.21 52.2116 215.895C52.2116 214.58 51.1455 213.514 49.8304 213.514C48.5153 213.514 47.4492 214.58 47.4492 215.895C47.4492 217.21 48.5153 218.276 49.8304 218.276Z" fill="#666666" fill-opacity="0.12"/>
<path d="M73.5531 218.276C74.8682 218.276 75.9343 217.21 75.9343 215.895C75.9343 214.58 74.8682 213.514 73.5531 213.514C72.238 213.514 71.1719 214.58 71.1719 215.895C71.1719 217.21 72.238 218.276 73.5531 218.276Z" fill="#666666" fill-opacity="0.12"/>
<path d="M97.2757 218.276C98.5908 218.276 99.6569 217.21 99.6569 215.895C99.6569 214.58 98.5908 213.514 97.2757 213.514C95.9606 213.514 94.8945 214.58 94.8945 215.895C94.8945 217.21 95.9606 218.276 97.2757 218.276Z" fill="#666666" fill-opacity="0.12"/>
<path d="M120.998 218.276C122.313 218.276 123.38 217.21 123.38 215.895C123.38 214.58 122.313 213.514 120.998 213.514C119.683 213.514 118.617 214.58 118.617 215.895C118.617 217.21 119.683 218.276 120.998 218.276Z" fill="#666666" fill-opacity="0.12"/>
<path d="M144.725 218.276C146.04 218.276 147.106 217.21 147.106 215.895C147.106 214.58 146.04 213.514 144.725 213.514C143.41 213.514 142.344 214.58 142.344 215.895C142.344 217.21 143.41 218.276 144.725 218.276Z" fill="#666666" fill-opacity="0.12"/>
<path d="M168.448 218.276C169.763 218.276 170.829 217.21 170.829 215.895C170.829 214.58 169.763 213.514 168.448 213.514C167.133 213.514 166.066 214.58 166.066 215.895C166.066 217.21 167.133 218.276 168.448 218.276Z" fill="#666666" fill-opacity="0.12"/>
<path d="M192.17 218.276C193.485 218.276 194.551 217.21 194.551 215.895C194.551 214.58 193.485 213.514 192.17 213.514C190.855 213.514 189.789 214.58 189.789 215.895C189.789 217.21 190.855 218.276 192.17 218.276Z" fill="#666666" fill-opacity="0.12"/>
<path d="M215.897 218.276C217.212 218.276 218.278 217.21 218.278 215.895C218.278 214.58 217.212 213.514 215.897 213.514C214.582 213.514 213.516 214.58 213.516 215.895C213.516 217.21 214.582 218.276 215.897 218.276Z" fill="#666666" fill-opacity="0.12"/>
<path d="M239.619 218.276C240.935 218.276 242.001 217.21 242.001 215.895C242.001 214.58 240.935 213.514 239.619 213.514C238.304 213.514 237.238 214.58 237.238 215.895C237.238 217.21 238.304 218.276 239.619 218.276Z" fill="#666666" fill-opacity="0.12"/>
<path d="M2.3812 242C3.6963 242 4.76239 240.934 4.76239 239.618C4.76239 238.303 3.6963 237.237 2.3812 237.237C1.0661 237.237 0 238.303 0 239.618C0 240.934 1.0661 242 2.3812 242Z" fill="#666666" fill-opacity="0.12"/>
<path d="M26.1039 242C27.419 242 28.485 240.934 28.485 239.618C28.485 238.303 27.419 237.237 26.1039 237.237C24.7888 237.237 23.7227 238.303 23.7227 239.618C23.7227 240.934 24.7888 242 26.1039 242Z" fill="#666666" fill-opacity="0.12"/>
<path d="M49.8304 242C51.1455 242 52.2116 240.934 52.2116 239.618C52.2116 238.303 51.1455 237.237 49.8304 237.237C48.5153 237.237 47.4492 238.303 47.4492 239.618C47.4492 240.934 48.5153 242 49.8304 242Z" fill="#666666" fill-opacity="0.12"/>
<path d="M73.5531 242C74.8682 242 75.9343 240.934 75.9343 239.618C75.9343 238.303 74.8682 237.237 73.5531 237.237C72.238 237.237 71.1719 238.303 71.1719 239.618C71.1719 240.934 72.238 242 73.5531 242Z" fill="#666666" fill-opacity="0.12"/>
<path d="M97.2757 242C98.5908 242 99.6569 240.934 99.6569 239.618C99.6569 238.303 98.5908 237.237 97.2757 237.237C95.9606 237.237 94.8945 238.303 94.8945 239.618C94.8945 240.934 95.9606 242 97.2757 242Z" fill="#666666" fill-opacity="0.12"/>
<path d="M120.998 242C122.313 242 123.38 240.934 123.38 239.618C123.38 238.303 122.313 237.237 120.998 237.237C119.683 237.237 118.617 238.303 118.617 239.618C118.617 240.934 119.683 242 120.998 242Z" fill="#666666" fill-opacity="0.12"/>
<path d="M144.725 242C146.04 242 147.106 240.934 147.106 239.618C147.106 238.303 146.04 237.237 144.725 237.237C143.41 237.237 142.344 238.303 142.344 239.618C142.344 240.934 143.41 242 144.725 242Z" fill="#666666" fill-opacity="0.12"/>
<path d="M168.448 242C169.763 242 170.829 240.934 170.829 239.618C170.829 238.303 169.763 237.237 168.448 237.237C167.133 237.237 166.066 238.303 166.066 239.618C166.066 240.934 167.133 242 168.448 242Z" fill="#666666" fill-opacity="0.12"/>
<path d="M192.17 242C193.485 242 194.551 240.934 194.551 239.618C194.551 238.303 193.485 237.237 192.17 237.237C190.855 237.237 189.789 238.303 189.789 239.618C189.789 240.934 190.855 242 192.17 242Z" fill="#666666" fill-opacity="0.12"/>
<path d="M215.897 242C217.212 242 218.278 240.934 218.278 239.618C218.278 238.303 217.212 237.237 215.897 237.237C214.582 237.237 213.516 238.303 213.516 239.618C213.516 240.934 214.582 242 215.897 242Z" fill="#666666" fill-opacity="0.12"/>
<path d="M239.619 242C240.935 242 242.001 240.934 242.001 239.618C242.001 238.303 240.935 237.237 239.619 237.237C238.304 237.237 237.238 238.303 237.238 239.618C237.238 240.934 238.304 242 239.619 242Z" fill="#666666" fill-opacity="0.12"/>
</g>
</svg>
