<svg width="24" height="24" viewBox="0 0 24 24" fill="none" xmlns="http://www.w3.org/2000/svg">
<path d="M18.8914 1.7998H5.10857C3.94629 1.7998 3 2.74609 3 3.91866V17.8249C3 18.9975 3.94629 19.9438 5.10857 19.9438H16.7726L16.2274 18.0409L17.544 19.2649L18.7886 20.4169L21 22.3712V3.91866C21 2.74609 20.0537 1.7998 18.8914 1.7998ZM14.9211 15.2329C14.9211 15.2329 14.5509 14.7907 14.2423 14.3998C15.5897 14.0192 16.104 13.1758 16.104 13.1758C15.6823 13.4535 15.2811 13.6489 14.9211 13.7827C14.4069 13.9987 13.9131 14.1427 13.4297 14.2249C12.4423 14.4101 11.5371 14.3587 10.7657 14.2147C10.1794 14.1015 9.67543 13.9369 9.25371 13.7724C9.01714 13.6798 8.76 13.5667 8.50286 13.4227C8.472 13.4021 8.44114 13.3918 8.41029 13.3712C8.38971 13.3609 8.37943 13.3507 8.36914 13.3404C8.184 13.2375 8.08114 13.1655 8.08114 13.1655C8.08114 13.1655 8.57486 13.9884 9.88114 14.3792C9.57257 14.7701 9.192 15.2329 9.192 15.2329C6.91886 15.1609 6.05486 13.6695 6.05486 13.6695C6.05486 10.3575 7.536 7.67295 7.536 7.67295C9.01714 6.56209 10.4263 6.59295 10.4263 6.59295L10.5291 6.71638C8.67771 7.25123 7.824 8.0638 7.824 8.0638C7.824 8.0638 8.05029 7.94038 8.43086 7.76552C9.53143 7.28209 10.4057 7.14838 10.7657 7.11752C10.8274 7.10723 10.8789 7.09695 10.9406 7.09695C11.568 7.01466 12.2777 6.99409 13.0183 7.07638C13.9954 7.18952 15.0446 7.47752 16.1143 8.0638C16.1143 8.0638 15.3017 7.29238 13.5531 6.75752L13.6971 6.59295C13.6971 6.59295 15.1063 6.56209 16.5874 7.67295C16.5874 7.67295 18.0686 10.3575 18.0686 13.6695C18.0686 13.6695 17.1943 15.1609 14.9211 15.2329ZM10.1383 10.4295C9.552 10.4295 9.08914 10.9438 9.08914 11.5712C9.08914 12.1987 9.56229 12.7129 10.1383 12.7129C10.7246 12.7129 11.1874 12.1987 11.1874 11.5712C11.1977 10.9438 10.7246 10.4295 10.1383 10.4295ZM13.8926 10.4295C13.3063 10.4295 12.8434 10.9438 12.8434 11.5712C12.8434 12.1987 13.3166 12.7129 13.8926 12.7129C14.4789 12.7129 14.9417 12.1987 14.9417 11.5712C14.9417 10.9438 14.4789 10.4295 13.8926 10.4295Z" fill="#7289DA"/>
</svg>
