<svg width="97" height="97" viewBox="0 0 97 97" fill="none" xmlns="http://www.w3.org/2000/svg">
<g clip-path="url(#clip0_528_1793)">
<path d="M21.4645 46.5889C20.9711 46.5889 20.4781 46.7814 20.108 47.1643C19.3841 47.9133 19.4045 49.1075 20.1536 49.8314C22.6202 52.2151 26.6334 52.2151 29.0999 49.8314C29.8491 49.1075 29.8694 47.9133 29.1455 47.1643C28.4216 46.4153 27.2275 46.395 26.4785 47.1189C25.4573 48.1055 23.7962 48.1055 22.775 47.1189C22.4091 46.7648 21.9366 46.5889 21.4645 46.5889V46.5889Z" fill="#5C3EBB"/>
<path d="M96.5158 56.8488C96.7529 55.8917 96.2129 54.9134 95.2766 54.6042C90.8087 53.1281 85.4825 49.8004 85.4825 42.3281V38.3717C85.4825 32.2702 84.0849 27.4952 81.3282 24.1797C78.6605 20.9709 74.7821 19.2749 70.1126 19.2749C65.639 19.2749 61.8321 20.9643 59.1032 24.1608C56.2506 27.5023 54.7426 32.4164 54.7426 38.3717V42.3281C54.7426 46.4664 53.1171 49.7545 49.9091 52.1136C49.1441 51.9606 48.3536 51.8789 47.5443 51.8789C42.3856 51.8789 37.972 55.1325 36.2499 59.6952C35.7463 59.5537 33.1076 58.8426 32.3286 58.6144V57.3595C37.3682 54.6188 40.7965 49.2753 40.7965 43.1462V35.6555C40.7965 26.7381 33.5442 19.4831 24.6299 19.4831C15.7127 19.4831 8.45792 26.7381 8.45792 35.6555V43.1462C8.45792 49.2743 11.8862 54.6169 16.9262 57.358V58.6142C16.1472 58.8424 15.3381 59.0612 14.5006 59.2876C8.11238 61.0098 0.160324 63.1525 0 72.9021V89.4324C0 90.4736 0.845 91.3186 1.88616 91.3186H27.3906V94.0005C27.3906 94.005 27.3899 94.0096 27.3899 94.0143C27.3899 95.056 28.2343 95.9004 29.276 95.9004H39.0654C40.1071 95.9004 40.9516 95.056 40.9516 94.0143C40.9516 92.9725 40.1071 92.1281 39.0654 92.1281H31.1628V90.9981C31.1854 89.6174 31.3684 88.4857 31.6966 87.5464C32.883 84.1476 35.9536 83.2422 40.1352 82.0087C40.3314 81.9509 40.5298 81.8925 40.729 81.8332C41.7221 84.5537 44.3353 86.5009 47.3951 86.5009C50.7089 86.5009 53.3802 84.6123 54.3693 81.8376C54.5638 81.8951 54.7573 81.9523 54.9492 82.0085C60.287 83.5834 63.8141 84.6227 63.9216 90.9979V92.1279H56.0031C54.9614 92.1279 54.117 92.9724 54.117 94.0141C54.117 95.0558 54.9614 95.9002 56.0031 95.9002H65.8085C66.8503 95.9002 67.6947 95.0558 67.6947 94.0141C67.6947 94.0094 67.6939 94.0047 67.6939 93.9999V91.3182H92.8563C93.898 91.3182 94.7424 90.4738 94.7424 89.432V72.9323C94.7424 72.9219 94.7424 72.9115 94.7422 72.9011C94.6772 68.9509 93.3331 66.2498 91.3323 64.3193C94.0476 63.0465 95.5431 60.7735 96.5158 56.8488V56.8488ZM70.1126 23.047C73.6748 23.047 76.4723 24.2395 78.4275 26.5911C80.3893 28.9509 81.4771 32.4039 81.6744 36.863C78.181 37.4688 74.069 36.9794 71.7956 32.4839C71.1115 31.1338 69.1127 31.1321 68.4292 32.4839C66.1567 36.9777 62.047 37.4684 58.5544 36.8637C58.9908 28.1802 63.24 23.047 70.1126 23.047V23.047ZM58.5149 40.6736C59.3175 40.7855 60.0986 40.8418 60.8553 40.8418C64.6582 40.8418 67.8486 39.4385 70.1126 36.7532C72.3763 39.4387 75.5666 40.8418 79.37 40.8418C80.1266 40.8418 80.9076 40.7855 81.7104 40.6736V42.3283C81.7104 48.7236 76.5078 53.9263 70.1127 53.9263C63.7177 53.9263 58.5151 48.7236 58.5151 42.3283V40.6736H58.5149ZM74.0433 57.1866V60.0041C74.0433 62.1687 72.28 63.9298 70.1126 63.9298C67.948 63.9298 66.1871 62.1687 66.1871 60.0041V57.1881C67.4406 57.5199 68.7559 57.6987 70.1126 57.6987C71.4712 57.6985 72.7881 57.5193 74.0433 57.1866ZM56.7401 49.8911C58.0894 52.2678 60.054 54.2508 62.4148 55.6241V58.6142C61.6305 58.8441 60.8176 59.0633 59.9748 59.2904C59.5868 59.3949 59.193 59.5017 58.7977 59.6101C57.8404 57.1417 56.0997 55.0635 53.881 53.6859C55.0508 52.553 56.0073 51.2838 56.7401 49.8911V49.8911ZM39.8563 60.8288C41.0917 57.7958 44.0718 55.6512 47.5443 55.6512C51.5784 55.6512 54.9459 58.5537 55.6891 62.3875C53.175 61.1843 50.3784 60.5413 47.5429 60.5413C44.7064 60.5413 41.9092 61.1851 39.3955 62.389C39.499 61.8488 39.6537 61.3265 39.8563 60.8288V60.8288ZM12.2304 35.6555C12.2304 28.8181 17.7929 23.2555 24.6301 23.2555C31.4644 23.2555 37.0244 28.8181 37.0244 35.6555V37.6071C32.0661 37.7727 25.8174 37.1833 21.2099 34.0296C20.3805 33.4621 19.252 33.6443 18.6436 34.4436C17.0486 36.5393 15.0457 37.0592 12.2306 37.3938V35.6555H12.2304ZM12.2304 43.1462V41.1904C15.2641 40.8513 18.1215 40.2971 20.4939 38.0241C25.6552 40.9463 31.9601 41.536 37.0242 41.3815V43.1462C37.0242 49.9807 31.4642 55.5409 24.6299 55.5409C17.7929 55.5409 12.2304 49.9807 12.2304 43.1462V43.1462ZM28.5563 58.8285V59.9871C28.5563 59.9928 28.5553 59.9983 28.5553 60.0039C28.5553 62.1685 26.7944 63.9296 24.6299 63.9296C22.4625 63.9296 20.6991 62.1685 20.6991 60.0039C20.6991 60 20.6985 59.996 20.6985 59.9921V58.8275C21.9577 59.1431 23.2743 59.313 24.6299 59.313C25.9839 59.3132 27.2988 59.1437 28.5563 58.8285ZM40.3014 78.0228C39.8883 78.1492 39.4753 78.2718 39.0679 78.3906C34.4128 79.7638 29.2221 81.2934 27.7792 87.5461H13.8665V79.9148C13.8665 78.8731 13.0221 78.0287 11.9803 78.0287C10.9386 78.0287 10.0942 78.8731 10.0942 79.9148V87.5461H3.77232V72.949C3.88549 66.5172 8.2727 64.8725 15.4816 62.9298C16.0888 62.7657 16.7057 62.5985 17.3195 62.4252C18.3374 65.4868 21.2289 67.7019 24.6301 67.7019C28.0289 67.7019 30.9183 65.4868 31.9355 62.425C32.5497 62.5984 34.9372 63.2466 35.4879 63.4032C35.4785 63.5842 35.4747 63.7672 35.4747 63.9502V66.6172C35.4747 70.5574 37.3722 74.0638 40.3014 76.2668V78.0228ZM51.011 79.4003C51.011 79.4025 51.0107 79.4046 51.0107 79.4069C51.0107 81.689 49.1366 82.7284 47.3953 82.7284C45.564 82.7284 44.0739 81.2384 44.0739 79.4069C44.0739 79.4052 44.0737 79.4035 44.0737 79.4016V78.1794C44.5321 78.3171 45.0017 78.4302 45.4827 78.5113C46.1523 78.6283 46.8407 78.6886 47.5443 78.6886C48.1252 78.6886 48.6967 78.6471 49.255 78.566C49.8548 78.483 50.4414 78.3529 51.011 78.1813V79.4003ZM52.0145 73.6073C49.4793 75.2975 45.6738 75.382 43.1401 73.6469C40.8518 72.2082 39.3161 69.6833 39.2531 66.8005C44.192 63.5099 50.8943 63.5101 55.8373 66.8013C55.7745 69.6558 54.2671 72.1618 52.0145 73.6073ZM90.9703 87.5457H84.6484V79.9148C84.6484 78.8731 83.804 78.0287 82.7623 78.0287C81.7206 78.0287 80.8761 78.8731 80.8761 79.9148V87.5457H67.3052C65.861 81.2934 60.6712 79.7634 56.0169 78.3906C55.6095 78.2718 55.1964 78.1492 54.7834 78.0228V76.2725C57.7163 74.0675 59.6157 70.5593 59.6157 66.6172V63.9822C59.6157 63.7542 59.6082 63.5279 59.5955 63.3026C60.051 63.1768 60.5071 63.0537 60.956 62.9328C61.5675 62.7679 62.1886 62.6 62.8071 62.4256C63.8245 65.487 66.7137 67.7021 70.1124 67.7021C73.5133 67.7021 76.4046 65.4872 77.4228 62.4258C78.0365 62.5989 78.6533 62.7658 79.2606 62.9296C86.4699 64.8727 90.8573 66.5176 90.9701 72.9485V87.5457H90.9703ZM87.2549 61.6189C85.0019 60.5702 82.5227 59.9017 80.2424 59.287C79.404 59.061 78.595 58.843 77.8156 58.6144V55.6211C80.1686 54.251 82.1276 52.2752 83.4756 49.9073C85.6196 53.9712 89.329 56.2776 92.3893 57.5514C91.4862 60.1775 90.2143 61.12 87.2549 61.6189Z" fill="#5C3EBB"/>
<path d="M47.107 24.587C47.4724 24.9397 47.9447 25.1161 48.417 25.1161C48.8893 25.1161 49.3614 24.9397 49.7269 24.587L59.7081 14.9531C63.0068 11.7721 63.1028 6.50062 59.921 3.20078C58.3842 1.61018 56.3128 0.712368 54.0886 0.672759C51.9731 0.635036 49.9744 1.37611 48.417 2.76564C46.8588 1.37592 44.8597 0.635602 42.7455 0.672759C40.5213 0.712368 38.4499 1.61037 36.9102 3.20361C33.7341 6.50477 33.8307 11.7756 37.1253 14.9525L47.107 24.587ZM39.6257 5.82217C40.4632 4.95548 41.5949 4.46621 42.8128 4.44451C42.8409 4.44414 42.869 4.44376 42.8973 4.44376C44.0831 4.44376 45.1971 4.89078 46.0434 5.70843L47.1074 6.73507C47.8381 7.44012 48.996 7.44012 49.7267 6.73507L50.7918 5.70749C51.657 4.87135 52.8012 4.42301 54.0213 4.44451C55.2392 4.46621 56.3709 4.95548 57.207 5.82085C58.9438 7.62194 58.8912 10.5006 57.0892 12.2383L48.4171 20.6085L39.7446 12.2378C37.9448 10.5023 37.8929 7.62307 39.6257 5.82217V5.82217Z" fill="#5C3EBB"/>
<path d="M47.5346 92.1279C46.4929 92.1279 45.6484 92.9724 45.6484 94.0141C45.6484 95.0558 46.4929 95.9003 47.5346 95.9003H47.5453C48.5871 95.9003 49.4262 95.0558 49.4262 94.0141C49.4262 92.9724 48.5763 92.1279 47.5346 92.1279Z" fill="#5C3EBB"/>
</g>
<defs>
<clipPath id="clip0_528_1793">
<rect width="96.5714" height="96.5714" fill="white"/>
</clipPath>
</defs>
</svg>
