<svg width="32" height="32" viewBox="0 0 32 32" fill="none" xmlns="http://www.w3.org/2000/svg">
<path d="M12.285 27.6243C12.814 27.4657 13.1142 26.9083 12.9555 26.3793C12.7968 25.8503 12.2393 25.5501 11.7103 25.7087L12.285 27.6243ZM2.90684 21.6965C2.37104 21.5625 1.82811 21.8883 1.69416 22.4241C1.56021 22.9599 1.88597 23.5027 2.42176 23.6367L2.90684 21.6965ZM20.3309 30.6665C20.3309 31.2189 20.7787 31.6665 21.3309 31.6665C21.8833 31.6665 22.3309 31.2189 22.3309 30.6665H20.3309ZM21.3309 25.5065L20.3341 25.4281C20.3319 25.4543 20.3309 25.4803 20.3309 25.5065H21.3309ZM20.0775 22.0265L19.9668 21.0327C19.5876 21.0749 19.2655 21.3293 19.1365 21.6885C19.0075 22.0475 19.094 22.4487 19.3596 22.7227L20.0775 22.0265ZM28.6643 12.6932H29.6643V12.6931L28.6643 12.6932ZM26.6643 7.69324L25.7273 7.3436C25.5935 7.70214 25.6761 8.1056 25.9399 8.38276L26.6643 7.69324ZM26.5443 2.66658L27.4633 2.27264C27.3463 1.99938 27.1137 1.79241 26.8287 1.70787L26.5443 2.66658ZM21.3309 4.63992L21.0693 5.6051C21.3487 5.68082 21.6473 5.63174 21.8877 5.47056L21.3309 4.63992ZM11.9976 4.63992L11.4408 5.47056C11.6812 5.63174 11.9797 5.68082 12.2592 5.6051L11.9976 4.63992ZM6.78424 2.66658L6.49988 1.70787C6.21486 1.79241 5.98222 1.99938 5.8651 2.27264L6.78424 2.66658ZM6.66424 7.69324L7.3885 8.38278C7.65238 8.10562 7.73494 7.70214 7.60112 7.3436L6.66424 7.69324ZM4.66424 12.7332H5.66426L5.66422 12.7279L4.66424 12.7332ZM13.2509 22.0665L13.9695 22.7619C14.2332 22.4895 14.3201 22.0915 14.194 21.7339C14.0678 21.3763 13.7504 21.1209 13.3742 21.0741L13.2509 22.0665ZM11.9976 25.5065H12.9976C12.9976 25.4831 12.9968 25.4597 12.9951 25.4365L11.9976 25.5065ZM10.9976 30.6665C10.9976 31.2189 11.4453 31.6665 11.9976 31.6665C12.5499 31.6665 12.9976 31.2189 12.9976 30.6665H10.9976ZM11.7103 25.7087C10.1573 26.1747 9.09132 26.1837 8.32968 26.0053C7.58092 25.8301 7.03036 25.4517 6.53806 24.9595C6.2863 24.7077 6.05338 24.4297 5.813 24.1287C5.58494 23.8429 5.3244 23.5027 5.07138 23.2055C4.56088 22.6063 3.88936 21.9421 2.90684 21.6965L2.42176 23.6367C2.77256 23.7243 3.10104 23.9767 3.54888 24.5025C3.77502 24.7679 3.98324 25.0423 4.24998 25.3763C4.50436 25.6951 4.7923 26.0421 5.12386 26.3737C5.79822 27.0481 6.66434 27.6697 7.87392 27.9527C9.0706 28.2329 10.5046 28.1585 12.285 27.6243L11.7103 25.7087ZM22.3309 30.6665V25.5065H20.3309V30.6665H22.3309ZM22.3279 25.5849C22.4515 24.0127 21.8935 22.4629 20.7955 21.3305L19.3596 22.7227C20.0577 23.4427 20.4127 24.4283 20.3341 25.4281L22.3279 25.5849ZM20.1883 23.0205C22.3379 22.7809 24.7297 22.2399 26.5845 20.6803C28.4879 19.0797 29.6643 16.5495 29.6643 12.6932H27.6643C27.6643 16.117 26.6405 18.0201 25.2973 19.1495C23.9055 20.3199 22.0039 20.8057 19.9668 21.0327L20.1883 23.0205ZM29.6643 12.6931C29.6639 10.5748 28.8491 8.53788 27.3885 7.00372L25.9399 8.38276C27.0467 9.54516 27.6639 11.0885 27.6643 12.6934L29.6643 12.6931ZM27.6011 8.04288C28.2989 6.1733 28.2495 4.1068 27.4633 2.27264L25.6251 3.06052C26.2087 4.42196 26.2453 5.95588 25.7273 7.3436L27.6011 8.04288ZM26.5443 2.66658C26.8287 1.70787 26.8277 1.70758 26.8267 1.70729C26.8263 1.7072 26.8253 1.70691 26.8247 1.70671C26.8233 1.70632 26.8221 1.70593 26.8207 1.70553C26.8179 1.70473 26.8149 1.70392 26.8121 1.70309C26.8061 1.70142 26.7997 1.6997 26.7929 1.69793C26.7793 1.69438 26.7643 1.69065 26.7475 1.68683C26.7139 1.67918 26.6737 1.67122 26.6271 1.66378C26.5335 1.64887 26.4145 1.63617 26.2691 1.63217C25.9777 1.62415 25.5851 1.65117 25.0859 1.76202C24.0891 1.98332 22.6715 2.53736 20.7741 3.80926L21.8877 5.47056C23.6303 4.30248 24.8195 3.86984 25.5193 3.71448C25.8683 3.637 26.0967 3.62818 26.2141 3.6314C26.2729 3.63304 26.3053 3.63772 26.3121 3.63882C26.3155 3.63936 26.3127 3.63904 26.3039 3.63704C26.2995 3.63604 26.2937 3.63464 26.2863 3.6327C26.2827 3.63174 26.2787 3.63066 26.2743 3.62942C26.2721 3.6288 26.2697 3.62816 26.2673 3.62746C26.2661 3.62712 26.2649 3.62678 26.2637 3.6264C26.2631 3.62622 26.2621 3.62596 26.2619 3.62586C26.2609 3.62558 26.2599 3.6253 26.5443 2.66658ZM21.5925 3.67474C18.3652 2.80006 14.9633 2.80006 11.736 3.67474L12.2592 5.6051C15.1438 4.82328 18.1846 4.82328 21.0693 5.6051L21.5925 3.67474ZM12.5544 3.80926C10.6569 2.53736 9.23948 1.98332 8.24264 1.76202C7.74332 1.65117 7.35084 1.62415 7.05944 1.63217C6.914 1.63617 6.7949 1.64887 6.70146 1.66378C6.6548 1.67122 6.6147 1.67918 6.58108 1.68683C6.56428 1.69065 6.54912 1.69438 6.53558 1.69793C6.52882 1.6997 6.52246 1.70142 6.5165 1.70309C6.51352 1.70392 6.51066 1.70473 6.50788 1.70553C6.5065 1.70593 6.50514 1.70632 6.5038 1.70671C6.50314 1.70691 6.50216 1.7072 6.50182 1.70729C6.50084 1.70758 6.49988 1.70787 6.78424 2.66658C7.0686 3.6253 7.06764 3.62558 7.0667 3.62586C7.06638 3.62596 7.06544 3.62622 7.06482 3.6264C7.06358 3.62678 7.06238 3.62712 7.06118 3.62746C7.0588 3.62816 7.0565 3.6288 7.05428 3.62942C7.04988 3.63066 7.04584 3.63174 7.04216 3.6327C7.0348 3.63464 7.02892 3.63604 7.02452 3.63704C7.01572 3.63904 7.01298 3.63936 7.01644 3.63882C7.02326 3.63772 7.05552 3.63304 7.11446 3.6314C7.23182 3.62818 7.46016 3.637 7.80918 3.71448C8.509 3.86984 9.69822 4.30248 11.4408 5.47056L12.5544 3.80926ZM5.8651 2.27264C5.07898 4.1068 5.02964 6.1733 5.72736 8.04288L7.60112 7.3436C7.08324 5.95588 7.11984 4.42196 7.70338 3.06052L5.8651 2.27264ZM5.94 7.0037C4.46854 8.54924 3.65292 10.6046 3.66426 12.7386L5.66422 12.7279C5.65564 11.1111 6.27362 9.55378 7.3885 8.38278L5.94 7.0037ZM3.66424 12.7332C3.66424 16.566 4.8425 19.0814 6.744 20.6803C8.59534 22.2369 10.9831 22.7925 13.1277 23.0589L13.3742 21.0741C11.332 20.8205 9.42648 20.3227 8.03116 19.1495C6.68598 18.0184 5.66424 16.1271 5.66424 12.7332H3.66424ZM12.5323 21.3711C11.4477 22.4919 10.8906 24.0209 11 25.5767L12.9951 25.4365C12.9255 24.4471 13.2798 23.4747 13.9695 22.7619L12.5323 21.3711ZM10.9976 25.5065V30.6665H12.9976V25.5065H10.9976Z" fill="#343A40"/>
</svg>
