<svg width="248" height="230" viewBox="0 0 248 230" fill="none" xmlns="http://www.w3.org/2000/svg">
<g opacity="0.08">
<path d="M168.753 230C160.05 230 153.009 222.85 153.009 214.013V158.582C153.009 142.515 161 128.376 173.104 119.86C169.306 95.7595 148.737 77.2823 123.976 77.2823C99.2138 77.2823 78.5658 95.7595 74.8476 119.86C86.9516 128.295 94.9418 142.515 94.9418 158.582V214.013C94.9418 222.85 87.9009 230 79.1987 230C70.4965 230 63.4556 222.85 63.4556 214.013V127.813C63.4556 127.171 63.4556 126.528 63.4556 125.805C58.9463 123.716 53.9623 122.592 48.7409 122.592C29.2005 122.592 13.2992 138.739 13.2992 158.582V200.758C13.2992 203.811 10.8467 206.221 7.9196 206.221C4.91338 206.221 2.54004 203.73 2.54004 200.758V158.582C2.54004 132.714 23.2672 111.666 48.7409 111.666C54.3578 111.666 59.8165 112.71 64.8005 114.558C70.8129 87.0029 95.021 66.2764 123.976 66.2764C152.93 66.2764 177.138 86.9226 183.151 114.558C188.135 112.63 193.593 111.666 199.21 111.666C224.684 111.666 245.411 132.714 245.411 158.582V200.758C245.411 203.811 242.959 206.221 240.032 206.221C237.025 206.221 234.652 203.73 234.652 200.758V158.582C234.652 138.739 218.751 122.592 199.21 122.592C193.989 122.592 189.005 123.716 184.496 125.805C184.496 126.448 184.496 127.09 184.496 127.813V213.933C184.496 222.85 177.455 230 168.753 230ZM173.737 133.598C167.566 140.105 163.769 148.861 163.769 158.582V214.013C163.769 216.825 165.984 219.074 168.753 219.074C171.521 219.074 173.737 216.825 173.737 214.013V133.598ZM74.2147 133.598V213.933C74.2147 216.745 76.4298 218.994 79.1987 218.994C81.9676 218.994 84.1827 216.745 84.1827 213.933V158.502C84.1827 148.861 80.3854 140.105 74.2147 133.598Z" fill="white"/>
<path d="M199.21 122.592C182.675 122.592 169.306 108.935 169.306 92.2252C169.306 75.4351 182.755 61.8584 199.21 61.8584C215.744 61.8584 229.114 75.5154 229.114 92.2252C229.114 109.015 215.665 122.592 199.21 122.592ZM199.21 72.784C188.688 72.784 180.065 81.4603 180.065 92.2252C180.065 102.99 188.609 111.666 199.21 111.666C209.731 111.666 218.355 102.99 218.355 92.2252C218.355 81.4603 209.731 72.784 199.21 72.784Z" fill="white"/>
<path d="M123.975 76.3187C103.248 76.3187 86.3975 59.2073 86.3975 38.1594C86.3975 17.1115 103.248 0 123.975 0C144.702 0 161.553 17.1115 161.553 38.1594C161.553 59.2073 144.702 76.3187 123.975 76.3187ZM123.975 11.006C109.181 11.006 97.2357 23.217 97.2357 38.1594C97.2357 53.1821 109.261 65.3128 123.975 65.3128C138.769 65.3128 150.715 53.1018 150.715 38.1594C150.715 23.217 138.769 11.006 123.975 11.006Z" fill="white"/>
<path d="M47.8698 122.592C31.3356 122.592 17.9658 108.935 17.9658 92.2252C17.9658 75.4351 31.4147 61.8584 47.8698 61.8584C64.325 61.8584 77.7739 75.5154 77.7739 92.2252C77.7739 109.015 64.325 122.592 47.8698 122.592ZM47.8698 72.784C37.3481 72.784 28.7249 81.4603 28.7249 92.2252C28.7249 102.99 37.2689 111.666 47.8698 111.666C58.3916 111.666 67.0147 102.99 67.0147 92.2252C67.0147 81.4603 58.3916 72.784 47.8698 72.784Z" fill="white"/>
</g>
<mask id="mask0_252_385" style="mask-type:alpha" maskUnits="userSpaceOnUse" x="0" y="0" width="248" height="197">
<rect y="0.128418" width="247.037" height="195.936" fill="#C4C4C4"/>
</mask>
<g mask="url(#mask0_252_385)">
</g>
</svg>
