<svg width="483" height="353" viewBox="0 0 483 353" fill="none" xmlns="http://www.w3.org/2000/svg">
<path d="M465.737 259.158C478.533 246.257 488.313 231.692 478.637 229.403C468.962 227.114 452.524 252.5 449.715 275.596L446.906 283.191C449.299 266.337 443.473 245.945 435.046 245.113C426.619 244.281 431.716 257.597 438.375 268.938C443.473 277.573 444.825 284.439 445.137 287.976L431.716 323.973C435.358 297.34 426.306 265.088 412.886 263.736C399.569 262.383 407.684 283.503 418.192 301.501C426.202 315.13 428.283 325.846 428.907 331.568L426.202 338.747C427.347 339.371 428.595 340.099 429.74 340.724L445.762 297.86C448.883 295.571 453.564 292.762 460.223 290.473C472.707 286.208 485.192 279.549 478.325 274.66C472.395 270.394 458.35 278.509 448.675 290.057L454.189 275.18C456.685 270.81 460.223 264.672 465.737 259.158Z" fill="#1C31B5"/>
<path d="M61.4473 90.929C63.1119 75.3234 61.8634 60.342 54.0606 63.9833C46.2578 67.7286 49.0668 93.53 59.5746 110.592L61.7594 117.251C54.2687 104.662 39.3913 94.0502 33.253 98.0036C27.2189 101.957 37.7267 108.095 48.3385 112.153C56.3494 115.274 60.9271 119.123 63.1119 121.308L73.5156 152.727C61.5513 132.96 38.0388 116.21 28.3633 122.452C18.6878 128.695 35.4378 138.578 52.2919 144.925C64.9845 149.814 72.2672 155.849 75.5964 159.282L77.6771 165.524C78.8215 165.316 79.966 165.108 81.1104 164.9L68.7299 127.446C69.5622 124.221 71.2268 119.852 74.452 114.754C80.5902 105.182 85.3759 93.9461 78.0933 94.3623C71.851 94.7784 66.7532 107.783 66.4411 120.684L62.2796 107.887C61.6553 103.726 60.719 97.6915 61.4473 90.929Z" fill="#1C31B5"/>
<path d="M379.179 302.022C379.387 302.854 379.491 303.894 379.699 304.935C381.988 315.65 387.71 333.233 400.402 336.666C400.402 336.666 393.432 300.461 418.193 290.994C442.954 281.526 440.249 272.579 438.792 256.557C437.336 240.535 431.926 237.518 449.092 222.537C466.258 207.555 462.929 185.291 462.929 185.291C462.929 185.291 446.699 210.78 429.325 211.301C411.95 211.925 408.933 226.698 409.662 237.726C410.39 248.754 395.616 250.003 387.71 256.349C379.699 262.695 378.242 296.299 378.242 296.299C378.242 296.299 378.554 298.588 379.179 302.022Z" fill="#6752A9"/>
<path d="M379.178 302.022C379.386 302.854 379.49 303.894 379.698 304.935C381.467 299.525 383.963 295.051 386.356 291.514C391.87 283.295 399.777 276.532 406.748 273.827C417.984 269.562 423.394 258.638 424.434 238.246C425.058 226.386 437.439 219.416 437.543 219.312C437.855 219.103 438.063 218.687 437.855 218.271C437.647 217.855 437.231 217.751 436.815 217.959C436.294 218.271 423.602 225.45 422.874 238.142C421.833 257.91 416.735 268.417 406.123 272.475C398.737 275.284 390.83 282.046 385.004 290.681C383.027 293.699 380.842 297.444 379.178 302.022Z" fill="white"/>
<path d="M105.246 336.458H122.621C113.257 334.897 89.9529 324.91 87.8721 304.83C85.2712 279.445 76.2199 279.757 60.9264 277.052C45.6328 274.347 41.4713 278.717 31.7958 259.054C22.1203 239.287 0.480469 236.894 0.480469 236.894C0.480469 236.894 20.1436 258.326 16.3982 274.659C12.6529 290.993 25.6576 297.548 36.1654 299.525C46.5692 301.605 44.0723 315.65 48.1297 324.598C49.8984 328.759 57.3891 333.025 64.8798 336.354H105.246V336.458Z" fill="#3D2A7C"/>
<path d="M67.4804 311.385C68.2087 318.979 72.5783 328.031 79.1326 335.626C79.3407 335.938 79.6528 336.146 79.8609 336.458H81.9416C81.4215 335.834 80.7972 335.313 80.3811 334.689C74.1388 327.511 69.7692 318.459 69.041 311.281C67.8966 299.837 59.0534 291.93 40.2225 285.895C29.2986 282.358 25.8653 269.041 25.8653 268.937C25.7613 268.521 25.3451 268.313 25.033 268.417C24.6169 268.521 24.4088 268.937 24.5128 269.249C24.6169 269.874 28.1542 283.399 39.8064 287.248C57.9089 293.178 66.44 300.565 67.4804 311.385Z" fill="white"/>
<path d="M114.609 289.329C114.193 290.577 113.777 291.93 113.361 293.282C108.367 308.264 98.2755 333.441 79.5487 336.458C79.5487 336.458 94.4261 284.855 60.5098 267.585C26.5935 250.315 31.8994 237.934 36.3731 215.358C40.8467 192.782 49.1697 189.244 26.9056 165.316C4.74559 141.283 12.8605 109.968 12.8605 109.968C12.8605 109.968 32.1075 148.774 56.7645 152.311C81.4214 155.848 83.5021 177.384 80.7972 192.99C78.0922 208.596 98.8997 212.653 109.303 222.953C119.707 233.252 116.69 281.422 116.69 281.422C116.69 281.422 115.962 284.543 114.609 289.329Z" fill="#6752A9"/>
<path d="M114.61 289.329C114.194 290.577 113.777 291.93 113.361 293.282C111.697 285.271 108.784 278.509 105.975 273.203C99.3162 260.614 89.2245 249.794 79.549 244.905C64.2555 237.206 58.1173 220.664 59.7819 191.429C60.7182 174.471 44.0722 162.507 43.9681 162.403C43.448 162.091 43.3439 161.362 43.656 160.946C43.9681 160.426 44.6964 160.322 45.1126 160.634C45.8408 161.154 62.903 173.327 61.8626 191.533C60.3021 219.832 66.0241 235.749 80.4854 243.032C90.6811 248.13 100.877 259.054 107.847 272.267C110.344 276.844 112.841 282.566 114.61 289.329Z" fill="#3D2A7C"/>
<path d="M128.032 324.285C128.136 328.239 128.136 332.296 128.24 336.458H166.11C166.214 331.984 166.214 327.615 166.318 323.557C166.422 312.529 166.422 303.478 166.422 297.86C166.422 293.906 166.422 291.618 166.422 291.618L127.824 291.201C127.824 291.201 127.824 294.531 127.824 299.941C127.824 305.975 127.824 314.714 128.032 324.285Z" fill="#18315B"/>
<path d="M127.822 299.941C127.822 305.975 127.926 314.714 128.03 324.285C139.891 325.222 152.895 325.222 166.212 323.453C166.316 312.425 166.316 303.374 166.316 297.756L127.822 299.941Z" fill="#000B29"/>
<path d="M80.3814 315.65C80.3814 321.789 80.4854 328.863 80.5895 336.458H118.459C118.563 331.984 118.667 327.615 118.667 323.453C118.771 314.402 118.875 306.287 118.875 300.461C118.875 294.739 118.875 291.201 118.875 291.201L80.2773 291.618C80.2773 291.618 80.2773 295.675 80.2773 302.646C80.2773 306.183 80.2773 310.552 80.3814 315.65Z" fill="#18315B"/>
<path d="M80.2773 302.542C80.2773 306.183 80.2773 310.553 80.2773 315.65C87.9761 317.939 101.709 321.477 118.563 323.453C118.667 314.402 118.771 306.287 118.771 300.461L80.2773 302.542Z" fill="#000B29"/>
<path d="M143.742 88.224C143.742 88.224 149.776 82.3979 149.776 76.5718C149.776 70.7457 145.823 72.5143 143.742 67.1043C141.661 61.6944 135.419 58.4692 131.882 59.0934C128.448 59.7177 121.166 46.2968 111.386 48.6897C101.503 51.0825 102.439 63.6711 98.1735 65.5438C93.9079 67.4165 95.1564 74.9072 97.3412 76.5718C99.526 78.2364 100.566 85.1029 101.815 84.9988C102.959 84.7907 143.742 88.224 143.742 88.224Z" fill="#425C86"/>
<path d="M102.75 88.0159C102.75 88.0159 98.9007 82.9181 96.0916 87.1837C93.2826 91.4492 97.2361 103.83 104.207 100.813L102.75 88.0159Z" fill="#F97853"/>
<path d="M102.75 96.9631C102.542 96.9631 102.23 96.7551 102.23 96.547C101.19 92.6976 97.1324 91.137 97.1324 91.137C96.8203 91.033 96.7162 90.7209 96.8203 90.4087C96.9243 90.0966 97.2364 89.9926 97.5485 90.0966C97.7566 90.2007 102.126 91.8653 103.375 96.3389C103.479 96.651 103.271 96.9631 102.958 97.0672C102.854 96.9631 102.75 96.9631 102.75 96.9631Z" fill="#EA5143"/>
<path d="M98.6918 94.9865C98.5877 94.9865 98.4837 94.9864 98.3797 94.8824C98.0676 94.6743 98.0676 94.3622 98.1716 94.0501C98.1716 94.0501 98.8999 92.9057 100.356 92.2814C100.669 92.1774 100.981 92.2814 101.085 92.5936C101.189 92.9057 101.085 93.2178 100.773 93.3218C99.6281 93.842 99.1079 94.6743 99.1079 94.6743C99.1079 94.8824 98.8999 94.9865 98.6918 94.9865Z" fill="#EA5143"/>
<path d="M142.181 88.0159C142.181 88.0159 146.031 82.9181 148.84 87.1837C151.649 91.4492 147.695 103.83 140.725 100.813L142.181 88.0159Z" fill="#F97853"/>
<path d="M142.181 96.9631C142.389 96.9631 142.701 96.7551 142.701 96.547C143.741 92.6976 147.799 91.137 147.799 91.137C148.111 91.033 148.215 90.7209 148.111 90.4087C148.007 90.0966 147.695 89.9926 147.382 90.0966C147.174 90.2007 142.805 91.8653 141.556 96.3389C141.452 96.651 141.66 96.9631 141.973 97.0672C142.077 96.9631 142.181 96.9631 142.181 96.9631Z" fill="#EA5143"/>
<path d="M146.239 94.9865C146.343 94.9865 146.447 94.9864 146.551 94.8824C146.863 94.6743 146.863 94.3622 146.759 94.0501C146.759 94.0501 146.03 92.9057 144.574 92.2814C144.262 92.1774 143.95 92.2814 143.846 92.5936C143.742 92.9057 143.846 93.2178 144.158 93.3218C145.302 93.842 145.822 94.6743 145.822 94.6743C145.822 94.8824 146.03 94.9865 146.239 94.9865Z" fill="#EA5143"/>
<path d="M131.88 111.32V123.701C131.88 123.701 128.239 130.047 123.245 130.463C118.251 130.879 113.777 125.053 113.777 125.053V112.257L131.88 111.32Z" fill="#FFA681"/>
<path d="M131.88 111.32V116.834C128.551 120.58 122.621 121.516 113.777 120.164V112.153L131.88 111.32Z" fill="#F97853"/>
<path d="M144.99 79.5889C144.782 84.3747 144.262 90.4088 143.429 95.1946C143.221 96.443 142.909 97.4834 142.701 98.5238C140.1 107.679 133.546 123.285 115.339 116.73C107.328 113.817 103.583 104.87 101.918 95.7148C100.774 89.4725 100.67 83.2302 100.67 78.7566C100.774 74.179 103.271 70.0174 107.224 67.7286C117.94 61.5904 129.384 63.8792 136.875 66.7923C141.869 68.9771 145.198 74.0749 144.99 79.5889Z" fill="#FFA681"/>
<path d="M101.709 95.8186C101.709 95.8186 103.478 106.326 105.142 110.176C106.807 114.025 111.384 114.753 113.049 117.979C115.546 122.66 119.187 126.302 125.326 124.013C130.423 122.14 130.215 119.539 133.024 117.562C137.914 114.129 140.307 110.28 140.515 107.159C140.723 104.038 143.116 95.1944 143.116 95.1944L140.515 94.9863C140.515 94.9863 139.059 98.1074 136.77 101.541C134.585 96.6509 123.869 100.188 123.869 100.188L121.788 100.812L119.708 100.188C119.708 100.188 108.888 96.755 106.807 101.853C105.454 99.8761 104.414 97.5873 103.998 95.1944L101.709 95.8186ZM122.1 102.477C134.273 100.396 132.088 107.575 132.088 107.783C131.256 108.615 130.423 109.239 129.591 109.656C124.805 112.257 124.389 111.84 122.517 111.944C120.644 112.048 118.043 111.424 115.338 109.968C114.506 109.552 113.257 108.615 111.905 107.367C111.801 107.471 109.928 100.916 122.1 102.477Z" fill="#425C86"/>
<path d="M114.715 89.6805C114.715 91.033 113.987 92.0733 113.154 92.0733C112.322 92.0733 111.594 91.033 111.594 89.6805C111.594 88.328 112.322 87.2876 113.154 87.2876C114.091 87.2876 114.715 88.328 114.715 89.6805Z" fill="#18315B"/>
<path d="M132.816 89.6805C132.816 91.033 132.088 92.0733 131.256 92.0733C130.424 92.0733 129.695 91.033 129.695 89.6805C129.695 88.328 130.424 87.2876 131.256 87.2876C132.192 87.2876 132.816 88.328 132.816 89.6805Z" fill="#18315B"/>
<path d="M137.29 81.7737C137.29 81.7737 131.048 79.2768 126.158 81.3575L126.678 84.0625C126.678 84.0625 133.753 83.4383 137.394 84.8948C137.706 83.9585 137.706 82.9181 137.29 81.7737Z" fill="#18315B"/>
<path d="M107.431 81.7737C107.431 81.7737 113.778 79.2768 118.667 81.3575L118.147 84.0625C118.147 84.0625 110.969 83.4383 107.431 84.8948C107.015 83.9585 107.015 82.9181 107.431 81.7737Z" fill="#18315B"/>
<path d="M122.725 99.6683C123.766 99.6683 124.702 99.2521 124.806 99.2521C125.118 99.1481 125.222 98.836 125.118 98.5239C125.014 98.2117 124.702 98.1077 124.39 98.2117C123.87 98.4198 122.621 98.7319 121.997 98.4198C121.893 98.3158 121.789 98.2117 121.685 97.8996C121.477 95.8189 121.997 88.9524 121.997 88.8483C121.997 88.5362 121.789 88.2241 121.477 88.2241C121.165 88.2241 120.853 88.4322 120.853 88.7443C120.853 89.0564 120.228 95.8189 120.541 98.0037C120.645 98.836 121.061 99.2521 121.373 99.4602C121.789 99.6683 122.205 99.6683 122.725 99.6683Z" fill="#F97853"/>
<path d="M115.234 103.726C115.651 106.014 117.211 110.072 122.205 110.072C127.199 110.072 128.655 106.327 129.071 103.726H115.234Z" fill="white"/>
<path d="M144.99 79.5888C144.782 84.3745 144.262 90.4087 143.429 95.1944L140.828 94.9864C140.828 94.9864 141.453 90.9289 141.765 88.3279C142.077 85.727 142.597 80.7332 140.308 80.109C138.019 79.4847 139.372 73.8667 136.251 71.3698C133.13 68.8729 126.159 66.7921 121.581 69.6012C117.004 72.4102 111.698 70.8496 109.617 71.3698C107.432 71.89 104.623 74.803 105.352 77.508C106.184 80.213 103.791 81.8776 103.167 84.7907C102.647 87.5997 104.415 95.2985 104.415 95.2985L101.918 95.8186C100.774 89.5764 100.67 83.3341 100.67 78.8605C100.774 74.2829 103.049 69.7887 107.002 67.4998C117.718 61.3616 129.511 63.5869 137.002 66.5C141.996 68.5808 145.198 74.0748 144.99 79.5888Z" fill="#425C86"/>
<path d="M174.328 310.136C162.467 313.154 150.503 315.13 138.643 315.963C138.123 315.963 137.602 316.067 136.978 316.067C135.314 316.171 133.753 316.275 132.088 316.379C123.973 316.691 115.859 316.587 107.744 315.963C106.079 315.858 104.518 315.65 102.854 315.546C102.334 315.546 101.813 315.442 101.293 315.338C91.6177 314.298 81.9422 312.529 72.2667 310.136C72.1627 301.189 72.2667 272.995 72.7869 242.512C72.8909 238.871 72.891 235.125 72.995 231.38C73.8273 191.117 75.4919 150.23 78.509 146.069C81.318 142.116 89.9531 137.122 98.1721 132.648C98.6923 132.336 99.1085 132.128 99.6286 131.816C101.501 130.775 103.27 129.839 104.935 128.903C108.576 126.926 111.697 125.157 113.674 123.805V124.949C113.674 124.949 118.147 130.775 123.037 130.359C127.615 129.943 131.048 124.741 131.672 123.805C133.857 125.365 137.706 127.446 142.18 129.735C143.429 130.359 144.677 131.088 146.029 131.712C146.55 131.92 146.966 132.232 147.486 132.44C156.537 137.226 166.421 142.74 169.334 146.693C169.542 147.005 169.75 147.526 169.958 148.15C171.727 154.08 172.767 173.639 173.391 197.256C173.391 197.36 173.391 197.464 173.391 197.464C173.391 198.4 173.495 199.336 173.495 200.377C173.495 200.481 173.495 200.585 173.495 200.793C173.703 209.116 173.912 217.855 174.016 226.594C174.016 227.322 174.016 227.947 174.016 228.675C174.016 228.987 174.016 229.403 174.016 229.715C174.016 231.484 174.016 233.149 174.12 234.917C174.12 236.166 174.12 237.414 174.12 238.767C174.536 270.81 174.432 300.773 174.328 310.136Z" fill="#785DD3"/>
<path d="M173.6 200.689C170.687 196.007 167.669 191.221 164.756 187.06C163.508 185.291 162.364 183.627 161.219 182.066C161.219 182.066 161.219 181.962 161.115 181.962C160.803 181.442 160.387 181.026 160.075 180.609C159.971 180.505 159.971 180.401 159.971 180.401C159.867 180.089 159.971 179.777 160.283 179.569C160.595 179.257 161.115 179.361 161.427 179.673C164.86 184.251 169.334 190.909 173.6 197.672C173.6 197.776 173.6 197.88 173.6 197.88C173.496 198.816 173.6 199.752 173.6 200.689Z" fill="#5C3EBB"/>
<path d="M169.542 146.277C169.542 146.277 187.437 179.153 198.465 195.799C198.465 195.799 204.707 190.077 212.822 182.482C221.561 174.159 233.63 160.322 233.63 160.322L240.288 168.229C240.288 168.229 213.342 216.711 201.274 222.849C189.205 228.987 166.941 185.811 166.941 185.811L169.542 146.277Z" fill="#785DD3"/>
<path d="M93.5949 275.804C93.5949 275.804 93.4909 275.804 93.5949 275.804C93.0748 275.804 92.7626 275.388 92.7626 274.972C93.699 248.442 79.966 239.807 79.7579 239.703C79.3418 239.495 79.2378 238.975 79.4458 238.558C79.6539 238.142 80.1741 238.038 80.5902 238.246C80.6943 238.35 84.3356 240.535 87.8729 246.257C91.098 251.459 94.8434 260.614 94.3232 274.972C94.3232 275.492 94.0111 275.804 93.5949 275.804Z" fill="#5C3EBB"/>
<path d="M152.273 250.835C151.857 250.835 151.545 250.523 151.441 250.107C151.025 244.489 152.898 240.431 155.186 235.229C155.915 233.669 156.539 232.108 157.267 230.444C161.741 219.52 159.556 206.931 159.452 206.827C159.348 206.411 159.66 205.995 160.076 205.891C160.492 205.787 160.908 206.099 161.013 206.515C161.117 207.035 163.405 219.624 158.724 231.068C157.995 232.837 157.267 234.397 156.643 235.958C154.354 241.055 152.69 244.801 153.002 250.003C153.106 250.419 152.794 250.835 152.273 250.835Z" fill="#5C3EBB"/>
<path d="M105.039 129.007C105.351 131.608 105.871 135.041 106.496 138.891C106.704 140.035 106.808 141.179 107.016 142.428C107.536 146.381 108.16 150.751 108.68 155.12C108.784 156.265 108.992 157.513 109.097 158.658C109.513 163.027 109.825 167.293 110.033 171.246C110.033 172.495 110.137 173.639 110.033 174.784C110.033 177.801 109.825 180.61 109.513 183.003C109.305 184.563 109.097 186.02 108.888 187.476C108.784 188.725 108.576 189.869 108.472 191.013C107.952 195.487 107.744 199.753 107.744 203.706C107.744 204.954 107.744 206.099 107.744 207.243C107.744 211.717 108.056 215.982 108.368 219.936C108.472 221.08 108.576 222.329 108.68 223.473C109.201 227.843 109.721 232.004 110.345 236.062C110.553 237.206 110.657 238.455 110.865 239.599C111.073 241.472 111.385 243.344 111.489 245.217C111.697 247.194 111.802 249.587 111.906 252.188C111.906 253.332 111.906 254.476 111.906 255.725C111.906 259.574 111.802 263.944 111.593 268.417C111.593 269.562 111.489 270.81 111.385 271.955C111.177 276.116 110.969 280.382 110.657 284.647C110.553 285.792 110.449 287.04 110.345 288.185C110.033 292.554 109.617 296.924 109.305 300.877C109.201 302.126 109.097 303.27 108.992 304.414C108.576 308.784 108.16 312.738 107.848 315.859C115.963 316.483 124.078 316.587 132.193 316.275C132.401 312.946 132.921 307.64 133.441 301.293C133.545 300.149 133.649 298.9 133.753 297.756C134.066 293.699 134.378 289.433 134.482 285.168C134.482 284.023 134.586 282.775 134.586 281.63C134.69 277.261 134.69 272.995 134.482 269.042C134.378 267.793 134.378 266.649 134.274 265.504C134.17 264.36 134.066 263.112 133.962 262.071C133.545 258.95 133.441 255.829 133.441 252.916C133.441 251.771 133.441 250.523 133.545 249.379C133.753 245.217 134.17 241.16 134.69 236.79C134.794 235.646 135.002 234.397 135.106 233.253C135.626 229.403 136.042 225.242 136.458 220.664C136.562 219.52 136.667 218.271 136.771 217.127C137.083 213.277 137.187 209.116 137.291 204.538C137.291 203.394 137.291 202.145 137.291 201.001C137.291 197.048 137.083 192.886 136.771 188.308C136.771 187.892 136.667 187.476 136.667 187.06C136.562 186.228 136.562 185.499 136.562 184.667C136.354 180.506 136.458 176.24 136.667 172.079C136.771 170.934 136.771 169.686 136.875 168.541C137.187 164.276 137.707 160.114 138.227 156.057C138.435 154.808 138.539 153.664 138.747 152.519C139.372 148.15 140.1 143.988 140.828 140.243C141.036 138.995 141.244 137.85 141.452 136.706C141.868 134.209 142.285 131.92 142.597 130.047C138.123 127.654 134.274 125.574 132.089 124.117C131.465 125.054 128.031 130.359 123.454 130.672C118.46 131.088 114.09 125.262 114.09 125.262V124.117C111.906 125.262 108.68 127.03 105.039 129.007Z" fill="white"/>
<path d="M106.496 138.891C106.704 140.035 106.808 141.179 107.016 142.428C111.49 142.532 116.796 141.908 123.038 140.347C129.801 138.787 135.835 139.099 140.516 139.931C140.724 138.683 140.933 137.538 141.141 136.394C136.043 135.457 129.592 135.145 122.206 136.914C115.964 138.37 110.762 139.099 106.496 138.891Z" fill="#E3E3E3"/>
<path d="M108.68 155.121C108.784 156.265 108.992 157.513 109.096 158.658C113.153 158.554 117.731 157.93 123.141 156.681C128.759 155.433 133.857 155.329 138.122 155.849C138.33 154.6 138.434 153.456 138.643 152.311C134.065 151.791 128.551 151.791 122.413 153.248C117.003 154.392 112.529 155.016 108.68 155.121Z" fill="#E3E3E3"/>
<path d="M109.93 171.247C109.93 172.495 110.034 173.639 109.93 174.784C113.675 174.576 118.045 173.951 123.038 172.807C127.928 171.663 132.506 171.559 136.355 171.871C136.459 170.726 136.459 169.478 136.563 168.333C132.402 168.021 127.512 168.229 122.206 169.374C117.628 170.414 113.467 171.142 109.93 171.247Z" fill="#E3E3E3"/>
<path d="M108.369 191.118C112.531 191.118 117.316 190.389 123.038 189.037C128.032 187.892 132.61 187.684 136.563 188.101C136.563 187.684 136.459 187.268 136.459 186.852C136.355 186.02 136.355 185.291 136.355 184.459C132.194 184.147 127.512 184.355 122.31 185.604C117.108 186.852 112.635 187.476 108.785 187.58C108.577 188.725 108.473 189.869 108.369 191.118Z" fill="#E3E3E3"/>
<path d="M107.537 207.243C111.907 207.243 117.005 206.619 123.039 205.163C128.241 203.914 133.026 203.81 137.084 204.226C137.084 203.082 137.084 201.833 137.084 200.689C132.818 200.273 127.72 200.481 122.206 201.729C116.484 203.082 111.595 203.706 107.537 203.706C107.537 204.954 107.537 206.099 107.537 207.243Z" fill="#E3E3E3"/>
<path d="M108.266 219.936C108.37 221.08 108.474 222.329 108.578 223.473C112.739 223.369 117.421 222.745 123.039 221.393C127.929 220.248 132.402 220.04 136.356 220.456C136.46 219.312 136.564 218.063 136.668 216.919C132.506 216.607 127.617 216.815 122.311 217.959C116.797 219.312 112.219 219.936 108.266 219.936Z" fill="#E3E3E3"/>
<path d="M110.24 236.062C110.448 237.206 110.552 238.455 110.76 239.599C114.402 239.391 118.459 238.767 123.141 237.622C127.302 236.686 131.152 236.374 134.689 236.582C134.793 235.438 135.001 234.189 135.105 233.045C131.256 232.837 126.99 233.149 122.413 234.189C117.731 235.23 113.673 235.958 110.24 236.062Z" fill="#E3E3E3"/>
<path d="M111.803 252.188C111.803 253.332 111.803 254.477 111.803 255.725C115.132 255.413 118.877 254.789 123.039 253.852C126.68 253.02 130.217 252.708 133.339 252.708C133.339 251.564 133.339 250.315 133.443 249.171C130.009 249.171 126.264 249.483 122.311 250.419C118.357 251.355 114.924 251.98 111.803 252.188Z" fill="#E3E3E3"/>
<path d="M111.385 272.059C114.818 271.747 118.667 271.123 123.037 270.186C127.198 269.25 130.944 268.938 134.377 269.146C134.273 267.897 134.273 266.753 134.169 265.609C130.528 265.504 126.574 265.817 122.205 266.857C118.251 267.793 114.714 268.418 111.489 268.626C111.489 269.666 111.489 270.81 111.385 272.059Z" fill="#E3E3E3"/>
<path d="M110.346 288.289C114.091 288.081 118.253 287.457 123.038 286.312C127.096 285.376 130.945 285.064 134.378 285.168C134.378 284.023 134.482 282.775 134.482 281.631C130.841 281.526 126.68 281.839 122.31 282.879C117.94 283.919 114.091 284.544 110.658 284.752C110.554 285.896 110.45 287.144 110.346 288.289Z" fill="#E3E3E3"/>
<path d="M108.992 304.519C113.05 304.414 117.627 303.79 123.037 302.542C126.679 301.709 130.112 301.397 133.337 301.397C133.441 300.253 133.545 299.005 133.649 297.86C130.216 297.86 126.366 298.172 122.309 299.109C117.419 300.253 113.05 300.877 109.408 301.085C109.2 302.23 109.096 303.374 108.992 304.519Z" fill="#E3E3E3"/>
<path d="M136.979 316.171C137.499 316.171 138.019 316.067 138.643 316.067C141.868 297.34 139.996 269.77 139.267 261.343C138.539 252.604 139.892 241.264 143.013 230.444C145.406 222.017 143.949 202.353 142.805 186.644C142.493 182.274 142.18 178.009 141.972 174.575C141.348 163.443 145.406 142.948 147.59 132.648C147.07 132.336 146.654 132.128 146.134 131.92C143.949 142.116 139.788 163.027 140.412 174.679C140.62 178.113 140.932 182.274 141.244 186.748C142.388 202.353 143.845 221.808 141.556 230.027C138.435 241.055 137.083 252.604 137.811 261.551C138.435 269.874 140.204 297.548 136.979 316.171Z" fill="#5C3EBB"/>
<path d="M104.312 239.807C106.184 251.355 105.56 258.846 104.936 267.481C104.728 270.29 104.52 273.203 104.312 276.428C103.791 286.52 102.127 306.703 101.398 315.442C101.919 315.546 102.439 315.546 102.959 315.65C103.687 306.911 105.456 286.624 105.872 276.532C106.08 273.307 106.288 270.498 106.496 267.689C107.225 258.95 107.745 251.355 105.872 239.599C105.456 237.102 105.04 234.501 104.624 232.004C102.543 219.416 100.254 206.411 101.294 200.169C101.503 198.608 101.919 196.943 102.231 195.071C103.687 187.58 105.352 178.217 104.832 170.102C104.312 162.091 100.982 140.243 99.7339 132.024C99.2137 132.336 98.7975 132.544 98.2773 132.856C99.6298 141.491 102.751 162.403 103.271 170.206C103.791 178.113 102.023 187.372 100.67 194.759C100.358 196.631 100.046 198.296 99.7339 199.856C98.6935 206.307 100.774 218.895 103.063 232.212C103.479 234.709 103.895 237.206 104.312 239.807Z" fill="#5C3EBB"/>
<path d="M73.3074 159.49C73.3074 159.49 57.2856 213.069 53.2281 232.108C49.2747 251.147 48.9626 290.889 48.9626 290.889C48.9626 290.889 41.9921 305.455 41.784 311.905C41.5759 318.772 45.2172 324.286 44.8011 328.863C44.3849 333.337 49.8989 330.944 48.3384 321.789C46.7778 312.633 51.1474 304.31 53.1241 304.622C54.9968 304.935 51.5635 314.61 53.2281 318.147C54.8927 321.685 57.0775 314.818 59.2623 310.657C61.5511 306.391 61.3431 297.028 60.4067 290.265C59.3664 283.607 71.5388 242.928 71.5388 231.172L86.9364 179.257C86.9364 179.361 81.8385 157.617 73.3074 159.49Z" fill="#FFA681"/>
<path d="M88.914 178.009C88.3938 181.442 86.4171 187.372 84.0242 194.759C83.8162 195.383 83.6081 196.007 83.4 196.631V196.735C82.7758 198.608 82.1516 200.481 81.5273 202.561C78.8224 210.78 75.8053 220.248 73.3084 230.027C72.4761 233.357 71.6438 236.686 70.9155 240.119C69.9792 244.385 69.2509 248.65 68.6267 252.812C66.5459 267.897 62.6965 286.936 62.6965 286.936C56.9744 289.329 47.9232 286.208 47.9232 286.208C47.9232 286.208 47.7151 258.742 48.9635 248.13C50.5241 234.917 52.6049 225.554 55.1018 214.838C61.9682 185.187 74.1407 156.161 77.4699 148.462C77.782 147.838 77.9901 147.422 78.0941 147.005H81.0071C86.3131 150.543 90.3705 168.749 88.914 178.009Z" fill="#785DD3"/>
<path d="M47.1934 280.694L47.6095 287.04C47.6095 287.04 56.1406 289.849 62.5909 287.872L64.2555 282.254C58.1173 282.462 52.3952 282.358 47.1934 280.694Z" fill="#A897DE"/>
<path d="M83.9193 194.759C83.9193 194.863 83.9193 194.967 83.9193 195.071C83.7112 195.591 83.5031 196.111 83.2951 196.735V196.839C82.6708 198.608 82.0466 200.585 81.4224 202.666C78.0932 213.277 74.6599 226.698 73.0994 235.333C73.0994 233.565 73.0994 231.9 73.2034 230.131C72.3711 233.461 71.5388 236.79 70.8105 240.223C71.1227 237.102 72.059 232.42 73.3074 227.01C75.8043 216.19 79.5497 202.874 82.5668 194.655C82.6708 194.238 83.191 194.03 83.6072 194.134C83.7112 194.238 83.9193 194.447 83.9193 194.759Z" fill="#5C3EBB"/>
<path d="M371.271 336.459H409.244C409.14 333.858 409.036 331.257 408.828 328.968C408.204 315.963 407.58 307.12 407.58 307.12L376.681 308.472L374.08 308.576L369.502 308.784C369.502 308.784 369.918 316.691 370.646 328.24C370.854 330.84 371.063 333.545 371.271 336.459Z" fill="#18315B"/>
<path d="M374.183 308.576L369.605 308.784C369.605 308.784 370.022 316.691 370.75 328.239C382.61 329.175 395.511 329.591 408.828 328.863C408.203 315.858 407.579 307.015 407.579 307.015L376.68 308.368L374.183 308.576Z" fill="#000B29"/>
<path d="M378.345 336.458C377.617 324.389 377.097 314.194 376.785 308.472L374.184 308.576C374.496 314.298 375.016 324.494 375.744 336.458H378.345Z" fill="#000B29"/>
<path d="M360.138 336.458C360.346 333.233 360.554 330.111 360.659 327.302C361.283 316.274 361.699 308.784 361.699 308.784L356.809 308.576L354.208 308.472L323.725 307.119C323.725 307.119 323.413 312.425 322.893 320.748C322.685 325.222 322.373 330.528 322.061 336.458H360.138Z" fill="#18315B"/>
<path d="M322.996 320.748C331.319 322.725 344.636 325.43 360.658 327.302C361.282 316.274 361.698 308.784 361.698 308.784L356.808 308.576L354.207 308.472L323.724 307.119C323.724 307.015 323.412 312.321 322.996 320.748Z" fill="#000B29"/>
<path d="M355.247 336.458C355.976 324.494 356.496 314.194 356.808 308.576L354.207 308.472C353.895 314.194 353.375 324.494 352.646 336.458H355.247Z" fill="#000B29"/>
<path d="M413.094 312.945C405.396 315.026 397.593 316.691 389.894 317.731C387.189 318.147 384.484 318.459 381.883 318.667C378.242 318.979 374.601 319.188 371.063 319.292C365.029 319.5 359.099 319.396 353.065 318.875C341.517 318.043 329.864 315.962 318.316 312.841C318.212 302.021 318.42 263.319 319.148 225.97C319.148 224.305 319.252 222.641 319.252 220.976C319.252 220.664 319.252 220.248 319.252 219.936C319.252 219.519 319.252 219.207 319.252 218.791C319.252 217.647 319.357 216.398 319.357 215.254C319.461 212.861 319.461 210.468 319.565 208.075C319.565 206.619 319.669 205.266 319.669 203.914C319.669 203.602 319.669 203.29 319.669 203.081C319.669 202.145 319.773 201.209 319.773 200.376C319.773 200.064 319.773 199.856 319.773 199.544C319.773 198.712 319.877 197.88 319.877 197.047C319.877 196.319 319.877 195.695 319.981 194.967C320.917 169.789 322.166 149.918 324.038 147.109C327.263 142.323 338.083 136.081 346.822 130.879C349.944 129.007 353.689 127.134 355.77 125.781C358.891 128.278 361.076 130.567 365.653 130.359C370.751 130.151 372.104 127.134 373.976 124.429C375.121 125.157 378.242 127.654 379.802 128.59C381.155 129.423 382.611 130.255 384.172 131.087C386.565 132.44 389.062 133.896 391.559 135.353C395.2 137.538 398.841 139.723 401.858 141.907C404.875 144.092 407.268 146.069 408.413 147.837C410.077 150.438 411.222 166.98 411.95 188.724C411.95 189.453 411.95 190.285 412.054 191.013C412.054 191.117 412.054 191.221 412.054 191.325C412.054 192.158 412.158 192.886 412.158 193.718C412.262 196.215 412.262 198.712 412.366 201.209C412.366 201.729 412.366 202.249 412.366 202.873C412.366 203.29 412.366 203.706 412.366 204.122C412.366 205.162 412.366 206.203 412.47 207.243C412.47 207.451 412.47 207.659 412.47 207.867C412.574 210.676 412.574 213.485 412.678 216.398C412.678 217.231 412.678 218.063 412.678 218.895C413.407 258.326 413.198 301.397 413.094 312.945Z" fill="#785DD3"/>
<path d="M412.782 219.103L400.506 231.484L389.062 219.936L377.618 231.484L366.173 219.832L354.729 231.484L343.181 219.832L331.633 231.484L319.148 218.895C319.148 217.751 319.252 216.502 319.252 215.358C319.357 212.965 319.357 210.572 319.461 208.179L331.633 195.799L343.181 207.451L354.729 195.799L366.173 207.451L377.618 195.799L389.062 207.347L400.506 195.799L412.574 207.971C412.678 210.78 412.678 213.589 412.782 216.502C412.678 217.439 412.678 218.271 412.782 219.103Z" fill="#5C3EBB"/>
<path d="M391.664 283.086C375.226 282.982 361.285 275.596 352.441 269.353C342.87 262.591 337.044 255.724 337.044 255.724C336.732 255.412 336.836 254.892 337.148 254.58C337.46 254.268 337.98 254.372 338.292 254.684C338.396 254.788 344.014 261.447 353.482 268.105C362.117 274.243 375.85 281.526 391.768 281.526C392.184 281.526 392.6 281.838 392.6 282.358C392.392 282.774 392.08 283.086 391.664 283.086Z" fill="#5C3EBB"/>
<path d="M381.364 273.411C367.423 270.706 355.043 259.99 354.522 259.47C354.21 259.158 354.21 258.637 354.418 258.325C354.731 258.013 355.251 258.013 355.563 258.221C355.667 258.325 370.232 270.914 385.006 272.266C385.422 272.266 385.734 272.682 385.734 273.099C385.734 273.515 385.318 273.827 384.901 273.827C383.757 273.827 382.613 273.619 381.364 273.411Z" fill="#5C3EBB"/>
<path d="M353.481 152.103C353.065 152.103 352.753 151.791 352.753 151.479C352.649 151.062 352.961 150.646 353.377 150.542C373.352 146.797 379.386 133.896 379.386 133.792C379.594 133.376 380.01 133.168 380.427 133.376C380.843 133.584 381.051 134 380.843 134.416C380.635 134.937 374.392 148.149 353.689 152.103C353.585 152.103 353.481 152.103 353.481 152.103Z" fill="#5C3EBB"/>
<path d="M329.033 186.747C329.033 186.851 328.929 186.955 328.929 186.955C328.617 187.476 328.305 187.892 327.992 188.412V188.516C326.952 190.181 325.912 191.845 324.871 193.718C323.207 196.631 321.438 199.856 319.773 203.081C319.773 202.145 319.877 201.209 319.877 200.376C319.877 200.064 319.877 199.856 319.877 199.544C322.582 194.446 325.391 189.66 327.68 186.123C327.888 185.707 328.409 185.603 328.721 185.915C329.033 186.123 329.137 186.435 329.033 186.747Z" fill="#5C3EBB"/>
<path d="M429.741 157.513C429.741 157.513 455.334 149.294 462.825 132.544C465.009 127.654 447.011 78.4443 447.011 78.4443L438.272 78.8605C438.272 78.8605 440.769 95.9227 442.225 105.598C443.474 113.609 445.45 123.077 446.179 126.198C446.283 126.926 446.387 127.238 446.387 127.238C445.971 127.342 445.554 127.342 445.138 127.446C433.174 129.839 417.984 137.642 417.984 137.642L429.741 157.513Z" fill="#FFA681"/>
<path d="M452.836 132.024C453.148 132.336 453.668 132.232 453.98 131.816C454.292 131.4 454.188 130.983 453.772 130.671C451.899 129.319 449.09 127.758 446.177 126.198C446.281 126.926 446.385 127.238 446.385 127.238C445.969 127.342 445.553 127.342 445.137 127.446C448.154 129.007 451.067 130.671 452.836 132.024Z" fill="#F97853"/>
<path d="M390.622 134.937C390.622 134.937 382.923 153.039 402.586 163.131C416.215 170.102 447.218 151.895 447.218 151.895L436.19 128.383C436.19 128.487 407.788 140.139 390.622 134.937Z" fill="#785DD3"/>
<path d="M442.536 50.6663C441.808 51.1865 441.912 54.5157 442.224 57.6369C442.12 57.6369 442.016 57.6369 441.912 57.7409C440.976 53.5794 439.207 46.4008 437.647 47.7533C436.606 48.6896 437.959 54.8279 438.895 58.4692C438.687 58.5732 438.479 58.5732 438.271 58.6772C437.126 54.3077 434.525 45.8806 432.861 47.5452C431.716 48.5856 433.901 56.0763 435.046 59.8217C434.838 59.9257 434.734 59.9257 434.525 60.0297C433.381 56.3884 430.988 49.4179 429.22 51.0825C427.659 52.539 432.029 63.0468 432.029 63.0468L433.173 67.1043C433.173 67.1043 431.821 67.7285 429.74 65.3357C427.659 62.9428 425.058 62.5266 426.827 65.9599C428.803 69.9133 431.716 72.7223 433.069 75.4273C434.317 78.2363 438.479 79.0686 438.479 79.0686L446.594 78.6525C446.594 78.6525 448.154 64.8155 445.137 58.2611C444.825 54.4117 443.889 49.73 442.536 50.6663Z" fill="#FFA681"/>
<path d="M341.516 82.502C341.516 96.4431 350.047 106.015 363.988 106.015C377.929 106.015 387.604 95.7148 387.604 81.7737C387.604 77.9244 386.98 74.3871 385.732 71.1619C385.628 70.9538 385.628 70.7458 385.524 70.6417C385.42 70.3296 385.211 69.9135 385.107 69.6013C384.899 69.0812 384.587 68.561 384.275 68.0408C380.634 61.4864 374.183 57.4289 365.444 57.4289C348.798 57.3249 341.516 68.561 341.516 82.502Z" fill="#516A95"/>
<path d="M344.741 88.4322C344.741 88.4322 340.891 83.2303 337.978 87.4958C335.065 91.7614 339.123 104.35 346.197 101.229L344.741 88.4322Z" fill="#F97853"/>
<path d="M344.636 97.4834C344.428 97.4834 344.116 97.2753 344.116 97.0673C343.075 93.2179 339.018 91.6573 338.914 91.5533C338.602 91.4492 338.497 91.1371 338.602 90.825C338.706 90.5129 339.018 90.4089 339.33 90.5129C339.538 90.6169 343.907 92.2815 345.156 96.7551C345.26 97.0673 345.052 97.3794 344.74 97.4834C344.74 97.4834 344.74 97.4834 344.636 97.4834Z" fill="#EA5143"/>
<path d="M340.579 95.5067C340.474 95.5067 340.37 95.5067 340.266 95.4026C339.954 95.1946 339.954 94.8825 340.058 94.5703C340.058 94.5703 340.787 93.4259 342.243 92.8017C342.555 92.6977 342.867 92.8017 343.075 93.1138C343.179 93.4259 343.075 93.7381 342.763 93.9461C341.619 94.4663 341.099 95.2986 341.099 95.2986C340.995 95.4026 340.787 95.5067 340.579 95.5067Z" fill="#EA5143"/>
<path d="M384.482 88.4322C384.482 88.4322 388.331 83.2303 391.244 87.4958C394.157 91.7614 390.1 104.35 383.025 101.229L384.482 88.4322Z" fill="#F97853"/>
<path d="M384.586 97.4834C384.794 97.4834 385.107 97.2753 385.107 97.0673C386.147 93.2179 390.204 91.6573 390.308 91.5533C390.621 91.4492 390.725 91.1371 390.621 90.825C390.516 90.5129 390.204 90.4089 389.892 90.5129C389.684 90.6169 385.315 92.2815 384.066 96.7551C383.962 97.0673 384.17 97.3794 384.482 97.4834C384.482 97.4834 384.482 97.4834 384.586 97.4834Z" fill="#EA5143"/>
<path d="M388.643 95.5067C388.747 95.5067 388.851 95.5067 388.955 95.4026C389.268 95.1946 389.268 94.8825 389.164 94.5703C389.164 94.5703 388.435 93.4259 386.979 92.8017C386.667 92.6977 386.355 92.8017 386.146 93.1138C386.042 93.4259 386.146 93.7381 386.459 93.9461C387.603 94.4663 388.123 95.2986 388.123 95.2986C388.227 95.4026 388.435 95.5067 388.643 95.5067Z" fill="#EA5143"/>
<path d="M374.08 112.049V124.533C374.08 124.533 370.334 130.88 365.34 131.296C360.347 131.712 355.873 125.782 355.873 125.782V112.881L374.08 112.049Z" fill="#FFA681"/>
<path d="M374.078 112.049V117.563C370.645 121.308 364.715 122.245 355.768 120.996V112.985L374.078 112.049Z" fill="#F97853"/>
<path d="M387.293 79.9012C387.085 84.791 386.564 90.8252 385.628 95.7149C385.42 96.9634 385.108 98.1078 384.796 99.0441C382.195 108.304 375.536 124.117 357.122 117.459C349.007 114.546 345.157 105.494 343.493 96.2351C342.348 89.9929 342.14 83.6466 342.244 79.0689C342.348 74.4912 344.845 70.2257 348.903 67.9369C359.827 61.7986 371.271 64.0875 378.866 67.0005C384.172 69.1853 387.605 74.2832 387.293 79.9012Z" fill="#FFA681"/>
<path d="M356.705 90.0967C356.705 91.4492 355.977 92.4896 355.145 92.4896C354.312 92.4896 353.584 91.4492 353.584 90.0967C353.584 88.7442 354.312 87.7039 355.145 87.7039C355.977 87.7039 356.705 88.7442 356.705 90.0967Z" fill="#18315B"/>
<path d="M374.807 90.0967C374.807 91.4492 374.078 92.4896 373.246 92.4896C372.414 92.4896 371.686 91.4492 371.686 90.0967C371.686 88.7442 372.414 87.7038 373.246 87.7038C374.078 87.5998 374.807 88.7442 374.807 90.0967Z" fill="#18315B"/>
<path d="M378.241 81.7737C378.241 81.7737 373.351 79.901 369.605 81.4616L370.022 83.5423C370.022 83.5423 375.536 83.1262 378.241 84.1665C378.553 83.3342 378.553 82.606 378.241 81.7737Z" fill="#18315B"/>
<path d="M350.047 81.7737C350.047 81.7737 354.936 79.901 358.682 81.4616L358.266 83.5423C358.266 83.5423 352.752 83.1262 350.047 84.1665C349.734 83.3342 349.734 82.606 350.047 81.7737Z" fill="#18315B"/>
<path d="M364.819 100.292C365.859 100.292 366.795 99.8761 367.003 99.8761C367.315 99.7721 367.419 99.356 367.315 99.1479C367.211 98.8358 366.795 98.7317 366.587 98.8358C366.067 99.0438 364.714 99.3559 364.194 99.0438C364.09 98.9398 363.986 98.8358 363.882 98.5236C363.674 96.4429 364.194 89.4724 364.194 89.4724C364.194 89.1603 363.986 88.8481 363.674 88.8481C363.362 88.8481 363.05 89.0562 363.05 89.3683C363.05 89.6804 362.426 96.5469 362.738 98.7317C362.842 99.564 363.258 99.9802 363.57 100.188C363.882 100.188 364.298 100.292 364.819 100.292Z" fill="#F97853"/>
<path d="M356.809 103.31C357.745 106.743 360.554 110.176 364.507 110.176C368.357 110.176 371.166 106.743 372.206 103.31H356.809Z" fill="white"/>
<path d="M364.196 113.921C365.756 113.921 367.005 113.193 367.109 113.089C367.421 112.881 367.525 112.569 367.317 112.257C367.109 111.945 366.797 111.841 366.485 112.049C366.485 112.049 365.444 112.673 364.196 112.673C363.051 112.673 362.011 112.049 362.011 112.049C361.699 111.841 361.387 111.945 361.179 112.257C360.97 112.569 361.075 112.881 361.387 113.089C361.387 113.089 362.739 113.921 364.196 113.921Z" fill="#F97853"/>
<path d="M386.668 88.536H383.963C384.275 85.831 384.691 81.0453 382.506 80.4211C375.535 78.2363 384.587 73.3465 381.466 70.8496C378.345 68.3527 370.438 69.3931 364.924 69.2891C359.41 69.081 350.566 69.185 348.382 69.7052C346.197 70.2254 347.445 73.7627 348.174 76.5717C349.006 79.3807 345.573 82.3978 344.948 85.3109C344.74 86.1432 344.844 87.3916 344.948 88.6401H342.66C342.347 85.1028 341.896 81.6009 342 79C342.104 74.4223 344.942 69.7887 349 67.4999C359.924 61.3616 371.405 63.5867 379 66.4998C384.202 68.4765 387.708 74.3869 387.396 80.0049C387.188 82.6059 386.98 85.623 386.668 88.536Z" fill="#516A95"/>
<path d="M354.831 97.0671C351.085 97.0671 348.068 94.05 348.068 90.3047C348.068 86.5593 351.085 83.5422 354.831 83.5422C358.576 83.5422 361.593 86.5593 361.593 90.3047C361.593 94.05 358.576 97.0671 354.831 97.0671ZM354.831 84.6866C351.71 84.6866 349.109 87.1835 349.109 90.4087C349.109 93.5298 351.606 96.1308 354.831 96.1308C357.952 96.1308 360.553 93.6339 360.553 90.4087C360.553 87.2876 358.056 84.6866 354.831 84.6866Z" fill="white"/>
<path d="M373.245 97.0671C369.5 97.0671 366.482 94.05 366.482 90.3047C366.482 86.5593 369.5 83.5422 373.245 83.5422C376.99 83.5422 380.007 86.5593 380.007 90.3047C380.007 94.05 376.99 97.0671 373.245 97.0671ZM373.245 84.6866C370.124 84.6866 367.523 87.1835 367.523 90.4087C367.523 93.5298 370.02 96.1308 373.245 96.1308C376.47 96.1308 378.967 93.6339 378.967 90.4087C378.967 87.2876 376.366 84.6866 373.245 84.6866Z" fill="white"/>
<path d="M349.316 88.2239C349.212 88.2239 349.004 88.2238 348.9 88.1198C348.9 88.1198 345.779 85.1027 341.825 86.039C341.513 86.1431 341.305 85.935 341.201 85.6229C341.097 85.3108 341.305 85.1027 341.617 84.9987C346.195 83.9583 349.524 87.1835 349.732 87.2875C349.94 87.4956 349.94 87.8077 349.732 88.0158C349.524 88.1198 349.42 88.2239 349.316 88.2239Z" fill="white"/>
<path d="M378.967 88.224C378.759 88.224 378.655 88.1199 378.551 88.0159C378.343 87.8078 378.447 87.4957 378.655 87.2876C378.863 87.1836 383.649 84.0624 387.706 84.7907C388.018 84.7907 388.226 85.1028 388.122 85.4149C388.122 85.727 387.81 85.9351 387.498 85.8311C383.857 85.2069 379.279 88.224 379.279 88.224C379.175 88.224 379.071 88.224 378.967 88.224Z" fill="white"/>
<path d="M366.898 88.8481C366.898 88.8481 365.65 87.1835 363.985 87.1835C362.32 87.1835 361.28 88.8481 361.176 88.8481L360.344 88.2239C360.448 88.1198 361.8 86.0391 363.985 86.0391C366.17 86.0391 367.626 88.1198 367.73 88.2239L366.898 88.8481Z" fill="white"/>
<path d="M326.847 185.707C326.847 185.707 319.772 199.44 311.449 210.26C308.952 213.485 306.455 216.398 303.854 218.687C299.797 222.432 295.739 224.305 292.514 222.64C280.446 216.502 253.5 168.021 253.5 168.021L260.158 160.114C260.158 160.114 272.123 173.951 280.966 182.274C289.081 189.869 295.323 195.591 295.323 195.591C296.468 193.926 297.612 192.053 298.86 190.077C300.213 187.996 301.565 185.707 302.918 183.522C313.01 166.98 324.246 147.005 324.246 147.005L326.847 185.707Z" fill="#FFA681"/>
<path d="M311.447 210.364C308.95 213.589 306.453 216.502 303.852 218.791L298.754 190.285C300.106 188.204 301.459 185.915 302.811 183.73L311.447 210.364Z" fill="#F97853"/>
<path d="M324.139 147.213L299.898 185.291L308.013 218.791L328.093 186.123C328.093 186.123 330.486 163.859 324.139 147.213Z" fill="#785DD3"/>
<path d="M293.66 336.458C291.892 326.887 290.227 316.067 288.667 305.559C288.354 303.27 288.042 300.981 287.626 298.692C286.378 289.953 285.233 281.734 284.401 274.972C284.089 272.371 283.777 269.978 283.465 267.897C282.632 261.135 282.112 256.869 282.112 256.869L243.826 258.326L205.436 256.869C205.436 256.869 204.396 265.192 202.835 277.365C202.523 279.549 202.211 281.942 201.899 284.335C201.067 290.681 200.026 297.756 198.986 304.935C198.986 305.039 198.986 305.143 198.986 305.247C198.674 307.536 198.362 309.72 197.946 312.009V312.113C197.113 317.523 196.281 323.037 195.345 328.239C195.033 330.424 194.616 332.505 194.304 334.585C194.2 335.21 194.096 335.834 193.992 336.458H293.66Z" fill="#785DD3"/>
<path d="M214.279 268.209C214.279 270.186 212.614 271.851 210.637 271.851C208.661 271.851 206.996 270.186 206.996 268.209C206.996 266.232 208.661 264.568 210.637 264.568C212.718 264.672 214.279 266.232 214.279 268.209Z" fill="#5C3EBB"/>
<path d="M223.226 282.15C223.226 284.127 221.561 285.791 219.585 285.791C217.608 285.791 215.943 284.127 215.943 282.15C215.943 280.173 217.608 278.509 219.585 278.509C221.665 278.613 223.226 280.173 223.226 282.15Z" fill="#5C3EBB"/>
<path d="M240.912 274.972C240.912 276.948 239.247 278.613 237.27 278.613C235.294 278.613 233.629 276.948 233.629 274.972C233.629 272.995 235.294 271.33 237.27 271.33C239.247 271.434 240.912 272.995 240.912 274.972Z" fill="#5C3EBB"/>
<path d="M213.134 297.028C213.134 299.004 211.47 300.669 209.493 300.669C207.516 300.669 205.852 299.004 205.852 297.028C205.852 295.051 207.516 293.386 209.493 293.386C211.47 293.386 213.134 295.051 213.134 297.028Z" fill="#5C3EBB"/>
<path d="M235.087 295.467C235.087 297.444 233.423 299.108 231.446 299.108C229.469 299.108 227.805 297.444 227.805 295.467C227.805 293.49 229.469 291.826 231.446 291.826C233.527 291.93 235.087 293.49 235.087 295.467Z" fill="#5C3EBB"/>
<path d="M205.331 280.59C205.331 282.462 203.874 284.023 202.105 284.127C202.418 281.734 202.73 279.341 203.042 277.156C204.29 277.781 205.331 279.029 205.331 280.59Z" fill="#5C3EBB"/>
<path d="M270.98 316.691C270.98 318.668 269.315 320.332 267.339 320.332C265.362 320.332 263.697 318.668 263.697 316.691C263.697 314.714 265.362 313.05 267.339 313.05C269.315 313.05 270.98 314.714 270.98 316.691Z" fill="#5C3EBB"/>
<path d="M269.212 297.028C269.212 299.004 267.548 300.669 265.571 300.669C263.594 300.669 261.93 299.004 261.93 297.028C261.93 295.051 263.594 293.386 265.571 293.386C267.652 293.386 269.212 295.051 269.212 297.028Z" fill="#5C3EBB"/>
<path d="M288.666 305.559C288.25 305.767 287.73 305.871 287.21 305.871C285.233 305.871 283.568 304.206 283.568 302.229C283.568 300.253 285.233 298.588 287.21 298.588C287.314 298.588 287.522 298.588 287.626 298.588C288.042 300.877 288.354 303.166 288.666 305.559Z" fill="#5C3EBB"/>
<path d="M272.853 331.048C272.853 333.025 271.188 334.689 269.212 334.689C267.235 334.689 265.57 333.025 265.57 331.048C265.57 329.071 267.235 327.407 269.212 327.407C271.188 327.511 272.853 329.071 272.853 331.048Z" fill="#5C3EBB"/>
<path d="M288.251 325.326C288.251 327.303 286.587 328.967 284.61 328.967C282.633 328.967 280.969 327.303 280.969 325.326C280.969 323.349 282.633 321.685 284.61 321.685C286.691 321.685 288.251 323.349 288.251 325.326Z" fill="#5C3EBB"/>
<path d="M256.206 336.458C255.582 335.522 254.437 334.897 253.189 334.897C251.941 334.897 250.9 335.522 250.172 336.458H256.206Z" fill="#5C3EBB"/>
<path d="M210.744 319.812C210.744 321.789 209.079 323.453 207.102 323.453C205.126 323.453 203.461 321.789 203.461 319.812C203.461 317.835 205.126 316.171 207.102 316.171C209.079 316.171 210.744 317.835 210.744 319.812Z" fill="#5C3EBB"/>
<path d="M201.17 308.472C201.17 310.344 199.817 311.801 198.049 312.009V311.905C198.361 309.616 198.777 307.431 199.089 305.143C200.338 305.663 201.17 306.911 201.17 308.472Z" fill="#5C3EBB"/>
<path d="M197.009 331.048C197.009 332.712 195.969 334.065 194.408 334.481C194.824 332.4 195.136 330.32 195.449 328.135C196.385 328.863 197.009 329.903 197.009 331.048Z" fill="#5C3EBB"/>
<path d="M219.689 332.609C219.689 334.585 218.024 336.25 216.048 336.25C214.071 336.25 212.406 334.585 212.406 332.609C212.406 330.632 214.071 328.967 216.048 328.967C218.024 328.967 219.689 330.632 219.689 332.609Z" fill="#5C3EBB"/>
<path d="M238.728 329.8C238.728 331.776 237.063 333.441 235.087 333.441C233.11 333.441 231.445 331.776 231.445 329.8C231.445 327.823 233.11 326.158 235.087 326.158C237.063 326.158 238.728 327.823 238.728 329.8Z" fill="#5C3EBB"/>
<path d="M225.099 312.009C225.099 313.986 223.434 315.651 221.458 315.651C219.481 315.651 217.816 313.986 217.816 312.009C217.816 310.033 219.481 308.368 221.458 308.368C223.538 308.472 225.099 310.033 225.099 312.009Z" fill="#5C3EBB"/>
<path d="M244.451 308.472C244.451 310.448 242.786 312.113 240.809 312.113C238.833 312.113 237.168 310.448 237.168 308.472C237.168 306.495 238.833 304.83 240.809 304.83C242.89 304.83 244.451 306.495 244.451 308.472Z" fill="#5C3EBB"/>
<path d="M253.189 289.433C253.189 291.41 251.524 293.074 249.548 293.074C247.571 293.074 245.906 291.41 245.906 289.433C245.906 287.456 247.571 285.792 249.548 285.792C251.628 285.792 253.189 287.456 253.189 289.433Z" fill="#5C3EBB"/>
<path d="M284.401 274.868C284.193 274.972 283.881 274.972 283.673 274.972C281.696 274.972 280.031 273.307 280.031 271.331C280.031 269.354 281.592 267.793 283.465 267.689C283.777 269.874 284.089 272.267 284.401 274.868Z" fill="#5C3EBB"/>
<path d="M265.673 274.972C265.673 276.948 264.009 278.613 262.032 278.613C260.055 278.613 258.391 276.948 258.391 274.972C258.391 272.995 260.055 271.33 262.032 271.33C264.009 271.434 265.673 272.995 265.673 274.972Z" fill="#5C3EBB"/>
<path d="M278.783 287.872C278.783 289.849 277.118 291.514 275.141 291.514C273.165 291.514 271.5 289.849 271.5 287.872C271.5 285.896 273.165 284.231 275.141 284.231C277.118 284.231 278.783 285.896 278.783 287.872Z" fill="#5C3EBB"/>
<path d="M256.829 319.812C256.829 321.789 255.165 323.453 253.188 323.453C251.211 323.453 249.547 321.789 249.547 319.812C249.547 317.835 251.211 316.171 253.188 316.171C255.165 316.171 256.829 317.835 256.829 319.812Z" fill="#5C3EBB"/>
<path d="M284.506 257.701C264.322 270.914 227.285 269.874 203.98 257.701C206.165 243.864 209.182 230.027 208.454 211.509C208.35 209.532 208.246 207.451 208.246 205.474C208.142 203.706 208.038 202.041 207.934 200.273C205.957 169.581 200.651 144.508 203.252 141.283C204.397 139.827 206.269 138.37 208.558 136.81C209.494 136.185 210.431 135.561 211.471 134.937C213.864 133.48 216.569 132.024 219.274 130.567C225.724 127.134 232.175 124.013 235.4 121.828C238.625 123.285 241.226 124.013 243.931 124.013C244.035 124.013 244.139 124.013 244.139 124.013C244.243 124.013 244.347 124.013 244.347 124.013C247.156 124.013 249.653 123.285 252.878 121.828C255.895 123.805 261.617 126.614 267.443 129.735C271.709 132.024 276.078 134.417 279.408 136.706C281.592 138.266 283.465 139.723 284.506 141.075C285.754 142.636 285.234 149.71 284.193 160.114C283.153 170.414 281.488 183.939 280.552 198.816C280.24 202.978 280.032 207.243 279.928 211.509C279.304 229.923 282.217 243.864 284.506 257.701Z" fill="#A897DE"/>
<path d="M272.124 242.408C255.895 242.304 241.954 234.917 233.214 228.779C223.747 222.12 218.025 215.254 217.921 215.254C217.609 214.942 217.713 214.422 218.025 214.11C218.337 213.797 218.857 213.902 219.169 214.214C219.273 214.318 224.891 220.976 234.255 227.53C242.89 233.565 256.415 240.847 272.229 240.847C272.645 240.847 273.061 241.159 272.957 241.68C272.853 241.992 272.541 242.408 272.124 242.408Z" fill="#785DD3"/>
<path d="M261.408 232.94C247.571 230.235 235.295 219.624 234.774 219.103C234.462 218.791 234.462 218.375 234.67 217.959C234.983 217.647 235.399 217.647 235.815 217.855C235.919 217.959 250.38 230.444 265.049 231.796C265.466 231.796 265.778 232.212 265.778 232.628C265.778 233.044 265.362 233.357 264.945 233.357C263.697 233.357 262.553 233.149 261.408 232.94Z" fill="#785DD3"/>
<path d="M240.912 161.362C240.496 161.362 240.184 161.05 240.184 160.738C240.08 160.322 240.392 159.906 240.808 159.802C260.576 156.056 266.61 143.26 266.61 143.156C266.818 142.74 267.234 142.636 267.65 142.74C268.066 142.948 268.17 143.364 268.066 143.78C267.858 144.3 261.72 157.409 241.121 161.258C241.017 161.362 240.912 161.362 240.912 161.362Z" fill="#785DD3"/>
<path d="M267.545 129.631C263.592 138.578 253.917 147.838 241.328 145.757C229.156 143.676 223.329 137.226 219.168 130.567C225.618 127.134 232.069 124.013 235.294 121.828C238.519 123.285 241.12 124.013 243.825 124.013C243.929 124.013 244.033 124.013 244.033 124.013C244.137 124.013 244.241 124.013 244.241 124.013C247.05 124.013 249.547 123.285 252.772 121.828C255.997 123.805 261.719 126.614 267.545 129.631Z" fill="#FFA681"/>
<path d="M257.039 122.452C256.727 122.452 256.415 122.765 256.415 123.077C256.415 123.597 256.207 135.457 245.595 136.393C235.712 137.226 231.654 127.758 230.406 123.909C230.302 123.701 230.094 123.493 229.886 123.493H229.678C229.261 123.493 229.053 123.909 229.157 124.221C230.51 128.279 234.775 138.058 244.867 137.642C245.179 137.642 245.387 137.642 245.699 137.642C257.456 136.602 257.664 123.285 257.664 123.181C257.664 122.765 257.352 122.452 257.039 122.452Z" fill="white"/>
<path d="M264.527 59.4055C264.527 59.4055 273.994 74.1789 272.954 89.4724C271.914 104.87 274.306 122.556 260.573 121.724C246.84 120.996 222.392 127.238 214.589 115.274C206.89 103.413 264.527 59.4055 264.527 59.4055Z" fill="#425C86"/>
<path d="M268.066 86.5593C268.066 86.5593 270.563 108.823 259.951 114.962C249.443 121.1 241.744 114.233 241.744 114.233C241.744 114.233 264.008 83.1261 268.066 86.5593Z" fill="#425C86"/>
<path d="M224.264 86.4551C224.264 86.4551 220.518 81.3573 217.605 85.6229C214.796 89.7844 218.75 102.165 225.72 99.1478L224.264 86.4551Z" fill="#F97853"/>
<path d="M224.159 95.1946C223.951 95.1946 223.638 94.9865 223.638 94.7784C222.598 90.929 218.645 89.4725 218.541 89.3685C218.228 89.2644 218.124 88.9523 218.228 88.6402C218.333 88.3281 218.645 88.224 218.957 88.3281C219.165 88.4321 223.534 90.0967 224.679 94.4663C224.783 94.7784 224.575 95.0905 224.263 95.1946C224.263 95.1946 224.263 95.1946 224.159 95.1946Z" fill="#EA5143"/>
<path d="M220.207 93.3216C220.103 93.3216 219.999 93.3216 219.895 93.2176C219.583 93.0095 219.583 92.6974 219.687 92.3853C219.687 92.3853 220.415 91.2409 221.872 90.6167C222.184 90.5126 222.496 90.6167 222.6 90.9288C222.704 91.2409 222.6 91.553 222.288 91.657C221.144 92.1772 220.624 93.0095 220.624 93.0095C220.52 93.2176 220.415 93.3216 220.207 93.3216Z" fill="#EA5143"/>
<path d="M263.279 86.4551C263.279 86.4551 267.024 81.3573 269.937 85.6229C272.746 89.7844 268.793 102.165 261.822 99.1478L263.279 86.4551Z" fill="#F97853"/>
<path d="M263.28 95.1946C263.488 95.1946 263.8 94.9865 263.8 94.7784C264.84 90.929 268.794 89.4725 268.898 89.3685C269.21 89.2644 269.314 88.9523 269.21 88.6402C269.106 88.3281 268.794 88.224 268.482 88.3281C268.273 88.4321 263.904 90.0967 262.759 94.4663C262.655 94.7784 262.864 95.0905 263.176 95.1946H263.28Z" fill="#EA5143"/>
<path d="M267.336 93.3216C267.44 93.3216 267.544 93.3216 267.648 93.2176C267.96 93.0095 267.96 92.6974 267.856 92.3853C267.856 92.3853 267.128 91.2409 265.672 90.6167C265.359 90.5126 265.047 90.6167 264.943 90.9288C264.839 91.2409 264.943 91.553 265.255 91.657C266.4 92.1772 266.92 93.0095 266.92 93.0095C266.92 93.2176 267.128 93.3216 267.336 93.3216Z" fill="#EA5143"/>
<path d="M253.083 109.552V121.828C253.083 121.828 249.441 128.07 244.447 128.486C239.454 128.903 235.084 123.076 235.084 123.076V110.384L253.083 109.552Z" fill="#FFA681"/>
<path d="M253.083 109.552V114.961C249.753 118.603 243.823 119.955 235.084 118.707V110.384L253.083 109.552Z" fill="#F97853"/>
<path d="M265.983 78.028C265.774 82.8138 265.254 88.7439 264.422 93.5297C264.214 94.6741 263.902 95.8185 263.694 96.8589C261.093 105.91 254.642 121.412 236.54 114.961C228.529 112.152 224.888 103.205 223.223 94.1539C222.079 88.0157 221.975 81.7734 221.975 77.4038C222.079 72.8262 224.576 68.7687 228.425 66.4799C239.141 60.4457 250.377 62.7345 257.764 65.5435C262.965 67.4162 266.295 72.5141 265.983 78.028Z" fill="#FFA681"/>
<path d="M235.811 87.1834C235.811 88.5359 235.187 89.5763 234.355 89.5763C233.523 89.5763 232.898 88.5359 232.898 87.1834C232.898 85.8309 233.523 84.7905 234.355 84.7905C235.083 84.7905 235.811 85.8309 235.811 87.1834Z" fill="#18315B"/>
<path d="M254.435 87.1834C254.435 88.5359 253.81 89.5763 252.978 89.5763C252.146 89.5763 251.521 88.5359 251.521 87.1834C251.521 85.8309 252.146 84.7905 252.978 84.7905C253.81 84.7905 254.435 85.8309 254.435 87.1834Z" fill="#18315B"/>
<path d="M231.338 80.109C232.587 79.7968 235.084 79.1726 237.789 79.1726C238.517 79.1726 239.037 79.7968 238.933 80.5251C238.829 81.0453 238.309 81.4614 237.789 81.4614C236.02 81.3574 231.234 81.6695 228.945 82.5018C228.945 82.0857 229.153 81.6695 229.466 81.2534C229.882 80.6291 230.506 80.317 231.338 80.109Z" fill="#18315B"/>
<path d="M255.684 80.109C254.436 79.7968 251.939 79.1726 249.234 79.1726C248.506 79.1726 247.985 79.7968 248.089 80.5251C248.193 81.0453 248.714 81.4614 249.234 81.4614C251.002 81.3574 255.788 81.6695 258.077 82.5018C258.077 82.0857 257.869 81.6695 257.557 81.2534C257.037 80.7332 256.412 80.317 255.684 80.109Z" fill="#18315B"/>
<path d="M243.927 98.0032C243.511 98.0032 242.99 97.8992 242.678 97.6911C242.366 97.483 241.95 97.0669 241.846 96.2346C241.638 94.0498 242.158 87.3914 242.158 87.0793C242.158 86.7672 242.47 86.5591 242.782 86.5591C243.094 86.5591 243.303 86.8712 243.303 87.1833C243.303 87.2874 242.782 94.0498 242.99 96.1305C242.99 96.4427 243.199 96.6507 243.303 96.6507C243.823 96.9628 245.071 96.6507 245.591 96.4427C245.904 96.3386 246.216 96.4427 246.32 96.7548C246.424 97.0669 246.32 97.379 246.008 97.483C245.904 97.5871 244.967 98.0032 243.927 98.0032Z" fill="#F97853"/>
<path d="M236.541 101.645C236.957 103.829 238.414 107.991 243.408 107.991C248.401 107.991 249.754 104.245 250.17 101.645H236.541Z" fill="white"/>
<path d="M243.303 111.32C241.847 111.32 240.598 110.592 240.598 110.488C240.286 110.28 240.286 109.968 240.39 109.655C240.598 109.343 240.911 109.343 241.223 109.447C241.223 109.447 242.263 110.072 243.303 110.072C244.448 110.072 245.488 109.447 245.592 109.447C245.904 109.239 246.216 109.343 246.425 109.655C246.633 109.968 246.529 110.28 246.216 110.488C246.112 110.592 244.864 111.32 243.303 111.32Z" fill="#F97853"/>
<path d="M268.378 77.0919C268.17 77.612 267.65 77.9242 267.026 78.1322C267.026 79.3807 266.922 80.9413 266.818 82.3978C266.089 90.8248 264.009 92.2814 263.488 90.2006C263.176 88.8481 263.176 80.8372 263.384 78.3403C261.72 78.2363 260.263 77.9242 260.263 77.9242L258.287 69.7052L257.558 77.8201C254.645 78.8605 247.779 77.1959 247.779 77.1959L245.49 69.081L244.033 76.8838C239.664 79.0686 234.15 77.612 234.15 77.612L232.901 69.289L229.988 77.612C229.988 77.612 220.625 80.9412 220.521 77.612C220.417 75.6353 221.873 70.1213 223.122 65.8558C224.474 61.1741 227.491 57.2207 231.653 55.0359C243.305 48.7936 255.582 52.1228 259.847 54.6197C268.69 60.0297 268.378 77.0919 268.378 77.0919Z" fill="#425C86"/>
<path d="M225.722 60.0298C225.722 60.0298 218.023 69.1851 215.422 85.6231C212.925 102.061 209.388 114.129 219.271 119.539C229.987 125.365 229.051 113.401 228.843 110.072C228.739 106.847 219.583 97.8995 225.618 72.7224C227.594 64.7115 225.722 60.0298 225.722 60.0298Z" fill="#425C86"/>
<path d="M223.848 93.9458C223.848 94.0498 223.848 94.7781 223.952 95.7144C223.952 96.3387 224.056 97.0669 224.056 98.0033C224.368 103.517 225.512 113.089 228.633 116.418C229.882 117.77 232.275 118.395 235.084 118.603V114.233C232.067 112.777 229.778 110.488 228.009 107.679C226.865 105.286 224.992 101.541 224.056 95.5064L223.848 93.9458Z" fill="#425C86"/>
<path d="M266.193 99.3559C266.193 100.084 265.569 100.708 264.841 100.708C264.112 100.708 263.488 100.084 263.488 99.3559C263.488 98.6276 264.112 98.0034 264.841 98.0034C265.569 98.0034 266.193 98.6276 266.193 99.3559Z" fill="white"/>
<path d="M293.971 202.249C290.121 213.277 272.747 212.549 253.084 206.515H252.98C252.876 206.515 252.876 206.515 252.772 206.411L250.067 205.579C249.651 205.475 249.339 205.371 248.922 205.162C246.842 204.434 244.657 203.706 242.472 202.874C235.398 200.169 228.323 197.047 221.561 193.614V193.51L223.537 188.308L224.266 186.54C224.266 186.54 260.887 190.493 279.301 186.644C279.614 186.54 279.926 186.54 280.238 186.436C280.134 186.02 280.134 185.603 280.03 185.187C270.25 151.999 280.966 145.653 284.503 140.971C284.607 140.971 301.357 181.338 293.971 202.249Z" fill="#A897DE"/>
<path d="M288.041 191.95C287.937 191.95 287.833 192.054 287.729 192.054C287.417 192.054 287.209 191.846 287.001 191.638C285.649 188.829 280.863 187.06 279.406 186.644C279.718 186.54 280.031 186.54 280.343 186.436C280.239 186.02 280.239 185.603 280.135 185.187C282.007 185.811 286.793 187.684 288.458 190.909C288.562 191.325 288.458 191.742 288.041 191.95Z" fill="#785DD3"/>
<path d="M236.75 190.597C229.259 190.597 223.225 190.181 222.705 190.181C222.289 190.181 221.977 189.765 221.977 189.349C221.977 188.933 222.393 188.621 222.809 188.621C223.121 188.621 250.483 190.597 261.407 186.228C261.823 186.02 262.239 186.228 262.447 186.644C262.655 187.06 262.447 187.476 262.031 187.684C255.997 189.973 245.489 190.597 236.75 190.597Z" fill="#785DD3"/>
<path d="M250.066 205.475C256.309 203.706 262.031 202.041 265.36 201.001C269.938 199.545 273.683 194.967 275.452 191.013C275.66 190.597 276.076 190.389 276.492 190.597C276.908 190.805 277.116 191.221 276.908 191.638C275.035 195.903 270.978 200.897 265.88 202.458C263.487 203.186 259.846 204.33 255.684 205.475C253.812 206.099 251.835 206.099 250.066 205.475Z" fill="#785DD3"/>
<path d="M266.922 200.169C210.325 219.208 192.951 206.723 192.951 206.723C189.102 172.287 203.147 141.387 203.147 141.387C207.308 148.254 211.99 160.114 211.99 160.114L213.239 186.54L213.134 187.268V187.58L212.926 189.349C213.03 189.349 213.134 189.453 213.343 189.453C230.405 193.094 261.72 189.037 261.72 189.037L266.922 200.169Z" fill="#A897DE"/>
<path d="M213.343 189.453C210.326 192.054 207.413 194.967 204.812 198.4C204.604 198.712 204.084 198.816 203.667 198.504C203.355 198.296 203.251 197.776 203.563 197.464C206.477 193.614 209.806 190.389 213.239 187.58L213.031 189.349C213.031 189.453 213.135 189.453 213.343 189.453Z" fill="#785DD3"/>
<path d="M261.721 189.037C261.721 189.037 267.963 174.784 277.534 176.032L280.447 186.332C275.246 188.517 274.517 197.464 267.027 200.065L261.721 189.037Z" fill="#FFA681"/>
<path d="M224.474 186.436C224.474 186.436 220.52 177.176 210.116 174.471C199.713 171.766 193.054 176.656 192.43 178.529C191.702 180.401 196.383 178.633 196.383 178.633C196.383 178.633 193.366 179.465 191.598 182.274C189.829 185.083 195.759 182.066 195.759 182.066C195.759 182.066 191.494 183.939 190.973 185.707C190.453 187.476 196.071 184.563 197.112 184.563C197.112 184.563 192.118 186.54 192.118 188.308C192.118 190.077 197.84 187.164 202.105 187.372C206.371 187.58 212.925 189.349 212.925 189.349C216.463 189.973 219.792 190.493 222.809 190.597L224.474 186.436Z" fill="#FFA681"/>
<path d="M324.869 42.1351C321.02 42.1351 317.898 39.014 317.898 35.1646C317.898 31.3152 321.02 28.1941 324.869 28.1941C328.718 28.1941 331.84 31.3152 331.84 35.1646C331.84 39.014 328.718 42.1351 324.869 42.1351ZM324.869 30.3789C322.268 30.3789 320.083 32.5637 320.083 35.1646C320.083 37.7655 322.268 39.9503 324.869 39.9503C327.47 39.9503 329.655 37.7655 329.655 35.1646C329.655 32.5637 327.574 30.3789 324.869 30.3789Z" fill="white"/>
<path d="M385.836 30.2748C381.986 30.2748 378.865 27.1537 378.865 23.3043C378.865 19.4549 381.986 16.3337 385.836 16.3337C389.685 16.3337 392.806 19.4549 392.806 23.3043C392.806 27.1537 389.685 30.2748 385.836 30.2748ZM385.836 18.5185C383.235 18.5185 381.05 20.7033 381.05 23.3043C381.05 25.9052 383.235 28.09 385.836 28.09C388.437 28.09 390.622 25.9052 390.622 23.3043C390.622 20.7033 388.541 18.5185 385.836 18.5185Z" fill="white"/>
<path d="M394.469 52.9549C393.844 52.9549 393.324 52.4347 393.324 51.8105V47.0248C393.324 46.4006 393.844 45.8804 394.469 45.8804C395.093 45.8804 395.613 46.4006 395.613 47.0248V51.8105C395.613 52.5388 395.093 52.9549 394.469 52.9549Z" fill="white"/>
<path d="M394.469 61.4859C393.844 61.4859 393.324 60.9657 393.324 60.3415V55.5558C393.324 54.9316 393.844 54.4114 394.469 54.4114C395.093 54.4114 395.613 54.9316 395.613 55.5558V60.3415C395.613 60.9657 395.093 61.4859 394.469 61.4859Z" fill="white"/>
<path d="M401.233 54.8276H396.863C396.239 54.8276 395.719 54.3074 395.719 53.6832C395.719 53.059 396.239 52.5388 396.863 52.5388H401.233C401.857 52.5388 402.377 53.059 402.377 53.6832C402.377 54.3074 401.857 54.8276 401.233 54.8276Z" fill="white"/>
<path d="M392.077 54.8276H387.707C387.083 54.8276 386.562 54.3074 386.562 53.6832C386.562 53.059 387.083 52.5388 387.707 52.5388H392.077C392.701 52.5388 393.221 53.059 393.221 53.6832C393.117 54.3074 392.597 54.8276 392.077 54.8276Z" fill="white"/>
<path d="M357.537 23.7203C356.913 23.7203 356.393 23.2001 356.393 22.5759V17.7902C356.393 17.1659 356.913 16.6458 357.537 16.6458C358.161 16.6458 358.681 17.1659 358.681 17.7902V22.5759C358.681 23.2001 358.161 23.7203 357.537 23.7203Z" fill="white"/>
<path d="M357.537 32.1473C356.913 32.1473 356.393 31.6271 356.393 31.0029V26.2172C356.393 25.5929 356.913 25.0728 357.537 25.0728C358.161 25.0728 358.681 25.5929 358.681 26.2172V31.0029C358.681 31.7312 358.161 32.1473 357.537 32.1473Z" fill="white"/>
<path d="M364.405 25.489H360.035C359.411 25.489 358.891 24.9688 358.891 24.3446C358.891 23.7204 359.411 23.2002 360.035 23.2002H364.405C365.029 23.2002 365.549 23.7204 365.549 24.3446C365.445 25.0729 364.925 25.489 364.405 25.489Z" fill="white"/>
<path d="M355.145 25.489H350.775C350.151 25.489 349.631 24.9688 349.631 24.3446C349.631 23.7204 350.151 23.2002 350.775 23.2002H355.145C355.769 23.2002 356.289 23.7204 356.289 24.3446C356.185 25.0729 355.769 25.489 355.145 25.489Z" fill="white"/>
<path d="M75.2832 17.4783C75.2832 13.6289 78.4043 10.5078 82.2537 10.5078C86.1031 10.5078 89.2243 13.6289 89.2243 17.4783C89.2243 21.3277 86.1031 24.4489 82.2537 24.4489C78.4043 24.4489 75.2832 21.3277 75.2832 17.4783ZM77.468 17.4783C77.468 20.0793 79.6528 22.2641 82.2537 22.2641C84.8547 22.2641 87.0395 20.0793 87.0395 17.4783C87.0395 14.8774 84.8547 12.6926 82.2537 12.6926C79.5488 12.6926 77.468 14.7734 77.468 17.4783Z" fill="white"/>
<path d="M47.1934 44.1119C47.1934 40.2625 50.3145 37.1414 54.1639 37.1414C58.0133 37.1414 61.1344 40.2625 61.1344 44.1119C61.1344 47.9613 58.0133 51.0824 54.1639 51.0824C50.3145 51.0824 47.1934 47.9613 47.1934 44.1119ZM49.3782 44.1119C49.3782 46.7128 51.5629 48.8976 54.1639 48.8976C56.7648 48.8976 58.9496 46.7128 58.9496 44.1119C58.9496 41.5109 56.7648 39.3261 54.1639 39.3261C51.5629 39.3261 49.3782 41.4069 49.3782 44.1119Z" fill="white"/>
<path d="M32.6288 53.8915C33.253 53.8915 33.7732 53.3713 33.7732 52.7471V47.9613C33.7732 47.3371 33.253 46.8169 32.6288 46.8169C32.0046 46.8169 31.4844 47.3371 31.4844 47.9613V52.7471C31.5884 53.3713 32.1086 53.8915 32.6288 53.8915Z" fill="white"/>
<path d="M32.6268 62.3187C33.2511 62.3187 33.7713 61.7985 33.7713 61.1743V56.3886C33.7713 55.7643 33.2511 55.2441 32.6268 55.2441C32.0026 55.2441 31.4824 55.7643 31.4824 56.3886V61.1743C31.5865 61.7985 32.1066 62.3187 32.6268 62.3187Z" fill="white"/>
<path d="M25.8651 55.6609H30.2347C30.8589 55.6609 31.3791 55.1407 31.3791 54.5165C31.3791 53.8922 30.8589 53.3721 30.2347 53.3721H25.8651C25.2409 53.3721 24.7207 53.8922 24.7207 54.5165C24.8247 55.2447 25.2409 55.6609 25.8651 55.6609Z" fill="white"/>
<path d="M35.1249 55.6602H39.4945C40.1187 55.6602 40.6389 55.14 40.6389 54.5157C40.6389 53.8915 40.1187 53.3713 39.4945 53.3713H35.1249C34.5007 53.3713 33.9805 53.8915 33.9805 54.5157C33.9805 55.244 34.5007 55.6602 35.1249 55.6602Z" fill="white"/>
<path d="M57.91 16.7499C58.5343 16.7499 59.0545 16.2297 59.0545 15.6054V10.8197C59.0545 10.1955 58.5343 9.67529 57.91 9.67529C57.2858 9.67529 56.7656 10.1955 56.7656 10.8197V15.6054C56.8697 16.2297 57.2858 16.7499 57.91 16.7499Z" fill="white"/>
<path d="M57.91 25.1769C58.5343 25.1769 59.0545 24.6567 59.0545 24.0324V19.2467C59.0545 18.6225 58.5343 18.1023 57.91 18.1023C57.2858 18.1023 56.7656 18.6225 56.7656 19.2467V24.0324C56.8697 24.6567 57.2858 25.1769 57.91 25.1769Z" fill="white"/>
<path d="M51.1464 18.5186H55.516C56.1402 18.5186 56.6604 17.9984 56.6604 17.3741C56.6604 16.7499 56.1402 16.2297 55.516 16.2297H51.1464C50.5221 16.2297 50.002 16.7499 50.002 17.3741C50.002 18.1024 50.5221 18.5186 51.1464 18.5186Z" fill="white"/>
<path d="M60.4061 18.5186H64.7757C65.3999 18.5186 65.9201 17.9984 65.9201 17.3741C65.9201 16.7499 65.3999 16.2297 64.7757 16.2297H60.4061C59.7819 16.2297 59.2617 16.7499 59.2617 17.3741C59.2617 18.1024 59.7819 18.5186 60.4061 18.5186Z" fill="white"/>
<path d="M266.817 17.9985C266.713 17.9985 266.609 17.9985 266.401 17.8944C265.048 17.3743 264.32 17.0621 264.32 17.0621C263.904 16.9581 263.696 16.4379 263.8 16.1258C263.904 15.7097 264.424 15.5016 264.736 15.6056C264.736 15.6056 265.569 15.9177 266.921 16.4379C267.337 16.646 267.545 17.0621 267.337 17.4783C267.337 17.7904 267.129 17.8944 266.817 17.9985Z" fill="white"/>
<path d="M306.455 59.7176C306.975 61.1742 307.495 62.6307 307.911 64.0872C308.015 64.3993 308.327 64.7114 308.744 64.6074H308.848C309.264 64.5034 309.472 64.0872 309.368 63.6711C308.952 62.2145 308.432 60.654 307.911 59.3015C307.807 58.8853 307.287 58.6773 306.871 58.8853C306.559 58.8853 306.351 59.3015 306.455 59.7176Z" fill="white"/>
<path d="M309.159 68.4568C309.471 69.9133 309.887 71.4738 310.095 72.9304C310.199 73.3465 310.511 73.5546 310.927 73.5546C310.927 73.5546 310.927 73.5546 311.032 73.5546C311.448 73.4506 311.76 73.0344 311.656 72.6183C311.344 71.0577 311.031 69.6012 310.719 68.0406C310.615 67.6244 310.199 67.4164 309.783 67.5204C309.263 67.6244 309.055 68.0406 309.159 68.4568Z" fill="white"/>
<path d="M312.385 91.8653C312.801 91.8653 313.113 91.5532 313.113 91.137C313.113 89.5764 313.113 88.0159 313.113 86.4553C313.113 86.0392 312.697 85.7271 312.281 85.7271C311.865 85.7271 311.553 86.1432 311.553 86.5594C311.553 88.0159 311.657 89.5764 311.553 91.137C311.553 91.5532 311.865 91.8653 312.385 91.8653C312.385 91.9693 312.385 91.9693 312.385 91.8653Z" fill="white"/>
<path d="M311.449 76.5717C311.033 76.6757 310.721 76.9878 310.825 77.404C310.929 78.1322 311.033 78.8605 311.033 79.4847C311.137 80.317 311.241 81.1494 311.241 81.8776C311.241 82.2938 311.657 82.6059 312.073 82.6059C312.489 82.6059 312.802 82.1897 312.802 81.7736C312.698 80.9413 312.698 80.109 312.594 79.2767C312.489 78.5484 312.385 77.8201 312.385 77.0919C312.281 76.7798 311.865 76.4676 311.449 76.5717Z" fill="white"/>
<path d="M304.686 55.4519C304.79 55.764 305.102 55.9721 305.519 55.8681C305.623 55.8681 305.727 55.8681 305.727 55.764C306.143 55.5559 306.247 55.1398 306.143 54.7236C305.519 53.2671 304.79 51.9146 304.062 50.5621C303.854 50.146 303.438 50.042 303.022 50.25C302.605 50.4581 302.501 50.8743 302.71 51.2904C303.438 52.6429 304.062 54.0994 304.686 55.4519Z" fill="white"/>
<path d="M270.561 19.8711C271.914 20.5994 273.266 21.3276 274.619 22.0559C274.723 22.1599 274.931 22.1599 275.139 22.1599C275.347 22.1599 275.555 21.9518 275.763 21.7438C275.971 21.3276 275.867 20.9115 275.451 20.7034C274.099 19.8711 272.746 19.1428 271.394 18.4146C270.978 18.2065 270.561 18.4146 270.353 18.7267C270.041 19.1428 270.145 19.663 270.561 19.8711Z" fill="white"/>
<path d="M282.11 27.1537C282.318 27.2578 282.422 27.3618 282.63 27.2578C282.838 27.2578 283.046 27.1537 283.15 26.9456C283.462 26.6335 283.358 26.1133 283.046 25.9053C281.798 24.9689 280.549 24.0326 279.301 23.2003C278.989 22.9922 278.469 23.0963 278.261 23.4084C278.053 23.7205 278.157 24.2407 278.469 24.4488C279.717 25.3851 280.966 26.2174 282.11 27.1537Z" fill="white"/>
<path d="M295.219 39.9505C295.427 40.1586 295.635 40.2626 295.947 40.2626C296.051 40.2626 296.259 40.1586 296.363 40.0545C296.675 39.7424 296.779 39.3263 296.467 38.9101C295.531 37.6617 294.49 36.5173 293.45 35.3728C293.138 35.0607 292.618 35.0607 292.306 35.2688C291.994 35.5809 291.994 36.1011 292.202 36.4132C293.242 37.5576 294.282 38.702 295.219 39.9505Z" fill="white"/>
<path d="M289.081 33.0839C289.289 33.292 289.497 33.292 289.705 33.292C289.913 33.292 290.017 33.1879 290.225 33.0839C290.537 32.7718 290.537 32.2516 290.225 31.9395C289.081 30.8991 287.936 29.7547 286.792 28.8183C286.48 28.5062 285.96 28.6103 285.647 28.9224C285.335 29.2345 285.439 29.7547 285.751 30.0668C286.896 31.0031 288.04 32.0435 289.081 33.0839Z" fill="white"/>
<path d="M300.42 47.3371C300.628 47.6492 300.836 47.7533 301.148 47.7533C301.252 47.7533 301.356 47.7533 301.46 47.6493C301.877 47.4412 301.981 46.921 301.669 46.6089C300.836 45.2564 300.004 44.0079 299.068 42.6554C298.86 42.3433 298.339 42.2393 298.027 42.4474C297.715 42.6554 297.611 43.1756 297.819 43.4877C298.86 44.8402 299.692 46.0887 300.42 47.3371Z" fill="white"/>
<path d="M266.815 12.5886L270.144 0L228.529 0.416144L266.815 12.5886Z" fill="#009CF8"/>
<path d="M228.426 0.415283L264.735 15.7088H264.839L266.4 18.3098L266.816 12.5877L228.426 0.415283Z" fill="#006BDE"/>
<path d="M266.401 18.3107L263.072 17.7905L264.841 15.7097L266.401 18.3107Z" fill="#006BDE"/>
<path d="M260.261 13.8361L264.838 15.7088L255.475 26.3207L228.529 0.415283L260.261 13.8361Z" fill="#009CF8"/>
<path d="M458.662 344.365V345.093C458.662 349.463 455.125 353 450.755 353H38.7662C34.3967 353 30.8594 349.463 30.8594 345.093V344.365C30.8594 339.995 34.3967 336.458 38.7662 336.458H450.651C455.021 336.458 458.662 339.995 458.662 344.365Z" fill="#1C31B5"/>
<path d="M458.663 344.365V344.781H30.7559V344.365C30.7559 339.995 34.2931 336.458 38.6627 336.458H450.548C455.022 336.458 458.663 339.995 458.663 344.365Z" fill="#006BDE"/>
<path d="M307.702 311.489H178.384C175.263 311.489 172.766 308.992 172.766 305.871V238.142C172.766 235.021 175.263 232.524 178.384 232.524H307.702C310.824 232.524 313.321 235.021 313.321 238.142V305.871C313.321 308.992 310.824 311.489 307.702 311.489Z" fill="#18315B"/>
<path d="M253.914 311.385H232.17V336.25H253.914V311.385Z" fill="#000B29"/>
<path d="M242.783 283.815C248.758 283.815 253.603 278.97 253.603 272.995C253.603 267.019 248.758 262.175 242.783 262.175C236.807 262.175 231.963 267.019 231.963 272.995C231.963 278.97 236.807 283.815 242.783 283.815Z" fill="white"/>
<path d="M270.768 336.146H214.588V334.273C214.588 330.424 217.709 327.406 221.454 327.406H263.798C267.647 327.406 270.664 330.528 270.664 334.273V336.146H270.768Z" fill="#18315B"/>
</svg>
