<svg width="20" height="21" viewBox="0 0 20 21" fill="none" xmlns="http://www.w3.org/2000/svg">
<path d="M7.7867 17.6247C8.31569 17.466 8.61588 16.9085 8.45718 16.3795C8.29848 15.8505 7.741 15.5503 7.212 15.709L7.7867 17.6247ZM1.90855 13.1967C1.37276 13.0628 0.829822 13.3885 0.695873 13.9243C0.561924 14.4601 0.887685 15.003 1.42348 15.137L1.90855 13.1967ZM12.3327 19.1669C12.3327 19.7191 12.7804 20.1669 13.3327 20.1669C13.8849 20.1669 14.3327 19.7191 14.3327 19.1669H12.3327ZM13.3327 15.9419L12.3357 15.8634C12.3337 15.8895 12.3327 15.9157 12.3327 15.9419H13.3327ZM12.5493 13.7669L12.4385 12.773C12.0593 12.8153 11.7372 13.0696 11.6082 13.4287C11.4792 13.7878 11.5658 14.189 11.8313 14.4629L12.5493 13.7669ZM17.916 7.93352H18.916V7.93334L17.916 7.93352ZM16.666 4.80852L15.7291 4.45888C15.5953 4.81742 15.6778 5.22088 15.9417 5.49805L16.666 4.80852ZM16.591 1.66686L17.5101 1.27291C17.393 0.999657 17.1604 0.792683 16.8754 0.708143L16.591 1.66686ZM13.3327 2.90019L13.0711 3.86537C13.3505 3.9411 13.649 3.89202 13.8895 3.73084L13.3327 2.90019ZM7.49932 2.90019L6.94252 3.73084C7.18298 3.89202 7.48149 3.9411 7.7609 3.86537L7.49932 2.90019ZM4.24099 1.66686L3.95662 0.708143C3.6716 0.792683 3.43897 0.999657 3.32185 1.27291L4.24099 1.66686ZM4.16599 4.80852L4.89024 5.49806C5.15412 5.22089 5.23668 4.81743 5.10287 4.45888L4.16599 4.80852ZM2.91599 7.95852H3.916L3.91597 7.95321L2.91599 7.95852ZM8.28265 13.7919L9.00126 14.4873C9.2649 14.2148 9.35182 13.8167 9.2257 13.4592C9.09959 13.1017 8.78214 12.8462 8.40591 12.7995L8.28265 13.7919ZM7.49932 15.9419H8.49932C8.49932 15.9184 8.4985 15.895 8.49686 15.8717L7.49932 15.9419ZM6.49932 19.1669C6.49932 19.7191 6.94704 20.1669 7.49932 20.1669C8.0516 20.1669 8.49932 19.7191 8.49932 19.1669H6.49932ZM7.212 15.709C6.28404 15.9874 5.6868 15.9808 5.29234 15.8885C4.91076 15.7992 4.62584 15.6083 4.35229 15.3347C4.20989 15.1923 4.07464 15.0316 3.92702 14.8467C3.79173 14.6772 3.61909 14.4521 3.45591 14.2606C3.1251 13.8722 2.64109 13.3798 1.90855 13.1967L1.42348 15.137C1.52428 15.1622 1.66527 15.2427 1.93342 15.5575C2.06971 15.7175 2.19004 15.8766 2.364 16.0945C2.52562 16.2969 2.71589 16.5268 2.93808 16.749C3.39369 17.2046 3.99419 17.6387 4.83657 17.8359C5.66607 18.03 6.63133 17.9713 7.7867 17.6247L7.212 15.709ZM14.3327 19.1669V15.9419H12.3327V19.1669H14.3327ZM14.3296 16.0203C14.4153 14.9302 14.0284 13.8559 13.2673 13.0708L11.8313 14.4629C12.1927 14.8357 12.3765 15.3458 12.3357 15.8634L14.3296 16.0203ZM12.6601 14.7607C14.0246 14.6086 15.6114 14.2603 16.8575 13.2124C18.1522 12.1238 18.916 10.4248 18.916 7.93352H16.916C16.916 9.99227 16.3048 11.0641 15.5703 11.6817C14.7873 12.3401 13.6907 12.6334 12.4385 12.773L12.6601 14.7607ZM18.916 7.93334C18.9157 6.51321 18.3695 5.14755 17.3903 4.119L15.9417 5.49805C16.567 6.15483 16.9158 7.02688 16.916 7.93371L18.916 7.93334ZM17.6029 5.15817C18.0727 3.89933 18.0394 2.50789 17.5101 1.27291L15.6719 2.06081C15.9986 2.82307 16.0191 3.6819 15.7291 4.45888L17.6029 5.15817ZM16.591 1.66686C16.8754 0.708143 16.8744 0.707857 16.8734 0.70757C16.8731 0.707473 16.8721 0.707187 16.8715 0.706995C16.8701 0.70661 16.8688 0.706223 16.8675 0.705835C16.8648 0.705058 16.862 0.704274 16.8592 0.703483C16.8535 0.701903 16.8476 0.700298 16.8414 0.698678C16.829 0.695437 16.8156 0.692137 16.8011 0.688845C16.7721 0.68226 16.7391 0.675728 16.7018 0.669784C16.6271 0.65788 16.5364 0.648441 16.4293 0.645493C16.2145 0.639582 15.9385 0.65988 15.5982 0.735418C14.9195 0.886097 13.9908 1.25513 12.7759 2.06955L13.8895 3.73084C14.9495 3.02025 15.65 2.77262 16.0317 2.68788C16.2216 2.64571 16.3336 2.64362 16.3743 2.64474C16.3949 2.6453 16.3988 2.64674 16.3868 2.64483C16.3809 2.64388 16.3711 2.64212 16.3577 2.63907C16.351 2.63754 16.3433 2.63569 16.3348 2.63346C16.3306 2.63234 16.3261 2.63113 16.3214 2.62982C16.319 2.62917 16.3166 2.62849 16.3142 2.62778C16.3129 2.62742 16.3117 2.62706 16.3104 2.6267C16.3098 2.62651 16.3089 2.62623 16.3085 2.62614C16.3076 2.62586 16.3066 2.62557 16.591 1.66686ZM13.5942 1.93501C11.5129 1.37094 9.31903 1.37094 7.23774 1.93501L7.7609 3.86537C9.4996 3.39415 11.3324 3.39415 13.0711 3.86537L13.5942 1.93501ZM8.05612 2.06955C6.84117 1.25513 5.91247 0.886097 5.23376 0.735418C4.8935 0.65988 4.61743 0.639582 4.40267 0.645493C4.29556 0.648441 4.20483 0.65788 4.13019 0.669784C4.09292 0.675728 4.05983 0.68226 4.03086 0.688845C4.01639 0.692137 4.00297 0.695437 3.99059 0.698678C3.9844 0.700298 3.97848 0.701903 3.97281 0.703483C3.96998 0.704274 3.96722 0.705058 3.96452 0.705835C3.96317 0.706223 3.96184 0.70661 3.96052 0.706995C3.95986 0.707187 3.95889 0.707473 3.95856 0.70757C3.95759 0.707856 3.95662 0.708143 4.24099 1.66686C4.52535 2.62557 4.52439 2.62586 4.52344 2.62614C4.52312 2.62623 4.52217 2.62651 4.52154 2.6267C4.52028 2.62706 4.51904 2.62742 4.51781 2.62778C4.51535 2.62849 4.51295 2.62917 4.5106 2.62982C4.5059 2.63113 4.50142 2.63234 4.49716 2.63346C4.48865 2.63569 4.48102 2.63754 4.47431 2.63907C4.46086 2.64212 4.45111 2.64388 4.44517 2.64483C4.43319 2.64674 4.43707 2.6453 4.45769 2.64474C4.4984 2.64362 4.61035 2.64571 4.8003 2.68788C5.182 2.77262 5.88247 3.02025 6.94252 3.73084L8.05612 2.06955ZM3.32185 1.27291C2.79253 2.50789 2.75931 3.89933 3.2291 5.15817L5.10287 4.45888C4.8129 3.6819 4.8334 2.82307 5.16012 2.06081L3.32185 1.27291ZM3.44174 4.11899C2.45522 5.15516 1.90839 6.53317 1.916 7.96384L3.91597 7.95321C3.91112 7.03965 4.26029 6.15972 4.89024 5.49806L3.44174 4.11899ZM1.91599 7.95852C1.91599 10.4363 2.68175 12.1254 3.97449 13.2124C5.21708 14.2573 6.79987 14.6154 8.1594 14.7842L8.40591 12.7995C7.14877 12.6433 6.04823 12.3431 5.26165 11.6817C4.52522 11.0625 3.91599 9.99739 3.91599 7.95852H1.91599ZM7.56405 13.0964C6.81212 13.8734 6.42592 14.9334 6.50178 16.012L8.49686 15.8717C8.46083 15.3595 8.64422 14.8562 9.00126 14.4873L7.56405 13.0964ZM6.49932 15.9419V19.1669H8.49932V15.9419H6.49932Z" fill="#F2C94C"/>
</svg>
