<svg width="20" height="21" viewBox="0 0 20 21" fill="none" xmlns="http://www.w3.org/2000/svg">
<path d="M7.78768 17.6245C8.31667 17.4658 8.61685 16.9083 8.45815 16.3793C8.29946 15.8503 7.74197 15.5501 7.21298 15.7088L7.78768 17.6245ZM1.90953 13.1965C1.37373 13.0626 0.830799 13.3883 0.69685 13.9241C0.562901 14.4599 0.888661 15.0029 1.42446 15.1368L1.90953 13.1965ZM12.3336 19.1667C12.3336 19.719 12.7813 20.1667 13.3336 20.1667C13.8859 20.1667 14.3336 19.719 14.3336 19.1667H12.3336ZM13.3336 15.9417L12.3367 15.8632C12.3347 15.8893 12.3336 15.9155 12.3336 15.9417H13.3336ZM12.5503 13.7667L12.4395 12.7728C12.0603 12.8151 11.7382 13.0695 11.6092 13.4285C11.4802 13.7876 11.5667 14.1888 11.8323 14.4627L12.5503 13.7667ZM17.917 7.93334H18.917V7.93316L17.917 7.93334ZM16.667 4.80834L15.7301 4.4587C15.5963 4.81724 15.6788 5.2207 15.9427 5.49786L16.667 4.80834ZM16.592 1.66668L17.5111 1.27273C17.394 0.999474 17.1614 0.7925 16.8763 0.70796L16.592 1.66668ZM13.3336 2.90001L13.072 3.86519C13.3515 3.94092 13.65 3.89184 13.8904 3.73065L13.3336 2.90001ZM7.5003 2.90001L6.94349 3.73065C7.18396 3.89184 7.48247 3.94092 7.76188 3.86519L7.5003 2.90001ZM4.24196 1.66668L3.9576 0.70796C3.67258 0.7925 3.43995 0.999474 3.32283 1.27273L4.24196 1.66668ZM4.16696 4.80834L4.89121 5.49788C5.1551 5.22071 5.23765 4.81724 5.10385 4.4587L4.16696 4.80834ZM2.91696 7.95834H3.91698L3.91695 7.95302L2.91696 7.95834ZM8.28363 13.7917L9.00223 14.4871C9.26588 14.2147 9.35279 13.8166 9.22668 13.459C9.10057 13.1015 8.78312 12.846 8.40689 12.7993L8.28363 13.7917ZM7.5003 15.9417H8.5003C8.5003 15.9183 8.49947 15.8949 8.49783 15.8715L7.5003 15.9417ZM6.5003 19.1667C6.5003 19.719 6.94801 20.1667 7.5003 20.1667C8.05258 20.1667 8.5003 19.719 8.5003 19.1667H6.5003ZM7.21298 15.7088C6.28502 15.9872 5.68777 15.9806 5.29332 15.8883C4.91173 15.799 4.62682 15.6081 4.35327 15.3346C4.21087 15.1922 4.07562 15.0314 3.92799 14.8465C3.79271 14.677 3.62007 14.452 3.45688 14.2604C3.12608 13.8721 2.64207 13.3797 1.90953 13.1965L1.42446 15.1368C1.52525 15.162 1.66624 15.2425 1.93439 15.5573C2.07069 15.7173 2.19102 15.8764 2.36498 16.0943C2.5266 16.2967 2.71687 16.5266 2.93905 16.7488C3.39467 17.2044 3.99517 17.6385 4.83755 17.8357C5.66705 18.0298 6.63231 17.9711 7.78768 17.6245L7.21298 15.7088ZM14.3336 19.1667V15.9417H12.3336V19.1667H14.3336ZM14.3306 16.0201C14.4163 14.93 14.0294 13.8557 13.2683 13.0706L11.8323 14.4627C12.1937 14.8355 12.3774 15.3456 12.3367 15.8632L14.3306 16.0201ZM12.6611 14.7605C14.0256 14.6084 15.6123 14.2601 16.8585 13.2123C18.1532 12.1236 18.917 10.4246 18.917 7.93334H16.917C16.917 9.99208 16.3057 11.0639 15.5713 11.6815C14.7883 12.3399 13.6917 12.6333 12.4395 12.7728L12.6611 14.7605ZM18.917 7.93316C18.9167 6.51303 18.3704 5.14737 17.3912 4.11882L15.9427 5.49786C16.568 6.15465 16.9168 7.0267 16.917 7.93353L18.917 7.93316ZM17.6038 5.15798C18.0736 3.89915 18.0404 2.50771 17.5111 1.27273L15.6728 2.06063C15.9995 2.82289 16.02 3.68172 15.7301 4.4587L17.6038 5.15798ZM16.592 1.66668C16.8763 0.70796 16.8754 0.707673 16.8744 0.707387C16.8741 0.70729 16.8731 0.707004 16.8724 0.706811C16.8711 0.706427 16.8698 0.70604 16.8684 0.705652C16.8657 0.704875 16.863 0.704091 16.8601 0.7033C16.8545 0.70172 16.8486 0.700115 16.8424 0.698495C16.83 0.695254 16.8166 0.691954 16.8021 0.688662C16.7731 0.682077 16.74 0.675545 16.7028 0.669601C16.6281 0.657697 16.5374 0.648257 16.4303 0.64531C16.2155 0.639399 15.9395 0.659697 15.5992 0.735235C14.9205 0.885914 13.9918 1.25495 12.7768 2.06937L13.8904 3.73065C14.9505 3.02007 15.651 2.77244 16.0326 2.6877C16.2226 2.64553 16.3345 2.64343 16.3753 2.64455C16.3959 2.64512 16.3998 2.64655 16.3878 2.64464C16.3818 2.6437 16.3721 2.64194 16.3586 2.63888C16.3519 2.63736 16.3443 2.63551 16.3358 2.63328C16.3315 2.63216 16.327 2.63095 16.3223 2.62964C16.32 2.62898 16.3176 2.6283 16.3151 2.6276C16.3139 2.62724 16.3127 2.62688 16.3114 2.62651C16.3108 2.62633 16.3098 2.62605 16.3095 2.62596C16.3086 2.62568 16.3076 2.62539 16.592 1.66668ZM13.5952 1.93483C11.5139 1.37075 9.32 1.37075 7.23871 1.93483L7.76188 3.86519C9.50057 3.39397 11.3334 3.39397 13.072 3.86519L13.5952 1.93483ZM8.0571 2.06937C6.84215 1.25495 5.91345 0.885913 5.23473 0.735235C4.89448 0.659697 4.6184 0.639399 4.40364 0.64531C4.29653 0.648257 4.20581 0.657697 4.13117 0.669601C4.0939 0.675545 4.0608 0.682077 4.03184 0.688662C4.01737 0.691954 4.00394 0.695254 3.99156 0.698495C3.98538 0.700115 3.97945 0.70172 3.97379 0.7033C3.97096 0.704091 3.96819 0.704875 3.9655 0.705652C3.96415 0.70604 3.96281 0.706427 3.9615 0.706811C3.96084 0.707004 3.95986 0.70729 3.95954 0.707387C3.95856 0.707673 3.9576 0.70796 4.24196 1.66668C4.52633 2.62539 4.52537 2.62568 4.52441 2.62596C4.5241 2.62605 4.52315 2.62633 4.52252 2.62651C4.52126 2.62688 4.52002 2.62724 4.51879 2.6276C4.51633 2.6283 4.51393 2.62898 4.51158 2.62964C4.50688 2.63095 4.5024 2.63216 4.49814 2.63328C4.48962 2.63551 4.482 2.63736 4.47528 2.63888C4.46183 2.64194 4.45209 2.6437 4.44615 2.64464C4.43417 2.64655 4.43804 2.64512 4.45867 2.64455C4.49938 2.64343 4.61132 2.64553 4.80128 2.6877C5.18297 2.77244 5.88345 3.02007 6.94349 3.73065L8.0571 2.06937ZM3.32283 1.27273C2.7935 2.50771 2.76029 3.89915 3.23008 5.15798L5.10385 4.4587C4.81388 3.68172 4.83438 2.82289 5.16109 2.06062L3.32283 1.27273ZM3.44271 4.1188C2.4562 5.15498 1.90937 6.53299 1.91698 7.96366L3.91695 7.95302C3.91209 7.03947 4.26127 6.15953 4.89121 5.49788L3.44271 4.1188ZM1.91696 7.95834C1.91696 10.4361 2.68273 12.1252 3.97547 13.2123C5.21805 14.2571 6.80084 14.6152 8.16037 14.784L8.40689 12.7993C7.14975 12.6432 6.04921 12.3429 5.26262 11.6815C4.5262 11.0623 3.91696 9.9972 3.91696 7.95834H1.91696ZM7.56503 13.0963C6.8131 13.8732 6.4269 14.9332 6.50276 16.0118L8.49783 15.8715C8.46181 15.3594 8.64519 14.856 9.00223 14.4871L7.56503 13.0963ZM6.5003 15.9417V19.1667H8.5003V15.9417H6.5003Z" fill="#140152"/>
</svg>
