<svg width="80" height="80" viewBox="0 0 80 80" fill="none" xmlns="http://www.w3.org/2000/svg">
<path d="M8 40V72H40H72V40V8H40H8V40Z" fill="#007ACC"/>
<path d="M22.1554 40.2121L22.1351 42.8331H26.3002H30.4653L30.4653 54.668V66.5029H33.4113H36.3573V54.668V42.8331H40.5224H44.6875V40.2629C44.6875 38.8407 44.657 37.6521 44.6164 37.6217C44.5859 37.581 39.5167 37.5607 33.3707 37.5709L22.1859 37.6013L22.1554 40.2121Z" fill="white"/>
<path d="M59.64 37.5272C61.2654 37.9335 62.5048 38.6548 63.6425 39.8332C64.2318 40.463 65.1054 41.611 65.1765 41.8853C65.1968 41.9665 62.4133 43.8357 60.727 44.8821C60.666 44.9227 60.4222 44.6586 60.1479 44.2522C59.3251 43.0535 58.4616 42.5354 57.141 42.444C55.2006 42.3119 53.9511 43.3278 53.9613 45.0243C53.9613 45.5221 54.0324 45.8167 54.2356 46.223C54.6622 47.1069 55.4546 47.6351 57.9435 48.7119C62.5251 50.6827 64.4857 51.983 65.7048 53.8319C67.066 55.8941 67.3708 59.1856 66.4464 61.6338C65.4305 64.2954 62.9111 66.1037 59.3657 66.703C58.2686 66.8961 55.6679 66.8656 54.4895 66.6522C51.9194 66.1951 49.4813 64.9253 47.9778 63.2592C47.3886 62.6091 46.2406 60.9126 46.3118 60.7907C46.3422 60.75 46.6064 60.5875 46.901 60.4148C47.1854 60.2522 48.2622 59.6326 49.2781 59.0434L51.1168 57.9767L51.5029 58.5456C52.0413 59.3684 53.2197 60.4961 53.9308 60.8719C55.9727 61.9488 58.7765 61.7964 60.1581 60.557C60.7473 60.0186 60.9911 59.4599 60.9911 58.637C60.9911 57.8954 60.8997 57.5703 60.5137 57.0116C60.0159 56.3005 59 55.7011 56.1149 54.4516C52.8133 53.0294 51.3911 52.1456 50.0908 50.7437C49.3391 49.931 48.6279 48.6307 48.3333 47.5437C48.0895 46.6395 48.0286 44.3742 48.2216 43.4599C48.9022 40.27 51.3098 38.0453 54.7841 37.3849C55.9118 37.1716 58.5327 37.2529 59.64 37.5272Z" fill="white"/>
</svg>
