<svg width="32" height="32" viewBox="0 0 32 32" fill="none" xmlns="http://www.w3.org/2000/svg">
<rect width="32" height="32" rx="16" fill="white"/>
<path d="M23.5 23.5H20.1667V17.875C20.1667 16.9928 19.1768 16.2548 18.2946 16.2548C17.4124 16.2548 16.8333 16.9928 16.8333 17.875V23.5H13.5V13.5H16.8333V15.1667C17.3853 14.2738 18.797 13.6977 19.7708 13.6977C21.8304 13.6977 23.5 15.3988 23.5 17.4583V23.5ZM11.8333 23.5H8.5V13.5H11.8333V23.5ZM10.1667 8.5C11.0871 8.5 11.8333 9.24619 11.8333 10.1667C11.8333 11.0871 11.0871 11.8333 10.1667 11.8333C9.2462 11.8333 8.50001 11.0871 8.50001 10.1667C8.50001 9.24619 9.2462 8.5 10.1667 8.5Z" fill="#2867B2"/>
</svg>
