<svg xmlns="http://www.w3.org/2000/svg" width="168" height="190" fill="none" viewBox="0 0 168 190">
    <g clip-path="url(#clip0)">
        <path fill="#9781ED" d="M74.056 134.838c-.138-.99 1.374-1.414 1.514-.419 2.624 18.734 5.935 37.029 9.45 55.612 6.37-.053 12.735.296 19.096 0-.166-15.818-2.059-28.873-5.634-44.284-1.511-6.514-3.394-13.111-7.296-18.538-3.902-5.43-10.213-9.549-16.889-9.187-8.985.485-15.897 8.955-17.68 17.777-1.783 8.819.363 17.906 2.499 26.646-1.63-6.541-10.344-9.515-16.385-6.525-6.04 2.994-9.097 10.258-8.696 16.989.401 6.728 3.675 11.614 7.56 17.122 3.779.123 7.553-.103 11.321 0-.93-2.681-1.704-5.485-2.443-8.225-.704-2.609-1.307-5.271-2.17-7.832-.686-2.041-1.321-3.387-1.814-6.3-.168-.992 1.345-.984 1.57 0 .832 3.652 1.294 4.36 1.928 6.422.74 2.408 1.343 4.861 2 7.292.781 2.898 1.594 5.817 2.602 8.643 9.64.256 19.248.059 28.84 0-3.486-18.446-6.768-36.597-9.373-55.193z"/>
        <path fill="#D4D4E3" d="M134 190.159c0-10.954-12.22-19.831-27.294-19.831-15.073 0-27.293 8.877-27.293 19.831H134z"/>
    </g>
    <defs>
        <clipPath id="clip0">
            <path fill="#fff" d="M0 0H168V190H0z"/>
        </clipPath>
    </defs>
</svg>
