<svg xmlns="http://www.w3.org/2000/svg" width="168" height="190" fill="none" viewBox="0 0 168 190">
    <path fill="#9781ED" d="M103.68 148.871c.104-.735-1.021-1.05-1.125-.309-1.95 13.925-4.412 27.529-7.025 41.344-4.737-.041-9.467.218-14.196 0 .122-11.761 1.53-21.465 4.188-32.924 1.123-4.841 2.524-9.746 5.425-13.782 2.9-4.037 7.592-7.1 12.555-6.83 6.681.362 11.82 6.66 13.144 13.216 1.326 6.556-.27 13.312-1.857 19.81 1.212-4.861 7.69-7.074 12.18-4.851 4.491 2.225 6.764 7.628 6.465 12.63-.298 5.002-2.731 8.635-5.619 12.731-2.81.089-5.616-.076-8.417 0 .692-1.995 1.266-4.08 1.817-6.117.522-1.937.97-3.918 1.612-5.821.51-1.518.982-2.517 1.349-4.683.124-.739-1.001-.733-1.167 0-.619 2.715-.963 3.239-1.434 4.773-.551 1.79-.998 3.613-1.487 5.422-.581 2.153-1.186 4.325-1.934 6.426-7.165.189-14.31.042-21.44 0 2.59-13.715 5.031-27.209 6.966-41.035z"/>
    <path fill="#E4E4EF" d="M143.611 139.704c3.774 3.771 9.891 3.771 13.664 0 3.774-3.774 3.774-9.891 0-13.664l-13.664 13.664zM129.318 123.311c0 1.929 1.563 3.494 3.494 3.494 1.929 0 3.494-1.565 3.494-3.494 0-1.931-1.565-3.494-3.494-3.494-1.931 0-3.494 1.563-3.494 3.494zM166.882 117.358l.516-1.129-18.958-8.664-.518 1.132 18.96 8.661zM16.861 5.417l1.56-.555 8.557 24.02-1.56.555-8.557-24.02zM5.098 12.764l1.363-.941L20.958 32.8l-1.363.94L5.098 12.764z"/>
    <path fill="#5238B8" d="M51.078 33.88c-13.517 0-24.473 10.957-24.473 24.473V98.42H75.55V58.353c0-13.516-10.958-24.473-24.472-24.473z"/>
    <path fill="#9781ED" d="M1 98.42h74.548v-2.51H1v2.51z"/>
    <path fill="#E4E4EF" d="M37.953 95.91h59.455V61.754H37.953V95.91z"/>
    <path fill="#fff" d="M37.953 95.91L67.68 71.533 97.408 95.91H37.953z"/>
    <path fill="#D4D4DE" d="M61.568 76.547l-9.925-6.218c.107-.174.213-.351.31-.532l10.494 6.029-.879.72z"/>
    <path fill="#EDEDED" d="M67.681 80.376l-6.113-3.83.879-.72 5.234 3.006 4.845-2.783v1.293l-4.845 3.034z"/>
    <path fill="#fff" d="M37.953 61.754L67.68 78.832l29.728-17.078H37.953z"/>
    <path fill="#9781ED" d="M113.032 33.88H51.074c13.515 0 24.472 10.957 24.472 24.473V98.42h61.958V58.353c0-13.516-10.955-24.473-24.472-24.473z"/>
    <path fill="#806FC2" d="M92.365 72.397c-.211 0-.425-.008-.64-.025-4.308-.348-7.518-4.123-7.17-8.431.24-2.982 2.122-5.435 4.687-6.55l1.898-23.51h7.388L96.58 57.984c2.352 1.511 3.817 4.235 3.576 7.216-.331 4.095-3.754 7.198-7.79 7.197z"/>
    <path fill="#5238B8" d="M106.593 14.987V.718h-18.55v55.68c-2.466 1.317-4.145 3.914-4.145 6.905 0 4.323 3.504 7.827 7.827 7.827s7.827-3.504 7.827-7.826c0-2.992-1.681-5.589-4.147-6.906v-41.41h11.188z"/>
    <path fill="#E4E4EF" d="M94.916 63.303c0 1.764-1.43 3.193-3.193 3.193-1.766 0-3.196-1.43-3.196-3.193 0-1.764 1.43-3.194 3.196-3.194 1.763 0 3.193 1.43 3.193 3.194z"/>
    <path fill="#D4D4DE" d="M75.548 77.984l-1.753-1.438 1.753-1.098v2.536z"/>
    <path fill="#EDEDED" d="M75.549 95.91h-3.024V77.341l1.27-.795 1.754 1.438V95.91z"/>
    <path fill="#C5C5CE" d="M73.797 76.547l-.881-.721 2.634-1.513v1.136l-1.753 1.098z"/>
    <path fill="#DCDCDC" d="M72.525 77.342v-1.293l.39-.224.88.721-1.27.796z"/>
    <path fill="#EDEDED" d="M72.525 76.05V61.755h3.024v12.558l-2.634 1.513-.39.224z"/>
    <path fill="#D4D4E3" d="M70.688 98.42v91.562l18.804.017v-91.58H70.687z"/>
    <path fill="#BCBCCB" d="M89.492 107.023l-8.603-5.114H70.688v-3.49h18.804v8.604z"/>
    <path fill="#C5C5CE" d="M51.642 70.33l-13.689-8.576 14 8.043c-.098.18-.203.358-.311.532z"/>
</svg>
