<svg width="32" height="32" viewBox="0 0 32 32" fill="none" xmlns="http://www.w3.org/2000/svg">
<path d="M28 28H22.6667V19C22.6667 17.5885 21.0828 16.4077 19.6713 16.4077C18.2599 16.4077 17.3333 17.5885 17.3333 19V28H12V12H17.3333V14.6667C18.2164 13.2381 20.4752 12.3164 22.0333 12.3164C25.3287 12.3164 28 15.0381 28 18.3333V28ZM9.33333 28H4V12H9.33333V28ZM6.66668 4C8.13944 4 9.33335 5.19391 9.33335 6.66667C9.33335 8.13943 8.13944 9.33333 6.66668 9.33333C5.19392 9.33333 4.00001 8.13943 4.00001 6.66667C4.00001 5.19391 5.19392 4 6.66668 4Z" fill="#343A40"/>
</svg>
