<svg width="48" height="48" viewBox="0 0 48 48" fill="none" xmlns="http://www.w3.org/2000/svg">
<path d="M18 31.5C25.4558 31.5 31.5 25.4558 31.5 18C31.5 10.5442 25.4558 4.5 18 4.5C10.5442 4.5 4.5 10.5442 4.5 18C4.5 25.4558 10.5442 31.5 18 31.5Z" stroke="#F2C94C" stroke-width="2" stroke-linecap="round" stroke-linejoin="round"/>
<path d="M30 43.5C37.4558 43.5 43.5 37.4558 43.5 30C43.5 22.5442 37.4558 16.5 30 16.5C22.5442 16.5 16.5 22.5442 16.5 30C16.5 37.4558 22.5442 43.5 30 43.5Z" stroke="#F2C94C" stroke-width="2" stroke-linecap="round" stroke-linejoin="round"/>
<path d="M22.9722 18.4719L29.5286 25.0283" stroke="#F2C94C" stroke-width="2" stroke-linecap="round" stroke-linejoin="round"/>
<path d="M18.4717 22.9717L25.0281 29.5281" stroke="#F2C94C" stroke-width="2" stroke-linecap="round" stroke-linejoin="round"/>
</svg>
