<svg width="22" height="22" viewBox="0 0 22 22" fill="none" xmlns="http://www.w3.org/2000/svg">
<path d="M14.6654 15.5832V17.4166H1.83203V15.5832C1.83203 15.5832 1.83203 11.9166 8.2487 11.9166C14.6654 11.9166 14.6654 15.5832 14.6654 15.5832ZM11.457 6.87489C11.457 6.24034 11.2689 5.62004 10.9163 5.09243C10.5638 4.56482 10.0627 4.1536 9.47647 3.91077C8.89023 3.66794 8.24514 3.60441 7.62278 3.7282C7.00043 3.85199 6.42876 4.15756 5.98006 4.60625C5.53137 5.05494 5.22581 5.62661 5.10201 6.24897C4.97822 6.87133 5.04175 7.51641 5.28458 8.10266C5.52742 8.68891 5.93864 9.18998 6.46624 9.54252C6.99385 9.89505 7.61415 10.0832 8.2487 10.0832C9.0996 10.0832 9.91565 9.7452 10.5173 9.14352C11.119 8.54184 11.457 7.72579 11.457 6.87489V6.87489ZM14.6104 11.9166C15.1739 12.3527 15.635 12.9069 15.9612 13.5404C16.2875 14.1739 16.4709 14.8712 16.4987 15.5832V17.4166H20.1654V15.5832C20.1654 15.5832 20.1654 12.2557 14.6104 11.9166V11.9166ZM13.7487 3.66655C13.1177 3.66304 12.5007 3.85168 11.9795 4.20739C12.5364 4.98539 12.8357 5.91815 12.8357 6.87489C12.8357 7.83162 12.5364 8.76438 11.9795 9.54238C12.5007 9.89809 13.1177 10.0867 13.7487 10.0832C14.5996 10.0832 15.4157 9.7452 16.0173 9.14352C16.619 8.54184 16.957 7.72579 16.957 6.87489C16.957 6.02398 16.619 5.20793 16.0173 4.60625C15.4157 4.00457 14.5996 3.66655 13.7487 3.66655V3.66655Z" fill="white"/>
</svg>
