<svg width="97" height="97" viewBox="0 0 97 97" fill="none" xmlns="http://www.w3.org/2000/svg">
<path d="M93.1227 46.1375C92.9545 45.0353 92.9172 45.2595 85.407 40.3461C92.0765 15.2936 91.927 16.7508 91.3852 15.798C90.8435 14.8452 91.8149 15.3496 70.7043 9.689V5.31742C70.7043 4.82194 70.5075 4.34676 70.1571 3.9964C69.8068 3.64605 69.3316 3.44922 68.8361 3.44922H27.7358C27.2403 3.44922 26.7651 3.64605 26.4148 3.9964C26.0644 4.34676 25.8676 4.82194 25.8676 5.31742V9.689L6.32624 14.9199C6.08771 14.9828 5.86399 15.0923 5.66799 15.242C5.47198 15.3918 5.30758 15.5789 5.18426 15.7925C5.06094 16.0062 4.98116 16.2421 4.9495 16.4867C4.91784 16.7314 4.93495 16.9798 4.99982 17.2178L11.2022 40.3461C3.84154 45.1474 3.72945 44.9979 3.50526 45.9507C3.44922 46.4177 3.44922 44.344 3.44922 85.6499C3.44922 87.6318 4.23653 89.5325 5.63795 90.9339C7.03937 92.3354 8.9401 93.1227 10.922 93.1227H85.6499C87.6318 93.1227 89.5325 92.3354 90.9339 90.9339C92.3354 89.5325 93.1227 87.6318 93.1227 85.6499C93.1227 43.1297 93.1227 46.5112 93.1227 46.1375ZM67.0613 64.4272L89.4797 49.8739C89.4797 88.9379 89.4797 85.8554 89.3489 86.6027L67.0613 64.4272ZM87.8357 46.4177L82.8663 49.6497L84.3421 44.1385L87.8357 46.4177ZM87.5181 18.0585C86.5466 21.6828 91.0116 4.98114 78.1771 52.7136L70.7043 57.6269V21.2905L75.0198 22.4488C75.0931 23.2796 75.3467 24.0844 75.7629 24.8072C76.1792 25.5299 76.748 26.1532 77.4298 26.6335L74.9264 35.9745C74.7976 36.4551 74.865 36.9672 75.1137 37.3982C75.3625 37.8291 75.7722 38.1436 76.2529 38.2724C76.7335 38.4012 77.2456 38.3339 77.6765 38.0851C78.1074 37.8364 78.4219 37.4266 78.5507 36.946L81.4464 26.1291C81.5102 25.8861 81.5243 25.6327 81.4879 25.3841C81.4515 25.1355 81.3653 24.8968 81.2345 24.6822C81.1037 24.4677 80.931 24.2818 80.7266 24.1355C80.5223 23.9893 80.2906 23.8858 80.0453 23.8312C79.8084 23.7664 79.5867 23.6555 79.3928 23.5049C79.1988 23.3542 79.0365 23.1668 78.915 22.9534C78.7936 22.74 78.7154 22.5047 78.6849 22.2611C78.6545 22.0174 78.6724 21.7701 78.7376 21.5334C78.8024 21.2954 78.8195 21.0469 78.7879 20.8023C78.7562 20.5576 78.6764 20.3217 78.5531 20.1081C78.4298 19.8944 78.2654 19.7073 78.0694 19.5576C77.8734 19.4078 77.6497 19.2983 77.4111 19.2355L70.7043 17.4233V13.5562L87.5181 18.0585ZM66.9679 7.18561V60.0182L48.2859 72.2175L29.604 60.0182V7.18561H66.9679ZM7.31639 86.6027C7.18561 85.8554 7.18561 88.8819 7.18561 49.8739L29.604 64.4272L7.31639 86.6027ZM25.8676 13.5562V17.4233L19.086 19.2915C18.8475 19.3544 18.6238 19.4638 18.4278 19.6136C18.2318 19.7634 18.0674 19.9505 17.944 20.1641C17.8207 20.3777 17.7409 20.6137 17.7093 20.8583C17.6776 21.1029 17.6947 21.3514 17.7596 21.5894C17.8779 22.0498 17.8162 22.538 17.5871 22.9545C17.358 23.371 16.9788 23.6846 16.5266 23.8312C16.049 23.9584 15.6412 24.2697 15.3926 24.6969C15.144 25.1241 15.0748 25.6324 15.2002 26.1104L18.0212 36.9273C18.15 37.4079 18.4644 37.8177 18.8954 38.0664C19.3263 38.3152 19.8384 38.3825 20.319 38.2537C20.7996 38.1249 21.2094 37.8104 21.4582 37.3795C21.7069 36.9486 21.7743 36.4365 21.6455 35.9558L19.1421 26.6149C19.8239 26.1345 20.3927 25.5112 20.809 24.7885C21.2252 24.0657 21.4788 23.2609 21.552 22.4301L25.8676 21.2905V57.6269L18.3948 52.7136C16.975 47.4453 10.511 23.3268 9.05381 18.0585L25.8676 13.5562ZM13.7056 49.6497L8.73622 46.4177L12.2297 44.1385L13.7056 49.6497ZM9.96923 89.2555L32.7052 66.5009C47.8002 76.3649 47.8563 76.9628 49.3134 76.01L63.8667 66.5009L86.6027 89.2555C85.6499 89.4984 10.7352 89.3863 9.96923 89.2555Z" fill="#5C3EBB"/>
<path d="M37.0801 27.7356V18.0771C37.869 17.7985 38.5856 17.3469 39.1772 16.7553C39.7688 16.1637 40.2204 15.4472 40.499 14.6583H56.0797C56.3583 15.4472 56.8099 16.1637 57.4015 16.7553C57.9931 17.3469 58.7096 17.7985 59.4985 18.0771V27.7356C59.4985 28.2311 59.6954 28.7063 60.0457 29.0567C60.3961 29.407 60.8713 29.6038 61.3667 29.6038C61.8622 29.6038 62.3374 29.407 62.6878 29.0567C63.0381 28.7063 63.2349 28.2311 63.2349 27.7356V16.5265C63.2349 16.031 63.0381 15.5558 62.6878 15.2055C62.3374 14.8551 61.8622 14.6583 61.3667 14.6583C60.8713 14.6583 60.3961 14.4614 60.0457 14.1111C59.6954 13.7607 59.4985 13.2855 59.4985 12.7901C59.4985 12.2946 59.3017 11.8194 58.9514 11.4691C58.601 11.1187 58.1258 10.9219 57.6303 10.9219H38.9483C38.4529 10.9219 37.9777 11.1187 37.6273 11.4691C37.277 11.8194 37.0801 12.2946 37.0801 12.7901C37.0801 13.2855 36.8833 13.7607 36.533 14.1111C36.1826 14.4614 35.7074 14.6583 35.2119 14.6583C34.7165 14.6583 34.2413 14.8551 33.8909 15.2055C33.5406 15.5558 33.3438 16.031 33.3438 16.5265V27.7356C33.3438 28.2311 33.5406 28.7063 33.8909 29.0567C34.2413 29.407 34.7165 29.6038 35.2119 29.6038C35.7074 29.6038 36.1826 29.407 36.533 29.0567C36.8833 28.7063 37.0801 28.2311 37.0801 27.7356Z" fill="#5C3EBB"/>
<path d="M48.2893 59.4956C51.2453 59.4956 54.1349 58.6191 56.5927 56.9769C59.0504 55.3346 60.9661 53.0004 62.0973 50.2695C63.2284 47.5386 63.5244 44.5335 62.9477 41.6343C62.3711 38.7352 60.9476 36.0721 58.8575 33.982C56.7673 31.8918 54.1042 30.4684 51.2051 29.8917C48.3059 29.315 45.3009 29.611 42.5699 30.7422C39.839 31.8734 37.5048 33.789 35.8625 36.2468C34.2203 38.7045 33.3438 41.5941 33.3438 44.5501C33.3438 48.5139 34.9184 52.3154 37.7212 55.1182C40.524 57.921 44.3255 59.4956 48.2893 59.4956ZM48.2893 33.3409C50.5063 33.3409 52.6735 33.9983 54.5168 35.23C56.3602 36.4617 57.7969 38.2123 58.6453 40.2605C59.4937 42.3087 59.7156 44.5625 59.2831 46.7369C58.8506 48.9112 57.7831 50.9085 56.2154 52.4762C54.6478 54.0438 52.6505 55.1114 50.4761 55.5439C48.3018 55.9764 46.048 55.7544 43.9998 54.906C41.9516 54.0576 40.2009 52.6209 38.9692 50.7776C37.7376 48.9342 37.0801 46.767 37.0801 44.5501C37.0801 41.5772 38.2611 38.7261 40.3632 36.624C42.4654 34.5219 45.3165 33.3409 48.2893 33.3409V33.3409Z" fill="#5C3EBB"/>
<path d="M47.5723 20.4126C47.2588 20.5414 46.9863 20.7531 46.7838 21.0249C46.5814 21.2968 46.4568 21.6186 46.4232 21.9558C46.3897 22.2931 46.4485 22.6331 46.5935 22.9395C46.7384 23.2459 46.964 23.5071 47.246 23.6951C47.528 23.8831 47.8558 23.9908 48.1944 24.0068C48.5329 24.0227 48.8695 23.9463 49.1679 23.7856C49.4663 23.6249 49.7154 23.3861 49.8885 23.0947C50.0616 22.8033 50.1521 22.4703 50.1504 22.1313C50.1489 21.8254 50.0723 21.5244 49.9272 21.255C49.7822 20.9856 49.5731 20.756 49.3186 20.5862C49.064 20.4165 48.7716 20.3119 48.4671 20.2816C48.1626 20.2514 47.8554 20.2963 47.5723 20.4126Z" fill="#5C3EBB"/>
</svg>
