<svg width="97" height="97" viewBox="0 0 97 97" fill="none" xmlns="http://www.w3.org/2000/svg">
<g clip-path="url(#clip0_528_1812)">
<path d="M48.2857 48.2862C48.0187 48.286 47.754 48.2371 47.5044 48.1421L1.41409 30.5136C0.998246 30.3547 0.640324 30.0726 0.38778 29.7048C0.135237 29.337 0 28.9009 0 28.4541C0 28.0074 0.135237 27.5712 0.38778 27.2034C0.640324 26.8356 0.998246 26.5536 1.41409 26.3947L47.5044 8.76617C48.0078 8.57469 48.5636 8.57469 49.0671 8.76617L95.1573 26.3947C95.5732 26.5536 95.9311 26.8356 96.1836 27.2034C96.4362 27.5712 96.5714 28.0074 96.5714 28.4541C96.5714 28.9009 96.4362 29.337 96.1836 29.7048C95.9311 30.0726 95.5732 30.3547 95.1573 30.5136L49.0671 48.1421C48.8174 48.2371 48.5527 48.286 48.2857 48.2862V48.2862ZM8.36078 28.4541L48.2857 43.7248L88.2107 28.4541L48.2857 13.1834L8.36078 28.4541Z" fill="#5C3EBB"/>
<path d="M48.2893 79.1363C48.0224 79.1361 47.7576 79.0873 47.508 78.9922L18.9759 68.0846C18.5602 67.9256 18.2024 67.6435 17.95 67.2757C17.6976 66.9079 17.5624 66.4718 17.5625 66.0251V35.1752C17.5625 34.5908 17.7937 34.0303 18.2053 33.6171C18.6169 33.2038 19.1752 32.9717 19.7573 32.9717C20.3394 32.9717 20.8976 33.2038 21.3092 33.6171C21.7208 34.0303 21.952 34.5908 21.952 35.1752V64.5047L48.2893 74.575L74.6266 64.5047V35.1752C74.6266 34.5908 74.8579 34.0303 75.2695 33.6171C75.6811 33.2038 76.2393 32.9717 76.8214 32.9717C77.4035 32.9717 77.9618 33.2038 78.3734 33.6171C78.785 34.0303 79.0162 34.5908 79.0162 35.1752V66.0251C79.0162 66.4718 78.8811 66.9079 78.6287 67.2757C78.3763 67.6435 78.0185 67.9256 77.6028 68.0846L49.0707 78.9922C48.8211 79.0873 48.5563 79.1361 48.2893 79.1363V79.1363Z" fill="#5C3EBB"/>
<path d="M10.9799 74.7291C10.3978 74.7291 9.83959 74.497 9.42799 74.0837C9.01639 73.6705 8.78516 73.11 8.78516 72.5256V31.8123C8.7851 31.2619 8.99017 30.7315 9.36003 30.3253C9.72988 29.9191 10.2378 29.6665 10.7837 29.6173L48.0949 26.2593C48.6747 26.2071 49.2515 26.3882 49.6983 26.7629C50.1451 27.1376 50.4253 27.6751 50.4773 28.2573C50.5294 28.8394 50.349 29.4185 49.9758 29.8671C49.6026 30.3156 49.0672 30.597 48.4873 30.6493L13.1747 33.8277V72.5256C13.1747 73.11 12.9435 73.6705 12.5319 74.0837C12.1203 74.497 11.562 74.7291 10.9799 74.7291Z" fill="#5C3EBB"/>
<path d="M15.3606 87.9503H6.5815C5.9994 87.9503 5.44115 87.7182 5.02955 87.3049C4.61795 86.8917 4.38672 86.3312 4.38672 85.7468V76.9325C4.38672 75.1792 5.08042 73.4978 6.31522 72.258C7.55003 71.0183 9.22478 70.3218 10.971 70.3218C12.7173 70.3218 14.3921 71.0183 15.6269 72.258C16.8617 73.4978 17.5554 75.1792 17.5554 76.9325V85.7468C17.5554 86.3312 17.3241 86.8917 16.9125 87.3049C16.5009 87.7182 15.9427 87.9503 15.3606 87.9503ZM8.77627 83.5432H13.1658V76.9325C13.1658 76.3481 12.9346 75.7876 12.523 75.3743C12.1114 74.9611 11.5531 74.7289 10.971 74.7289C10.389 74.7289 9.83071 74.9611 9.41911 75.3743C9.00751 75.7876 8.77627 76.3481 8.77627 76.9325V83.5432Z" fill="#5C3EBB"/>
</g>
<defs>
<clipPath id="clip0_528_1812">
<rect width="96.5714" height="96.5714" fill="white"/>
</clipPath>
</defs>
</svg>
