<svg width="722" height="716" viewBox="0 0 722 716" fill="none" xmlns="http://www.w3.org/2000/svg">
<path d="M675.014 455.172C671.172 458.155 667.756 461.991 663.486 464.122C640.858 475.629 617.375 483.3 592.185 487.562C590.05 487.988 587.916 488.414 585.781 488.414C578.523 488.841 573.399 484.579 572.118 478.186C570.838 471.367 574.68 465.4 582.365 463.695C590.904 461.564 599.443 460.712 607.556 458.155C619.937 454.319 631.892 449.631 643.847 445.369C648.116 444.091 649.824 441.533 649.824 436.845C648.97 423.633 650.251 409.995 648.116 397.21C643.42 365.245 618.229 341.379 586.208 339.248C561.445 337.543 536.681 338.395 511.918 339.674C496.121 340.526 483.312 348.624 471.785 360.557C474.346 362.688 476.481 364.819 479.043 366.524C508.929 392.948 522.592 426.191 522.165 465.826C521.738 481.169 521.738 496.086 522.592 511.429C523.019 519.953 520.03 525.067 512.345 528.903C411.157 578.341 309.97 578.341 208.782 528.476C203.231 525.919 199.816 522.083 199.816 516.117C199.816 494.807 199.389 473.924 200.67 452.614C202.804 416.388 218.602 387.407 246.354 364.393C247.208 363.541 248.488 362.688 250.196 361.41C236.961 347.345 220.736 340.1 201.524 339.674C181.03 339.248 160.536 339.248 140.469 339.674C103.324 340.526 73.0108 371.212 72.1569 408.291C71.73 418.519 72.1569 428.748 71.73 438.976C71.73 443.664 73.4378 445.795 77.2804 447.074C96.9202 453.041 116.133 459.007 135.773 464.548C141.75 466.253 147.301 467.531 149.008 474.776C151.143 484.579 143.458 492.25 131.93 489.267C112.717 484.579 93.0776 480.317 74.7186 473.072C40.1355 459.007 46.9667 464.548 46.5398 431.731C46.1128 411.7 45.6859 392.095 54.2249 373.343C66.1796 346.493 86.6733 328.167 115.706 318.364C94.7854 296.202 84.9655 271.483 89.662 242.929C93.0776 222.045 103.751 204.998 120.403 191.786C154.132 165.788 200.243 169.198 229.276 199.457C256.174 227.586 265.14 276.172 225.86 316.66C243.365 322.2 257.881 331.576 270.263 344.788C271.117 345.641 273.679 346.493 274.959 346.067C281.791 343.936 288.622 341.379 295.453 338.822C238.242 289.81 248.061 216.931 289.903 179C332.171 140.643 396.214 142.348 435.921 182.836C476.481 224.602 479.47 292.793 426.101 338.395C434.213 341.379 441.898 343.936 448.729 346.493C456.414 340.1 463.246 333.707 470.931 328.593C478.616 323.479 487.155 320.069 495.694 315.807C476.908 297.481 467.088 274.893 469.65 248.043C471.785 227.16 481.178 209.686 496.548 195.621C528.569 166.641 575.534 167.493 607.129 196.474C636.161 223.324 647.689 275.319 606.702 316.66C627.622 323.479 645.127 335.838 657.936 353.738C667.329 366.95 671.598 381.441 675.441 396.783C675.014 416.388 675.014 435.567 675.014 455.172ZM360.777 359.705C360.777 360.131 360.777 360.557 360.777 360.983C347.541 360.983 334.733 360.983 321.497 360.983C276.24 361.836 234.826 394.652 227.568 438.976C224.152 460.286 225.433 482.022 225.006 503.757C225.006 505.888 227.568 508.445 230.129 509.724C317.228 549.786 404.326 549.786 491.424 510.15C495.694 508.019 496.975 505.462 496.975 501.2C496.548 487.136 496.548 473.072 496.548 459.007C496.121 413.405 465.38 373.769 420.55 364.393C400.91 360.131 380.844 360.983 360.777 359.705ZM360.777 176.017C317.228 176.017 280.51 212.669 280.51 255.714C280.51 299.186 316.801 335.838 360.35 335.838C404.326 335.838 441.044 299.186 441.044 255.714C441.044 212.669 404.326 176.017 360.777 176.017ZM169.929 312.398C201.524 312.398 227.141 287.252 227.568 256.567C227.568 225.455 201.951 199.457 170.783 199.457C139.615 199.457 113.571 225.029 113.571 256.141C113.571 286.826 139.188 312.398 169.929 312.398ZM550.771 312.398C582.365 312.398 607.983 287.252 607.983 256.141C607.983 225.029 582.365 199.457 551.198 199.031C520.03 199.031 494.413 224.602 494.413 255.714C494.413 286.826 519.603 312.398 550.771 312.398Z" fill="#E6E2FA"/>
</svg>
