<svg width="22" height="22" viewBox="0 0 22 22" fill="none" xmlns="http://www.w3.org/2000/svg">
<path d="M14.6673 15.5832V17.4166H1.83398V15.5832C1.83398 15.5832 1.83398 11.9166 8.25065 11.9166C14.6673 11.9166 14.6673 15.5832 14.6673 15.5832ZM11.459 6.87489C11.459 6.24034 11.2708 5.62004 10.9183 5.09243C10.5657 4.56482 10.0647 4.1536 9.47843 3.91077C8.89218 3.66794 8.24709 3.60441 7.62473 3.7282C7.00238 3.85199 6.43071 4.15756 5.98202 4.60625C5.53332 5.05494 5.22776 5.62661 5.10396 6.24897C4.98017 6.87133 5.04371 7.51641 5.28654 8.10266C5.52937 8.68891 5.94059 9.18998 6.4682 9.54252C6.9958 9.89505 7.6161 10.0832 8.25065 10.0832C9.10155 10.0832 9.9176 9.7452 10.5193 9.14352C11.121 8.54184 11.459 7.72579 11.459 6.87489V6.87489ZM14.6123 11.9166C15.1758 12.3527 15.6369 12.9069 15.9632 13.5404C16.2894 14.1739 16.4729 14.8712 16.5006 15.5832V17.4166H20.1673V15.5832C20.1673 15.5832 20.1673 12.2557 14.6123 11.9166V11.9166ZM13.7506 3.66655C13.1197 3.66304 12.5026 3.85168 11.9815 4.20739C12.5383 4.98539 12.8377 5.91815 12.8377 6.87489C12.8377 7.83162 12.5383 8.76438 11.9815 9.54238C12.5026 9.89809 13.1197 10.0867 13.7506 10.0832C14.6016 10.0832 15.4176 9.7452 16.0193 9.14352C16.621 8.54184 16.959 7.72579 16.959 6.87489C16.959 6.02398 16.621 5.20793 16.0193 4.60625C15.4176 4.00457 14.6016 3.66655 13.7506 3.66655V3.66655Z" fill="#343A40"/>
</svg>
