<svg width="48" height="48" viewBox="0 0 48 48" fill="none" xmlns="http://www.w3.org/2000/svg">
<path d="M12.0001 40.5C11.8031 40.5 11.608 40.4612 11.426 40.3859C11.244 40.3105 11.0787 40.2 10.9394 40.0607C10.8001 39.9214 10.6896 39.756 10.6142 39.5741C10.5389 39.3921 10.5001 39.197 10.5001 39L10.5002 30.9948C9.69996 31.3738 8.8169 31.5442 7.93312 31.4903C7.04935 31.4364 6.19357 31.1598 5.44539 30.6863C4.69721 30.2128 4.08094 29.5578 3.6539 28.7821C3.22686 28.0065 3.00293 27.1355 3.00293 26.25C3.00293 25.3646 3.22686 24.4936 3.6539 23.718C4.08094 22.9423 4.69721 22.2873 5.44539 21.8138C6.19357 21.3403 7.04935 21.0637 7.93312 21.0098C8.8169 20.9559 9.69996 21.1263 10.5002 21.5053L10.5001 13.5001C10.5001 13.3031 10.5389 13.108 10.6142 12.926C10.6896 12.744 10.8001 12.5787 10.9394 12.4394C11.0787 12.3001 11.2441 12.1896 11.4261 12.1142C11.608 12.0388 11.8031 12 12.0001 12L20.7553 12.0001C20.3763 11.1999 20.2059 10.3169 20.2598 9.43311C20.3137 8.54934 20.5903 7.69356 21.0638 6.94539C21.5373 6.19721 22.1923 5.58094 22.968 5.1539C23.7436 4.72686 24.6146 4.50293 25.5 4.50293C26.3855 4.50293 27.2565 4.72686 28.0321 5.1539C28.8077 5.58094 29.4628 6.19721 29.9363 6.94539C30.4098 7.69356 30.6863 8.54934 30.7403 9.43311C30.7942 10.3169 30.6237 11.1999 30.2448 12.0001L39 12C39.3978 12 39.7793 12.1581 40.0606 12.4394C40.3419 12.7207 40.5 13.1022 40.5 13.5L40.5001 21.5053C39.6999 21.1263 38.8168 20.9559 37.9331 21.0098C37.0493 21.0637 36.1935 21.3403 35.4453 21.8138C34.6971 22.2873 34.0809 22.9423 33.6538 23.718C33.2268 24.4936 33.0029 25.3646 33.0029 26.25C33.0029 27.1355 33.2268 28.0065 33.6538 28.7821C34.0809 29.5578 34.6971 30.2128 35.4453 30.6863C36.1935 31.1598 37.0493 31.4364 37.9331 31.4903C38.8168 31.5442 39.6999 31.3738 40.5001 30.9948L40.5 39.0001C40.5 39.3979 40.3419 39.7794 40.0606 40.0607C39.7793 40.342 39.3978 40.5 39 40.5L12.0001 40.5Z" stroke="#F2C94C" stroke-width="2" stroke-linecap="round" stroke-linejoin="round"/>
</svg>
