<svg width="48" height="48" viewBox="0 0 48 48" fill="none" xmlns="http://www.w3.org/2000/svg">
<path d="M17.6359 34.6067C15.5146 40.9706 7.0293 40.9706 7.0293 40.9706C7.0293 40.9706 7.0293 32.4853 13.3933 30.364" stroke="#F2C94C" stroke-width="2" stroke-linecap="round" stroke-linejoin="round"/>
<path d="M36.7279 19.7573L23.9999 32.4852L15.5146 23.9999L28.2426 11.272C33.0621 6.45247 37.8816 6.49948 39.937 6.80614C40.2535 6.85332 40.5464 7.00091 40.7727 7.22716C40.9989 7.45341 41.1465 7.74635 41.1937 8.06282C41.5004 10.1182 41.5474 14.9377 36.7279 19.7573Z" stroke="#F2C94C" stroke-width="2" stroke-linecap="round" stroke-linejoin="round"/>
<path d="M34.6066 21.8787V33.9853C34.6066 34.1822 34.5678 34.3773 34.4924 34.5593C34.417 34.7413 34.3066 34.9066 34.1673 35.0459L28.1032 41.11C27.9112 41.302 27.6707 41.4383 27.4074 41.5043C27.144 41.5703 26.8677 41.5637 26.6078 41.485C26.348 41.4063 26.1144 41.2586 25.9319 41.0576C25.7494 40.8565 25.6249 40.6097 25.5717 40.3435L24 32.4853" stroke="#F2C94C" stroke-width="2" stroke-linecap="round" stroke-linejoin="round"/>
<path d="M26.1214 13.3933H14.0148C13.8178 13.3933 13.6227 13.4321 13.4407 13.5075C13.2588 13.5829 13.0934 13.6934 12.9541 13.8326L6.89002 19.8967C6.69804 20.0887 6.56177 20.3292 6.49573 20.5925C6.42969 20.8559 6.43637 21.1322 6.51505 21.3921C6.59372 21.6519 6.74145 21.8855 6.94247 22.068C7.1435 22.2505 7.39028 22.375 7.65651 22.4283L15.5148 23.9999" stroke="#F2C94C" stroke-width="2" stroke-linecap="round" stroke-linejoin="round"/>
</svg>
