<svg width="29" height="29" viewBox="0 0 29 29" fill="none" xmlns="http://www.w3.org/2000/svg">
<path d="M20.843 18.1249C20.1647 18.1283 19.4958 18.284 18.8856 18.5805C18.2755 18.8769 17.7397 19.3066 17.3177 19.8378L10.693 15.6962C10.9345 14.917 10.9345 14.0829 10.693 13.3037L17.3177 9.16213C17.9901 9.99471 18.9355 10.5624 19.9864 10.7647C21.0373 10.967 22.1259 10.7909 23.0593 10.2674C23.9927 9.74396 24.7108 8.90701 25.0862 7.90484C25.4617 6.90267 25.4703 5.79996 25.1105 4.79204C24.7508 3.78412 24.0459 2.93606 23.1208 2.39809C22.1956 1.86011 21.1099 1.66694 20.056 1.8528C19.0021 2.03866 18.048 2.59155 17.3626 3.41353C16.6773 4.23551 16.3051 5.27352 16.3118 6.34369C16.3161 6.74895 16.3771 7.15161 16.493 7.53994L9.86836 11.6815C9.28351 10.9452 8.4841 10.4092 7.58094 10.1476C6.67778 9.88599 5.71562 9.91184 4.82781 10.2215C3.94 10.5313 3.17053 11.1095 2.62605 11.8761C2.08157 12.6427 1.78906 13.5597 1.78906 14.4999C1.78906 15.4402 2.08157 16.3572 2.62605 17.1238C3.17053 17.8904 3.94 18.4686 4.82781 18.7783C5.71562 19.088 6.67778 19.1139 7.58094 18.8523C8.4841 18.5907 9.28351 18.0546 9.86836 17.3184L16.493 21.4599C16.3771 21.8483 16.3161 22.2509 16.3118 22.6562C16.3118 23.5524 16.5775 24.4285 17.0754 25.1736C17.5733 25.9188 18.281 26.4996 19.109 26.8425C19.937 27.1855 20.8481 27.2752 21.727 27.1004C22.606 26.9255 23.4134 26.494 24.0471 25.8603C24.6808 25.2266 25.1124 24.4192 25.2872 23.5402C25.4621 22.6612 25.3723 21.7501 25.0294 20.9222C24.6864 20.0942 24.1056 19.3865 23.3605 18.8886C22.6153 18.3907 21.7392 18.1249 20.843 18.1249V18.1249ZM20.843 3.62494C21.3808 3.62494 21.9064 3.78439 22.3535 4.08313C22.8006 4.38187 23.1491 4.80648 23.3548 5.30327C23.5606 5.80006 23.6145 6.34671 23.5096 6.87409C23.4047 7.40148 23.1457 7.88591 22.7655 8.26614C22.3853 8.64636 21.9008 8.9053 21.3734 9.0102C20.8461 9.1151 20.2994 9.06126 19.8026 8.85549C19.3058 8.64971 18.8812 8.30124 18.5825 7.85415C18.2837 7.40705 18.1243 6.88141 18.1243 6.34369C18.1243 5.62263 18.4107 4.93111 18.9206 4.42124C19.4305 3.91138 20.122 3.62494 20.843 3.62494V3.62494ZM6.34305 17.2187C5.80533 17.2187 5.27969 17.0592 4.83259 16.7605C4.38549 16.4618 4.03702 16.0371 3.83125 15.5404C3.62547 15.0436 3.57163 14.4969 3.67654 13.9695C3.78144 13.4422 4.04038 12.9577 4.4206 12.5775C4.80082 12.1973 5.28526 11.9383 5.81264 11.8334C6.34003 11.7285 6.88668 11.7824 7.38347 11.9881C7.88025 12.1939 8.30486 12.5424 8.6036 12.9895C8.90234 13.4366 9.0618 13.9622 9.0618 14.4999C9.0618 15.221 8.77536 15.9125 8.26549 16.4224C7.75563 16.9323 7.0641 17.2187 6.34305 17.2187ZM20.843 25.3749C20.3053 25.3749 19.7797 25.2155 19.3326 24.9167C18.8855 24.618 18.537 24.1934 18.3312 23.6966C18.1255 23.1998 18.0716 22.6532 18.1765 22.1258C18.2814 21.5984 18.5404 21.114 18.9206 20.7337C19.3008 20.3535 19.7853 20.0946 20.3126 19.9897C20.84 19.8848 21.3867 19.9386 21.8835 20.1444C22.3803 20.3502 22.8049 20.6986 23.1036 21.1457C23.4023 21.5928 23.5618 22.1185 23.5618 22.6562C23.5618 23.3772 23.2754 24.0688 22.7655 24.5786C22.2556 25.0885 21.5641 25.3749 20.843 25.3749V25.3749Z" fill="white"/>
</svg>
