<svg width="230" height="230" viewBox="0 0 230 230" fill="none" xmlns="http://www.w3.org/2000/svg">
<g opacity="0.08">
<path d="M115 215.625C141.687 215.625 167.282 205.023 186.153 186.153C205.023 167.282 215.625 141.687 215.625 115C215.625 88.3126 205.023 62.7182 186.153 43.8474C167.282 24.9765 141.687 14.375 115 14.375C88.3126 14.375 62.7182 24.9765 43.8474 43.8473C24.9765 62.7182 14.375 88.3125 14.375 115C14.375 141.687 24.9765 167.282 43.8474 186.153C62.7182 205.023 88.3126 215.625 115 215.625V215.625ZM115 230C84.5001 230 55.2494 217.884 33.6827 196.317C12.116 174.751 -2.5199e-05 145.5 -2.32792e-05 115C-2.13595e-05 84.5001 12.116 55.2493 33.6827 33.6827C55.2494 12.116 84.5001 -4.81849e-05 115 -4.44815e-05C145.5 -4.0778e-05 174.751 12.116 196.317 33.6827C217.884 55.2494 230 84.5001 230 115C230 145.5 217.884 174.751 196.317 196.317C174.751 217.884 145.5 230 115 230V230Z" fill="white"/>
<path d="M168.402 137.526C166.751 136.573 164.789 136.314 162.948 136.808C161.106 137.301 159.537 138.505 158.583 140.156C154.169 147.809 147.816 154.163 140.164 158.579C132.513 162.995 123.833 165.318 114.998 165.312C96.3828 165.312 80.1247 155.207 71.4134 140.156C70.4535 138.519 68.885 137.328 67.05 136.843C65.2151 136.357 63.2627 136.618 61.619 137.567C59.9754 138.516 58.7738 140.076 58.2765 141.908C57.7792 143.74 58.0266 145.694 58.9647 147.344C64.641 157.181 72.8085 165.35 82.6452 171.028C92.4819 176.706 103.641 179.693 114.998 179.687C126.356 179.69 137.513 176.702 147.349 171.024C157.186 165.347 165.354 157.179 171.032 147.344C171.985 145.693 172.244 143.731 171.75 141.89C171.257 140.049 170.052 138.479 168.402 137.526ZM129.373 93.4375C129.373 105.34 135.813 115 143.748 115C151.683 115 158.123 105.34 158.123 93.4375C158.123 81.535 151.683 71.875 143.748 71.875C135.813 71.875 129.373 81.535 129.373 93.4375ZM71.8734 93.4375C71.8734 105.34 78.3134 115 86.2484 115C94.1834 115 100.623 105.34 100.623 93.4375C100.623 81.535 94.1834 71.875 86.2484 71.875C78.3134 71.875 71.8734 81.535 71.8734 93.4375Z" fill="white"/>
</g>
</svg>
