<svg width="97" height="97" viewBox="0 0 97 97" fill="none" xmlns="http://www.w3.org/2000/svg">
<g clip-path="url(#clip0_528_1800)">
<path d="M58.0423 87.9593C57.2459 88.1577 56.4341 88.334 55.6282 88.4824C53.5216 88.8741 52.1288 90.9002 52.5185 93.0087C52.7109 94.0461 53.3001 94.9101 54.0999 95.4741C54.9243 96.0543 55.9734 96.3163 57.0425 96.1174C58.0022 95.9393 58.9694 95.7299 59.9185 95.493C61.9987 94.9753 63.2661 92.8678 62.7471 90.7885C62.2294 88.7074 60.1238 87.4411 58.0423 87.9593Z" fill="#5C3EBB"/>
<path d="M86.7478 35.9234C87.0197 36.743 87.5389 37.412 88.1947 37.8743C89.167 38.5592 90.4394 38.7896 91.6536 38.3881C93.6892 37.7122 94.7921 35.5171 94.1187 33.4825C93.8119 32.555 93.4714 31.6246 93.1088 30.7187C92.3124 28.7279 90.0543 27.7586 88.0624 28.5549C86.0727 29.3508 85.103 31.6096 85.9 33.6011C86.2047 34.3625 86.4901 35.1441 86.7478 35.9234Z" fill="#5C3EBB"/>
<path d="M70.656 82.4168C69.9712 82.869 69.2643 83.3066 68.5523 83.7166C66.6946 84.7881 66.0583 87.1628 67.1295 89.0197C67.4203 89.5248 67.8077 89.9376 68.2538 90.2532C69.4514 91.0958 71.0778 91.222 72.432 90.4419C73.2785 89.9536 74.1203 89.4342 74.9359 88.8949C76.7241 87.7135 77.2163 85.3048 76.0343 83.5158C74.8525 81.7262 72.4448 81.2346 70.656 82.4168Z" fill="#5C3EBB"/>
<path d="M96.5347 46.766C96.4502 44.6233 94.6455 42.9555 92.5021 43.0391C90.3614 43.1236 88.6924 44.9291 88.7765 47.071C88.8087 47.8899 88.817 48.7211 88.7981 49.5392C88.768 50.883 89.4252 52.0808 90.4465 52.8007C91.055 53.2292 91.7934 53.4885 92.5941 53.5067C94.7368 53.5543 96.5125 51.8547 96.5601 49.7109C96.5814 48.7334 96.5733 47.743 96.5347 46.766Z" fill="#5C3EBB"/>
<path d="M86.1158 72.2037C84.3976 70.9146 81.9667 71.2646 80.6798 72.9797C80.187 73.6365 79.668 74.2853 79.1366 74.9099C77.7478 76.5416 77.944 78.9924 79.5756 80.3823C79.6686 80.4611 79.7627 80.5336 79.8603 80.6017C81.4824 81.7453 83.7368 81.4825 85.0484 79.9434C85.683 79.1981 86.3016 78.4232 86.8906 77.6387C88.1777 75.9236 87.8293 73.491 86.1158 72.2037Z" fill="#5C3EBB"/>
<path d="M91.8222 58.17C89.7764 57.5286 87.5977 58.6674 86.9567 60.7132C86.7113 61.4948 86.4394 62.2801 86.1458 63.0492C85.5013 64.7424 86.1188 66.6053 87.5346 67.6036C87.7943 67.786 88.0804 67.9407 88.3911 68.0582C90.3942 68.8225 92.6372 67.8176 93.4007 65.8137C93.7493 64.8993 94.0727 63.9649 94.3652 63.0357C95.0056 60.9895 93.8676 58.8115 91.8222 58.17Z" fill="#5C3EBB"/>
<path d="M40.8528 88.9482C37.3819 88.325 34.0523 87.2638 30.8951 85.7837C30.8577 85.7642 30.8243 85.742 30.785 85.7241C30.041 85.3739 29.2983 84.9988 28.5783 84.6069C28.5758 84.604 28.5713 84.6021 28.5673 84.6004C27.2464 83.873 25.9573 83.0682 24.7049 82.1866C6.44266 69.3221 2.05169 43.9985 14.917 25.7365C17.7145 21.7669 21.0999 18.4552 24.8741 15.8304C24.9206 15.7981 24.9671 15.7659 25.0132 15.7333C38.3129 6.56938 56.3719 5.9518 70.4941 15.3686L67.461 19.751C66.6178 20.9708 67.1366 21.8597 68.6127 21.7269L81.7879 20.5473C83.266 20.4145 84.1499 19.1359 83.7524 17.7085L80.2144 4.96117C79.8183 3.53211 78.8042 3.36106 77.9602 4.58066L74.92 8.97349C64.5562 2.01649 52.1258 -0.63632 39.7881 1.50312C38.5454 1.71818 37.3202 1.98141 36.1118 2.28781C36.1025 2.28947 36.095 2.29051 36.0875 2.29217C36.0408 2.30359 35.9935 2.31874 35.948 2.3314C25.309 5.06351 16.0265 11.2686 9.40292 20.122C9.34708 20.1882 9.28957 20.253 9.23684 20.325C9.01659 20.6216 8.798 20.9251 8.58397 21.2286C8.23397 21.726 7.88895 22.2359 7.55888 22.7457C7.51757 22.8072 7.48602 22.8697 7.4499 22.9317C1.98402 31.4017 -0.652391 41.1937 -0.200257 51.1627C-0.199219 51.1955 -0.201087 51.2285 -0.200257 51.2621C-0.156455 52.2359 -0.0792311 53.2232 0.0256025 54.1952C0.0312075 54.2579 0.0451161 54.3172 0.0557033 54.3799C0.164066 55.3573 0.300038 56.3369 0.470471 57.3163C2.20261 67.3093 6.9166 76.3016 13.9803 83.2984C13.9967 83.3148 14.0137 83.3327 14.0303 83.3497C14.0361 83.3561 14.0426 83.3595 14.0482 83.3655C15.946 85.2373 18.0103 86.9686 20.233 88.5341C26.0497 92.6328 32.5267 95.342 39.4827 96.5903C41.5933 96.9696 43.6094 95.5646 43.988 93.455C44.3665 91.344 42.9627 89.3263 40.8528 88.9482Z" fill="#5C3EBB"/>
<path d="M45.904 17.2715C44.1679 17.2715 42.7617 18.679 42.7617 20.4125V51.7063L71.3823 66.5015C71.8429 66.7401 72.3362 66.8524 72.8215 66.8524C73.9583 66.8524 75.0562 66.2333 75.6144 65.1532C76.4106 63.6117 75.8081 61.7178 74.2666 60.9217L49.0428 47.8812V20.4125C49.0426 18.679 47.638 17.2715 45.904 17.2715Z" fill="#5C3EBB"/>
</g>
<defs>
<clipPath id="clip0_528_1800">
<rect width="96.5714" height="96.5714" fill="white"/>
</clipPath>
</defs>
</svg>
