<svg width="32" height="32" viewBox="0 0 32 32" fill="none" xmlns="http://www.w3.org/2000/svg">
<path d="M29.9439 8.01621C28.9178 8.47133 27.8149 8.77893 26.6575 8.91725C27.8387 8.20901 28.7462 7.08765 29.1734 5.75138C28.0677 6.4072 26.8431 6.88338 25.5397 7.13994C24.4959 6.02784 23.0089 5.33301 21.363 5.33301C18.2029 5.33301 15.6406 7.89497 15.6406 11.0551C15.6406 11.5036 15.6913 11.9403 15.7889 12.3592C11.0331 12.1204 6.8167 9.84237 3.99449 6.38036C3.5019 7.22548 3.21972 8.20845 3.21972 9.25717C3.21972 11.2424 4.22989 12.9939 5.76534 14.02C4.82742 13.9902 3.94498 13.7328 3.17356 13.3043C3.17301 13.3282 3.17301 13.352 3.17301 13.3762C3.17301 16.1488 5.14548 18.4614 7.76316 18.9872C7.28302 19.118 6.77749 19.188 6.25562 19.188C5.8869 19.188 5.52844 19.152 5.17898 19.0852C5.90718 21.3584 8.02041 23.013 10.5244 23.059C8.56609 24.594 6.09873 25.5088 3.41774 25.5088C2.95586 25.5088 2.50038 25.4816 2.05273 25.4286C4.58508 27.0522 7.59292 27.9996 10.8244 27.9996C21.3495 27.9996 27.1053 19.2804 27.1053 11.7186C27.1053 11.4705 27.0997 11.2237 27.0886 10.9783C28.2067 10.1715 29.1769 9.16373 29.9439 8.01621Z" fill="white"/>
</svg>
