<svg width="40" height="40" viewBox="0 0 40 40" fill="none" xmlns="http://www.w3.org/2000/svg">
<path d="M37.4304 10.0205C36.1478 10.5894 34.7691 10.9739 33.3224 11.1468C34.7989 10.2615 35.9333 8.8598 36.4673 7.18947C35.0851 8.00924 33.5544 8.60447 31.9251 8.92517C30.6204 7.53504 28.7616 6.6665 26.7043 6.6665C22.7541 6.6665 19.5513 9.86895 19.5513 13.8191C19.5513 14.3797 19.6146 14.9256 19.7366 15.4492C13.7919 15.1508 8.52137 12.3032 4.99361 7.97569C4.37787 9.03209 4.02514 10.2608 4.02514 11.5717C4.02514 14.0532 5.28786 16.2426 7.20717 17.5253C6.03477 17.488 4.93172 17.1663 3.96744 16.6306C3.96676 16.6605 3.96676 16.6903 3.96676 16.7205C3.96676 20.1862 6.43234 23.077 9.70444 23.7342C9.10427 23.8977 8.47235 23.9852 7.82002 23.9852C7.35912 23.9852 6.91104 23.9402 6.47422 23.8568C7.38447 26.6983 10.026 28.7665 13.156 28.824C10.7081 30.7427 7.62391 31.8862 4.27267 31.8862C3.69532 31.8862 3.12597 31.8522 2.56641 31.786C5.73184 33.8155 9.49164 34.9998 13.531 34.9998C26.6874 34.9998 33.8821 24.1007 33.8821 14.6485C33.8821 14.3384 33.8751 14.0299 33.8613 13.7231C35.2589 12.7146 36.4716 11.4549 37.4304 10.0205Z" fill="white"/>
</svg>
