<svg width="230" height="33" viewBox="0 0 230 33" fill="none" xmlns="http://www.w3.org/2000/svg">
<path d="M226.783 12.8378C228.72 12.8503 228.799 11.1755 226.882 10.9263V10.9263C216.62 9.5287 206.139 9.5352 195.749 9.0566C184.296 8.49799 172.884 8.89618 161.462 9.05517C147.478 9.27224 133.456 9.9232 119.514 11.1449C105.573 12.3666 91.6537 14.1146 77.7121 15.3363C70.7135 15.9488 63.7414 17.1833 56.675 17.5121C50.6096 17.7807 44.5691 17.3285 38.5118 17.7885C28.5104 18.5815 18.4987 19.1354 8.57119 20.3556C6.35294 20.6328 4.26425 21.3339 2.23117 22.0316C1.13122 22.3855 0.210324 23.0165 0.368415 24.1101C0.466821 25.1114 1.58918 25.2838 2.49115 25.5173C5.13942 26.1735 7.96326 25.716 10.6983 25.7914C15.7214 25.9211 20.7921 25.8561 25.8627 25.7912C27.4794 25.7899 29.1395 25.4983 30.8037 25.3023C35.5203 24.779 40.2674 24.9733 45.0085 25.024C50.3097 25.137 55.5966 24.9152 60.8774 24.5498C70.9982 23.9414 81.1788 23.4254 91.2277 22.4377C101.001 21.5145 110.772 20.5435 120.559 19.9552C134.959 19.0416 149.42 18.2204 163.808 17.0198C184.586 15.2913 205.39 14.1847 226.183 12.8389C226.38 12.8347 226.581 12.8365 226.783 12.8378Z" fill="#F7A615"/>
</svg>
