<svg width="97" height="97" viewBox="0 0 97 97" fill="none" xmlns="http://www.w3.org/2000/svg">
<g clip-path="url(#clip0_528_1784)">
<path d="M49.7453 3.96255C48.872 3.27811 47.6684 3.27811 46.7951 3.96255L-0.407518 41.7247C-1.42237 42.5271 -1.58758 44.014 -0.785139 45.0524C0.0173059 46.0673 1.52779 46.2325 2.54265 45.4301L8.15976 40.9222V90.7682C8.15976 92.0663 9.22182 93.1283 10.5199 93.1283H86.0441C87.3422 93.1283 88.4042 92.0663 88.4042 90.7682V40.9222L94.0214 45.4065C94.4462 45.7605 94.9654 45.9257 95.4846 45.9257C96.1691 45.9257 96.8535 45.6189 97.3255 45.0288C98.128 44.014 97.9628 42.5271 96.9479 41.7011L49.7453 3.96255ZM83.684 88.4081H12.88V37.146L48.282 8.82442L83.684 37.146V88.4081Z" fill="#5C3EBB"/>
<path d="M36.4786 45.9252C36.4786 49.5362 38.1307 52.7223 40.7033 54.8937C38.3668 56.1209 36.3134 57.8674 34.7794 60.086H27.0381C26.3065 60.086 25.622 60.4164 25.1736 60.9828C24.7252 61.5492 24.56 62.3045 24.7488 63.0125L29.4691 81.8936C29.7287 82.9556 30.6727 83.6873 31.7584 83.6873H64.8002C65.8859 83.6873 66.8299 82.9556 67.0895 81.8936L71.8098 63.0125C71.9986 62.3045 71.8334 61.5492 71.385 60.9828C70.9366 60.4164 70.2521 60.086 69.5205 60.086H61.7792C61.2364 59.3071 60.6464 58.5519 59.962 57.8674C58.7583 56.6402 57.3894 55.6489 55.9025 54.8701C58.4279 52.6987 60.08 49.5126 60.08 45.9252C60.08 39.4112 54.7933 34.1245 48.2793 34.1245C41.7653 34.1245 36.4786 39.4112 36.4786 45.9252V45.9252ZM66.4995 64.8062L62.9593 78.967H33.5993L30.0591 64.8062H66.4995ZM41.2225 60.086C43.2286 58.5755 45.7068 57.7258 48.2793 57.7258C50.8518 57.7258 53.2828 58.5755 55.2889 60.086H41.2225ZM55.3597 45.9252C55.3597 49.8194 52.1735 53.0056 48.2793 53.0056C44.3851 53.0056 41.1989 49.8194 41.1989 45.9252C41.1989 42.031 44.3851 38.8448 48.2793 38.8448C52.1735 38.8448 55.3597 42.031 55.3597 45.9252Z" fill="#5C3EBB"/>
</g>
<defs>
<clipPath id="clip0_528_1784">
<rect width="96.5714" height="96.5714" fill="white"/>
</clipPath>
</defs>
</svg>
