<svg width="32" height="32" viewBox="0 0 32 32" fill="none" xmlns="http://www.w3.org/2000/svg">
<path d="M28.7911 9.60385C28.4844 8.45985 27.5844 7.55718 26.4418 7.24918C24.3538 6.67585 16.0004 6.66651 16.0004 6.66651C16.0004 6.66651 7.64844 6.65718 5.55911 7.20518C4.43911 7.51051 3.51377 8.43318 3.20444 9.57585C2.65377 11.6638 2.64844 15.9945 2.64844 15.9945C2.64844 15.9945 2.64311 20.3465 3.18977 22.4132C3.49644 23.5558 4.39644 24.4585 5.54044 24.7665C7.64977 25.3398 15.9804 25.3492 15.9804 25.3492C15.9804 25.3492 24.3338 25.3585 26.4218 24.8118C27.5631 24.5052 28.4671 23.6038 28.7778 22.4612C29.3298 20.3745 29.3338 16.0452 29.3338 16.0452C29.3338 16.0452 29.3604 11.6918 28.7911 9.60385ZM13.3284 20.0065L13.3351 12.0065L20.2778 16.0132L13.3284 20.0065Z" fill="white"/>
</svg>
