<svg width="20" height="23" viewBox="0 0 20 23" fill="none" xmlns="http://www.w3.org/2000/svg">
<path d="M11 9.75V3.375C11 2.87772 10.8025 2.40081 10.4508 2.04917C10.0992 1.69754 9.62229 1.5 9.125 1.5C8.62772 1.5 8.15081 1.69754 7.79918 2.04917C7.44755 2.40081 7.25 2.87772 7.25 3.375V14.7437L5.1943 11.1831C5.0713 10.9697 4.90743 10.7825 4.71208 10.6324C4.51672 10.4823 4.2937 10.3722 4.05576 10.3083C3.81782 10.2445 3.56963 10.2281 3.32537 10.2602C3.08111 10.2923 2.84557 10.3723 2.63222 10.4955C2.41886 10.6186 2.23188 10.7827 2.08194 10.9781C1.93201 11.1736 1.82207 11.3967 1.7584 11.6347C1.69474 11.8727 1.6786 12.1209 1.71091 12.3652C1.74322 12.6094 1.82335 12.8449 1.9467 13.0581C5 19.5 6.85787 21.75 11 21.75C11.9849 21.75 12.9602 21.556 13.8701 21.1791C14.7801 20.8022 15.6069 20.2497 16.3033 19.5533C16.9997 18.8569 17.5522 18.0301 17.9291 17.1201C18.306 16.2102 18.5 15.2349 18.5 14.25V10.5C18.5 10.0027 18.3025 9.52581 17.9508 9.17417C17.5992 8.82254 17.1223 8.625 16.625 8.625C16.1277 8.625 15.6508 8.82254 15.2992 9.17417C14.9475 9.52581 14.75 10.0027 14.75 10.5" stroke="#140152" stroke-width="1.5" stroke-linecap="round" stroke-linejoin="round"/>
<path d="M14.75 10.5V9.375C14.75 8.87772 14.5525 8.40081 14.2008 8.04917C13.8492 7.69754 13.3723 7.5 12.875 7.5C12.3777 7.5 11.9008 7.69754 11.5492 8.04917C11.1975 8.40081 11 8.87772 11 9.375V9.75" stroke="#140152" stroke-width="1.5" stroke-linecap="round" stroke-linejoin="round"/>
</svg>