<svg width="20" height="15" viewBox="0 0 20 15" fill="none" xmlns="http://www.w3.org/2000/svg">
<path d="M11.875 5.43744H14.375M5.62501 5.43744H8.12501M6.87501 4.18744V6.68744M17.4397 4.71167L18.7171 11.3072C18.7979 11.7654 18.7305 12.2373 18.5247 12.6546C18.3189 13.0718 17.9855 13.4126 17.5729 13.6274C17.1602 13.8422 16.6898 13.9199 16.23 13.8492C15.7702 13.7784 15.3449 13.5629 15.0159 13.234L11.6406 9.48682M13.4389 1.35461L6.56286 1.37494C5.60772 1.37501 4.68313 1.71152 3.95139 2.3254C3.21965 2.93928 2.72753 3.79129 2.56141 4.73187L2.56208 4.732L1.28361 11.3072C1.20286 11.7654 1.27026 12.2373 1.47603 12.6546C1.68181 13.0718 2.01523 13.4126 2.42788 13.6274C2.84053 13.8422 3.31091 13.9199 3.77072 13.8492C4.23053 13.7784 4.65581 13.5629 4.9848 13.234L8.36245 9.49994L13.4389 9.47961C14.5164 9.47961 15.5497 9.0516 16.3116 8.28974C17.0734 7.52787 17.5014 6.49456 17.5014 5.41711C17.5014 4.33967 17.0734 3.30636 16.3116 2.54449C15.5497 1.78263 14.5164 1.35461 13.4389 1.35461Z" stroke="#F2C94C" stroke-width="1.5" stroke-linecap="round" stroke-linejoin="round"/>
</svg>