<svg width="24" height="24" viewBox="0 0 24 24" fill="none" xmlns="http://www.w3.org/2000/svg">
<path fill-rule="evenodd" clip-rule="evenodd" d="M8.5 2C8.5 1.72386 8.27614 1.5 8 1.5C7.72386 1.5 7.5 1.72386 7.5 2V3.5H5C3.61929 3.5 2.5 4.61929 2.5 6V18C2.5 19.3807 3.61929 20.5 5 20.5H19C20.3807 20.5 21.5 19.3807 21.5 18V6C21.5 4.61929 20.3807 3.5 19 3.5H16.5V2C16.5 1.72386 16.2761 1.5 16 1.5C15.7239 1.5 15.5 1.72386 15.5 2V3.5H8.5V2ZM15.5 6V4.5H8.5V6C8.5 6.27614 8.27614 6.5 8 6.5C7.72386 6.5 7.5 6.27614 7.5 6V4.5H5C4.17157 4.5 3.5 5.17157 3.5 6V8.5H20.5V6C20.5 5.17157 19.8284 4.5 19 4.5H16.5V6C16.5 6.27614 16.2761 6.5 16 6.5C15.7239 6.5 15.5 6.27614 15.5 6ZM20.5 9.5H3.5V18C3.5 18.8284 4.17157 19.5 5 19.5H19C19.8284 19.5 20.5 18.8284 20.5 18V9.5ZM7.5 13.5C8.05228 13.5 8.5 13.0523 8.5 12.5C8.5 11.9477 8.05228 11.5 7.5 11.5C6.94772 11.5 6.5 11.9477 6.5 12.5C6.5 13.0523 6.94772 13.5 7.5 13.5ZM13 12.5C13 13.0523 12.5523 13.5 12 13.5C11.4477 13.5 11 13.0523 11 12.5C11 11.9477 11.4477 11.5 12 11.5C12.5523 11.5 13 11.9477 13 12.5ZM16.5 13.5C17.0523 13.5 17.5 13.0523 17.5 12.5C17.5 11.9477 17.0523 11.5 16.5 11.5C15.9477 11.5 15.5 11.9477 15.5 12.5C15.5 13.0523 15.9477 13.5 16.5 13.5ZM8.5 16C8.5 16.5523 8.05228 17 7.5 17C6.94772 17 6.5 16.5523 6.5 16C6.5 15.4477 6.94772 15 7.5 15C8.05228 15 8.5 15.4477 8.5 16ZM12 17C12.5523 17 13 16.5523 13 16C13 15.4477 12.5523 15 12 15C11.4477 15 11 15.4477 11 16C11 16.5523 11.4477 17 12 17ZM17.5 16C17.5 16.5523 17.0523 17 16.5 17C15.9477 17 15.5 16.5523 15.5 16C15.5 15.4477 15.9477 15 16.5 15C17.0523 15 17.5 15.4477 17.5 16Z" fill="#F2C94C"/>
</svg>
