<svg width="24" height="24" viewBox="0 0 24 24" fill="none" xmlns="http://www.w3.org/2000/svg">
<path d="M21.75 12C21.75 6.61655 17.3834 2.25 12 2.25C6.61655 2.25 2.25 6.61655 2.25 12C2.25 16.8655 5.81484 20.9007 10.4766 21.6319V14.8184H8.00098V12H10.4766V9.85195C10.4766 7.40874 11.9333 6.05859 14.1595 6.05859C15.2259 6.05859 16.3418 6.24902 16.3418 6.24902V8.64844H15.1116C13.9005 8.64844 13.5234 9.40064 13.5234 10.1719V12H16.2275L15.7953 14.8184H13.5234V21.6319C18.1852 20.9007 21.75 16.8674 21.75 12Z" fill="#1977F3"/>
<path d="M15.7953 14.8184L16.2275 12H13.5234V10.1719C13.5234 9.40063 13.9005 8.64844 15.1116 8.64844H16.3418V6.24902C16.3418 6.24902 15.2259 6.05859 14.1595 6.05859C11.9334 6.05859 10.4766 7.40684 10.4766 9.85195V12H8.00098V14.8184H10.4766V21.6319C10.9736 21.71 11.482 21.75 12 21.75C12.518 21.75 13.0264 21.7081 13.5234 21.6319V14.8184H15.7953Z" fill="#FEFEFE"/>
</svg>
