<svg width="80" height="80" viewBox="0 0 80 80" fill="none" xmlns="http://www.w3.org/2000/svg">
<path d="M36.5822 59.9036C36.5877 59.9036 36.5932 59.9201 36.5932 59.9532C36.5987 60.1845 36.6042 60.4104 36.6098 60.6418C36.6428 60.4655 36.6759 60.2892 36.7144 60.1074C36.6869 59.7713 36.4224 59.9421 36.5822 59.9036Z" fill="#FEFEFE"/>
<path d="M51.0377 41.062C51.0322 41.0675 51.0211 41.0675 51.0156 41.073C51.0211 41.0785 51.0322 41.0841 51.0377 41.0896C51.0322 41.0841 51.0377 41.073 51.0377 41.062Z" fill="#FEFEFE"/>
<path d="M41.9336 17.9341V17.9395H41.9501C41.9446 17.9395 41.9391 17.9341 41.9336 17.9341Z" fill="#FEFEFE"/>
<path d="M49.6735 64.3823C49.7451 63.5834 49.7066 62.7736 49.8057 61.9802C50.0261 60.2338 49.8168 58.4488 50.274 56.7244C50.4999 55.8319 49.7782 54.7852 50.7037 54.0029L50.4724 53.2426C50.3748 53.0447 50.3264 52.8262 50.3312 52.6057C50.336 52.3851 50.3938 52.1689 50.4999 51.9755C50.4455 50.4441 50.5378 48.9111 50.7754 47.3973C50.858 45.2928 50.9461 43.1883 51.0288 41.0782C51.0233 41.0727 51.0123 41.0672 51.0067 41.0617C46.5057 43.1277 42.2636 40.2353 41.5419 36.7645C41.0681 34.4837 41.3215 32.3296 43.101 30.5887C43.3985 30.2967 43.6519 29.9606 43.9274 29.6411C44.6546 25.2833 44.1478 21.2836 40.4235 18.1654C40.98 17.8458 41.4813 18.0276 41.9331 17.945V17.9396C37.3659 16.7937 31.8236 19.9174 29.9891 24.6884C29.4185 26.0982 29.161 27.6152 29.2343 29.1343C33.7629 27.0353 37.8232 29.542 38.9415 33.3599C40.104 37.332 37.0078 41.5356 32.8924 41.5962C31.714 41.6019 30.5417 41.4272 29.4161 41.0783C29.4987 43.271 29.5832 45.4637 29.6695 47.6563C29.8713 49.0868 29.9579 50.5312 29.9285 51.9756C29.9395 52.3172 29.9505 52.6587 29.9615 53.0003C29.9505 53.2262 29.9395 53.452 29.9285 53.6834C30.2149 55.0681 30.3863 56.4741 30.4408 57.887C30.4308 57.8508 30.4235 57.814 30.4188 57.7768C30.4243 57.8154 30.4353 57.8484 30.4408 57.887C30.551 60.2835 30.6171 62.6855 30.7879 65.082C30.8595 66.0737 30.5014 66.5695 29.5869 66.823C28.5071 67.126 27.4438 67.4896 26.375 67.8311C27.7853 68.0085 29.2077 68.0711 30.6281 68.0185C32.1542 67.9854 32.8484 67.3078 32.9971 65.7927C33.0907 64.8286 33.1734 63.8645 33.2615 62.9004C33.3607 61.154 33.4599 59.402 33.559 57.6556H33.7739V62.6415C33.8014 63.3962 33.8124 64.1565 33.862 64.9113C34.0824 68.4316 34.1871 68.4096 30.6777 69.1203C30.5973 69.1453 30.5198 69.1785 30.4463 69.2195C30.6557 69.3572 30.865 69.4949 31.0744 69.6382C31.1061 69.6433 31.1364 69.6553 31.1631 69.6734C31.1897 69.6915 31.2121 69.7152 31.2286 69.7428C32.066 69.7483 32.9089 69.82 33.7353 69.7428C35.2393 69.5996 35.95 68.7952 36.0602 67.3022C36.1263 66.3437 36.2255 65.3851 36.3081 64.4265C36.2225 63.1607 36.3227 61.8893 36.6056 60.6526C36.6001 60.4212 36.5946 60.1954 36.5891 59.964C36.5891 59.9309 36.5781 59.9089 36.5781 59.9144C36.4183 59.953 36.6827 59.7822 36.7103 60.1182C36.7378 59.9695 36.7709 59.8207 36.7984 59.672V65.4457C36.815 66.1233 36.837 66.7954 36.848 67.4731C36.8756 69.9247 36.7213 70.145 34.3854 70.8447C33.7408 71.0375 33.0687 71.1532 32.4296 71.3681C31.9668 71.5278 31.3774 71.4397 30.9421 71.9851C32.8428 71.9135 34.6223 72.1283 36.3907 71.8419C38.2198 71.5444 38.947 70.8061 39.3217 69.0211C39.5971 67.7099 39.7128 66.3602 40.2142 65.0324C40.271 65.1231 40.3189 65.2191 40.3574 65.3189C40.6108 66.5585 40.8642 67.8036 41.1066 69.0432C41.4482 70.7786 42.1534 71.5168 43.9164 71.8253C45.7399 72.1393 47.5855 71.9245 49.4752 71.9686C49.2052 71.5058 48.781 71.5829 48.4394 71.4837C47.266 71.1422 46.0705 70.8502 44.919 70.4535C44.0816 70.1615 43.4811 69.6271 43.4921 68.5969C43.5197 65.7762 43.5032 62.9555 43.5032 60.1348H43.8447C43.9659 61.9032 44.1092 63.6662 44.2028 65.4346C44.4177 69.5225 44.9025 69.9687 49.0069 69.7428C49.2383 69.3572 49.8057 69.6602 50.0206 69.247C49.0344 69.2415 48.175 68.7677 47.2715 68.4647C47.0278 68.3808 46.8188 68.2185 46.6773 68.0032C46.5357 67.7878 46.4695 67.5316 46.4891 67.2747C46.5332 64.3768 46.423 61.468 46.8142 58.5811C47.0511 61.0052 47.2384 63.4348 47.4257 65.8588C47.5138 66.9937 48.0262 67.8807 49.2162 67.9579C50.8249 68.068 52.4391 67.9854 54.0533 67.9854C53.214 67.5958 52.3443 67.2752 51.4529 67.0268C49.4806 66.3932 49.4917 66.3877 49.6735 64.3824L49.6735 64.3823ZM37.2667 23.0465C37.2632 23.4341 37.1076 23.8048 36.8336 24.0788C36.5595 24.3529 36.1889 24.5084 35.8013 24.512C34.9363 24.5285 34.2863 24.0327 34.2697 22.9088C34.2735 22.716 34.3163 22.5259 34.3957 22.3501C34.475 22.1743 34.5893 22.0165 34.7314 21.8862C34.8736 21.7559 35.0408 21.6558 35.2228 21.5919C35.4048 21.5281 35.5978 21.502 35.7903 21.515C36.8205 21.4985 37.2833 22.1926 37.2667 23.0465ZM43.8888 47.1439C43.8943 49.3751 42.1865 51.3199 40.2362 51.3144C38.3961 51.3089 36.5175 49.1382 36.5836 47.0888C36.4844 46.4828 36.3798 45.8713 36.242 45.0228C37.5587 45.9208 38.6661 46.8409 40.1481 46.8739C41.6631 46.9015 42.8531 46.1247 44.0927 45.2157C44.3571 45.9429 43.6905 46.5103 43.8888 47.1439H43.8888Z" fill="#FE733E"/>
<path d="M29.9337 51.9702C29.8235 51.9316 29.7188 51.8821 29.6141 51.8435C28.1372 51.1981 26.7766 50.314 25.5869 49.2266C21.2126 45.4473 18.3257 40.7149 17.6261 34.9742C16.8327 28.4513 18.2927 22.4297 22.645 17.2566C26.6171 12.5407 31.6801 9.79158 37.7237 9.15802C44.4395 8.45834 50.4721 10.337 55.5516 14.9758C59.6985 18.6573 62.3181 23.757 62.8954 29.2722C63.4906 34.0062 62.5089 38.8043 60.1022 42.9241C57.8599 46.753 54.8739 49.8602 50.8357 51.827C50.7255 51.8821 50.6153 51.9372 50.5051 51.9867C50.3977 52.1798 50.3391 52.3961 50.3343 52.6169C50.3295 52.8377 50.3787 53.0564 50.4776 53.2539C50.5638 53.1611 50.6599 53.078 50.764 53.0059C56.8628 49.7775 61.0938 44.979 63.0717 38.3018C63.2424 37.7344 63.5069 37.4534 64.1405 37.5195C64.9999 37.6076 65.2313 37.0347 65.2313 36.3185C65.2367 33.5694 65.2385 30.8221 65.2367 28.0767C65.2367 27.4872 65.0935 26.8371 64.4819 26.771C63.3581 26.6388 63.2203 25.8179 62.9945 25.0191C61.7511 20.4657 59.0687 16.4363 55.3477 13.5323C47.5796 7.43363 39.0514 6.33178 30.1044 10.4527C23.4547 13.5103 19.2182 18.8157 17.3009 25.9171C17.1797 26.3578 17.2348 26.8812 16.4856 26.7269C15.4168 26.5066 15.0146 27.1346 15.0091 28.0822C14.9926 30.8313 15.0036 33.5749 15.0036 36.324C15.0036 37.2385 15.4664 37.7234 16.3479 37.5085C17.1577 37.3102 17.3505 37.7123 17.5158 38.3294C18.232 40.9412 19.4297 43.3963 21.0472 45.5685C23.4162 48.7804 26.303 51.3587 29.9722 53.0004C29.9612 52.6589 29.9501 52.3118 29.9336 51.9702L29.9337 51.9702Z" fill="#B5D2F3"/>
<path d="M29.941 53.6777C29.1256 55.9641 26.955 55.909 25.1094 56.4819C26.4977 56.84 27.9081 57.2532 29.2964 57.0163C30.1228 56.8731 30.2825 57.1706 30.4037 57.6609C30.4148 57.6995 30.4203 57.738 30.4313 57.7766C30.4368 57.8097 30.4478 57.8482 30.4533 57.8868C30.3988 56.472 30.2274 55.0642 29.941 53.6777Z" fill="#FE684B"/>
<path d="M50.2747 56.7303C52.0376 57.5292 53.7014 56.7249 55.4038 56.4935C53.74 55.7883 51.5859 56.1519 50.7099 54.0088C49.7788 54.7911 50.5005 55.8379 50.2747 56.7303Z" fill="#FE6446"/>
<path d="M36.8051 59.6611C36.7775 59.8099 36.7445 59.9586 36.7169 60.1074C36.6839 60.2837 36.6453 60.46 36.6123 60.6418C36.3294 61.8784 36.2291 63.1499 36.3148 64.4156C36.728 64.6305 36.425 65.1979 36.8051 65.4293L36.8051 59.6611Z" fill="#FED6C8"/>
<path d="M33.567 57.6445C33.4678 59.391 33.3687 61.1429 33.2695 62.8893C33.4403 62.8012 33.6111 62.7185 33.7819 62.6304V57.6445H33.567Z" fill="#FEEBE3"/>
<path d="M28.3906 69.7319H31.2334C31.1838 69.6988 31.1287 69.6658 31.0791 69.6272C30.8698 69.4895 30.6604 69.3517 30.4511 69.2085C29.7295 69.1926 29.0172 69.3735 28.3906 69.7319Z" fill="#FE9166"/>
<path d="M49.0078 69.7319H51.7734C51.2674 69.3629 50.6459 69.187 50.0215 69.2361C49.8066 69.6548 49.2337 69.3463 49.0078 69.7319Z" fill="#FE8F64"/>
<path d="M50.838 51.8212C54.8763 49.86 57.8568 46.7527 60.1045 42.9183C62.5112 38.7986 63.4929 34.0004 62.8977 29.2665C62.3253 23.7498 59.7048 18.6485 55.5539 14.97C50.4744 10.3368 44.4418 8.45262 37.7261 9.15779C31.688 9.78585 26.6195 12.5405 22.6473 17.2564C18.2895 22.4295 16.8351 28.4511 17.6284 34.974C18.3281 40.7201 21.2149 45.447 25.5892 49.2264C26.7794 50.3132 28.1399 51.1972 29.6165 51.8433C29.7212 51.8873 29.8258 51.9314 29.936 51.97C29.9655 50.5256 29.8789 49.0812 29.6771 47.6507C29.5669 47.5736 29.4567 47.4965 29.3465 47.4138C28.2569 46.5711 27.2396 45.6386 26.3054 44.6262C26.0134 44.3287 25.6498 44.0752 25.6498 43.5904C24.9997 44.0587 24.5315 43.7337 24.1513 43.2158C22.0176 40.4165 20.7756 37.0398 20.5869 33.5251C20.4326 30.3407 20.7191 27.2446 22.0578 24.2641C23.6933 20.5825 26.4304 17.4989 29.8919 15.4383C30.4869 15.0747 30.8285 15.3997 31.2417 15.6697C31.4378 15.662 31.6299 15.6128 31.8056 15.5255C31.9813 15.4381 32.1365 15.3145 32.2609 15.1628L32.2113 15.0471C31.8587 14.3034 31.8422 13.4605 32.6906 13.2622C33.5446 13.0583 34.0294 13.7525 34.0349 14.6505C40.4091 12.557 46.337 13.4054 51.6864 17.4877C55.6861 20.5398 57.978 24.6332 58.6776 29.6245C59.5812 36.0428 57.4105 41.3647 52.937 45.8657C52.409 46.4073 51.8038 46.8677 51.141 47.232C51.0254 47.2926 50.9097 47.3477 50.794 47.4028C50.5564 48.9166 50.4641 50.4496 50.5185 51.981C50.6176 51.9314 50.7223 51.8763 50.838 51.8212Z" fill="#E2F5FC"/>
<path d="M52.9292 45.8715C57.3971 41.3705 59.5678 36.0486 58.6698 29.6303C57.9701 24.6335 55.6783 20.5401 51.6786 17.4935C46.3291 13.4112 40.3957 12.5683 34.027 14.6563C34.016 14.6617 34.005 14.6728 33.9939 14.6783C33.4926 14.9978 33.1014 15.6865 32.3797 15.2567C32.3357 15.2292 32.2971 15.2072 32.253 15.1741C32.129 15.3262 31.9739 15.4501 31.7981 15.5376C31.6224 15.625 31.43 15.6738 31.2338 15.6809C31.2173 15.7471 31.1953 15.8077 31.1732 15.8738C30.7159 17.1574 29.3441 17.4935 28.4241 18.2648C25.9567 20.2668 24.0776 22.8998 22.9865 25.884C21.2346 30.7652 21.5927 35.5472 23.9396 40.1639C24.3292 40.9128 24.7807 41.6278 25.2894 42.3015C25.5666 42.6686 25.6928 43.128 25.6419 43.5852V43.6017C25.6419 44.081 26.0056 44.3399 26.2975 44.6374C27.233 45.6485 28.2502 46.5809 29.3386 47.4251C29.4488 47.5022 29.559 47.5849 29.6692 47.662C29.5866 45.4693 29.5021 43.2767 29.4158 41.084C29.4103 41.084 29.4103 41.0785 29.4047 41.0785C27.4986 39.8279 26.0992 38.2302 25.8568 35.8502C25.5538 32.9138 26.7879 30.7432 29.1899 29.162C29.2009 29.1565 29.2119 29.1455 29.2229 29.14C29.1487 27.6208 29.4063 26.1037 29.9777 24.6941C31.8123 19.9286 37.3546 16.7993 41.9217 17.9453C41.9247 17.9449 41.9277 17.9452 41.9306 17.9461C41.9334 17.9471 41.936 17.9486 41.9382 17.9507C44.9683 18.441 47.4585 19.8238 49.2435 22.3636C50.6837 24.3186 51.395 26.7157 51.2543 29.1399C52.9732 30.4456 54.3615 31.9772 54.5874 34.2415C54.8904 37.2881 53.5902 39.5138 51.0285 41.0674V41.0949C50.9458 43.1995 50.8577 45.304 50.775 47.414C50.8962 47.3589 51.0119 47.3038 51.1221 47.2432C51.7915 46.8818 52.401 46.4191 52.9291 45.8714L52.9292 45.8715Z" fill="#CDECF6"/>
<path d="M45.5085 28.8918C47.3982 27.9607 49.2327 28.4621 51.0563 29.0626C51.1224 29.0846 51.194 29.1067 51.2601 29.1287C51.4024 26.7043 50.6909 24.3067 49.2493 22.3523C47.4643 19.8126 44.9741 18.4298 41.944 17.9395H41.9275C41.4757 18.0276 40.9744 17.8403 40.418 18.1598C44.1422 21.278 44.6546 25.2777 43.9218 29.6355C44.0375 29.5804 44.1477 29.5309 44.2634 29.4758C44.6876 29.2829 45.1008 29.0956 45.5085 28.8918Z" fill="#FE6B3C"/>
<path d="M54.5977 34.2358C54.3718 31.9715 52.9834 30.44 51.2646 29.1343C51.1985 29.1122 51.1268 29.0902 51.0607 29.0682C49.2317 28.4676 47.4026 27.9663 45.5129 28.8974C45.1053 29.1012 44.6866 29.294 44.2734 29.4869C44.1577 29.542 44.0475 29.5915 43.9318 29.6466C43.6563 29.9607 43.4029 30.3022 43.1054 30.5942C41.3204 32.3351 41.0725 34.4892 41.5463 36.7701C42.268 40.2464 46.5101 43.1387 51.0167 41.0783C51.0222 41.0728 51.0332 41.0728 51.0387 41.0672C53.6005 39.5081 54.9062 37.2769 54.5977 34.2358ZM47.8599 40.3235C46.8262 40.3126 45.819 39.9952 44.9658 39.4115C44.1126 38.8278 43.4519 38.004 43.0671 37.0445C42.6824 36.085 42.5911 35.033 42.8046 34.0215C43.0182 33.0101 43.5271 32.0848 44.2669 31.3628C45.0067 30.6407 45.9441 30.1544 46.9604 29.9655C47.9768 29.7766 49.0263 29.8935 49.9762 30.3014C50.926 30.7093 51.7335 31.3899 52.2963 32.257C52.8591 33.1241 53.1519 34.1387 53.1377 35.1724C53.1421 35.8608 53.0076 36.5431 52.7423 37.1783C52.477 37.8136 52.0863 38.3889 51.5936 38.8697C51.1009 39.3506 50.5164 39.7271 49.8748 39.9769C49.2333 40.2267 48.548 40.3446 47.8599 40.3235Z" fill="#FE6142"/>
<path d="M29.1946 29.1509C26.7926 30.7321 25.5586 32.9027 25.8616 35.8391C26.104 38.2191 27.5033 39.8168 29.4095 41.0674C29.415 41.0674 29.415 41.0729 29.4205 41.0729C30.546 41.4222 31.7184 41.5968 32.8968 41.5907C37.0067 41.5301 40.1084 37.3321 38.946 33.3544C37.8276 29.5365 33.7618 27.0299 29.2387 29.1289C29.223 29.1339 29.2081 29.1413 29.1946 29.1509L29.1946 29.1509ZM32.4781 40.3236C31.7866 40.3326 31.1 40.2048 30.458 39.9476C29.816 39.6903 29.2311 39.3087 28.7371 38.8246C28.2431 38.3406 27.8496 37.7636 27.5794 37.127C27.3091 36.4903 27.1673 35.8065 27.1622 35.1149C27.1572 34.4232 27.2889 33.7374 27.5497 33.0969C27.8106 32.4563 28.1956 31.8737 28.6824 31.3824C29.1693 30.8911 29.7484 30.5009 30.3866 30.2343C31.0248 29.9676 31.7094 29.8297 32.401 29.8286C33.0953 29.8152 33.7854 29.9397 34.4312 30.195C35.0771 30.4502 35.6658 30.8312 36.1634 31.3156C36.6609 31.8001 37.0574 32.3785 37.3297 33.0173C37.6021 33.6561 37.745 34.3426 37.7501 35.0371C37.7552 35.7315 37.6224 36.42 37.3595 37.0628C37.0965 37.7055 36.7086 38.2897 36.2182 38.7814C35.7279 39.2732 35.1448 39.6627 34.5028 39.9274C33.8608 40.1921 33.1726 40.3268 32.4781 40.3236Z" fill="#FE6143"/>
<path d="M37.2779 47.5737C37.0741 47.3698 36.9253 47.0944 36.5837 47.0889C36.5176 49.1383 38.3908 51.3089 40.2364 51.3144C42.1921 51.3199 43.8945 49.3752 43.889 47.144C43.1507 47.5241 42.6824 48.3064 41.834 48.5378C40.1427 49.0006 38.5891 48.8849 37.2779 47.5737Z" fill="#070909"/>
<path d="M44.0928 45.2158C42.8533 46.1248 41.6688 46.9016 40.1482 46.874C38.6607 46.8465 37.5589 45.921 36.2422 45.0229C36.3854 45.8714 36.4846 46.4774 36.5838 47.0889C36.9253 47.0999 37.0741 47.3699 37.2779 47.5737C38.5836 48.8849 40.1427 49.0006 41.834 48.5378C42.6825 48.3064 43.1507 47.5296 43.889 47.144C43.6907 46.5104 44.3573 45.943 44.0928 45.2158Z" fill="#FDFCFB"/>
<path d="M35.7901 21.5208C35.5972 21.5059 35.4034 21.5308 35.2206 21.5939C35.0377 21.657 34.8698 21.757 34.7273 21.8877C34.5847 22.0184 34.4705 22.177 34.3918 22.3536C34.313 22.5303 34.2714 22.7212 34.2695 22.9146C34.2861 24.0385 34.9361 24.5288 35.8011 24.5178C36.1887 24.5143 36.5593 24.3587 36.8334 24.0847C37.1074 23.8106 37.263 23.4399 37.2665 23.0524C37.2831 22.1929 36.8203 21.4988 35.7901 21.5208Z" fill="#FEA777"/>
<path d="M25.6436 43.5797C25.6945 43.1225 25.5683 42.6632 25.2911 42.2961C24.7843 41.621 24.333 40.9062 23.9413 40.1585C21.5944 35.5418 21.2308 30.7598 22.9882 25.8786C24.0793 22.8943 25.9584 20.2614 28.4258 18.2593C29.3458 17.488 30.7176 17.1575 31.1749 15.8683C31.1984 15.8051 31.2186 15.7408 31.2355 15.6755C30.8223 15.4055 30.4808 15.0805 29.8858 15.4441C26.4242 17.5047 23.6871 20.5883 22.0516 24.2699C20.7129 27.2504 20.4264 30.3466 20.5807 33.5309C20.7729 37.0449 22.0145 40.4206 24.1451 43.2216C24.5253 43.7395 24.9991 44.0645 25.6436 43.5963L25.6436 43.5797Z" fill="#FDFEFE"/>
<path d="M33.9872 14.6786C33.9982 14.6731 34.0092 14.662 34.0203 14.6565C34.0092 13.7585 33.5299 13.0644 32.676 13.2682C31.8276 13.4721 31.8441 14.315 32.1967 15.0532L32.2463 15.1689C32.2868 15.199 32.3291 15.2266 32.373 15.2515C33.0947 15.6868 33.4859 14.9926 33.9872 14.6786L33.9872 14.6786Z" fill="#FBFDFE"/>
<path d="M53.1366 35.1779C53.1557 34.4895 53.0365 33.8043 52.7862 33.1627C52.5359 32.5212 52.1595 31.9363 51.6793 31.4428C51.1991 30.9492 50.6247 30.5569 49.9903 30.2891C49.3559 30.0213 48.6742 29.8834 47.9855 29.8835C47.2977 29.8721 46.6145 29.9967 45.975 30.2501C45.3355 30.5035 44.7523 30.8807 44.259 31.36C43.7657 31.8394 43.3719 32.4115 43.1003 33.0435C42.8286 33.6754 42.6845 34.3548 42.6762 35.0426C42.6678 35.7305 42.7954 36.4131 43.0516 37.0515C43.3079 37.6899 43.6876 38.2714 44.1692 38.7626C44.6507 39.2537 45.2246 39.645 45.8577 39.9138C46.4909 40.1826 47.1709 40.3237 47.8588 40.329C48.5467 40.3492 49.2316 40.2306 49.8727 39.9805C50.5138 39.7304 51.098 39.3538 51.5905 38.8731C52.083 38.3924 52.4737 37.8176 52.7393 37.1827C53.0049 36.5479 53.1401 35.8661 53.1366 35.1779ZM48.1177 35.7509C47.9064 35.7718 47.6931 35.748 47.4916 35.6809C47.2901 35.6138 47.1051 35.5049 46.9486 35.3614C46.7921 35.2179 46.6676 35.0429 46.5833 34.848C46.499 34.6531 46.4568 34.4426 46.4595 34.2303C46.4458 34.0091 46.4782 33.7874 46.5548 33.5793C46.6314 33.3713 46.7504 33.1815 46.9043 33.0219C47.0581 32.8623 47.2435 32.7365 47.4486 32.6524C47.6537 32.5683 47.8741 32.5278 48.0957 32.5335C49.0653 32.6051 49.6107 33.1725 49.7264 34.1862C49.5942 35.0897 49.1314 35.7343 48.1177 35.7509Z" fill="#FEFEFE"/>
<path d="M32.403 29.8345C31.7113 29.8356 31.0267 29.9735 30.3886 30.2402C29.7504 30.5068 29.1712 30.897 28.6844 31.3883C28.1975 31.8796 27.8126 32.4622 27.5517 33.1028C27.2908 33.7434 27.1591 34.4292 27.1642 35.1208C27.1693 35.8124 27.311 36.4962 27.5813 37.1329C27.8516 37.7695 28.245 38.3465 28.7391 38.8305C29.2331 39.3146 29.8179 39.6962 30.4599 39.9535C31.102 40.2107 31.7885 40.3386 32.4801 40.3296C33.1745 40.3327 33.8627 40.1981 34.5047 39.9333C35.1467 39.6686 35.7298 39.2791 36.2202 38.7873C36.7106 38.2956 37.0985 37.7114 37.3614 37.0687C37.6244 36.426 37.7571 35.7374 37.752 35.043C37.7469 34.3486 37.6041 33.662 37.3317 33.0232C37.0593 32.3844 36.6629 31.806 36.1653 31.3215C35.6678 30.8371 35.079 30.4562 34.4332 30.2009C33.7874 29.9456 33.0973 29.8211 32.403 29.8345ZM32.4085 35.7514C32.1966 35.7708 31.9831 35.7452 31.7818 35.6764C31.5806 35.6075 31.3961 35.4969 31.2406 35.3518C31.0851 35.2066 30.962 35.0303 30.8794 34.8343C30.7967 34.6382 30.7565 34.427 30.7612 34.2143C30.7495 33.9927 30.7842 33.7711 30.8632 33.5637C30.9422 33.3563 31.0636 33.1677 31.2198 33.01C31.3759 32.8523 31.5633 32.7289 31.7699 32.6479C31.9765 32.5669 32.1978 32.53 32.4195 32.5395C32.852 32.5454 33.2644 32.7228 33.5661 33.0328C33.8678 33.3427 34.034 33.7598 34.0282 34.1923C33.907 35.1233 33.4001 35.7404 32.4085 35.7514Z" fill="#FEFEFE"/>
<path d="M48.0967 32.5339C47.8749 32.5273 47.6541 32.5672 47.4486 32.651C47.243 32.7348 47.0573 32.8606 46.9032 33.0203C46.7492 33.1801 46.6302 33.3703 46.5539 33.5788C46.4777 33.7872 46.4459 34.0093 46.4605 34.2307C46.4574 34.4432 46.4993 34.6539 46.5834 34.8491C46.6675 35.0442 46.792 35.2193 46.9486 35.3629C47.1052 35.5065 47.2904 35.6154 47.4921 35.6823C47.6938 35.7493 47.9074 35.7728 48.1188 35.7513C49.127 35.7348 49.5952 35.0902 49.7275 34.1867C49.6118 33.173 49.0663 32.6055 48.0967 32.5339Z" fill="#090B0B"/>
<path d="M32.4183 32.5391C32.1966 32.5295 31.9753 32.5665 31.7687 32.6475C31.5621 32.7285 31.3747 32.8518 31.2186 33.0095C31.0624 33.1672 30.941 33.3558 30.862 33.5632C30.7831 33.7706 30.7483 33.9923 30.76 34.2139C30.7553 34.4265 30.7956 34.6378 30.8782 34.8338C30.9608 35.0298 31.0839 35.2062 31.2394 35.3513C31.395 35.4964 31.5794 35.6071 31.7806 35.6759C31.9819 35.7448 32.1955 35.7704 32.4073 35.7509C33.3989 35.7399 33.9058 35.1229 34.027 34.1918C33.9333 33.1726 33.3714 32.6162 32.4183 32.5391Z" fill="#090C0C"/>
</svg>
