<svg width="80" height="80" viewBox="0 0 80 80" fill="none" xmlns="http://www.w3.org/2000/svg">
<path d="M16.6776 42.6038C16.7692 44.4906 18.656 43.6114 19.4986 43.0251C20.3047 42.4572 20.5428 42.9335 20.616 41.8344C20.671 41.1017 20.7442 40.3873 20.7076 39.6546C19.4802 39.5446 18.1613 39.8378 17.1537 40.5704C16.6226 40.9368 15.67 42.1459 16.6774 42.6038H16.6776ZM54.2853 65.7949C55.7324 66.6925 58.3887 69.4037 56.2087 70.7227C54.1204 72.6279 52.9482 68.6159 51.1162 68.0664C51.9038 66.9856 52.893 65.9964 54.2853 65.7949ZM28.383 68.8541C26.6794 69.1106 25.7268 70.6493 24.298 71.4371C22.9607 72.2248 22.4478 71.1806 22.3379 70.9608C22.1365 70.8692 22.1547 71.0524 21.825 70.7227C20.5794 68.7625 23.1073 67.3338 24.4262 66.3628C26.2581 65.9964 27.4122 67.5901 28.383 68.8541ZM62.3271 42.3657C62.2355 44.2525 60.3487 43.3732 59.5061 42.787C58.7 42.2191 58.4619 42.6954 58.3887 41.5962C58.3335 40.8636 58.2603 40.1491 58.2971 39.4165C59.5243 39.3065 60.8432 39.5996 61.8508 40.3323C62.3639 40.6986 63.3347 41.9077 62.3271 42.3657Z" fill="#F6D2A2"/>
<path d="M57.3258 19.3575C63.8655 17.0493 58.7547 8.09176 53.0575 12.0484C49.3206 8.84262 44.1733 8.25635 38.7692 8.25635C33.4754 8.67803 28.4377 9.64884 24.9206 12.7262C19.2416 9.06238 14.0026 17.8552 20.6705 20.0719C18.8021 27.3259 20.9268 34.7266 20.6337 42.1088C20.359 48.7403 18.6187 57.6245 22.3008 63.5781C25.4333 68.6706 32.1743 70.4842 37.725 70.6858C44.8142 70.9422 53.4054 69.2019 56.8493 62.3325C60.1466 55.7929 59.2308 47.6411 58.8095 40.5885C58.3882 33.4626 59.1758 26.2269 57.3256 19.3573L57.3258 19.3575Z" fill="#69D7E2"/>
<path d="M62.821 41.2479C62.6379 40.8631 62.2899 40.4234 61.9602 40.1853C61.1176 39.5808 60.0366 39.2511 58.9192 39.2145C58.8826 38.0787 58.8461 36.833 58.8461 35.2577V33.8288C58.8277 29.3225 58.7727 27.3441 58.5163 24.871C58.3148 22.9294 58.0032 21.1342 57.5637 19.4489C59.0476 18.881 60.0184 17.9468 60.4031 16.7377C60.7695 15.6203 60.5863 14.3563 59.9636 13.239C59.3223 12.1398 58.2966 11.3154 57.1058 10.9858C55.8235 10.6377 54.4313 10.8942 53.094 11.7917C51.9033 10.7843 50.5295 10.0148 48.9907 9.42856C46.2612 8.42134 43.0923 8.03662 38.7873 8.03662V8.21979L38.769 8.03662C34.1711 8.40295 30.7638 9.1174 27.9428 10.4913C26.807 11.0408 25.7996 11.7003 24.9204 12.4697C23.5647 11.6271 22.1541 11.4255 20.8536 11.8286C19.6446 12.195 18.6005 13.056 17.9776 14.1734C17.3547 15.2907 17.2081 16.5731 17.6295 17.6722C18.0508 18.7712 19.0216 19.6323 20.4689 20.1635C20.011 22.0136 19.7728 23.9738 19.7362 26.1353C19.6994 28.2419 19.791 29.9273 20.1208 33.7374C20.3589 36.5768 20.4505 37.8773 20.4873 39.4528C19.2415 39.3978 17.996 39.7276 17.0616 40.4054C16.7318 40.6436 16.3655 41.0649 16.2007 41.4678C15.9626 41.9809 16.0542 42.4388 16.5305 42.7135C16.6037 43.5928 17.0984 43.9957 17.8494 43.9225C18.3989 43.8675 19.0584 43.5744 19.6262 43.1714C19.7462 43.0846 19.8752 43.0109 20.011 42.9517C20.066 42.9333 20.1025 42.9149 20.1575 42.8965C20.1575 42.8965 20.2673 42.8601 20.3041 42.8417C20.3589 42.8233 20.4139 42.8049 20.4505 42.7683C20.4139 43.6294 20.3407 44.527 20.1757 46.5787C19.9926 48.8867 19.901 50.1508 19.8644 51.5613C19.6994 56.8003 20.3223 60.6105 22.1907 63.6331C22.777 64.5857 23.4915 65.4283 24.3341 66.1977C24.1691 66.3075 23.4731 66.8206 23.2533 66.9854C22.4839 67.5717 21.9528 68.0662 21.6412 68.6157C21.2383 69.3301 21.2383 70.0446 21.6962 70.7956L21.7146 70.814L21.733 70.8324C21.9344 71.0338 22.0443 71.0888 22.1909 71.0888H22.2455C22.2639 71.1255 22.2823 71.1437 22.3007 71.1803C22.3555 71.2719 22.4105 71.3451 22.4655 71.4185C22.9234 71.9498 23.5645 72.0779 24.4255 71.5651C24.8834 71.3269 25.2131 71.052 25.9092 70.4659L25.946 70.4291C27.0633 69.4767 27.6128 69.1287 28.4373 69.0004L28.7304 68.9454C28.8402 69.0006 28.9502 69.0372 29.0783 69.092C31.6796 70.1362 34.702 70.704 37.7614 70.814C41.7182 70.9606 45.5284 70.4659 48.7523 69.2935C49.6133 68.9822 50.4194 68.6157 51.1888 68.2127C51.6651 68.3959 52.0679 68.7806 52.8375 69.6782C52.8741 69.715 52.8741 69.715 52.8923 69.7514C52.9291 69.7882 52.9291 69.8066 52.9475 69.8248C52.9839 69.8798 53.0389 69.9164 53.0755 69.9714C53.6801 70.6856 54.0832 71.0338 54.5411 71.2353C55.1454 71.4917 55.7317 71.3635 56.3362 70.814C57.3988 70.1545 57.4719 69.1287 56.7757 67.9562C56.2812 67.132 55.4204 66.2709 54.6143 65.7214C55.5669 64.7872 56.3912 63.6699 57.0322 62.4057C58.7909 58.8886 59.4687 54.7853 59.4321 49.5096C59.4137 47.6411 59.3404 46.0109 59.139 42.8965V42.8051C59.2306 42.8417 59.3222 42.8967 59.4137 42.9699C59.9816 43.3546 60.6411 43.666 61.1906 43.7209C61.9416 43.7943 62.4363 43.3912 62.5095 42.512C62.9674 42.2188 63.059 41.7609 62.8209 41.248L62.821 41.2479ZM56.996 11.3704C58.0952 11.6635 59.0478 12.4329 59.6339 13.4587C60.2201 14.4845 60.3849 15.6387 60.0552 16.6645C59.7073 17.7453 58.8278 18.6063 57.4539 19.1192C57.18 18.1384 56.856 17.1723 56.4831 16.2248C57.0144 15.7669 57.2708 15.199 56.8494 14.3931C56.4283 13.5869 55.6955 13.4953 54.9442 13.7335C54.4679 13.1106 53.9368 12.5611 53.3873 12.0482C54.5963 11.2788 55.842 11.059 56.996 11.3704ZM17.9412 17.5621C17.5565 16.5727 17.6846 15.4005 18.2709 14.3747C18.857 13.3488 19.8096 12.5429 20.9454 12.2132C22.1177 11.8651 23.3817 12.0298 24.6274 12.7627C23.9071 13.4101 23.2674 14.1421 22.7222 14.9426C21.7696 14.4479 20.7988 14.3563 20.2493 15.3637C19.6814 16.4447 20.3409 17.1224 21.2751 17.6353C21.1469 17.9468 21.0186 18.2765 20.9088 18.6063C20.7804 19.0092 20.6522 19.4305 20.5424 19.8518C19.2051 19.3389 18.3259 18.5513 17.9412 17.5621ZM20.1577 42.5302C20.1393 42.5302 20.0294 42.5668 20.0294 42.585C19.9746 42.6034 19.9196 42.6218 19.8646 42.6584C19.718 42.7134 19.5714 42.8049 19.4251 42.9147C18.912 43.2812 18.2891 43.556 17.8128 43.5926C17.2633 43.6476 16.952 43.4094 16.897 42.75C17.2817 42.6218 17.4465 42.5302 17.5931 42.3104L17.2999 42.0905C17.1901 42.2371 17.0802 42.292 16.7504 42.4018C16.732 42.4018 16.732 42.4018 16.7136 42.4202C16.4207 42.2553 16.3657 41.9989 16.5307 41.6326C16.6772 41.3028 17.007 40.9181 17.2817 40.7168C18.1609 40.0755 19.3333 39.7641 20.5057 39.8373C20.5057 40.2953 20.524 40.7532 20.5057 41.1927C20.5057 41.2479 20.5057 41.2845 20.4873 41.3394C20.4691 41.5958 20.4691 41.7058 20.4507 41.8341C20.3959 42.3652 20.3591 42.4384 20.1577 42.5302ZM25.6898 70.1726L25.653 70.2093C24.9753 70.7954 24.6456 71.0336 24.2243 71.2717C23.5282 71.693 23.0519 71.6015 22.7222 71.1985C22.6672 71.1434 22.6306 71.0702 22.594 71.0152C22.5756 70.9968 22.5572 70.9604 22.539 70.942V70.9236C22.5758 70.5939 22.704 70.3557 23.0337 69.8428C23.0521 69.8244 23.0521 69.8244 23.0521 69.8062C23.2535 69.5131 23.3451 69.3483 23.4367 69.1468L23.1069 69.0002C23.0337 69.1652 22.9421 69.3117 22.7588 69.6047C22.7404 69.6231 22.7404 69.6231 22.7404 69.6415C22.4109 70.1178 22.2641 70.4107 22.1909 70.7404H22.1725H22.1175C22.0808 70.7221 22.026 70.6855 21.9528 70.6123C21.2383 69.4765 21.8062 68.5057 23.4181 67.2966C23.6196 67.1502 24.2975 66.6739 24.4807 66.5273C24.5174 66.5273 24.5538 66.5089 24.5906 66.4905C25.5796 67.3333 26.7338 68.066 28.0161 68.6705C28.0161 68.6889 28.0345 68.7072 28.0527 68.7256C27.3017 68.9086 26.7154 69.2933 25.6896 70.1726H25.6898ZM56.4465 68.176C57.0144 69.1286 56.996 69.8978 56.2816 70.4291C56.2268 70.3191 56.19 70.191 56.1168 70.0078C56.1168 69.9894 56.1168 69.9894 56.0984 69.971C55.842 69.2749 55.6773 68.982 55.3657 68.6523L55.1092 68.9086C55.3839 69.1652 55.5123 69.4399 55.7687 70.081C55.7687 70.0994 55.7687 70.0994 55.7871 70.1178C55.8786 70.3557 55.9336 70.5023 55.9886 70.6307C55.5123 71.0336 55.091 71.107 54.6513 70.9054C54.2666 70.7404 53.9002 70.3923 53.314 69.733C53.2774 69.6963 53.2408 69.6415 53.2042 69.5865C53.1858 69.5681 53.1674 69.5497 53.149 69.5131C53.1126 69.4765 53.1126 69.4765 53.0942 69.4399C52.4164 68.6523 52.0134 68.2309 51.5737 67.9926C52.5997 67.4065 53.5157 66.7471 54.3399 65.9776C55.1092 66.5455 55.9702 67.3881 56.4465 68.176ZM56.7029 62.2408C55.1276 65.4099 52.3432 67.6447 48.6061 69.0002C45.4188 70.1544 41.6451 70.6307 37.7433 70.4841C31.0205 70.2459 25.1953 67.9012 22.4658 63.4681C20.634 60.5187 20.0294 56.7635 20.1943 51.5977C20.2493 50.1872 20.3225 48.9233 20.5057 46.6152C20.7072 44.0139 20.7622 43.2628 20.8172 42.0905C20.8538 41.2479 20.8538 40.3868 20.8356 39.471C20.7988 37.8589 20.7072 36.5766 20.4691 33.7006C20.1393 29.8904 20.0477 28.2233 20.0843 26.135C20.1395 23.3875 20.5057 20.9692 21.2751 18.6796C22.5203 14.9606 24.8104 12.451 28.1077 10.8209C30.8738 9.46552 34.2261 8.76928 38.7873 8.40277C43.0557 8.40277 46.1696 8.78748 48.8625 9.77668C52.0864 10.9674 54.4861 13.0556 56.1348 16.2615C57.1974 18.8626 57.8203 21.6655 58.15 24.8894C58.4063 27.3441 58.4613 29.3225 58.4797 33.8104V35.2393C58.4981 37.4558 58.5345 39.0129 58.6263 40.57C58.6629 41.1745 58.6811 41.431 58.7727 42.8781C58.9742 45.9923 59.0476 47.6044 59.0658 49.4728C59.1026 54.7301 58.4429 58.7785 56.7027 62.2408H56.7029ZM62.3083 42.1821C62.2899 42.1821 62.2717 42.1637 62.2535 42.1637C61.9238 42.0539 61.8138 41.9805 61.7039 41.8523L61.4107 42.0721C61.5757 42.292 61.7405 42.3836 62.107 42.5116C62.0336 43.1713 61.7222 43.4094 61.1911 43.3544C60.7148 43.3176 60.0918 43.0247 59.5789 42.6766C59.4323 42.5668 59.2859 42.4934 59.1394 42.4202C59.121 42.4202 59.1026 42.4018 59.0842 42.4018C59.011 41.3944 59.011 41.1379 58.9744 40.6066L58.9194 39.6174C59.9454 39.6358 60.9528 39.9471 61.7221 40.515C61.997 40.7166 62.3267 41.1013 62.4733 41.4308C62.6565 41.7424 62.6199 42.0171 62.3083 42.1821Z" fill="black"/>
<path d="M41.5456 27.1482C41.564 28.0825 41.7471 29.1082 41.5822 30.0974C41.3256 30.5737 40.8495 30.6289 40.4282 30.8119C39.8419 30.7203 39.3473 30.3356 39.1093 29.7861C38.9627 28.6687 39.1459 27.6062 39.2009 26.4888C39.2009 26.452 39.8969 26.5072 40.5198 26.6903C41.0509 26.8551 41.5456 27.1299 41.5456 27.1482ZM36.3615 27.2214C35.8484 29.1634 37.0393 32.3324 38.9993 29.7311C38.8527 28.6319 39.0177 27.5696 39.0725 26.4888C39.0909 26.3972 36.3799 27.0933 36.3615 27.2214Z" fill="white"/>
<path d="M41.7678 28.0093C41.731 27.4596 41.7128 27.2398 41.7128 26.9651V26.8369L41.5846 26.8001L39.2765 26.0859V25.9575L39.0383 26.0127H39.0199V26.0309L36.4188 26.6904L36.3273 26.7087L36.2905 26.8001C35.8876 27.7711 35.9791 29.2366 36.492 30.1342C37.0783 31.16 38.0307 31.1782 39.0017 30.0059C39.137 30.267 39.3319 30.4926 39.5705 30.6645C39.8092 30.8364 40.0849 30.9497 40.3755 30.9952H40.4306L40.4854 30.9768C40.5588 30.9401 40.632 30.9217 40.7604 30.8669C40.7788 30.8669 40.7788 30.8669 40.797 30.8485C41.3281 30.6653 41.548 30.5188 41.7312 30.1708L41.7496 30.1524V30.1158C41.8044 29.7861 41.8228 29.438 41.8228 29.0535C41.8228 28.7785 41.8044 28.522 41.7678 28.0093ZM38.8368 27.3314C38.8184 27.6612 38.8002 27.7893 38.782 27.9725C38.7452 28.6503 38.7452 29.1632 38.8004 29.6761C37.9391 30.7753 37.2615 30.7753 36.8036 29.9509C36.3639 29.1816 36.2721 27.8809 36.602 27.0201L38.91 26.4338C38.8918 26.672 38.8735 26.9101 38.8368 27.3314ZM41.4014 30.0426C41.2733 30.2624 41.1083 30.3724 40.6686 30.5189C40.6502 30.5189 40.6502 30.5189 40.632 30.5371C40.5222 30.5739 40.4488 30.6103 40.3939 30.6287C39.8992 30.5371 39.478 30.2074 39.2765 29.7495C39.2215 29.2548 39.2215 28.7419 39.2581 28.0643C39.2765 27.8809 39.2765 27.7527 39.3133 27.423C39.3497 27.0019 39.3681 26.7453 39.3681 26.5072L41.3648 27.1117C41.3648 27.3498 41.3832 27.5696 41.4198 28.0459C41.4564 28.5406 41.4746 28.7969 41.4746 29.09C41.4746 29.438 41.4562 29.7495 41.4014 30.0426Z" fill="black"/>
<path d="M25.3346 19.1674C27.0199 25.7252 37.5164 24.04 37.1134 17.4637C36.637 9.58672 23.7226 11.1072 25.3345 19.1674" fill="white"/>
<path d="M37.2975 17.4452C37.1875 15.54 36.3449 14.0563 34.9528 13.1221C33.707 12.2795 32.0584 11.9498 30.4281 12.1511C28.7978 12.3713 27.2955 13.1039 26.3064 14.2581C25.2074 15.5402 24.786 17.2255 25.1708 19.1673L25.3355 19.1305L25.1708 19.1673C26.8926 25.9083 37.7004 24.278 37.2975 17.4452ZM25.5003 19.1307C25.134 17.2807 25.5371 15.7052 26.5629 14.5144C27.4971 13.4337 28.9076 12.7194 30.4647 12.5178C32.0218 12.3163 33.5789 12.6278 34.7514 13.4337C36.0518 14.3131 36.8396 15.687 36.9494 17.5004C37.3341 23.8935 27.1308 25.4324 25.5005 19.1307H25.5003Z" fill="black"/>
<path d="M28.23 20.0099C29.2113 20.0099 30.0068 19.1488 30.0068 18.0865C30.0068 17.0242 29.2113 16.1631 28.23 16.1631C27.2486 16.1631 26.4531 17.0242 26.4531 18.0865C26.4531 19.1488 27.2486 20.0099 28.23 20.0099Z" fill="black"/>
<path d="M29.0346 19.0207C29.2673 19.0207 29.4559 18.7994 29.4559 18.5262C29.4559 18.2531 29.2673 18.0317 29.0346 18.0317C28.8019 18.0317 28.6133 18.2531 28.6133 18.5262C28.6133 18.7994 28.8019 19.0207 29.0346 19.0207Z" fill="white"/>
<path d="M40.0562 17.9414C41.3569 25.4703 53.6668 23.4735 51.89 15.8896C50.2963 9.07519 39.6165 10.962 40.0562 17.9414Z" fill="white"/>
<path d="M52.0538 15.8529C50.4235 8.83697 39.4327 10.7604 39.8722 17.9595V17.9779C40.4765 21.5316 43.6458 23.3452 47.1445 22.7589C48.738 22.4842 50.167 21.7149 51.1012 20.5792C52.127 19.315 52.4933 17.6848 52.0538 15.8529ZM50.8266 20.3592C49.9472 21.4218 48.6101 22.1545 47.0896 22.411C43.7738 22.9605 40.8062 21.2568 40.2201 17.9229C39.817 11.1451 50.1853 9.33148 51.724 15.9261C52.1272 17.6664 51.7974 19.1869 50.8266 20.3592Z" fill="black"/>
<path d="M43.0762 19.5348C44.0373 19.5348 44.8164 18.6737 44.8164 17.6114C44.8164 16.5491 44.0373 15.688 43.0762 15.688C42.1151 15.688 41.3359 16.5491 41.3359 17.6114C41.3359 18.6737 42.1151 19.5348 43.0762 19.5348Z" fill="black"/>
<path d="M43.8834 18.5456C44.1059 18.5456 44.2863 18.3243 44.2863 18.0511C44.2863 17.778 44.1059 17.5566 43.8834 17.5566C43.6609 17.5566 43.4805 17.778 43.4805 18.0511C43.4805 18.3243 43.6609 18.5456 43.8834 18.5456Z" fill="white"/>
<path d="M36.7432 23.2641C35.2959 23.3922 34.1236 25.0959 34.8748 26.4514C35.8638 28.2467 38.0804 26.2867 39.4543 26.4698C41.048 26.5066 42.3487 28.1551 43.6126 26.763C45.0231 25.2241 43.0081 23.722 41.4143 23.0625L36.7432 23.2641Z" fill="#F6D2A2"/>
<path d="M43.7954 24.4913C43.3007 23.8685 42.4399 23.3006 41.5055 22.9159L41.4689 22.8975H41.4323L36.7429 23.0808C35.1125 23.2274 33.9403 25.1142 34.7277 26.5429C35.0393 27.0926 35.4606 27.3674 36.0285 27.404C36.4496 27.4224 36.8895 27.3308 37.5671 27.0926C37.6221 27.0742 37.6953 27.0558 37.7869 27.0192C38.7029 26.7079 39.0692 26.6163 39.4356 26.6713H39.4539C39.8935 26.6713 40.26 26.7995 40.956 27.0742C41.7255 27.3856 41.9636 27.4773 42.3482 27.5138C42.8796 27.5505 43.3375 27.3674 43.7587 26.9095C44.4731 26.1216 44.4365 25.279 43.7954 24.4913ZM43.4839 26.6529C43.136 27.0376 42.7879 27.166 42.3665 27.1476C42.0368 27.1292 41.817 27.0376 41.0842 26.7445C40.3516 26.4331 39.9486 26.3234 39.4723 26.305C39.0144 26.2498 38.6297 26.3416 37.6587 26.6713C37.5671 26.7079 37.4939 26.7263 37.439 26.7445C36.1016 27.2024 35.4606 27.1658 35.0209 26.3598C34.3614 25.1692 35.369 23.5571 36.7429 23.4289L41.3773 23.2456C42.2568 23.6121 43.0444 24.1432 43.5023 24.7113C44.0518 25.3706 44.0702 26.03 43.4839 26.6529Z" fill="#231F20"/>
<path d="M41.7814 22.4764C41.2135 20.388 36.4507 20.6995 36.5605 23.1908C36.7986 25.0409 42.3309 24.5462 41.7814 22.4764Z" fill="black"/>
</svg>
