<svg width="80" height="80" viewBox="0 0 80 80" fill="none" xmlns="http://www.w3.org/2000/svg">
<path d="M27.9964 71.1914C26.4628 71.1914 25.0147 70.51 24.0349 69.2746L9.1263 50.745C8.14649 49.5096 7.76324 47.9338 8.14649 46.4L13.4711 23.27C13.8118 21.7364 14.8341 20.501 16.24 19.8196L37.7939 9.51092C38.4756 9.17048 39.2423 9 40.0091 9C40.7759 9 41.5424 9.17022 42.224 9.51118L63.7782 19.7771C65.1838 20.4585 66.2062 21.6939 66.5469 23.2274L71.8715 46.3574C72.2124 47.891 71.8715 49.467 70.8919 50.7024L55.9828 69.2321C55.003 70.4247 53.5549 71.1489 52.0213 71.1489L27.9969 71.1914H27.9964Z" fill="#326DE6"/>
<path d="M61.5615 44.7808C61.519 44.7808 61.519 44.7808 61.5615 44.7808H61.519C61.4764 44.7808 61.4339 44.7808 61.4339 44.7383C61.3487 44.7383 61.2636 44.6957 61.1783 44.6957C60.8801 44.6532 60.6245 44.6106 60.3689 44.6106C60.241 44.6106 60.1133 44.6106 59.9429 44.5678H59.9003C59.0059 44.4827 58.2817 44.3976 57.6 44.1845C57.3019 44.0566 57.2167 43.8864 57.1314 43.7159C57.1314 43.6733 57.0888 43.6733 57.0888 43.6308L56.5351 43.4606C56.7967 41.4567 56.6957 39.4222 56.2369 37.4541C55.7718 35.4696 54.9646 33.5814 53.8515 31.8739L54.2776 31.4907V31.4055C54.2776 31.1925 54.3201 30.9795 54.4904 30.7664C55.0015 30.2978 55.6407 29.9146 56.4074 29.4459C56.5351 29.3608 56.6628 29.3183 56.7907 29.2329C57.0463 29.1052 57.2593 28.9776 57.5149 28.8071C57.5574 28.7645 57.6426 28.722 57.7279 28.6369C57.7705 28.5941 57.813 28.5941 57.813 28.5515C58.4093 28.0403 58.5373 27.1884 58.1112 26.6344C57.8982 26.3363 57.5149 26.1661 57.1314 26.1661C56.7909 26.1661 56.4925 26.2937 56.1944 26.5068L56.1093 26.5919C56.0242 26.6344 55.9814 26.7198 55.8962 26.7624C55.6832 26.9754 55.5127 27.1456 55.3425 27.3587C55.2574 27.4438 55.1723 27.5717 55.0444 27.6568C54.4478 28.2959 53.8941 28.8071 53.3403 29.1903C53.2127 29.2755 53.085 29.3183 52.9571 29.3183C52.872 29.3183 52.7866 29.3183 52.7015 29.2755H52.6164L52.1049 29.6164C51.5512 29.0201 50.9549 28.5089 50.3586 27.9978C47.791 25.9907 44.7008 24.7635 41.4558 24.4621L41.4132 23.9083L41.3281 23.8232C41.2002 23.6953 41.03 23.5676 40.9872 23.2695C40.9446 22.5878 41.03 21.821 41.1151 20.9692V20.9266C41.1151 20.7987 41.1577 20.6285 41.2002 20.5005C41.2428 20.2452 41.2853 19.9894 41.3281 19.6912V19.308C41.3281 18.5412 40.7316 17.9023 40.0076 17.9023C39.6667 17.9023 39.326 18.0726 39.0704 18.3282C38.815 18.5837 38.6871 18.9244 38.6871 19.308V19.6487C38.6871 19.9468 38.7297 20.2024 38.8148 20.458C38.8573 20.5859 38.8573 20.7136 38.8999 20.8841V20.9266C38.985 21.7785 39.1129 22.5453 39.0278 23.2269C38.9853 23.5251 38.8148 23.6527 38.6871 23.7807L38.602 23.8658L38.5592 24.4195C37.7924 24.5046 37.0257 24.5897 36.2589 24.7602C32.979 25.4844 30.0824 27.1459 27.8249 29.531L27.3989 29.2329H27.3138C27.2286 29.2329 27.1433 29.2755 27.0582 29.2755C26.9302 29.2755 26.8026 29.2329 26.6746 29.1478C26.1209 28.7645 25.5672 28.2105 24.9709 27.5717C24.8858 27.4866 24.8007 27.3587 24.6727 27.2735C24.5023 27.0605 24.3318 26.89 24.1188 26.6773C24.0762 26.6344 23.9911 26.5921 23.906 26.5068C23.8634 26.4642 23.8209 26.4642 23.8209 26.4217C23.5569 26.2036 23.2259 26.0832 22.8836 26.0807C22.5001 26.0807 22.1168 26.2512 21.9038 26.5493C21.4777 27.1031 21.6057 27.9549 22.202 28.4661C22.2445 28.4661 22.2445 28.5089 22.2871 28.5089C22.3722 28.5515 22.415 28.6366 22.5001 28.6792C22.7557 28.8494 22.9687 28.9773 23.2243 29.1052C23.3522 29.1478 23.4799 29.2329 23.6078 29.3183C24.3743 29.7866 25.0134 30.1701 25.5246 30.6388C25.7377 30.8515 25.7377 31.0646 25.7377 31.2776V31.3627L26.1635 31.7462C26.0784 31.8739 25.9932 31.9593 25.9504 32.0869C23.8206 35.4522 23.0113 39.4137 23.565 43.3326L23.0113 43.5029C23.0113 43.5457 22.9687 43.5457 22.9687 43.588C22.8836 43.7585 22.7557 43.9289 22.5001 44.0566C21.8613 44.2696 21.0945 44.355 20.2 44.4401H20.1572C20.0296 44.4401 19.8591 44.4401 19.7314 44.4827C19.4758 44.4827 19.2202 44.5252 18.9221 44.5678C18.837 44.5678 18.7519 44.6106 18.6665 44.6106C18.624 44.6106 18.5814 44.6106 18.5386 44.6532C17.7718 44.8234 17.3032 45.5476 17.4311 46.229C17.559 46.8255 18.1128 47.2091 18.7942 47.2091C18.9221 47.2091 19.0072 47.2091 19.1351 47.1662C19.1777 47.1662 19.2202 47.1662 19.2202 47.1237C19.3054 47.1237 19.3905 47.0811 19.4756 47.0811C19.774 46.996 19.987 46.9109 20.2426 46.783C20.3703 46.7404 20.4979 46.6551 20.6259 46.6128H20.6684C21.4777 46.3144 22.202 46.0588 22.8836 45.9737H22.9687C23.2243 45.9737 23.3948 46.1013 23.5225 46.1867C23.565 46.1867 23.565 46.2292 23.6076 46.2292L24.2041 46.1441C25.2265 49.2961 27.1858 52.1076 29.7843 54.1523C30.3806 54.6206 30.9769 55.0042 31.616 55.3877L31.3604 55.9412C31.3604 55.984 31.4029 55.984 31.4029 56.0263C31.488 56.1967 31.5732 56.4098 31.488 56.7079C31.2327 57.347 30.8492 57.9859 30.3806 58.7101V58.7526C30.2955 58.8806 30.2104 58.9657 30.1252 59.0933C29.9548 59.3064 29.8268 59.5194 29.6564 59.775C29.6138 59.8176 29.5712 59.9027 29.5287 59.988C29.5287 60.0306 29.4861 60.0731 29.4861 60.0731C29.1454 60.7974 29.401 61.6067 30.0399 61.9048C30.2101 61.9899 30.3806 62.0328 30.5511 62.0328C31.0622 62.0328 31.5734 61.6918 31.829 61.2232C31.829 61.1806 31.8716 61.1381 31.8716 61.1381C31.9141 61.053 31.9567 60.9678 31.9992 60.925C32.1272 60.6269 32.1697 60.4138 32.2548 60.1583L32.3827 59.775C32.6809 58.9231 32.8939 58.2415 33.2772 57.6452C33.4474 57.3896 33.6607 57.347 33.8309 57.2617C33.8735 57.2617 33.8735 57.2617 33.916 57.2191L34.2144 56.6654C36.0887 57.3896 38.1334 57.7728 40.1778 57.7728C41.4132 57.7728 42.6912 57.6452 43.884 57.347C44.6346 57.1792 45.3743 56.9658 46.099 56.7079L46.3543 57.1765C46.3971 57.1765 46.3971 57.1765 46.4397 57.2191C46.6527 57.2617 46.8229 57.347 46.9934 57.6026C47.3341 58.1989 47.5897 58.9231 47.8878 59.7324V59.775L48.0158 60.1583C48.1009 60.4138 48.1434 60.6694 48.2711 60.925C48.3139 61.0101 48.3565 61.053 48.399 61.1381C48.399 61.1806 48.4418 61.2232 48.4418 61.2232C48.6972 61.7343 49.2084 62.0328 49.7195 62.0328C49.89 62.0328 50.0605 61.9899 50.2307 61.9048C50.5289 61.7346 50.7844 61.4788 50.8698 61.1381C50.9549 60.7974 50.9549 60.4138 50.7847 60.0731C50.7847 60.0306 50.7419 60.0306 50.7419 59.988C50.6993 59.9029 50.6568 59.8178 50.6142 59.775C50.4863 59.5194 50.3161 59.3064 50.1456 59.0933C50.0605 58.9657 49.9754 58.8806 49.8903 58.7529V58.7101C49.4214 57.9859 48.9953 57.347 48.7825 56.7079C48.6974 56.4098 48.7825 56.2396 48.8251 56.0265C48.8251 55.984 48.8677 55.984 48.8677 55.9414L48.6546 55.4302C50.9124 54.1097 52.8292 52.2352 54.2776 49.9352C55.0444 48.7423 55.6407 47.4218 56.0665 46.1013L56.5776 46.1864C56.6205 46.1864 56.6205 46.1439 56.6628 46.1439C56.8332 46.0588 56.9612 45.9311 57.2167 45.9311H57.3019C57.9835 46.0162 58.7075 46.2715 59.5171 46.5699H59.5596C59.6873 46.6125 59.8149 46.6976 59.9429 46.7402C60.1985 46.8681 60.4115 46.9532 60.7096 47.0386C60.7948 47.0386 60.8799 47.0811 60.9652 47.0811C61.0078 47.0811 61.0503 47.0811 61.0929 47.1237C61.2208 47.1662 61.3059 47.1662 61.4339 47.1662C62.0727 47.1662 62.6264 46.7404 62.7969 46.1867C62.7969 45.6755 62.3283 44.9939 61.5615 44.7811V44.7808ZM41.8391 42.6935L39.9648 43.5882L38.0906 42.6935L37.6222 40.6916L38.8999 39.073H40.9872L42.2651 40.6916L41.8393 42.6935H41.8391ZM52.9571 38.2637C53.2875 39.6722 53.3882 41.1249 53.2552 42.5656L46.7378 40.6916C46.1415 40.5214 45.8008 39.9249 45.9285 39.3286C45.971 39.1581 46.0564 38.9876 46.1841 38.86L51.3384 34.2168C52.0624 35.4096 52.6161 36.7727 52.9571 38.2634V38.2637ZM49.2937 31.6611L43.7136 35.6226C43.2449 35.9208 42.6058 35.8354 42.2226 35.3671C42.0949 35.2391 42.0523 35.0687 42.0095 34.8984L41.6263 27.9549C44.5273 28.289 47.2298 29.5953 49.2937 31.6611ZM36.9405 28.1677C37.4092 28.0826 37.835 27.9975 38.3036 27.9124L37.9204 34.7277C37.8778 35.324 37.4092 35.8352 36.7701 35.8352C36.5998 35.8352 36.3868 35.7926 36.2589 35.7075L30.5936 31.6611C32.3402 29.9146 34.5126 28.7217 36.9405 28.168V28.1677ZM28.5489 34.2165L33.6179 38.7318C34.0865 39.1153 34.1291 39.8392 33.7458 40.3079C33.6179 40.4781 33.4477 40.606 33.2346 40.6488L26.6321 42.5656C26.3765 39.669 27.0154 36.7299 28.5489 34.2165ZM27.3986 45.7604L34.1719 44.6101C34.7256 44.5675 35.2368 44.951 35.3645 45.5048C35.407 45.7601 35.407 45.9734 35.3219 46.1864L32.7234 52.448C30.338 50.9145 28.4212 48.5716 27.3989 45.7604H27.3986ZM42.9468 54.2371C41.967 54.4502 40.9872 54.5778 39.9648 54.5778C38.4741 54.5778 37.0257 54.3225 35.6629 53.8964L39.0278 47.8051C39.3685 47.4216 39.9223 47.2514 40.3909 47.5069C40.5898 47.6288 40.7633 47.7878 40.9021 47.9753L44.1819 53.8964C43.7987 54.0241 43.3726 54.1095 42.9465 54.2371H42.9468ZM51.2531 48.3163C50.1882 50.02 48.7823 51.3831 47.1639 52.448L44.4803 46.0157C44.3524 45.5048 44.5654 44.951 45.0766 44.6952C45.2468 44.6101 45.4599 44.5675 45.6729 44.5675L52.4885 45.7178C52.2329 46.6548 51.8068 47.5069 51.2531 48.3163Z" fill="white"/>
</svg>
