<svg width="80" height="80" viewBox="0 0 80 80" fill="none" xmlns="http://www.w3.org/2000/svg">
<path d="M40.0021 46.2239C43.2997 46.2239 45.9729 43.5507 45.9729 40.2531C45.9729 36.9555 43.2997 34.2822 40.0021 34.2822C36.7045 34.2822 34.0312 36.9555 34.0312 40.2531C34.0312 43.5507 36.7045 46.2239 40.0021 46.2239Z" fill="#00D8FF"/>
<path d="M40.001 28.1147C48.016 28.1147 55.4628 29.2651 61.0765 31.1969C67.8405 33.5252 72 37.0552 72 40.2518C72 43.5825 67.5919 47.3335 60.3287 49.7388C54.8373 51.5581 47.6096 52.5092 40.001 52.5092C32.199 52.5092 24.8134 51.6173 19.2589 49.7191C12.2325 47.3177 8 43.5194 8 40.2518C8 37.0809 11.972 33.5785 18.6413 31.2541C24.2767 29.2908 31.907 28.1147 40.001 28.1147V28.1147Z" stroke="#00D8FF" stroke-width="2" stroke-miterlimit="10"/>
<path d="M29.4382 34.2194C33.4418 27.2758 38.1597 21.3997 42.6388 17.5027C48.0354 12.8065 53.1716 10.9675 55.94 12.5638C58.8247 14.2272 59.8725 19.9198 58.3275 27.4159C57.1594 33.0829 54.3732 39.8173 50.5709 46.4097C46.6739 53.1678 42.2106 59.1209 37.7926 62.9844C32.2026 67.8719 26.7961 69.6399 23.9666 68.0081C21.2199 66.4236 20.1702 61.2342 21.4863 54.2945C22.5992 48.4263 25.3932 41.2301 29.4382 34.2194V34.2194Z" stroke="#00D8FF" stroke-width="2" stroke-miterlimit="10"/>
<path d="M29.4462 46.4234C25.4308 39.4858 22.696 32.4652 21.5555 26.6384C20.1822 19.6178 21.153 14.2488 23.9194 12.6486C26.8022 10.9793 32.256 12.9149 37.9782 17.9959C42.3054 21.8376 46.747 27.6151 50.5592 34.2016C54.4681 40.9538 57.3982 47.7928 58.5368 53.5486C59.9792 60.8336 58.811 66.3999 55.9835 68.0357C53.2388 69.6241 48.219 67.9429 42.8638 63.3356C38.3413 59.4425 33.5011 53.4282 29.4462 46.4234V46.4234Z" stroke="#00D8FF" stroke-width="2" stroke-miterlimit="10"/>
</svg>
