<svg width="24" height="24" viewBox="0 0 24 24" fill="none" xmlns="http://www.w3.org/2000/svg">
<rect width="24" height="24" rx="12" fill="white"/>
<path d="M18 18H15.3333V13.5C15.3333 12.7943 14.5414 12.2039 13.8357 12.2039C13.1299 12.2039 12.6667 12.7943 12.6667 13.5V18H10V10H12.6667V11.3333C13.1082 10.619 14.2376 10.1582 15.0167 10.1582C16.6643 10.1582 18 11.5191 18 13.1667V18ZM8.66667 18H6V10H8.66667V18ZM7.33334 6C8.06972 6 8.66667 6.59695 8.66667 7.33333C8.66667 8.06971 8.06972 8.66667 7.33334 8.66667C6.59696 8.66667 6.00001 8.06971 6.00001 7.33333C6.00001 6.59695 6.59696 6 7.33334 6Z" fill="#2867B2"/>
</svg>
