<svg width="600" height="420" viewBox="0 0 600 420" fill="none" xmlns="http://www.w3.org/2000/svg">
<circle cx="349" cy="131" r="5" stroke="#8980A8" stroke-width="2" stroke-linecap="round" stroke-linejoin="round"/>
<circle cx="208" cy="165" r="5" stroke="#8980A8" stroke-width="2" stroke-linecap="round" stroke-linejoin="round"/>
<circle cx="364" cy="223" r="5" stroke="#8980A8" stroke-width="2" stroke-linecap="round" stroke-linejoin="round"/>
<circle cx="346" cy="272" r="5" stroke="#8980A8" stroke-width="2" stroke-linecap="round" stroke-linejoin="round"/>
<circle cx="258" cy="313" r="5" stroke="#8980A8" stroke-width="2" stroke-linecap="round" stroke-linejoin="round"/>
<circle cx="235" cy="208" r="5" stroke="#8980A8" stroke-width="2" stroke-linecap="round" stroke-linejoin="round"/>
<circle cx="299.5" cy="141" r="5" stroke="#8980A8" stroke-width="2" stroke-linecap="round" stroke-linejoin="round"/>
<line x1="171" y1="223" x2="281" y2="223" stroke="#8980A8" stroke-width="2" stroke-linecap="round" stroke-linejoin="round"/>
<line x1="241" y1="209" x2="289" y2="209" stroke="#8980A8" stroke-width="2" stroke-linecap="round" stroke-linejoin="round"/>
<line x1="311" y1="223" x2="359" y2="223" stroke="#8980A8" stroke-width="2" stroke-linecap="round" stroke-linejoin="round"/>
<line x1="327" y1="193" x2="345" y2="193" stroke="#8980A8" stroke-width="2" stroke-linecap="round" stroke-linejoin="round"/>
<line x1="313" y1="279" x2="313" y2="236" stroke="#8980A8" stroke-width="2" stroke-linecap="round" stroke-linejoin="round"/>
<line x1="300" y1="189" x2="300" y2="146" stroke="#8980A8" stroke-width="2" stroke-linecap="round" stroke-linejoin="round"/>
<path d="M288.5 194.5H249.043C244.181 194.5 239.486 192.729 235.836 189.519L212.5 169" stroke="#8980A8" stroke-width="2" stroke-linecap="round" stroke-linejoin="round"/>
<path d="M316 208H348.162C352.948 208 357.574 206.284 361.202 203.164L380 187" stroke="#8980A8" stroke-width="2" stroke-linecap="round" stroke-linejoin="round"/>
<path d="M323.5 199.5V167.338C323.5 162.552 325.216 157.926 328.336 154.298L344.5 135.5" stroke="#8980A8" stroke-width="2" stroke-linecap="round" stroke-linejoin="round"/>
<path d="M287.25 232.75V272.207C287.25 277.069 285.479 281.764 282.269 285.414L261.75 308.75" stroke="#8980A8" stroke-width="2" stroke-linecap="round" stroke-linejoin="round"/>
<path d="M281.144 229.761L266.855 246.79C263.794 250.438 259.532 252.874 254.835 253.66L240.852 256" stroke="#8980A8" stroke-width="2" stroke-linecap="round" stroke-linejoin="round"/>
<path d="M343.443 266.1L335.84 245.21C334.211 240.735 331.039 236.988 326.894 234.643L314.555 227.662" stroke="#8980A8" stroke-width="2" stroke-linecap="round" stroke-linejoin="round"/>
<path d="M412 343H320C308.954 343 300 334.046 300 323V235" stroke="#8980A8" stroke-width="2" stroke-linecap="round" stroke-linejoin="round"/>
<path d="M453 65H333C321.954 65 313 73.9543 313 85V183" stroke="#8980A8" stroke-width="2" stroke-linecap="round" stroke-linejoin="round"/>
<path d="M152 98H266C277.046 98 286 106.954 286 118V216" stroke="#8980A8" stroke-width="2" stroke-linecap="round" stroke-linejoin="round"/>
<rect x="49.5" y="204.5" width="159" height="35" rx="3.5" fill="#140152"/>
<path d="M72.3346 227.334L69.0654 224.064M69.0654 224.064C69.8496 223.28 70.3346 222.197 70.3346 221C70.3346 218.607 68.3945 216.667 66.0013 216.667C63.6081 216.667 61.668 218.607 61.668 221C61.668 223.394 63.6081 225.334 66.0013 225.334C67.1979 225.334 68.2813 224.849 69.0654 224.064Z" stroke="#8980A8" stroke-linecap="round" stroke-linejoin="round"/>
<path d="M89.0381 219.501C88.2536 219.501 87.6335 219.763 87.1777 220.287C86.7253 220.808 86.499 221.522 86.499 222.431C86.499 223.365 86.7171 224.088 87.1533 224.599C87.5928 225.106 88.2178 225.36 89.0283 225.36C89.5264 225.36 90.0944 225.271 90.7324 225.092V225.819C90.2376 226.005 89.6273 226.098 88.9014 226.098C87.8499 226.098 87.0378 225.779 86.4648 225.141C85.8952 224.503 85.6104 223.596 85.6104 222.421C85.6104 221.685 85.7471 221.041 86.0205 220.487C86.2972 219.934 86.6943 219.507 87.2119 219.208C87.7327 218.909 88.3447 218.759 89.0479 218.759C89.7965 218.759 90.4508 218.896 91.0107 219.169L90.6592 219.882C90.1188 219.628 89.5785 219.501 89.0381 219.501ZM96.3672 218.861H97.2607L94.6875 226H93.8672L91.3086 218.861H92.1875L93.8281 223.48C94.0169 224.011 94.1667 224.527 94.2773 225.028C94.3945 224.501 94.5475 223.975 94.7363 223.451L96.3672 218.861ZM102.227 226H98.2471V218.861H102.227V219.599H99.0771V221.898H102.036V222.631H99.0771V225.258H102.227V226ZM103.242 223.69V222.948H105.64V223.69H103.242ZM111.235 226H106.543V225.302L108.423 223.412C108.996 222.833 109.373 222.419 109.556 222.172C109.738 221.924 109.875 221.684 109.966 221.449C110.057 221.215 110.103 220.963 110.103 220.692C110.103 220.312 109.987 220.01 109.756 219.789C109.525 219.564 109.204 219.452 108.794 219.452C108.498 219.452 108.216 219.501 107.949 219.599C107.686 219.696 107.391 219.874 107.065 220.131L106.636 219.579C107.293 219.032 108.009 218.759 108.784 218.759C109.455 218.759 109.98 218.931 110.361 219.276C110.742 219.618 110.933 220.079 110.933 220.658C110.933 221.111 110.806 221.558 110.552 222.001C110.298 222.444 109.823 223.004 109.126 223.681L107.563 225.209V225.248H111.235V226ZM116.997 222.421C116.997 223.655 116.802 224.576 116.411 225.185C116.024 225.793 115.43 226.098 114.629 226.098C113.861 226.098 113.276 225.787 112.876 225.165C112.476 224.54 112.275 223.625 112.275 222.421C112.275 221.177 112.469 220.255 112.856 219.652C113.244 219.05 113.835 218.749 114.629 218.749C115.404 218.749 115.991 219.063 116.392 219.691C116.795 220.32 116.997 221.229 116.997 222.421ZM113.096 222.421C113.096 223.459 113.218 224.216 113.462 224.691C113.706 225.163 114.095 225.399 114.629 225.399C115.169 225.399 115.56 225.16 115.801 224.682C116.045 224.2 116.167 223.446 116.167 222.421C116.167 221.396 116.045 220.645 115.801 220.17C115.56 219.691 115.169 219.452 114.629 219.452C114.095 219.452 113.706 219.688 113.462 220.16C113.218 220.629 113.096 221.382 113.096 222.421ZM120.991 226H120.2V220.912C120.2 220.489 120.213 220.089 120.239 219.711C120.171 219.779 120.094 219.851 120.01 219.926C119.925 220.001 119.538 220.318 118.848 220.878L118.418 220.321L120.308 218.861H120.991V226ZM123.794 222.948C123.794 221.545 124.066 220.497 124.609 219.804C125.156 219.107 125.964 218.759 127.031 218.759C127.399 218.759 127.689 218.79 127.9 218.852V219.55C127.65 219.468 127.363 219.428 127.041 219.428C126.276 219.428 125.692 219.667 125.288 220.146C124.884 220.621 124.663 221.369 124.624 222.392H124.683C125.041 221.832 125.607 221.552 126.382 221.552C127.023 221.552 127.528 221.745 127.896 222.133C128.267 222.52 128.452 223.046 128.452 223.71C128.452 224.452 128.249 225.036 127.842 225.463C127.438 225.886 126.891 226.098 126.201 226.098C125.462 226.098 124.876 225.821 124.443 225.268C124.01 224.711 123.794 223.938 123.794 222.948ZM126.191 225.409C126.654 225.409 127.012 225.264 127.266 224.975C127.523 224.682 127.651 224.26 127.651 223.71C127.651 223.238 127.533 222.867 127.295 222.597C127.057 222.326 126.702 222.191 126.23 222.191C125.938 222.191 125.669 222.252 125.425 222.372C125.181 222.493 124.985 222.659 124.839 222.87C124.696 223.082 124.624 223.301 124.624 223.529C124.624 223.865 124.689 224.177 124.819 224.467C124.95 224.757 125.133 224.986 125.371 225.155C125.612 225.325 125.885 225.409 126.191 225.409ZM129.355 223.69V222.948H131.753V223.69H129.355ZM137.349 226H132.656V225.302L134.536 223.412C135.109 222.833 135.487 222.419 135.669 222.172C135.851 221.924 135.988 221.684 136.079 221.449C136.17 221.215 136.216 220.963 136.216 220.692C136.216 220.312 136.1 220.01 135.869 219.789C135.638 219.564 135.317 219.452 134.907 219.452C134.611 219.452 134.329 219.501 134.062 219.599C133.799 219.696 133.504 219.874 133.179 220.131L132.749 219.579C133.407 219.032 134.123 218.759 134.897 218.759C135.568 218.759 136.094 218.931 136.475 219.276C136.855 219.618 137.046 220.079 137.046 220.658C137.046 221.111 136.919 221.558 136.665 222.001C136.411 222.444 135.936 223.004 135.239 223.681L133.677 225.209V225.248H137.349V226ZM139.282 226L142.241 219.608H138.35V218.861H143.101V219.511L140.181 226H139.282ZM145.005 226L147.964 219.608H144.072V218.861H148.823V219.511L145.903 226H145.005ZM154.517 221.908C154.517 224.701 153.436 226.098 151.274 226.098C150.897 226.098 150.597 226.065 150.376 226V225.302C150.636 225.386 150.933 225.429 151.265 225.429C152.046 225.429 152.635 225.188 153.032 224.706C153.433 224.221 153.651 223.479 153.687 222.479H153.628C153.449 222.75 153.211 222.956 152.915 223.1C152.619 223.24 152.285 223.31 151.914 223.31C151.283 223.31 150.781 223.121 150.41 222.743C150.039 222.366 149.854 221.838 149.854 221.161C149.854 220.419 150.06 219.833 150.474 219.403C150.89 218.974 151.437 218.759 152.114 218.759C152.599 218.759 153.022 218.884 153.384 219.135C153.748 219.382 154.028 219.745 154.224 220.224C154.419 220.699 154.517 221.26 154.517 221.908ZM152.114 219.452C151.649 219.452 151.289 219.602 151.035 219.901C150.781 220.201 150.654 220.618 150.654 221.151C150.654 221.62 150.771 221.99 151.006 222.26C151.24 222.527 151.597 222.66 152.075 222.66C152.371 222.66 152.643 222.6 152.891 222.479C153.141 222.359 153.338 222.195 153.481 221.986C153.625 221.778 153.696 221.56 153.696 221.332C153.696 220.99 153.63 220.674 153.496 220.385C153.363 220.095 153.175 219.867 152.935 219.701C152.697 219.535 152.424 219.452 152.114 219.452Z" fill="white"/>
<rect x="49.5" y="204.5" width="159" height="35" rx="3.5" stroke="#8980A8"/>
<rect x="49" y="252" width="160" height="36" rx="4" fill="#281566"/>
<path d="M155.196 266.861H157.213C158.16 266.861 158.845 267.003 159.269 267.286C159.692 267.569 159.903 268.017 159.903 268.629C159.903 269.052 159.785 269.402 159.547 269.679C159.312 269.952 158.969 270.13 158.517 270.211V270.26C159.601 270.445 160.143 271.015 160.143 271.969C160.143 272.607 159.926 273.105 159.493 273.463C159.063 273.821 158.461 274 157.687 274H155.196V266.861ZM156.026 269.918H157.394C157.979 269.918 158.401 269.827 158.658 269.645C158.915 269.459 159.044 269.148 159.044 268.712C159.044 268.312 158.901 268.023 158.614 267.848C158.328 267.669 157.872 267.579 157.247 267.579H156.026V269.918ZM156.026 270.621V273.292H157.516C158.092 273.292 158.525 273.181 158.814 272.96C159.107 272.735 159.254 272.385 159.254 271.91C159.254 271.467 159.104 271.142 158.805 270.934C158.508 270.725 158.056 270.621 157.447 270.621H156.026ZM161.681 274V266.861H162.511V273.248H165.66V274H161.681ZM173.072 270.421C173.072 271.563 172.783 272.462 172.203 273.116C171.627 273.771 170.825 274.098 169.796 274.098C168.744 274.098 167.932 273.777 167.359 273.136C166.79 272.491 166.505 271.583 166.505 270.411C166.505 269.249 166.791 268.349 167.364 267.711C167.937 267.07 168.751 266.749 169.806 266.749C170.831 266.749 171.632 267.075 172.208 267.726C172.784 268.377 173.072 269.275 173.072 270.421ZM167.384 270.421C167.384 271.388 167.589 272.122 167.999 272.623C168.412 273.121 169.011 273.37 169.796 273.37C170.587 273.37 171.184 273.121 171.588 272.623C171.992 272.125 172.193 271.391 172.193 270.421C172.193 269.461 171.992 268.733 171.588 268.238C171.188 267.74 170.593 267.491 169.806 267.491C169.015 267.491 168.412 267.742 167.999 268.243C167.589 268.741 167.384 269.467 167.384 270.421ZM177.726 267.501C176.941 267.501 176.321 267.763 175.865 268.287C175.413 268.808 175.187 269.522 175.187 270.431C175.187 271.365 175.405 272.088 175.841 272.599C176.28 273.106 176.905 273.36 177.716 273.36C178.214 273.36 178.782 273.271 179.42 273.092V273.819C178.925 274.005 178.315 274.098 177.589 274.098C176.537 274.098 175.725 273.779 175.152 273.141C174.583 272.503 174.298 271.596 174.298 270.421C174.298 269.685 174.435 269.041 174.708 268.487C174.985 267.934 175.382 267.507 175.899 267.208C176.42 266.909 177.032 266.759 177.735 266.759C178.484 266.759 179.138 266.896 179.698 267.169L179.347 267.882C178.806 267.628 178.266 267.501 177.726 267.501ZM186.134 274H185.157L182.555 270.538L181.808 271.202V274H180.978V266.861H181.808V270.401L185.045 266.861H186.026L183.155 269.962L186.134 274ZM191.1 274H187.12V266.861H191.1V267.599H187.95V269.898H190.909V270.631H187.95V273.258H191.1V274ZM198.385 270.362C198.385 271.541 198.064 272.442 197.423 273.067C196.785 273.689 195.865 274 194.664 274H192.687V266.861H194.874C195.984 266.861 196.847 267.169 197.462 267.784C198.077 268.399 198.385 269.259 198.385 270.362ZM197.506 270.392C197.506 269.461 197.271 268.759 196.803 268.287C196.337 267.815 195.644 267.579 194.723 267.579H193.517V273.282H194.527C195.517 273.282 196.261 273.04 196.759 272.555C197.257 272.066 197.506 271.345 197.506 270.392Z" fill="white"/>
<rect x="73" y="267" width="50" height="6" rx="3" fill="white" fill-opacity="0.3"/>
<rect x="59" y="267" width="6" height="6" rx="3" fill="#EB5757"/>
<rect x="40" y="296" width="178" height="40" rx="6" fill="#281566"/>
<path d="M161.386 312.861H163.505C164.488 312.861 165.198 313.005 165.634 313.291C166.073 313.577 166.293 314.03 166.293 314.648C166.293 315.065 166.186 315.412 165.971 315.688C165.756 315.965 165.447 316.139 165.043 316.211V316.26C165.544 316.354 165.912 316.541 166.146 316.821C166.384 317.098 166.503 317.474 166.503 317.949C166.503 318.59 166.278 319.093 165.829 319.458C165.383 319.819 164.761 320 163.964 320H161.386V312.861ZM162.553 315.811H163.676C164.164 315.811 164.521 315.734 164.745 315.581C164.97 315.425 165.082 315.161 165.082 314.79C165.082 314.455 164.96 314.212 164.716 314.062C164.475 313.913 164.091 313.838 163.563 313.838H162.553V315.811ZM162.553 316.758V319.019H163.793C164.281 319.019 164.649 318.926 164.896 318.74C165.147 318.551 165.272 318.255 165.272 317.852C165.272 317.48 165.146 317.205 164.892 317.026C164.638 316.847 164.252 316.758 163.734 316.758H162.553ZM167.987 320V312.861H169.154V318.999H172.177V320H167.987ZM179.745 316.421C179.745 317.583 179.454 318.486 178.871 319.131C178.292 319.775 177.47 320.098 176.405 320.098C175.328 320.098 174.499 319.779 173.92 319.141C173.344 318.499 173.056 317.59 173.056 316.411C173.056 315.233 173.345 314.328 173.925 313.696C174.507 313.065 175.338 312.749 176.415 312.749C177.476 312.749 178.297 313.07 178.876 313.711C179.455 314.352 179.745 315.256 179.745 316.421ZM174.296 316.421C174.296 317.3 174.473 317.967 174.828 318.423C175.183 318.875 175.709 319.102 176.405 319.102C177.099 319.102 177.621 318.877 177.973 318.428C178.327 317.979 178.505 317.31 178.505 316.421C178.505 315.545 178.329 314.881 177.978 314.429C177.629 313.976 177.108 313.75 176.415 313.75C175.715 313.75 175.186 313.976 174.828 314.429C174.473 314.881 174.296 315.545 174.296 316.421ZM184.315 313.76C183.645 313.76 183.118 313.997 182.733 314.473C182.349 314.948 182.157 315.604 182.157 316.44C182.157 317.316 182.341 317.979 182.709 318.428C183.08 318.877 183.616 319.102 184.315 319.102C184.618 319.102 184.911 319.072 185.194 319.014C185.478 318.952 185.772 318.874 186.078 318.779V319.78C185.518 319.992 184.883 320.098 184.174 320.098C183.129 320.098 182.326 319.782 181.767 319.15C181.207 318.516 180.927 317.609 180.927 316.431C180.927 315.688 181.062 315.039 181.332 314.482C181.605 313.926 181.999 313.499 182.514 313.203C183.028 312.907 183.632 312.759 184.325 312.759C185.054 312.759 185.728 312.912 186.347 313.218L185.927 314.189C185.686 314.076 185.43 313.976 185.16 313.892C184.893 313.804 184.612 313.76 184.315 313.76ZM193.065 320H191.713L189.472 316.768L188.783 317.329V320H187.616V312.861H188.783V316.27C189.102 315.879 189.42 315.503 189.735 315.142L191.664 312.861H192.992C191.745 314.326 190.852 315.369 190.312 315.991L193.065 320ZM198.051 320H194.013V312.861H198.051V313.848H195.18V315.791H197.87V316.768H195.18V319.009H198.051V320ZM205.404 316.362C205.404 317.541 205.077 318.442 204.423 319.067C203.769 319.689 202.826 320 201.596 320H199.599V312.861H201.806C202.942 312.861 203.826 313.167 204.457 313.779C205.089 314.391 205.404 315.252 205.404 316.362ZM204.174 316.401C204.174 314.692 203.375 313.838 201.776 313.838H200.766V319.019H201.596C203.314 319.019 204.174 318.146 204.174 316.401Z" fill="white"/>
<rect x="70" y="312" width="66" height="8" rx="4" fill="white" fill-opacity="0.3"/>
<rect x="52" y="312" width="8" height="8" rx="4" fill="#EB5757"/>
<rect x="49" y="344" width="160" height="36" rx="4" fill="#281566"/>
<path d="M157.838 366L156.949 363.729H154.088L153.209 366H152.369L155.191 358.832H155.89L158.697 366H157.838ZM156.69 362.982L155.86 360.771C155.753 360.491 155.642 360.147 155.528 359.74C155.457 360.053 155.354 360.396 155.221 360.771L154.381 362.982H156.69ZM159.679 366V358.861H160.509V365.248H163.658V366H159.679ZM164.874 366V358.861H165.704V365.248H168.854V366H164.874ZM176.266 362.421C176.266 363.563 175.976 364.462 175.396 365.116C174.82 365.771 174.018 366.098 172.989 366.098C171.938 366.098 171.126 365.777 170.553 365.136C169.983 364.491 169.698 363.583 169.698 362.411C169.698 361.249 169.985 360.349 170.558 359.711C171.131 359.07 171.944 358.749 172.999 358.749C174.024 358.749 174.825 359.075 175.401 359.726C175.978 360.377 176.266 361.275 176.266 362.421ZM170.577 362.421C170.577 363.388 170.782 364.122 171.192 364.623C171.606 365.121 172.205 365.37 172.989 365.37C173.78 365.37 174.378 365.121 174.781 364.623C175.185 364.125 175.387 363.391 175.387 362.421C175.387 361.461 175.185 360.733 174.781 360.238C174.381 359.74 173.787 359.491 172.999 359.491C172.208 359.491 171.606 359.742 171.192 360.243C170.782 360.741 170.577 361.467 170.577 362.421ZM184.093 366H183.272L181.832 361.22C181.764 361.008 181.687 360.741 181.603 360.419C181.518 360.097 181.474 359.903 181.471 359.838C181.399 360.268 181.285 360.738 181.129 361.249L179.732 366H178.912L177.013 358.861H177.892L179.02 363.271C179.176 363.889 179.29 364.449 179.361 364.95C179.449 364.354 179.579 363.772 179.752 363.202L181.031 358.861H181.91L183.253 363.241C183.409 363.746 183.541 364.315 183.648 364.95C183.71 364.488 183.827 363.925 184 363.261L185.123 358.861H186.002L184.093 366ZM191.1 366H187.12V358.861H191.1V359.599H187.95V361.898H190.909V362.631H187.95V365.258H191.1V366ZM198.385 362.362C198.385 363.541 198.064 364.442 197.423 365.067C196.785 365.689 195.865 366 194.664 366H192.687V358.861H194.874C195.984 358.861 196.847 359.169 197.462 359.784C198.077 360.399 198.385 361.259 198.385 362.362ZM197.506 362.392C197.506 361.461 197.271 360.759 196.803 360.287C196.337 359.815 195.644 359.579 194.723 359.579H193.517V365.282H194.527C195.517 365.282 196.261 365.04 196.759 364.555C197.257 364.066 197.506 363.345 197.506 362.392Z" fill="white"/>
<rect x="73" y="359" width="45" height="6" rx="3" fill="white" fill-opacity="0.3"/>
<rect x="59" y="359" width="6" height="6" rx="3" fill="#EB5757"/>
<path d="M472 262L472 90" stroke="#8980A8" stroke-width="2" stroke-linecap="round" stroke-linejoin="round"/>
<rect x="428.5" y="255.5" width="88" height="26" rx="13" fill="#140152"/>
<path d="M445.371 272L444.658 270.018H441.929L441.23 272H440L442.671 264.832H443.94L446.611 272H445.371ZM444.351 269.012L443.682 267.068C443.633 266.938 443.564 266.733 443.477 266.453C443.392 266.173 443.333 265.968 443.301 265.838C443.213 266.238 443.084 266.676 442.915 267.151L442.271 269.012H444.351ZM452.28 267.02C452.28 267.765 452.036 268.336 451.548 268.733C451.06 269.131 450.365 269.329 449.463 269.329H448.721V272H447.554V264.861H449.609C450.501 264.861 451.169 265.044 451.611 265.408C452.057 265.773 452.28 266.31 452.28 267.02ZM448.721 268.348H449.341C449.94 268.348 450.379 268.243 450.659 268.035C450.939 267.827 451.079 267.501 451.079 267.059C451.079 266.648 450.954 266.342 450.703 266.141C450.452 265.939 450.062 265.838 449.531 265.838H448.721V268.348ZM458.433 267.02C458.433 267.765 458.188 268.336 457.7 268.733C457.212 269.131 456.517 269.329 455.615 269.329H454.873V272H453.706V264.861H455.762C456.654 264.861 457.321 265.044 457.764 265.408C458.21 265.773 458.433 266.31 458.433 267.02ZM454.873 268.348H455.493C456.092 268.348 456.532 268.243 456.812 268.035C457.091 267.827 457.231 267.501 457.231 267.059C457.231 266.648 457.106 266.342 456.855 266.141C456.605 265.939 456.214 265.838 455.684 265.838H454.873V268.348ZM459.858 272V264.861H461.025V270.999H464.048V272H459.858ZM465.278 272V264.861H466.445V272H465.278ZM471.372 265.76C470.701 265.76 470.174 265.997 469.79 266.473C469.406 266.948 469.214 267.604 469.214 268.44C469.214 269.316 469.398 269.979 469.766 270.428C470.137 270.877 470.672 271.102 471.372 271.102C471.675 271.102 471.968 271.072 472.251 271.014C472.534 270.952 472.829 270.874 473.135 270.779V271.78C472.575 271.992 471.94 272.098 471.23 272.098C470.186 272.098 469.383 271.782 468.823 271.15C468.263 270.516 467.983 269.609 467.983 268.431C467.983 267.688 468.118 267.039 468.389 266.482C468.662 265.926 469.056 265.499 469.57 265.203C470.085 264.907 470.688 264.759 471.382 264.759C472.111 264.759 472.785 264.912 473.403 265.218L472.983 266.189C472.743 266.076 472.487 265.976 472.217 265.892C471.95 265.804 471.668 265.76 471.372 265.76ZM479.102 272L478.389 270.018H475.659L474.961 272H473.73L476.401 264.832H477.671L480.342 272H479.102ZM478.081 269.012L477.412 267.068C477.363 266.938 477.295 266.733 477.207 266.453C477.122 266.173 477.064 265.968 477.031 265.838C476.943 266.238 476.815 266.676 476.646 267.151L476.001 269.012H478.081ZM483.75 272H482.583V265.862H480.483V264.861H485.85V265.862H483.75V272ZM486.948 272V264.861H488.115V272H486.948ZM496.343 268.421C496.343 269.583 496.051 270.486 495.469 271.131C494.889 271.775 494.067 272.098 493.003 272.098C491.925 272.098 491.097 271.779 490.518 271.141C489.941 270.499 489.653 269.59 489.653 268.411C489.653 267.233 489.943 266.328 490.522 265.696C491.105 265.065 491.935 264.749 493.013 264.749C494.074 264.749 494.894 265.07 495.474 265.711C496.053 266.352 496.343 267.256 496.343 268.421ZM490.894 268.421C490.894 269.3 491.071 269.967 491.426 270.423C491.781 270.875 492.306 271.102 493.003 271.102C493.696 271.102 494.219 270.877 494.57 270.428C494.925 269.979 495.103 269.31 495.103 268.421C495.103 267.545 494.927 266.881 494.575 266.429C494.227 265.976 493.706 265.75 493.013 265.75C492.313 265.75 491.784 265.976 491.426 266.429C491.071 266.881 490.894 267.545 490.894 268.421ZM503.823 272H502.393L498.882 266.312H498.843L498.867 266.629C498.913 267.234 498.936 267.788 498.936 268.289V272H497.876V264.861H499.292L502.793 270.521H502.822C502.816 270.446 502.803 270.174 502.783 269.705C502.764 269.233 502.754 268.865 502.754 268.602V264.861H503.823V272Z" fill="white"/>
<rect x="428.5" y="255.5" width="88" height="26" rx="13" stroke="#8980A8"/>
<rect x="423.5" y="208.5" width="97" height="26" rx="13" fill="#140152"/>
<path d="M439.98 225H435.942V217.861H439.98V218.848H437.109V220.791H439.8V221.768H437.109V224.009H439.98V225ZM447.476 225H446.045L442.534 219.312H442.495L442.52 219.629C442.565 220.234 442.588 220.788 442.588 221.289V225H441.528V217.861H442.944L446.445 223.521H446.475C446.468 223.446 446.455 223.174 446.436 222.705C446.416 222.233 446.406 221.865 446.406 221.602V217.861H447.476V225ZM453.428 217.861H454.639L452.139 225H450.908L448.418 217.861H449.619L451.108 222.3C451.187 222.511 451.27 222.785 451.357 223.12C451.445 223.452 451.502 223.7 451.528 223.862C451.571 223.615 451.636 223.328 451.724 223.003C451.812 222.677 451.883 222.437 451.938 222.28L453.428 217.861ZM455.581 225V217.861H456.748V225H455.581ZM459.805 221.182H460.615C461.159 221.182 461.553 221.081 461.797 220.879C462.041 220.677 462.163 220.378 462.163 219.98C462.163 219.577 462.031 219.287 461.768 219.111C461.504 218.936 461.107 218.848 460.576 218.848H459.805V221.182ZM459.805 222.148V225H458.638V217.861H460.654C461.576 217.861 462.257 218.034 462.7 218.379C463.143 218.724 463.364 219.245 463.364 219.941C463.364 220.83 462.902 221.463 461.978 221.841L463.994 225H462.666L460.957 222.148H459.805ZM471.372 221.421C471.372 222.583 471.081 223.486 470.498 224.131C469.919 224.775 469.097 225.098 468.032 225.098C466.955 225.098 466.126 224.779 465.547 224.141C464.971 223.499 464.683 222.59 464.683 221.411C464.683 220.233 464.972 219.328 465.552 218.696C466.134 218.065 466.965 217.749 468.042 217.749C469.103 217.749 469.924 218.07 470.503 218.711C471.082 219.352 471.372 220.256 471.372 221.421ZM465.923 221.421C465.923 222.3 466.1 222.967 466.455 223.423C466.81 223.875 467.336 224.102 468.032 224.102C468.726 224.102 469.248 223.877 469.6 223.428C469.954 222.979 470.132 222.31 470.132 221.421C470.132 220.545 469.956 219.881 469.604 219.429C469.256 218.976 468.735 218.75 468.042 218.75C467.342 218.75 466.813 218.976 466.455 219.429C466.1 219.881 465.923 220.545 465.923 221.421ZM478.853 225H477.422L473.911 219.312H473.872L473.896 219.629C473.942 220.234 473.965 220.788 473.965 221.289V225H472.905V217.861H474.321L477.822 223.521H477.852C477.845 223.446 477.832 223.174 477.812 222.705C477.793 222.233 477.783 221.865 477.783 221.602V217.861H478.853V225ZM483.823 225L481.753 219.038H481.714C481.769 219.924 481.797 220.754 481.797 221.528V225H480.737V217.861H482.383L484.365 223.54H484.395L486.436 217.861H488.086V225H486.963V221.47C486.963 221.115 486.971 220.653 486.987 220.083C487.007 219.513 487.023 219.168 487.036 219.048H486.997L484.854 225H483.823ZM494.004 225H489.966V217.861H494.004V218.848H491.133V220.791H493.823V221.768H491.133V224.009H494.004V225ZM501.499 225H500.068L496.558 219.312H496.519L496.543 219.629C496.589 220.234 496.611 220.788 496.611 221.289V225H495.552V217.861H496.968L500.469 223.521H500.498C500.492 223.446 500.479 223.174 500.459 222.705C500.439 222.233 500.43 221.865 500.43 221.602V217.861H501.499V225ZM505.85 225H504.683V218.862H502.583V217.861H507.949V218.862H505.85V225Z" fill="white"/>
<rect x="423.5" y="208.5" width="97" height="26" rx="13" stroke="#8980A8"/>
<rect x="439.5" y="161.5" width="66" height="26" rx="13" fill="#140152"/>
<path d="M454.979 171.76C454.309 171.76 453.782 171.997 453.397 172.473C453.013 172.948 452.821 173.604 452.821 174.44C452.821 175.316 453.005 175.979 453.373 176.428C453.744 176.877 454.28 177.102 454.979 177.102C455.282 177.102 455.575 177.072 455.858 177.014C456.142 176.952 456.436 176.874 456.742 176.779V177.78C456.182 177.992 455.548 178.098 454.838 178.098C453.793 178.098 452.991 177.782 452.431 177.15C451.871 176.516 451.591 175.609 451.591 174.431C451.591 173.688 451.726 173.039 451.996 172.482C452.27 171.926 452.663 171.499 453.178 171.203C453.692 170.907 454.296 170.759 454.989 170.759C455.718 170.759 456.392 170.912 457.011 171.218L456.591 172.189C456.35 172.076 456.094 171.976 455.824 171.892C455.557 171.804 455.276 171.76 454.979 171.76ZM458.28 178V170.861H459.447V176.999H462.47V178H458.28ZM469.296 170.861V175.48C469.296 176.008 469.182 176.47 468.954 176.867C468.729 177.261 468.402 177.565 467.973 177.78C467.546 177.992 467.035 178.098 466.439 178.098C465.554 178.098 464.866 177.863 464.374 177.395C463.882 176.926 463.637 176.281 463.637 175.461V170.861H464.809V175.378C464.809 175.967 464.945 176.402 465.219 176.682C465.492 176.962 465.912 177.102 466.479 177.102C467.579 177.102 468.129 176.524 468.129 175.368V170.861H469.296ZM475.238 176.062C475.238 176.696 475.009 177.194 474.55 177.556C474.091 177.917 473.458 178.098 472.65 178.098C471.843 178.098 471.182 177.972 470.668 177.722V176.618C470.993 176.771 471.339 176.892 471.703 176.979C472.071 177.067 472.413 177.111 472.729 177.111C473.191 177.111 473.531 177.023 473.749 176.848C473.97 176.672 474.081 176.436 474.081 176.14C474.081 175.873 473.98 175.646 473.778 175.461C473.576 175.275 473.16 175.056 472.528 174.802C471.877 174.538 471.418 174.237 471.151 173.898C470.884 173.56 470.751 173.153 470.751 172.678C470.751 172.082 470.963 171.613 471.386 171.271C471.809 170.93 472.377 170.759 473.09 170.759C473.773 170.759 474.454 170.909 475.131 171.208L474.76 172.16C474.125 171.893 473.559 171.76 473.061 171.76C472.683 171.76 472.396 171.843 472.201 172.009C472.006 172.172 471.908 172.388 471.908 172.658C471.908 172.844 471.947 173.003 472.025 173.137C472.104 173.267 472.232 173.391 472.411 173.508C472.59 173.625 472.912 173.78 473.378 173.972C473.902 174.19 474.286 174.393 474.53 174.582C474.774 174.771 474.953 174.984 475.067 175.222C475.181 175.459 475.238 175.739 475.238 176.062ZM479.086 178H477.919V171.862H475.819V170.861H481.186V171.862H479.086V178ZM486.322 178H482.284V170.861H486.322V171.848H483.451V173.791H486.142V174.768H483.451V177.009H486.322V178ZM489.037 174.182H489.848C490.391 174.182 490.785 174.081 491.029 173.879C491.273 173.677 491.396 173.378 491.396 172.98C491.396 172.577 491.264 172.287 491 172.111C490.736 171.936 490.339 171.848 489.809 171.848H489.037V174.182ZM489.037 175.148V178H487.87V170.861H489.887C490.808 170.861 491.49 171.034 491.933 171.379C492.375 171.724 492.597 172.245 492.597 172.941C492.597 173.83 492.134 174.463 491.21 174.841L493.227 178H491.898L490.189 175.148H489.037Z" fill="white"/>
<rect x="439.5" y="161.5" width="66" height="26" rx="13" stroke="#8980A8"/>
<rect x="440.5" y="114.5" width="63" height="26" rx="13" fill="#140152"/>
<path d="M455.862 127.128H458.489V130.712C458.06 130.852 457.646 130.951 457.249 131.01C456.855 131.068 456.429 131.098 455.97 131.098C454.889 131.098 454.056 130.779 453.47 130.141C452.884 129.499 452.591 128.596 452.591 127.431C452.591 126.282 452.921 125.383 453.582 124.735C454.243 124.084 455.153 123.759 456.312 123.759C457.057 123.759 457.763 123.902 458.431 124.188L458.021 125.16C457.441 124.893 456.862 124.76 456.282 124.76C455.521 124.76 454.918 124.999 454.476 125.478C454.033 125.956 453.812 126.61 453.812 127.44C453.812 128.313 454.01 128.977 454.407 129.433C454.808 129.885 455.382 130.111 456.131 130.111C456.508 130.111 456.912 130.064 457.342 129.97V128.129H455.862V127.128ZM460.208 131V123.861H461.375V129.999H464.397V131H460.208ZM471.966 127.421C471.966 128.583 471.674 129.486 471.092 130.131C470.512 130.775 469.69 131.098 468.626 131.098C467.549 131.098 466.72 130.779 466.141 130.141C465.564 129.499 465.276 128.59 465.276 127.411C465.276 126.233 465.566 125.328 466.146 124.696C466.728 124.065 467.558 123.749 468.636 123.749C469.697 123.749 470.517 124.07 471.097 124.711C471.676 125.352 471.966 126.256 471.966 127.421ZM466.517 127.421C466.517 128.3 466.694 128.967 467.049 129.423C467.404 129.875 467.929 130.102 468.626 130.102C469.319 130.102 469.842 129.877 470.193 129.428C470.548 128.979 470.726 128.31 470.726 127.421C470.726 126.545 470.55 125.881 470.198 125.429C469.85 124.976 469.329 124.75 468.636 124.75C467.936 124.75 467.407 124.976 467.049 125.429C466.694 125.881 466.517 126.545 466.517 127.421ZM473.499 123.861H475.618C476.601 123.861 477.311 124.005 477.747 124.291C478.187 124.577 478.406 125.03 478.406 125.648C478.406 126.065 478.299 126.412 478.084 126.688C477.869 126.965 477.56 127.139 477.156 127.211V127.26C477.658 127.354 478.025 127.541 478.26 127.821C478.497 128.098 478.616 128.474 478.616 128.949C478.616 129.59 478.392 130.093 477.942 130.458C477.496 130.819 476.875 131 476.077 131H473.499V123.861ZM474.666 126.811H475.789C476.277 126.811 476.634 126.734 476.858 126.581C477.083 126.425 477.195 126.161 477.195 125.79C477.195 125.455 477.073 125.212 476.829 125.062C476.588 124.913 476.204 124.838 475.677 124.838H474.666V126.811ZM474.666 127.758V130.019H475.906C476.395 130.019 476.762 129.926 477.01 129.74C477.26 129.551 477.386 129.255 477.386 128.852C477.386 128.48 477.259 128.205 477.005 128.026C476.751 127.847 476.365 127.758 475.848 127.758H474.666ZM484.529 131L483.816 129.018H481.087L480.389 131H479.158L481.829 123.832H483.099L485.77 131H484.529ZM483.509 128.012L482.84 126.068C482.791 125.938 482.723 125.733 482.635 125.453C482.55 125.173 482.492 124.968 482.459 124.838C482.371 125.238 482.243 125.676 482.073 126.151L481.429 128.012H483.509ZM486.712 131V123.861H487.879V129.999H490.901V131H486.712Z" fill="white"/>
<rect x="440.5" y="114.5" width="63" height="26" rx="13" stroke="#8980A8"/>
<path d="M300.012 172.129L270.168 184.899C270.168 184.899 270.168 206.273 270.168 214.647C270.168 223.02 271.521 233.751 300.012 248.074C328.503 233.751 329.856 223.02 329.856 214.647C329.856 206.273 329.856 184.899 329.856 184.899L300.012 172.129Z" fill="#3E3EAD"/>
<path d="M300.012 173.217L328.856 185.559V185.572V185.596V185.621V185.646V185.672V185.698V185.724V185.751V185.778V185.806V185.834V185.862V185.891V185.92V185.95V185.979V186.01V186.04V186.071V186.103V186.135V186.167V186.199V186.232V186.266V186.299V186.333V186.368V186.403V186.438V186.473V186.509V186.545V186.582V186.619V186.656V186.694V186.732V186.77V186.809V186.848V186.887V186.927V186.967V187.007V187.048V187.089V187.13V187.172V187.214V187.257V187.299V187.342V187.386V187.429V187.473V187.518V187.563V187.608V187.653V187.698V187.744V187.791V187.837V187.884V187.931V187.979V188.027V188.075V188.123V188.172V188.221V188.27V188.32V188.37V188.42V188.47V188.521V188.572V188.623V188.675V188.727V188.779V188.831V188.884V188.937V188.991V189.044V189.098V189.152V189.206V189.261V189.316V189.371V189.427V189.482V189.538V189.595V189.651V189.708V189.765V189.822V189.879V189.937V189.995V190.053V190.112V190.171V190.23V190.289V190.348V190.408V190.468V190.528V190.588V190.649V190.71V190.771V190.832V190.894V190.956V191.018V191.08V191.142V191.205V191.268V191.331V191.394V191.457V191.521V191.585V191.649V191.713V191.778V191.843V191.908V191.973V192.038V192.103V192.169V192.235V192.301V192.367V192.434V192.501V192.567V192.634V192.702V192.769V192.837V192.904V192.972V193.04V193.109V193.177V193.246V193.314V193.383V193.452V193.522V193.591V193.661V193.73V193.8V193.87V193.941V194.011V194.081V194.152V194.223V194.294V194.365V194.436V194.508V194.579V194.651V194.723V194.795V194.867V194.939V195.011V195.084V195.156V195.229V195.302V195.375V195.448V195.521V195.594V195.668V195.741V195.815V195.889V195.963V196.037V196.111V196.185V196.26V196.334V196.409V196.483V196.558V196.633V196.708V196.783V196.858V196.933V197.008V197.084V197.159V197.235V197.31V197.386V197.462V197.538V197.614V197.69V197.766V197.842V197.918V197.995V198.071V198.148V198.224V198.301V198.377V198.454V198.531V198.608V198.685V198.762V198.839V198.916V198.993V199.07V199.147V199.224V199.301V199.379V199.456V199.534V199.611V199.688V199.766V199.844V199.921V199.999V200.076V200.154V200.232V200.309V200.387V200.465V200.543V200.62V200.698V200.776V200.854V200.932V201.009V201.087V201.165V201.243V201.321V201.399V201.477V201.555V201.632V201.71V201.788V201.866V201.944V202.022V202.1V202.177V202.255V202.333V202.411V202.488V202.566V202.644V202.721V202.799V202.877V202.954V203.032V203.109V203.187V203.264V203.342V203.419V203.497V203.574V203.651V203.728V203.806V203.883V203.96V204.037V204.114V204.191V204.268V204.344V204.421V204.498V204.574V204.651V204.728V204.804V204.88V204.957V205.033V205.109V205.185V205.261V205.337V205.413V205.489V205.564V205.64V205.716V205.791V205.866V205.942V206.017V206.092V206.167V206.242V206.317V206.391V206.466V206.541V206.615V206.689V206.763V206.838V206.912V206.985V207.059V207.133V207.206V207.28V207.353V207.426V207.499V207.572V207.645V207.718V207.79V207.863V207.935V208.007V208.079V208.151V208.223V208.295V208.366V208.437V208.509V208.58V208.651V208.721V208.792V208.862V208.933V209.003V209.073V209.143V209.213V209.282V209.351V209.421V209.49V209.559V209.627V209.696V209.764V209.832V209.901V209.968V210.036V210.104V210.171V210.238V210.305V210.372V210.438V210.505V210.571V210.637V210.703V210.769V210.834V210.899V210.964V211.029V211.094V211.158V211.223V211.287V211.35V211.414V211.478V211.541V211.604V211.667V211.729V211.791V211.854V211.915V211.977V212.039V212.1V212.161V212.222V212.282V212.343V212.403V212.462V212.522V212.581V212.641V212.7V212.758V212.817V212.875V212.933V212.99V213.048V213.105V213.162V213.219V213.275V213.331V213.387V213.443V213.498V213.553V213.608V213.663V213.717V213.771V213.825V213.878V213.931V213.984V214.037V214.089V214.141V214.193V214.245V214.296V214.347V214.398V214.448V214.498V214.548V214.597V214.647C328.856 218.743 328.529 223.276 324.801 228.552C321.078 233.823 313.898 239.921 300.012 246.954C286.126 239.921 278.946 233.823 275.223 228.552C271.495 223.276 271.168 218.743 271.168 214.647V214.597V214.548V214.498V214.448V214.398V214.347V214.296V214.245V214.193V214.141V214.089V214.037V213.984V213.931V213.878V213.825V213.771V213.717V213.663V213.608V213.553V213.498V213.443V213.387V213.331V213.275V213.219V213.162V213.105V213.048V212.99V212.933V212.875V212.817V212.758V212.7V212.641V212.581V212.522V212.462V212.403V212.343V212.282V212.222V212.161V212.1V212.039V211.977V211.915V211.854V211.791V211.729V211.667V211.604V211.541V211.478V211.414V211.35V211.287V211.223V211.158V211.094V211.029V210.964V210.899V210.834V210.769V210.703V210.637V210.571V210.505V210.438V210.372V210.305V210.238V210.171V210.104V210.036V209.968V209.901V209.832V209.764V209.696V209.627V209.559V209.49V209.421V209.351V209.282V209.213V209.143V209.073V209.003V208.933V208.862V208.792V208.721V208.651V208.58V208.509V208.437V208.366V208.295V208.223V208.151V208.079V208.007V207.935V207.863V207.79V207.718V207.645V207.572V207.499V207.426V207.353V207.28V207.206V207.133V207.059V206.985V206.912V206.838V206.763V206.689V206.615V206.541V206.466V206.391V206.317V206.242V206.167V206.092V206.017V205.942V205.866V205.791V205.716V205.64V205.564V205.489V205.413V205.337V205.261V205.185V205.109V205.033V204.957V204.88V204.804V204.728V204.651V204.574V204.498V204.421V204.344V204.268V204.191V204.114V204.037V203.96V203.883V203.806V203.728V203.651V203.574V203.497V203.419V203.342V203.264V203.187V203.109V203.032V202.954V202.877V202.799V202.721V202.644V202.566V202.488V202.411V202.333V202.255V202.177V202.1V202.022V201.944V201.866V201.788V201.71V201.632V201.555V201.477V201.399V201.321V201.243V201.165V201.087V201.009V200.932V200.854V200.776V200.698V200.62V200.543V200.465V200.387V200.309V200.232V200.154V200.076V199.999V199.921V199.844V199.766V199.688V199.611V199.534V199.456V199.379V199.301V199.224V199.147V199.07V198.993V198.916V198.839V198.762V198.685V198.608V198.531V198.454V198.377V198.301V198.224V198.148V198.071V197.995V197.918V197.842V197.766V197.69V197.614V197.538V197.462V197.386V197.31V197.235V197.159V197.084V197.008V196.933V196.858V196.783V196.708V196.633V196.558V196.483V196.409V196.334V196.26V196.185V196.111V196.037V195.963V195.889V195.815V195.741V195.668V195.594V195.521V195.448V195.375V195.302V195.229V195.156V195.084V195.011V194.939V194.867V194.795V194.723V194.651V194.579V194.508V194.436V194.365V194.294V194.223V194.152V194.081V194.011V193.941V193.87V193.8V193.73V193.661V193.591V193.522V193.452V193.383V193.314V193.246V193.177V193.109V193.04V192.972V192.904V192.837V192.769V192.702V192.634V192.567V192.501V192.434V192.367V192.301V192.235V192.169V192.103V192.038V191.973V191.908V191.843V191.778V191.713V191.649V191.585V191.521V191.457V191.394V191.331V191.268V191.205V191.142V191.08V191.018V190.956V190.894V190.832V190.771V190.71V190.649V190.588V190.528V190.468V190.408V190.348V190.289V190.23V190.171V190.112V190.053V189.995V189.937V189.879V189.822V189.765V189.708V189.651V189.595V189.538V189.482V189.427V189.371V189.316V189.261V189.206V189.152V189.098V189.044V188.991V188.937V188.884V188.831V188.779V188.727V188.675V188.623V188.572V188.521V188.47V188.42V188.37V188.32V188.27V188.221V188.172V188.123V188.075V188.027V187.979V187.931V187.884V187.837V187.791V187.744V187.698V187.653V187.608V187.563V187.518V187.473V187.429V187.386V187.342V187.299V187.257V187.214V187.172V187.13V187.089V187.048V187.007V186.967V186.927V186.887V186.848V186.809V186.77V186.732V186.694V186.656V186.619V186.582V186.545V186.509V186.473V186.438V186.403V186.368V186.333V186.299V186.266V186.232V186.199V186.167V186.135V186.103V186.071V186.04V186.01V185.979V185.95V185.92V185.891V185.862V185.834V185.806V185.778V185.751V185.724V185.698V185.672V185.646V185.621V185.596V185.572V185.559L300.012 173.217Z" stroke="white" stroke-opacity="0.2" stroke-width="2" stroke-linejoin="round"/>
<rect x="113" y="69" width="58" height="58" rx="8" fill="#281566"/>
<path d="M152.25 101.25H148.5C148.086 101.25 147.75 100.914 147.75 100.5C147.75 100.086 148.086 99.75 148.5 99.75H152.25C152.664 99.75 153 100.086 153 100.5C153 100.914 152.664 101.25 152.25 101.25Z" fill="white"/>
<path d="M135.5 101.25H131.75C131.336 101.25 131 100.914 131 100.5C131 100.086 131.336 99.75 131.75 99.75H135.5C135.914 99.75 136.25 100.086 136.25 100.5C136.25 100.914 135.914 101.25 135.5 101.25Z" fill="white"/>
<path d="M132.751 108C132.522 108 132.296 107.896 132.148 107.697C131.901 107.364 131.97 106.895 132.303 106.648L135.533 104.248C135.865 104.002 136.335 104.07 136.582 104.403C136.829 104.736 136.76 105.205 136.427 105.452L133.197 107.852C133.064 107.952 132.907 108 132.751 108Z" fill="white"/>
<path d="M148.021 96.9006C147.792 96.9006 147.566 96.7966 147.418 96.5976C147.171 96.2646 147.24 95.7956 147.573 95.5486L150.803 93.1486C151.135 92.9026 151.605 92.9706 151.852 93.3036C152.099 93.6366 152.03 94.1056 151.697 94.3526L148.467 96.7526C148.333 96.8526 148.176 96.9006 148.021 96.9006Z" fill="white"/>
<path d="M151.25 108C151.094 108 150.937 107.952 150.803 107.852L147.573 105.452C147.24 105.205 147.171 104.735 147.418 104.403C147.666 104.07 148.136 104.003 148.467 104.248L151.697 106.648C152.03 106.895 152.099 107.365 151.852 107.697C151.705 107.896 151.479 108 151.25 108Z" fill="white"/>
<path d="M135.979 96.9002C135.823 96.9002 135.666 96.8522 135.532 96.7522L132.302 94.3522C131.97 94.1052 131.901 93.6352 132.148 93.3032C132.395 92.9702 132.866 92.9032 133.197 93.1482L136.427 95.5482C136.76 95.7952 136.829 96.2652 136.582 96.5972C136.435 96.7952 136.208 96.9002 135.979 96.9002Z" fill="white"/>
<path d="M140.273 90.2498C139.859 90.2498 139.523 89.9138 139.523 89.4998V87.8408C139.523 87.4268 139.859 87.0908 140.273 87.0908C140.687 87.0908 141.023 87.4268 141.023 87.8408V89.4998C141.023 89.9138 140.687 90.2498 140.273 90.2498Z" fill="white"/>
<path d="M143.773 90.2498C143.359 90.2498 143.023 89.9138 143.023 89.4998V87.8408C143.023 87.4268 143.359 87.0908 143.773 87.0908C144.187 87.0908 144.523 87.4268 144.523 87.8408V89.4998C144.523 89.9138 144.187 90.2498 143.773 90.2498Z" fill="white"/>
<path d="M145.366 92.8918H138.634C138.547 92.6739 138.5 92.4318 138.5 92.1818C138.5 91.6618 138.7 91.1815 139.062 90.8189C139.425 90.4564 139.905 90.2568 140.425 90.2568H143.575C144.636 90.2568 145.5 91.1211 145.5 92.1818C145.5 92.4312 145.453 92.6736 145.366 92.8918Z" stroke="white" stroke-width="2"/>
<path d="M143.126 108.05H140.876C138.078 108.05 135.801 105.773 135.801 102.975V98.0252C135.801 95.2275 138.078 92.9502 140.876 92.9502H143.126C145.923 92.9502 148.201 95.2275 148.201 98.0252V102.975C148.201 105.773 145.923 108.05 143.126 108.05Z" stroke="white" stroke-width="2"/>
<rect x="121" y="77" width="42" height="19" fill="url(#paint0_linear)"/>
<path d="M127 77H124C122.343 77 121 78.3431 121 80V83" stroke="white" stroke-width="2" stroke-linecap="round" stroke-linejoin="round"/>
<path d="M127 119H124C122.343 119 121 117.657 121 116V113" stroke="white" stroke-width="2" stroke-linecap="round" stroke-linejoin="round"/>
<path d="M157 119H160C161.657 119 163 117.657 163 116V113" stroke="white" stroke-width="2" stroke-linecap="round" stroke-linejoin="round"/>
<path d="M157 77H160C161.657 77 163 78.3431 163 80V83" stroke="white" stroke-width="2" stroke-linecap="round" stroke-linejoin="round"/>
<line x1="120" y1="95" x2="164" y2="95" stroke="#5CFFF2" stroke-width="2" stroke-linecap="round"/>
<rect x="412" y="319" width="50" height="50" rx="8" fill="#281566"/>
<path d="M437.001 356L426.242 350.62V337.379L437.001 342.758V356Z" stroke="white" stroke-width="2" stroke-linecap="round" stroke-linejoin="round"/>
<path d="M437 356L447.759 350.62V337.379L437 342.758V356Z" stroke="white" stroke-width="2" stroke-linecap="round" stroke-linejoin="round"/>
<path d="M426.242 337.379L436.587 332L447.759 337.379L437.001 342.759L426.242 337.379Z" stroke="white" stroke-width="2" stroke-linecap="round" stroke-linejoin="round"/>
<rect x="447" y="40" width="50" height="50" rx="8" fill="#281566"/>
<path d="M469.907 56.7211C470.356 54.4237 473.643 54.4237 474.091 56.7211C474.363 58.119 475.904 58.8611 477.167 58.2027C479.243 57.1208 481.292 59.6905 479.776 61.4733C478.853 62.5582 479.233 64.2256 480.536 64.8026C482.676 65.7508 481.944 68.9552 479.605 68.881C478.181 68.8358 477.115 70.173 477.476 71.5508C478.069 73.8151 475.107 75.2413 473.707 73.3659C472.854 72.2247 471.144 72.2247 470.292 73.3659C468.891 75.2413 465.93 73.8151 466.523 71.5508C466.883 70.173 465.817 68.8358 464.394 68.881C462.054 68.9552 461.323 65.7508 463.463 64.8026C464.765 64.2256 465.145 62.5582 464.223 61.4733C462.706 59.6905 464.755 57.1208 466.831 58.2027C468.094 58.8611 469.635 58.119 469.907 56.7211Z" stroke="white" stroke-width="2"/>
<path d="M474.999 64.9996C474.999 66.6565 473.656 67.9996 471.999 67.9996C470.342 67.9996 468.999 66.6565 468.999 64.9996C468.999 63.3428 470.342 61.9996 471.999 61.9996C473.656 61.9996 474.999 63.3428 474.999 64.9996Z" stroke="white" stroke-width="2"/>
<path d="M472 235L476.33 242.5H467.67L472 235Z" fill="#140152" stroke="#8980A8" stroke-width="2" stroke-linecap="round" stroke-linejoin="round"/>
<path d="M472 188L476.33 195.5H467.67L472 188Z" fill="#140152" stroke="#8980A8" stroke-width="2" stroke-linecap="round" stroke-linejoin="round"/>
<path d="M472 141L476.33 148.5H467.67L472 141Z" fill="#140152" stroke="#8980A8" stroke-width="2" stroke-linecap="round" stroke-linejoin="round"/>
<g clip-path="url(#clip0)" filter="url(#filter0_d)">
<path d="M311.741 204.682C312.287 201.988 310.375 199.455 307.709 199.169C306.315 195.879 301.817 195.327 299.695 198.288C297.574 195.328 293.076 195.877 291.681 199.169C289.013 199.456 287.104 201.99 287.649 204.682C285.661 206.347 285.456 209.315 287.127 211.24C284.359 214.968 286.99 220.402 291.765 220.402C293.29 223.583 297.644 223.96 299.695 221.098C301.747 223.963 306.101 223.58 307.624 220.402C312.388 220.412 315.032 214.969 312.263 211.24C313.936 209.313 313.726 206.345 311.741 204.682ZM295.827 221.281C293.414 221.281 292.022 218.446 293.594 216.543C293.898 216.176 293.846 215.632 293.479 215.328C293.111 215.024 292.567 215.076 292.263 215.443C291.537 216.322 291.151 217.459 291.212 218.625C287.938 218.277 286.48 214.362 288.644 211.949C288.668 211.976 289.48 210.816 291.212 210.631C291.183 211.19 291.256 211.756 291.435 212.304C291.554 212.668 291.892 212.899 292.256 212.899C292.841 212.899 293.259 212.327 293.077 211.767C292.581 210.25 293.411 208.612 294.929 208.117C295.382 207.968 295.629 207.481 295.481 207.028C295.333 206.574 294.846 206.327 294.392 206.475C294.194 206.54 294.004 206.618 293.819 206.706C293.475 205.825 293.713 204.785 294.48 204.149C294.847 203.845 294.898 203.301 294.594 202.933C294.289 202.566 293.745 202.515 293.378 202.82C291.883 204.059 291.537 206.142 292.406 207.761C291.824 208.404 291.688 208.881 291.64 208.881C290.372 208.881 289.2 209.294 288.249 209.991C287.189 208.665 287.491 206.666 288.986 205.733C289.331 205.518 289.479 205.092 289.342 204.71C288.708 202.934 289.904 200.845 292.195 200.845C292.585 200.845 292.928 200.582 293.029 200.202C293.364 198.936 294.515 198.051 295.827 198.051C297.423 198.051 298.722 199.35 298.722 200.946V218.386C298.722 219.982 297.423 221.281 295.827 221.281ZM310.922 209.992C309.892 209.236 308.643 208.861 307.514 208.882C307.318 208.472 307.077 208.106 306.765 207.761C307.633 206.143 307.289 204.06 305.793 202.82C305.425 202.515 304.881 202.566 304.577 202.933C304.273 203.301 304.324 203.845 304.691 204.149C305.458 204.785 305.695 205.825 305.351 206.706C305.167 206.618 304.976 206.54 304.778 206.475C304.325 206.327 303.838 206.574 303.689 207.028C303.541 207.481 303.789 207.968 304.242 208.117C305.759 208.612 306.59 210.25 306.094 211.767C305.946 212.221 306.193 212.708 306.646 212.856C307.097 213.004 307.586 212.76 307.735 212.304C307.914 211.756 307.988 211.19 307.959 210.631C309.988 210.847 311.551 212.572 311.551 214.628C311.551 216.7 309.975 218.41 307.958 218.624C308.019 217.464 307.636 216.325 306.907 215.443C306.604 215.076 306.059 215.024 305.692 215.328C305.324 215.632 305.272 216.176 305.576 216.543C307.145 218.442 305.757 221.281 303.343 221.281C301.747 221.281 300.449 219.982 300.449 218.386V200.946C300.449 199.35 301.747 198.051 303.343 198.051C304.655 198.051 305.806 198.936 306.142 200.202C306.245 200.591 306.601 200.858 307.004 200.844C309.027 200.77 310.517 202.78 309.828 204.71C309.692 205.092 309.84 205.518 310.184 205.733C311.681 206.667 311.98 208.666 310.922 209.992Z" fill="#FFE4CC"/>
</g>
<defs>
<filter id="filter0_d" x="276.871" y="186.871" width="45.6471" height="45.6471" filterUnits="userSpaceOnUse" color-interpolation-filters="sRGB">
<feFlood flood-opacity="0" result="BackgroundImageFix"/>
<feColorMatrix in="SourceAlpha" type="matrix" values="0 0 0 0 0 0 0 0 0 0 0 0 0 0 0 0 0 0 127 0"/>
<feOffset/>
<feGaussianBlur stdDeviation="4.56471"/>
<feColorMatrix type="matrix" values="0 0 0 0 0.91 0 0 0 0 0.427917 0 0 0 0 0 0 0 0 1 0"/>
<feBlend mode="normal" in2="BackgroundImageFix" result="effect1_dropShadow"/>
<feBlend mode="normal" in="SourceGraphic" in2="effect1_dropShadow" result="shape"/>
</filter>
<linearGradient id="paint0_linear" x1="142" y1="77" x2="142" y2="96" gradientUnits="userSpaceOnUse">
<stop stop-color="#5CFFF2" stop-opacity="0"/>
<stop offset="1" stop-color="#5CFFF2" stop-opacity="0.6"/>
</linearGradient>
<clipPath id="clip0">
<rect width="27.3882" height="27.3882" fill="white" transform="translate(286 196)"/>
</clipPath>
</defs>
</svg>
