<svg width="35" height="48" viewBox="0 0 35 48" fill="none" xmlns="http://www.w3.org/2000/svg">
<path d="M34.1973 23.1293C34.1973 32.6363 26.6597 40.3505 17.3565 40.3505C8.05326 40.3505 0.515625 32.6363 0.515625 23.1293C0.515625 13.6224 8.05326 5.9082 17.3565 5.9082C26.6597 5.9082 34.1973 13.6224 34.1973 23.1293Z" fill="#D33833"/>
<path d="M1.20896 27.3938C1.20896 27.3938 -0.0133616 9.43927 16.5423 8.92318L15.3879 6.99463L6.41061 10.0097L3.84374 12.9568L1.60282 17.2485L0.326172 22.2465L0.706449 25.5875" fill="#EF3D3A"/>
<path d="M5.82639 11.3813C2.87924 14.41 1.04576 18.5794 1.04576 23.1971C1.04576 27.8147 2.87924 31.9842 5.82639 35.0128C8.78712 38.0415 12.8479 39.9021 17.3569 39.9021C21.8659 39.9021 25.9268 38.0415 28.8875 35.0128C31.8346 31.9842 33.6681 27.8147 33.6681 23.1971C33.6681 18.5794 31.8346 14.41 28.8875 11.3813C25.9268 8.36627 21.8659 6.49205 17.3569 6.49205C12.8615 6.49205 8.78712 8.35269 5.82639 11.3813ZM5.07942 35.7326C1.94213 32.5275 0 28.0864 0 23.1971C0 18.3078 1.94213 13.8667 5.07942 10.6479C8.21671 7.44274 12.5627 5.44629 17.3569 5.44629C22.1511 5.44629 26.4972 7.44274 29.6345 10.6479C32.7718 13.8531 34.7139 18.2942 34.7139 23.1971C34.7139 28.0864 32.7718 32.5275 29.6345 35.7326C26.4972 38.9514 22.1511 40.9343 17.3569 40.9343C12.5627 40.9343 8.21671 38.9514 5.07942 35.7326Z" fill="#231F20"/>
<path d="M24.4468 23.2241L21.8799 23.6044L18.4167 23.9983L16.1757 24.0526L13.9892 23.9847L12.3187 23.4686L10.8383 21.866L9.68387 18.5929L9.42583 17.8867L7.89114 17.3706L6.99477 15.8902L6.35645 13.7715L7.06267 11.9109L8.73318 11.3269L10.0777 11.9652L10.7161 13.3777L11.4902 13.2554L11.7482 12.9295L11.4902 11.4491L11.4223 9.58846L11.8026 7.02159L11.789 5.5548L12.957 3.68058L15.0078 2.20022L18.5932 0.665527L22.5726 1.24952L26.0358 3.74849L27.6384 6.31536L28.6706 8.176L28.9286 12.7937L28.1545 16.773L26.742 20.3041L25.4111 22.1919" fill="#F0D6B7"/>
<path d="M22.2729 34.3203L13.1055 34.7006V36.2353L13.8796 41.6271L13.4993 42.0753L7.08893 39.8887L6.64075 39.1146L6.00243 31.8621L4.4949 27.5161L4.16895 26.4839L9.30269 22.9528L10.9053 22.3145L12.3177 24.0529L13.5401 25.1394L14.9525 25.5876L15.5908 25.7777L16.365 29.1187L16.949 29.8249L18.4293 29.3088L17.3972 31.3053L22.9655 33.9401L22.2729 34.3203Z" fill="#335061"/>
<path d="M7.06273 11.9382L8.73324 11.3542L10.0778 11.9925L10.7161 13.405L11.4902 13.2828L11.6804 12.5086L11.3001 11.0283L11.6804 7.49711L11.3544 5.56856L12.5088 4.224L15.0078 2.24113L14.3016 1.27686L10.7704 3.01527L9.29007 4.16968L8.46161 5.96241L7.18496 7.70083L6.80469 9.75161L7.06273 11.9382Z" fill="#6D6B6D"/>
<path d="M9.69716 5.90792C9.69716 5.90792 10.6614 3.53119 14.505 2.37678C18.3485 1.22236 14.6951 1.54831 14.6951 1.54831L10.5256 3.15091L8.92303 4.75351L8.2168 6.03015L9.69716 5.90792Z" fill="#DCD9D8"/>
<path d="M7.76896 11.4899C7.76896 11.4899 6.42441 6.99449 11.5582 6.35617L11.368 5.58203L7.83687 6.41049L6.80469 9.7515L7.06273 11.9381L7.76896 11.4899Z" fill="#DCD9D8"/>
<path d="M9.81934 17.4521L10.6614 16.6372C10.6614 16.6372 11.0417 16.678 11.1096 17.1261C11.1775 17.5743 11.3676 21.6216 14.1246 23.7946C14.3827 23.9983 12.0738 23.4686 12.0738 23.4686L10.0231 20.2634" fill="#F7E4CD"/>
<path d="M21.6218 16.2296C21.6218 16.2296 21.7712 14.2875 22.3008 14.4369C22.8305 14.5863 22.8305 15.116 22.8305 15.116C22.8305 15.116 21.5539 15.9309 21.6218 16.2296Z" fill="#F7E4CD"/>
<path d="M26.9457 9.11328C26.9457 9.11328 25.8864 9.33058 25.7913 10.2677C25.6962 11.2048 26.9457 10.4578 27.1358 10.3899" fill="#F7E4CD"/>
<path d="M19.1908 9.18115C19.1908 9.18115 17.7783 9.37129 17.7783 10.2677C17.7783 11.164 19.3809 11.0961 19.8291 10.7158" fill="#F7E4CD"/>
<path d="M10.4712 13.3509C10.4712 13.3509 8.04017 11.8705 7.78212 13.283C7.52408 14.6954 6.95366 15.714 8.1624 17.1944L7.33394 16.9363L6.5598 14.9535L6.30176 13.0249L7.78212 11.4902L9.45263 11.6125L10.4169 12.3866L10.4712 13.3509Z" fill="#F7E4CD"/>
<path d="M11.6257 9.3033C11.6257 9.3033 12.7123 3.65347 18.2263 2.56696C22.7624 1.67059 25.1528 2.7571 26.0491 3.78928C26.0491 3.78928 22.0019 -1.01851 18.1584 0.448275C14.3148 1.92864 11.4899 4.61774 11.5578 6.34257C11.6665 9.3033 11.6257 9.3033 11.6257 9.3033Z" fill="#F7E4CD"/>
<path d="M26.4969 4.42763C26.4969 4.42763 24.6363 4.35972 24.5684 6.03023C24.5684 6.03023 24.5684 6.28827 24.6906 6.54632C24.6906 6.54632 26.171 4.87581 27.0673 5.77218" fill="#F7E4CD"/>
<path d="M18.362 6.72307C18.362 6.72307 18.0361 4.16978 15.8631 5.65014C14.4506 6.61442 14.5864 7.95897 14.8309 8.21701C15.0889 8.47506 15.021 8.99115 15.2112 8.63804C15.4013 8.28492 15.347 7.13051 16.0532 6.80456C16.7459 6.4786 17.9139 6.12549 18.362 6.72307Z" fill="#F7E4CD"/>
<path d="M12.3324 24.053L6.30228 26.7421C6.30228 26.7421 8.80125 36.6836 7.5246 39.7666L6.62823 39.4406L6.56033 35.6514L4.88982 28.4805L4.18359 26.4976L10.4717 22.2603L12.3324 24.053Z" fill="#49728B"/>
<path d="M12.9424 29.5532L13.7981 30.599V34.4425H12.7795C12.7795 34.4425 12.6572 31.7534 12.6572 31.4274C12.6572 31.1015 12.7795 29.9471 12.7795 29.9471" fill="#49728B"/>
<path d="M12.97 35.0264L10.0771 35.1486L10.9056 35.7326L12.9564 36.0585" fill="#49728B"/>
<path d="M22.8438 34.3882L25.2205 34.3203L25.8045 40.2146L23.3734 40.5406L22.8438 34.3882Z" fill="#335061"/>
<path d="M23.4824 34.3883L27.0679 34.1981C27.0679 34.1981 28.5483 30.4768 28.5483 30.2867C28.5483 30.0966 29.8249 24.8949 29.8249 24.8949L26.9321 21.8799L26.3481 21.3638L24.8134 22.8985V28.8607L23.4824 34.3883Z" fill="#335061"/>
<path d="M25.0847 33.9399L22.8438 34.3881L23.1697 36.1809C23.9982 36.5611 25.4106 35.5425 25.4106 35.5425" fill="#49728B"/>
<path d="M25.1533 22.7084L29.6487 26.0494L29.771 24.5147L26.3756 21.3774L25.1533 22.7084Z" fill="#49728B"/>
<path d="M15.1979 47.0187L13.8669 41.6269L13.2014 37.6476L13.0928 34.7005L19.1093 34.3745H22.8442L22.5046 41.1109L23.0886 46.3125L23.0207 47.2768L18.145 47.6571L15.1979 47.0187Z" fill="white"/>
<path d="M22.0156 34.3202C22.0156 34.3202 21.6897 40.9886 22.6539 45.7421C22.6539 45.7421 20.7254 46.9644 17.9141 47.2768L23.3059 47.0867L23.9442 46.7064L23.17 36.1944L22.9663 33.9399" fill="#DCD9D8"/>
<path d="M25.8998 39.7122L28.3987 39.006L33.1386 38.748L33.8448 36.5614L32.5682 32.7722L31.0878 32.582L29.0371 33.2204L27.0813 34.1846L26.0356 33.9945L25.2207 34.3204" fill="white"/>
<path d="M25.8594 38.4217C25.8594 38.4217 27.5299 37.6476 27.7879 37.7155L27.0817 34.1844L27.9102 33.8584C27.9102 33.8584 28.4942 37.1994 28.4942 37.5797C28.4942 37.5797 32.0796 37.7698 32.4056 37.7698C32.4056 37.7698 33.1797 36.2895 32.9896 34.7548L33.6958 36.8055L33.7637 37.96L32.7315 39.4946L31.5771 39.7527L29.6486 39.6848L29.0102 38.8563L26.7693 39.1823L26.0631 39.4403" fill="#DCD9D8"/>
<path d="M23.3333 33.872L21.9208 30.2865L20.4404 28.1679C20.4404 28.1679 20.7664 27.2715 21.2146 27.2715H22.6949L24.1074 27.7876L23.9852 30.1643L23.3333 33.872Z" fill="white"/>
<path d="M23.6178 32.6497C23.6178 32.6497 21.8251 29.1864 21.8251 28.6703C21.8251 28.6703 22.151 27.8962 22.5992 28.0863C23.0474 28.2765 24.0117 28.7926 24.0117 28.7926V27.5703L21.8251 27.1221L20.3447 27.3122L22.8437 33.2337L23.3598 33.3016" fill="#DCD9D8"/>
<path d="M15.768 24.1887L13.9889 23.9985L12.3184 23.4824V24.0664L13.1332 24.9628L15.7001 26.1172" fill="white"/>
<path d="M12.9021 24.3789C12.9021 24.3789 14.885 25.2074 15.5369 25.0172L15.6048 25.7914L13.8121 25.4111L12.7256 24.637L12.9021 24.3789Z" fill="#DCD9D8"/>
<path d="M25.8996 27.4888C24.8131 27.4616 23.8217 27.3258 22.9661 27.0813C23.0204 26.7282 22.9117 26.3887 23.0068 26.1306C23.2513 25.9541 23.6451 25.9541 24.0118 25.9133C23.6994 25.7639 23.2513 25.696 22.8981 25.7911C22.8846 25.5466 22.7759 25.3972 22.708 25.2071C23.3192 24.9898 24.7588 23.5638 25.5737 24.0255C25.9675 24.2564 26.1305 25.5331 26.1577 26.1714C26.1848 26.6875 26.1033 27.2036 25.8996 27.4888Z" fill="#D33833"/>
<path d="M25.8996 27.4888C24.8131 27.4616 23.8217 27.3258 22.9661 27.0813C23.0204 26.7282 22.9117 26.3887 23.0068 26.1306C23.2513 25.9541 23.6451 25.9541 24.0118 25.9133C23.6994 25.7639 23.2513 25.696 22.8981 25.7911C22.8846 25.5466 22.7759 25.3972 22.708 25.2071C23.3192 24.9898 24.7588 23.5638 25.5737 24.0255C25.9675 24.2564 26.1305 25.5331 26.1577 26.1714C26.1848 26.6875 26.1033 27.2036 25.8996 27.4888Z" fill="black" stroke="#D33833" stroke-width="2"/>
<path d="M20.6983 25.7097C20.6983 25.7912 20.6983 25.8727 20.6847 25.9542C20.3451 26.1715 19.8019 26.1715 19.4216 26.3616C19.9649 26.3888 20.3995 26.5246 20.7798 26.7012C20.7662 26.9049 20.7662 27.1222 20.7526 27.3259C20.1278 27.7469 19.5574 28.3852 18.824 28.7927C18.4709 28.9828 17.2622 29.4717 16.8955 29.3767C16.6918 29.3224 16.6646 29.0643 16.5831 28.8198C16.4066 28.3038 15.9991 27.4617 15.9584 26.674C15.9176 25.6826 15.809 24.0121 16.8819 24.2158C17.7511 24.3787 18.7561 24.7726 19.4216 25.1393C19.8426 25.3838 20.0735 25.6554 20.6983 25.7097Z" fill="#D33833"/>
<path d="M20.6983 25.7097C20.6983 25.7912 20.6983 25.8727 20.6847 25.9542C20.3451 26.1715 19.8019 26.1715 19.4216 26.3616C19.9649 26.3888 20.3995 26.5246 20.7798 26.7012C20.7662 26.9049 20.7662 27.1222 20.7526 27.3259C20.1278 27.7469 19.5574 28.3852 18.824 28.7927C18.4709 28.9828 17.2622 29.4717 16.8955 29.3767C16.6918 29.3224 16.6646 29.0643 16.5831 28.8198C16.4066 28.3038 15.9991 27.4617 15.9584 26.674C15.9176 25.6826 15.809 24.0121 16.8819 24.2158C17.7511 24.3787 18.7561 24.7726 19.4216 25.1393C19.8426 25.3838 20.0735 25.6554 20.6983 25.7097Z" fill="black" stroke="#D33833" stroke-width="2"/>
<path d="M21.3095 26.8912C21.2144 26.348 21.1058 26.1986 21.1465 25.7233C22.5997 24.759 22.8577 27.3802 21.3095 26.8912Z" fill="#D33833"/>
<path d="M21.3095 26.8912C21.2144 26.348 21.1058 26.1986 21.1465 25.7233C22.5997 24.759 22.8577 27.3802 21.3095 26.8912Z" fill="black" stroke="#D33833" stroke-width="2"/>
<path d="M23.4013 27.3258C23.4013 27.3258 22.9532 26.6875 23.2791 26.4974C23.6051 26.3072 23.9174 26.4974 24.1076 26.1714C24.2977 25.8455 24.1076 25.6553 24.1755 25.2751C24.2434 24.8948 24.5558 24.8269 24.8817 24.759C25.2077 24.6911 26.104 24.5688 26.2263 24.8812L25.846 23.7268L25.0718 23.4688L22.6408 24.8812L22.5186 25.5874V26.9999" fill="#EF3D3A"/>
<path d="M16.6649 29.4446C16.5834 28.4396 16.5019 27.4482 16.4205 26.4431C16.2846 24.9492 16.7736 25.2072 18.0774 25.2072C18.2811 25.2072 19.2997 25.4381 19.3676 25.5875C19.7207 26.3073 18.7836 26.1444 19.775 26.6876C20.6035 27.1358 22.0839 26.416 21.7443 25.3974C21.5542 25.1665 20.7665 25.3295 20.4813 25.1801C19.9788 24.922 19.4763 24.664 18.9737 24.4059C18.3354 24.08 16.8686 23.5911 16.1896 24.0528C14.4647 25.2208 16.2982 28.1544 16.9094 29.3767" fill="#EF3D3A"/>
<path d="M18.3618 6.72309C16.6098 6.31565 15.7406 7.45648 15.211 8.63806C14.7356 8.52941 14.9258 7.87751 15.048 7.55155C15.3604 6.69593 16.6234 5.54152 17.6556 5.70449C18.0902 5.75882 18.6878 6.16626 18.3618 6.72309Z" fill="#231F20"/>
<path d="M26.8771 8.70557H26.9586C27.3525 9.52045 27.692 10.3897 28.1945 11.123C27.855 11.9108 25.6684 12.5898 25.6956 11.2045C26.1709 11.0008 26.9858 11.1638 27.4068 10.8922C27.1623 10.2267 26.8228 9.65626 26.8771 8.70557Z" fill="#231F20"/>
<path d="M19.2449 8.73291C19.6252 9.42556 19.7474 10.1454 20.2771 10.6615C20.5216 10.8923 20.9833 11.1775 20.7524 11.8295C20.6981 11.9788 20.3043 12.3184 20.0734 12.3863C19.2449 12.6307 17.3028 12.4406 17.9547 11.3948C18.6473 11.422 19.5709 11.843 20.087 11.3405C19.6931 10.7158 18.9869 9.4663 19.2449 8.73291Z" fill="#231F20"/>
<path d="M26.5649 15.7142C25.3154 16.5155 23.9165 17.3983 21.8521 17.1946C21.4175 16.8143 21.241 15.9587 21.6756 15.4018C21.8929 15.7821 21.7571 16.4883 22.3818 16.597C23.5498 16.8007 24.9079 15.8772 25.75 15.5648C26.2661 14.682 25.7092 14.3696 25.2339 13.7992C24.2696 12.6448 22.993 11.2052 23.0337 9.48036C23.4276 9.19515 23.4547 9.91497 23.5091 10.0372C24.0116 11.2052 25.2746 12.7127 26.1846 13.7177C26.4155 13.9622 26.7822 14.2067 26.8229 14.3696C26.9451 14.8314 26.5105 15.4018 26.5649 15.7142Z" fill="#231F20"/>
<path d="M10.0237 14.8717C9.62979 14.6408 9.53472 13.663 9.07296 13.6358C8.40747 13.5951 8.52971 14.9125 8.52971 15.6866C8.08152 15.2792 8.00003 14.0025 8.32599 13.3506C7.94571 13.1605 7.78273 13.5543 7.56543 13.6902C7.85064 11.7209 10.4583 12.7802 10.0237 14.8717Z" fill="#231F20"/>
<path d="M27.3526 16.5425C26.7686 17.6561 25.9401 18.8785 24.2289 18.9192C24.1881 18.5661 24.161 18.0093 24.2289 17.792C25.5463 17.6561 26.3611 16.9907 27.3526 16.5425Z" fill="#231F20"/>
<path d="M19.1494 17.2622C20.2359 17.8326 22.246 17.9005 23.7399 17.8598C23.8214 18.1857 23.8214 18.5932 23.8214 18.987C21.9064 19.0685 19.6519 18.5932 19.1494 17.2622Z" fill="#231F20"/>
<path d="M18.9462 18.3213C19.7067 20.2227 22.3007 20.0054 24.4873 19.951C24.3923 20.1955 24.1886 20.4943 23.9169 20.5894C23.2107 20.8746 21.2821 21.0919 20.3043 20.5758C19.6931 20.2498 19.2857 19.5029 18.9462 19.0683C18.7968 18.8645 17.9819 18.3349 18.9462 18.3213Z" fill="#231F20"/>
<path d="M26.4697 28.7925C25.5869 30.3136 24.7313 31.8754 23.6855 33.2064C24.1201 31.9162 24.3103 29.7432 24.3782 28.0862C25.3017 27.6516 26.0894 28.1813 26.4697 28.7925Z" fill="#81B0C4"/>
<path d="M31.2371 34.2524C30.2457 34.4562 29.5531 35.4204 28.5752 35.3525C29.1184 34.6056 30.042 34.2796 31.2371 34.2524Z" fill="#231F20"/>
<path d="M31.6713 35.8005C30.8564 35.8819 29.9057 36.0178 29.0908 35.9498C29.4847 35.3523 30.9786 35.5696 31.6713 35.8005Z" fill="#231F20"/>
<path d="M31.9572 37.1452C31.0472 37.1588 29.92 37.1452 29.0508 37.0773C29.5669 36.5205 31.3732 36.8736 31.9572 37.1452Z" fill="#231F20"/>
<path d="M24.7585 40.8119C24.8943 41.9527 25.3425 43.1071 25.2882 44.3566C24.7857 44.5196 24.5005 44.669 23.8214 44.669C23.7807 43.6096 23.6313 41.9799 23.672 40.9613C23.998 40.9884 24.4869 40.7304 24.7585 40.8119Z" fill="#DCD9D8"/>
<path d="M23.2921 23.9712C22.8303 24.27 22.45 24.6367 22.0018 24.9626C21.024 25.017 20.4943 24.8947 19.7881 24.3379C19.8017 24.2971 19.8696 24.3107 19.8696 24.2564C20.9153 24.7182 22.2463 24.0663 23.2921 23.9712Z" fill="#F0D6B7"/>
<path d="M17.832 31.0742C18.1172 29.8383 19.2445 29.1864 20.2631 28.5073C21.3089 29.8383 21.9472 31.5495 22.6534 33.2065C20.9829 32.704 19.2852 31.9027 17.832 31.0742Z" fill="#81B0C4"/>
<path d="M23.6718 40.9751C23.631 41.9937 23.7668 43.6099 23.8212 44.6828C24.5002 44.6828 24.7854 44.5334 25.2879 44.3704C25.3423 43.121 24.8941 41.9665 24.7583 40.8257C24.4866 40.7306 23.9977 40.9887 23.6718 40.9751ZM13.187 35.2166C13.6352 39.3046 14.2735 42.7271 15.4551 46.3533C18.0763 47.1546 21.2271 47.2225 23.5495 46.5027C23.1285 44.4655 23.3051 41.9801 23.0606 39.7935C22.8705 38.1502 22.9655 36.5068 22.7075 34.8363C19.8962 34.2523 15.9304 34.7005 13.187 35.2166ZM23.373 34.8635C23.3458 36.6155 23.4545 38.3539 23.5903 40.1059C24.2693 40.0108 24.7175 39.9429 25.3423 39.7935C25.1386 38.1094 25.1657 36.1945 24.7447 34.7005C24.2693 34.7141 23.8483 34.7005 23.373 34.8635ZM26.7819 34.5783C26.4559 34.5104 26.0892 34.5783 25.7905 34.5783C25.9398 36.0043 26.2794 37.5798 26.4016 39.0873C26.877 39.1009 27.135 38.87 27.5289 38.8021C27.556 37.4847 27.4202 35.6648 26.7819 34.5783ZM31.9564 39.3046C32.9614 39.0601 33.5861 37.8378 33.3009 36.5748C33.1108 35.7327 32.7848 34.1301 32.4181 33.5869C32.1601 33.193 31.4403 32.6633 30.8563 33.03C29.9192 33.6276 28.2758 33.8042 27.5968 34.524C27.9363 35.6648 28.045 37.2131 28.1808 38.6527C29.3488 38.7206 30.7748 38.3267 31.7527 38.7478C31.0736 38.9651 30.2044 38.9651 29.6204 39.291C30.1093 39.5219 31.223 39.4812 31.9564 39.3046ZM22.6396 33.2066C21.9334 31.5497 21.295 29.8384 20.2493 28.5074C19.2307 29.1865 18.117 29.8384 17.8182 31.0743C19.285 31.9028 20.9827 32.7041 22.6396 33.2066ZM24.378 28.0864C24.3101 29.7433 24.12 31.9164 23.6854 33.2066C24.7311 31.862 25.5867 30.3138 26.4695 28.7927C26.0892 28.1815 25.3015 27.6518 24.378 28.0864ZM22.4087 27.3938C22.0148 27.353 21.6753 27.8555 21.1592 27.6382C21.037 27.7741 20.9283 27.9099 20.8061 28.0457C21.9469 29.431 22.4766 31.3867 23.3594 33.0029C23.8347 31.441 23.7804 29.7433 23.8891 28.0457C23.2372 28.0728 22.8705 27.4345 22.4087 27.3938ZM21.1456 25.7233C21.1049 26.1986 21.2135 26.348 21.3086 26.8913C22.8569 27.3802 22.5988 24.759 21.1456 25.7233ZM19.4208 25.1529C18.7553 24.7862 17.7503 24.3923 16.8811 24.2293C15.8082 24.0256 15.9168 25.6961 15.9576 26.6875C15.9983 27.4753 16.4058 28.3037 16.5823 28.8334C16.6638 29.0779 16.691 29.3359 16.8947 29.3902C17.2614 29.4717 18.4837 28.9964 18.8232 28.8062C19.5566 28.4124 20.127 27.7741 20.7518 27.3395C20.7654 27.1357 20.7654 26.9184 20.7789 26.7147C20.3987 26.5246 19.9776 26.4023 19.4208 26.3752C19.7875 26.185 20.3443 26.185 20.6839 25.9677C20.6839 25.8862 20.6839 25.8048 20.6975 25.7233C20.0727 25.6554 19.8418 25.3837 19.4208 25.1529ZM13.0376 23.9984C12.4808 24.5689 14.5994 25.3294 15.2649 25.3702C15.2649 25.017 15.4686 24.6775 15.4279 24.4195C14.6266 24.2836 13.5808 24.3787 13.0376 23.9984ZM19.8826 24.2565C19.8826 24.3108 19.8147 24.2972 19.8011 24.338C20.5209 24.8948 21.0506 25.017 22.0148 24.9627C22.4494 24.6503 22.8433 24.2701 23.3051 23.9713C22.2457 24.0663 20.9148 24.7183 19.8826 24.2565ZM26.1572 26.1579C26.13 25.5331 25.967 24.2429 25.5732 24.012C24.7583 23.5367 23.3187 24.9763 22.7075 25.1936C22.7754 25.3837 22.8841 25.5331 22.8976 25.7776C23.2643 25.6825 23.6989 25.7504 24.0113 25.8998C23.6446 25.9406 23.2507 25.9406 23.0063 26.1171C22.9248 26.3752 23.0334 26.7147 22.9655 27.0678C23.8212 27.3123 24.8126 27.4345 25.8991 27.4753C26.1028 27.2036 26.1843 26.6875 26.1572 26.1579ZM12.1005 24.5417C11.9239 24.4195 10.7423 22.8848 10.5794 22.9527C8.4471 23.7947 6.45065 25.2479 4.67149 26.6332C6.36916 30.2866 7.06181 34.7549 7.18404 39.0601C9.12617 39.9701 10.8374 41.2875 13.4858 41.4233C13.1734 39.2639 12.9018 37.3217 12.7252 35.2845C12.0597 34.9993 11.109 35.2981 10.4843 35.203C10.4843 34.4561 11.435 34.8771 11.5165 34.3746C11.5708 33.9943 10.9868 33.9671 11.1769 33.3696C11.6659 33.5461 11.9239 33.94 12.44 34.0894C12.9154 33.0572 12.44 31.2237 12.5079 30.3545C12.5215 30.1915 12.5894 29.4581 12.9561 29.5804C13.2821 29.689 12.9425 31.5497 12.9697 32.3645C12.9968 33.1251 12.8746 33.8449 13.187 34.3203C15.7403 33.9671 18.3343 33.7498 21.1049 33.6684C20.4937 33.4103 19.7739 33.1658 18.9862 32.7177C18.5516 32.4732 17.2071 31.9707 17.0848 31.5632C16.8811 30.9113 17.6009 30.5718 17.7231 30.015C16.4329 30.7212 16.1885 29.3359 15.8761 28.3716C15.6045 27.4888 15.4415 26.8234 15.3736 26.3209C14.2463 25.7504 13.0512 25.2208 12.1005 24.5417ZM25.0299 23.1292C26.8091 22.2736 27.135 26.348 26.4288 27.6654C26.5374 28.0593 26.9041 28.2087 27.0535 28.5618C26.0621 30.3409 24.962 31.9978 23.9434 33.7498C24.6904 33.2745 25.7769 33.6684 26.6597 33.3152C26.9856 33.193 27.2165 32.446 27.461 31.8485C28.14 30.2187 28.8463 28.1543 29.1586 26.6061C29.2265 26.2529 29.4303 25.4788 29.3759 25.1664C29.2944 24.596 28.5339 24.175 28.14 23.8355C27.4202 23.1836 26.972 22.6267 26.2115 22.0156C25.9263 22.4638 25.2744 22.7625 25.0299 23.1292ZM8.03966 7.36131C7.19762 8.29842 7.37418 10.0368 7.46925 11.2863C9.00394 10.322 11.0276 11.3678 11.014 12.9976C11.7474 12.984 11.2856 12.0876 11.1498 11.5036C10.7152 9.61581 11.8832 7.57861 11.2041 5.85378C9.88672 5.96243 8.8138 6.49211 8.03966 7.36131ZM14.0969 1.94236C12.182 2.48561 9.72375 3.88449 8.93603 5.60932C9.54719 5.51425 9.96821 5.21546 10.5658 5.17472C10.7967 5.16114 11.0955 5.26979 11.3535 5.20188C11.8696 5.06607 12.3178 3.89807 12.7116 3.46347C13.0919 3.04245 13.5537 2.85231 13.8661 2.47203C14.0698 2.37696 14.3686 2.37696 14.3821 2.07817C14.3007 1.9831 14.2056 1.9152 14.0969 1.94236ZM24.0792 2.45845C22.0828 1.3312 18.7146 0.489158 16.5959 1.5485C14.8847 2.40413 12.5758 3.81658 11.7881 5.59574C12.5215 7.32057 11.5708 8.896 11.5029 10.648C11.4757 11.5851 11.9375 12.3864 11.9782 13.405C11.7202 13.826 10.9596 13.8668 10.43 13.8396C10.2534 12.9432 9.94105 11.9382 9.01752 11.8296C7.71371 11.6802 6.74943 12.7667 6.69511 13.8939C6.6272 15.2249 7.71371 17.4251 9.26198 17.2757C9.85956 17.2214 10.009 16.6238 10.6609 16.6238C11.014 17.33 10.1176 17.5473 10.0225 18.0498C9.99537 18.1856 10.0904 18.6881 10.1583 18.9326C10.4436 20.087 11.0683 21.5945 11.6795 22.4773C12.4672 23.6046 14.0019 23.7676 15.6588 23.8762C15.9576 23.2379 17.0441 23.2922 17.7503 23.4552C16.8947 23.1157 16.107 22.3008 15.4551 21.581C14.7081 20.7525 13.9475 19.8697 13.9068 18.7832C15.3328 20.7525 16.5008 22.4773 19.0813 23.3465C21.037 23.9984 23.3187 23.0478 24.8262 21.9884C25.4509 21.5538 25.8176 20.8476 26.2658 20.2228C27.9227 17.8325 28.6969 14.4372 28.5339 11.1369C28.466 9.77879 28.466 8.42066 28.0042 7.51071C27.5289 6.56001 25.9127 5.69081 24.962 6.56001C24.7854 5.6229 25.7497 5.05248 26.877 5.39202C26.0757 4.34626 25.2336 3.11035 24.0792 2.45845ZM27.8005 33.1658C29.3623 32.3917 32.2687 31.0879 33.233 33.1658C33.5997 33.94 34.0207 35.2302 34.1973 36.0315C34.4553 37.1452 33.9121 39.5083 32.7577 39.875C31.7391 40.201 30.5575 40.1874 29.3352 39.9429C29.1858 39.8207 29.0364 39.617 28.9142 39.3997C28.045 39.3725 27.2165 39.4404 26.5374 39.8071C26.6053 40.459 26.1707 40.5541 25.7497 40.6899C25.4509 41.8986 26.3609 43.4741 26.1436 44.5606C25.9942 45.3483 25.0299 45.4705 24.3237 45.6063C24.2965 46.0409 24.3508 46.4076 24.4052 46.7743C24.2422 47.3719 23.5224 47.7114 22.8297 47.7929C20.5616 48.0646 17.1256 48.1868 14.9526 47.3991C14.3414 45.9051 13.8661 44.0988 13.3635 42.4011C11.2449 42.632 9.52003 41.4912 7.90385 40.7306C7.34701 40.4726 6.57288 40.3232 6.35558 39.875C6.15186 39.4404 6.23334 38.612 6.17902 37.8378C6.05679 35.8414 5.93456 33.9128 5.41847 31.8756C5.18758 30.9521 4.76656 30.1508 4.48135 29.268C4.20973 28.4531 3.74796 27.4345 3.62573 26.6196C3.44917 25.4109 4.59 25.343 5.30981 24.8133C6.43706 23.9984 7.31985 23.5503 8.54217 22.8169C8.90887 22.5996 9.99537 22.0563 10.1176 21.7983C10.3621 21.2958 9.69658 20.5895 9.52003 20.1957C9.23482 19.5709 9.08542 19.0413 9.04468 18.4301C8.02608 18.2671 7.23836 17.656 6.7766 16.9769C6.00246 15.8361 5.45921 13.731 6.13827 12.1419C6.1926 12.0197 6.45065 11.7617 6.49139 11.5715C6.57288 11.1912 6.342 10.6887 6.32841 10.2813C6.26051 8.20335 6.68153 6.41062 8.08041 5.78588C8.65082 3.51779 10.688 2.77082 12.603 1.64357C13.3228 1.22255 14.1105 0.950923 14.9254 0.652134C17.8454 -0.420791 22.3408 -0.217071 24.7719 1.61641C25.804 2.39054 27.4474 4.03389 28.0314 5.22904C29.5932 8.36633 29.471 13.6223 28.3845 17.4522C28.2351 17.9683 28.0314 18.7153 27.7326 19.34C27.5289 19.7746 26.8905 20.6303 26.9585 21.0105C27.0399 21.4044 28.4252 22.4502 28.724 22.7354C29.2537 23.2515 30.2723 23.9305 30.3538 24.5824C30.4489 25.2751 30.055 26.2258 29.8513 26.8913C29.1994 29.1186 28.5475 31.1694 27.8005 33.1658Z" fill="#231F20"/>
<path d="M17.4115 17.7373C17.493 17.6287 17.9548 17.4521 18.6067 17.7645C18.6067 17.7645 17.8326 17.8867 17.9005 19.1769L17.5745 19.109C17.5881 19.1226 17.2486 17.9546 17.4115 17.7373Z" fill="#F7E4CD"/>
<path d="M23.0344 28.7657C23.0344 28.9558 22.8714 29.1188 22.6812 29.1188C22.4911 29.1188 22.3281 28.9558 22.3281 28.7657C22.3281 28.5756 22.4911 28.4126 22.6812 28.4126C22.885 28.4126 23.0344 28.5756 23.0344 28.7657Z" fill="#1D1919"/>
<path d="M23.3869 30.4088C23.3869 30.5989 23.2239 30.7619 23.0338 30.7619C22.8436 30.7619 22.6807 30.5989 22.6807 30.4088C22.6807 30.2186 22.8436 30.0557 23.0338 30.0557C23.2375 30.0557 23.3869 30.2051 23.3869 30.4088Z" fill="#1D1919"/>
</svg>
