<svg width="17" height="17" viewBox="0 0 17 17" fill="none" xmlns="http://www.w3.org/2000/svg">
<path fill-rule="evenodd" clip-rule="evenodd" d="M0 2.00139C0 0.896526 0.896526 0 2.00138 0C3.10555 0 4.00208 0.896526 4.00277 2.00139C4.00277 3.10625 3.10624 4.02152 2.00138 4.02152C0.896526 4.02152 0 3.10625 0 2.00139ZM16.6625 16.6666V16.6659H16.6667V10.5534C16.6667 7.56312 16.0229 5.25965 12.5271 5.25965C10.8465 5.25965 9.71876 6.18187 9.25834 7.05618H9.20973V5.53882H5.89515V16.6659H9.34654V11.1562C9.34654 9.70548 9.62154 8.3027 11.4181 8.3027C13.1882 8.3027 13.2146 9.95826 13.2146 11.2492V16.6666H16.6625ZM0.275891 5.53968H3.73144V16.6667H0.275891V5.53968Z" fill="#ffffff"/>
</svg>
