<svg width="40" height="40" viewBox="0 0 40 40" fill="none" xmlns="http://www.w3.org/2000/svg">
<path d="M35 35H28.3333V23.75C28.3333 21.9857 26.3535 20.5097 24.5892 20.5097C22.8248 20.5097 21.6667 21.9857 21.6667 23.75V35H15V15H21.6667V18.3333C22.7705 16.5476 25.594 15.3955 27.5417 15.3955C31.6608 15.3955 35 18.7977 35 22.9167V35ZM11.6667 35H5V15H11.6667V35ZM8.33335 5C10.1743 5 11.6667 6.49238 11.6667 8.33333C11.6667 10.1743 10.1743 11.6667 8.33335 11.6667C6.4924 11.6667 5.00002 10.1743 5.00002 8.33333C5.00002 6.49238 6.4924 5 8.33335 5Z" fill="white"/>
</svg>
