<?xml version="1.0" encoding="UTF-8"?>
<svg width="90px" height="80px" viewBox="0 0 90 80" version="1.1" xmlns="http://www.w3.org/2000/svg" xmlns:xlink="http://www.w3.org/1999/xlink">
    <!-- Generator: Sketch 62 (91390) - https://sketch.com -->
    <title>Logo/Color</title>
    <desc>Created with Sketch.</desc>
    <g id="Logo/Color" stroke="none" stroke-width="1" fill="none" fill-rule="evenodd">
        <path d="M66.7603864,6.1549754 C68.9679171,5.77565521 70.9575855,6.93476746 71.8332652,8.73618584 L71.8332652,8.73618584 L88.2667131,34.3558099 C89.6859911,36.5584052 89.7184237,39.3793347 88.3513199,41.6143626 L88.3513199,41.6143626 L67.4619173,75.7665758 C66.1166702,77.9656458 63.7251199,79.3080726 61.1474347,79.3101878 L61.1474347,79.3101878 L30.770092,79.337685 C30.7017015,79.337685 30.6340162,79.3362749 30.5670358,79.3327496 C27.60439,79.1938536 25.9651346,75.8109943 27.5874687,73.3277867 L27.5874687,73.3277867 L48.5262252,41.2865115 C49.3116577,39.6536015 51.1490339,38.6221045 53.159854,39.0726353 C54.6482274,39.4061269 55.8566936,40.614593 56.1951206,42.1015564 C56.4277891,43.1224776 56.2747919,44.0961601 55.8581037,44.9133202 C55.8573987,44.9154353 55.8566936,44.9175505 55.8559886,44.9196657 L55.8559886,44.9196657 C55.7262582,45.1685505 55.5796066,45.3948735 55.4118032,45.6049802 L55.4118032,45.6049802 L52.2242445,50.526977 C51.2794693,51.9462549 52.1741855,53.8611873 53.8691404,54.0480272 L53.8691404,54.0480272 L61.5866847,54.6000861 C63.0200638,54.7023193 64.4315861,54.2101901 65.4912854,53.2400329 C66.880246,51.6000724 73.037501,41.5671238 75.8478547,36.8643996 C76.7552619,35.3464137 76.6375176,33.4568634 75.6060205,32.020664 L75.6060205,32.020664 L75.6412733,32.0030376 L65.7472208,16.6173031 L63.8915131,13.6983708 C63.6983277,13.4523062 63.5291143,13.1872051 63.387398,12.9058877 L63.387398,12.9058877 L63.3183025,12.7973091 L63.3232379,12.7726321 C62.9580188,11.9871996 62.8022014,11.0847278 62.9312267,10.1357222 C63.2012632,8.14746398 64.781999,6.49481245 66.7603864,6.1549754 Z M28.3906686,2.20319178e-13 L58.7680113,0.108625671 C58.8364018,0.108625671 58.9040872,0.110740839 58.9710675,0.11426612 C61.9330082,0.266558241 63.5574575,3.65646804 61.9238425,6.13262512 L61.9238425,6.13262512 L40.8419596,38.0794228 C40.0494765,39.7095125 38.2071649,40.7325489 36.19846,40.2728523 C34.7114967,39.9330153 33.5086709,38.7189087 33.1765895,37.2305352 C32.9488564,36.2089089 33.1060839,35.2352264 33.5262973,34.4208866 C33.5277075,34.4180664 33.5277075,34.4159512 33.5291176,34.413836 L33.5291176,34.413836 C33.659553,34.1663613 33.8076147,33.9400383 33.9754181,33.7306366 L33.9754181,33.7306366 L37.1855386,28.8234461 C38.1366593,27.4083985 37.2504037,25.4892357 35.5561539,25.2946402 L35.5561539,25.2946402 L27.8407248,24.7087386 C26.4087559,24.5994549 24.9944133,25.0852386 23.9311887,26.0511654 C22.5344725,27.6847805 16.3320939,37.6902318 13.5005885,42.3802651 C12.5868358,43.8940205 12.6968245,45.784276 13.7212711,47.2254107 L13.7212711,47.2254107 L13.6860183,47.242332 L23.5109752,62.6717801 L25.3539919,65.5991731 C25.5457672,65.8459427 25.7135705,66.1117488 25.8538767,66.3937713 L25.8538767,66.3937713 L25.9229722,66.503055 L25.9180368,66.527732 C26.2797306,67.3145746 26.4320227,68.2177515 26.2987671,69.1660519 C26.0188598,71.1529001 24.4310735,72.7992061 22.4512759,73.1298774 C20.2423351,73.4993268 18.2576021,72.3310488 17.3903831,70.5254001 L17.3903831,70.5254001 L1.07115425,44.8331553 C-0.338252926,42.6242145 -0.357994497,39.803285 1.0189801,37.5738975 L1.0189801,37.5738975 L22.0606748,3.51545682 C23.4157927,1.32202725 25.8129834,-0.00911870045 28.3906686,2.20319178e-13 L28.3906686,2.20319178e-13 Z" id="Combined-Shape" fill="#0066CC"></path>
    </g>
</svg>