<svg width="300" height="300" viewBox="0 0 300 300" fill="none" xmlns="http://www.w3.org/2000/svg">
    <g clip-path="url(#clip0)">
        <path fill-rule="evenodd" clip-rule="evenodd"
            d="M259.04 41.9101L243.543 46.727L238.726 62.2236C238.064 64.3535 236.25 65.9226 234.048 66.2718C233.741 66.3204 233.434 66.3445 233.13 66.3445C231.247 66.3445 229.456 65.4357 228.347 63.8677L218.977 50.6181L202.75 50.8256C200.534 50.8432 198.467 49.6139 197.455 47.627C196.442 45.6395 196.645 43.2501 197.98 41.4624L207.685 28.4566L202.473 13.0883C201.756 10.9766 202.302 8.64049 203.879 7.06376C205.455 5.48702 207.79 4.94152 209.904 5.65811L225.272 10.8699L238.278 1.16346C240.066 -0.170115 242.455 -0.374018 244.443 0.638466C246.43 1.65095 247.67 3.70404 247.641 5.93409L247.434 22.1608L260.684 31.5309C262.505 32.8188 263.437 35.0284 263.088 37.2314C262.739 39.434 261.17 41.248 259.04 41.9101ZM238.153 29.9495C236.578 28.8363 235.652 27.0193 235.677 25.091L235.772 17.6556L229.812 22.1028C228.267 23.2559 226.253 23.5758 224.427 22.9559L217.384 20.5676L219.772 27.6099C220.391 29.4363 220.073 31.4501 218.919 32.9958L214.471 38.9552L221.907 38.8603C223.837 38.8439 225.652 39.7615 226.765 41.3359L231.059 47.4073L233.266 40.3064C233.838 38.4648 235.28 37.0229 237.122 36.4504L244.223 34.2432L238.153 29.9495ZM126.312 178.25C131.798 170.073 138.36 161.898 145.767 154.062L121.076 129.371C118.788 127.083 118.788 123.373 121.076 121.084C123.364 118.796 127.074 118.796 129.363 121.084L154.054 145.775C161.89 138.369 170.065 131.806 178.241 126.321C174.178 104.018 180.746 80.1413 197.953 62.9338C200.241 60.6458 203.951 60.6458 206.24 62.9338C208.528 65.2219 208.528 68.932 206.24 71.2206C193.018 84.4427 187.312 102.375 189.114 119.666C193.452 117.27 197.747 115.212 201.948 113.529C220.504 106.095 235.486 106.763 244.134 115.411C246.7 117.977 248.546 121.095 249.697 124.673L249.716 124.636L299.291 280.691C300.974 285.99 299.577 291.724 295.646 295.655C292.817 298.484 289.053 300 285.19 300C283.686 300 282.167 299.77 280.683 299.299L124.627 249.724L124.637 249.692C121.071 248.54 117.96 246.7 115.401 244.142C106.754 235.494 106.086 220.513 113.52 201.956C115.203 197.755 117.261 193.46 119.657 189.122C102.366 187.321 84.4337 193.026 71.2116 206.248C70.0673 207.393 68.5679 207.965 67.0685 207.965C65.5691 207.965 64.0691 207.393 62.9254 206.248C60.6374 203.96 60.6374 200.25 62.9254 197.962C80.1335 180.754 104.01 174.187 126.312 178.25ZM123.688 235.855C127.624 239.79 135.224 240.51 145.09 237.882C156.108 234.947 169.273 227.964 182.158 218.22C184.739 216.268 188.414 216.778 190.365 219.359C192.318 221.94 191.807 225.615 189.226 227.567C177.214 236.651 165.541 243.202 154.949 247.06L284.231 288.13C285.852 288.646 286.959 287.769 287.36 287.368C287.761 286.967 288.637 285.86 288.122 284.239L247.049 154.946C243.192 165.542 236.647 177.216 227.56 189.234C225.608 191.815 221.933 192.324 219.352 190.373C216.771 188.421 216.261 184.746 218.213 182.165C227.957 169.28 234.939 156.115 237.875 145.097C240.503 135.232 239.783 127.631 235.847 123.696C229.129 116.977 211.976 119.686 191.632 131.696C194.433 140.456 199.301 148.693 206.24 155.631C208.528 157.919 208.528 161.629 206.24 163.918C205.096 165.062 203.596 165.634 202.097 165.634C200.597 165.634 199.097 165.062 197.954 163.918C190.448 156.412 184.969 147.636 181.51 138.276C175.235 142.726 168.783 147.99 162.342 154.064L185.037 176.759C187.325 179.047 187.325 182.757 185.037 185.045C183.893 186.19 182.393 186.762 180.894 186.762C179.394 186.762 177.894 186.19 176.751 185.045L154.057 162.351C147.982 168.792 142.718 175.244 138.269 181.519C147.628 184.978 156.405 190.456 163.911 197.963C166.199 200.251 166.199 203.961 163.911 206.25C161.623 208.538 157.913 208.538 155.624 206.25C148.685 199.311 140.449 194.442 131.689 191.641C119.679 211.984 116.97 229.137 123.688 235.855ZM105.272 105.28C104.128 106.424 102.628 106.996 101.129 106.996C99.6296 106.996 98.1296 106.424 96.9858 105.28L75.6231 83.917C73.3351 81.629 73.3351 77.9188 75.6231 75.6301C77.9112 73.342 81.6214 73.342 83.91 75.6301L105.273 96.9928C107.56 99.2815 107.56 102.992 105.272 105.28ZM12.2563 143.018L1.1676 157.878C-0.165985 159.665 -0.369293 162.055 0.642029 164.043C1.65451 166.03 3.72342 167.261 5.93762 167.241L24.477 167.005L35.1825 182.142C36.291 183.71 38.0828 184.619 39.9654 184.619C40.2695 184.619 40.5765 184.595 40.883 184.546C43.0855 184.197 44.8995 182.628 45.5616 180.498L51.0652 162.793L68.7702 157.289C70.9007 156.627 72.4692 154.813 72.8184 152.611C73.167 150.408 72.2354 148.198 70.4143 146.91L55.2769 136.205L55.5136 117.665C55.5423 115.435 54.3025 113.382 52.315 112.37C50.3276 111.358 47.9382 111.561 46.1505 112.895L31.2913 123.983L13.7328 118.029C11.62 117.314 9.28445 117.858 7.70773 119.435C6.13098 121.012 5.58551 123.348 6.30209 125.46L12.2563 143.018ZM32.2663 157.722C31.1536 156.148 29.3466 155.225 27.4078 155.247L17.6597 155.371L23.4903 147.558C24.644 146.012 24.9627 143.999 24.3434 142.172L21.2128 132.94L30.4453 136.07C32.271 136.689 34.2854 136.37 35.8311 135.217L43.6439 129.387L43.5197 139.135C43.4951 141.063 44.4202 142.88 45.9952 143.993L53.9545 149.622L44.6452 152.516C42.8036 153.089 41.3617 154.531 40.7892 156.372L37.8953 165.682L32.2663 157.722ZM17.9253 34.2913C17.9253 46.7077 28.0267 56.8091 40.4431 56.8091C52.8595 56.8091 62.9609 46.7077 62.9609 34.2913C62.9609 21.8748 52.8595 11.7734 40.4431 11.7734C28.0267 11.7734 17.9253 21.8748 17.9253 34.2913ZM29.6439 34.2913C29.6439 28.3365 34.4883 23.492 40.4431 23.492C46.3973 23.492 51.2424 28.3365 51.2424 34.2913C51.2424 40.246 46.3979 45.0905 40.4431 45.0905C34.4883 45.0905 29.6439 40.246 29.6439 34.2913ZM40.3242 228.847C39.2344 227.757 38.6133 226.245 38.6133 224.704C38.6133 223.163 39.2344 221.651 40.3242 220.562C41.4141 219.472 42.9258 218.845 44.4727 218.845C46.0137 218.845 47.5254 219.472 48.6152 220.562C49.7051 221.651 50.332 223.163 50.332 224.704C50.332 226.245 49.7051 227.757 48.6152 228.847C47.5195 229.937 46.0137 230.563 44.4727 230.563C42.9258 230.563 41.4199 229.936 40.3242 228.847ZM20.5609 246.529H12.5044C9.26837 246.529 6.64514 249.152 6.64514 252.388C6.64514 255.624 9.26837 258.248 12.5044 258.248H20.5609V266.304C20.5609 269.54 23.1841 272.163 26.4202 272.163C29.6563 272.163 32.2795 269.54 32.2795 266.304V258.248H40.336C43.5721 258.248 46.1953 255.624 46.1953 252.388C46.1953 249.152 43.5721 246.529 40.336 246.529H32.2795V238.473C32.2795 235.236 29.6563 232.613 26.4202 232.613C23.1841 232.613 20.5609 235.236 20.5609 238.473V246.529ZM137.25 59.0201H129.194V67.0766C129.194 70.3127 126.57 72.9359 123.334 72.9359C120.098 72.9359 117.475 70.3127 117.475 67.0766V59.0201H109.419C106.182 59.0201 103.559 56.3969 103.559 53.1608C103.559 49.9247 106.182 47.3015 109.419 47.3015H117.475V39.245C117.475 36.0089 120.098 33.3857 123.334 33.3857C126.57 33.3857 129.194 36.0089 129.194 39.245V47.3015H137.25C140.486 47.3015 143.109 49.9247 143.109 53.1608C143.109 56.3969 140.486 59.0201 137.25 59.0201ZM209.686 201.407C208.596 200.317 207.084 199.69 205.543 199.69C204.002 199.69 202.49 200.317 201.4 201.407C200.311 202.497 199.684 204.009 199.684 205.55C199.684 207.091 200.311 208.603 201.4 209.692C202.49 210.782 204.002 211.409 205.543 211.409C207.084 211.409 208.596 210.782 209.686 209.692C210.775 208.603 211.402 207.091 211.402 205.55C211.402 204.009 210.775 202.497 209.686 201.407Z"
            fill="white" />
    </g>
    <defs>
        <clipPath id="clip0">
            <rect width="300" height="300" fill="white" transform="matrix(-1 0 0 1 300 0)" />
        </clipPath>
    </defs>
</svg>