<svg width="24" height="24" viewBox="0 0 24 24" fill="none" xmlns="http://www.w3.org/2000/svg">
<path d="M9.41379 2.41211C8.35856 2.41211 7.49637 3.27431 7.49637 4.32953C7.49637 5.38476 8.35856 6.24696 9.41379 6.24696H11.3312V4.32953C11.3312 3.27431 10.4819 2.41211 9.41379 2.41211ZM9.41379 7.52096H4.31782C3.26259 7.52096 2.40039 8.38315 2.40039 9.43838C2.40039 10.4936 3.26259 11.3558 4.31782 11.3558H9.42666C10.4819 11.3558 11.3441 10.4936 11.3441 9.43838C11.3312 8.38315 10.4819 7.52096 9.41379 7.52096Z" fill="#36C5F0"/>
<path d="M21.5492 9.43904C21.5492 8.38381 20.687 7.52162 19.6317 7.52162C18.5765 7.52162 17.7143 8.38381 17.7143 9.43904V11.3565H19.6317C20.687 11.3693 21.5492 10.5071 21.5492 9.43904ZM16.4403 9.43904V4.31733C16.4403 3.2621 15.5781 2.3999 14.5229 2.3999C13.4677 2.3999 12.6055 3.2621 12.6055 4.31733V9.43904C12.6055 10.4943 13.4677 11.3565 14.5229 11.3565C15.591 11.3693 16.4403 10.5071 16.4403 9.43904Z" fill="#2EB67D"/>
<path d="M14.5229 21.6001C15.5781 21.6001 16.4403 20.7379 16.4403 19.6827C16.4403 18.6275 15.5781 17.7653 14.5229 17.7653H12.6055V19.6827C12.6055 20.7379 13.4677 21.6001 14.5229 21.6001ZM14.5229 16.4784H19.6317C20.687 16.4784 21.5492 15.6162 21.5492 14.561C21.5492 13.5058 20.687 12.6436 19.6317 12.6436H14.5229C13.4677 12.6436 12.6055 13.5058 12.6055 14.561C12.6055 15.6162 13.4677 16.4784 14.5229 16.4784Z" fill="#ECB22E"/>
<path d="M2.40039 14.561C2.40039 15.6162 3.26259 16.4784 4.31782 16.4784C5.37304 16.4784 6.23524 15.6162 6.23524 14.561V12.6436H4.31782C3.24972 12.6436 2.40039 13.5058 2.40039 14.561ZM7.50923 14.561V19.6827C7.50923 20.7379 8.37143 21.6001 9.42666 21.6001C10.4819 21.6001 11.3441 20.7379 11.3441 19.6827V14.561C11.3441 13.5058 10.4819 12.6436 9.42666 12.6436C8.35856 12.6436 7.50923 13.5058 7.50923 14.561Z" fill="#E01E5A"/>
</svg>
