<svg width="18" height="15" viewBox="0 0 18 15" fill="none" xmlns="http://www.w3.org/2000/svg">
<path d="M17.7172 2.00999C17.0758 2.29445 16.3865 2.48669 15.6632 2.57313C16.4014 2.13052 16.9686 1.42966 17.2356 0.594491C16.5445 1.00437 15.7792 1.30199 14.9645 1.46234C14.3122 0.767274 13.3828 0.333008 12.3541 0.333008C10.379 0.333008 8.77759 1.93423 8.77759 3.9093C8.77759 4.18959 8.80926 4.46256 8.87026 4.72434C5.89792 4.57517 3.26264 3.15137 1.49876 0.987599C1.19089 1.5158 1.01452 2.13014 1.01452 2.78558C1.01452 4.02637 1.64588 5.12103 2.60554 5.76242C2.01934 5.74376 1.46781 5.58292 0.985673 5.31506C0.985331 5.33 0.985331 5.34492 0.985331 5.36001C0.985331 7.09284 2.21812 8.53826 3.85417 8.86684C3.55409 8.94859 3.23813 8.99234 2.91196 8.99234C2.68151 8.99234 2.45747 8.96984 2.23906 8.92817C2.69419 10.3489 4.01496 11.383 5.57996 11.4118C4.35598 12.3711 2.81391 12.9428 1.13829 12.9428C0.849615 12.9428 0.56494 12.9258 0.285156 12.8928C1.86787 13.9075 3.74777 14.4997 5.76743 14.4997C12.3457 14.4997 15.943 9.05009 15.943 4.32399C15.943 4.16896 15.9395 4.01472 15.9326 3.8613C16.6314 3.35706 17.2378 2.72719 17.7172 2.00999Z" fill="#ffffff"/>
</svg>
