<svg width="40" height="40" viewBox="0 0 40 40" fill="none" xmlns="http://www.w3.org/2000/svg">
<path d="M35.9869 12.0052C35.6036 10.5752 34.4786 9.44684 33.0503 9.06184C30.4403 8.34518 19.9986 8.33351 19.9986 8.33351C19.9986 8.33351 9.5586 8.32184 6.94693 9.00684C5.54693 9.38851 4.39026 10.5418 4.0036 11.9702C3.31526 14.5802 3.3086 19.9935 3.3086 19.9935C3.3086 19.9935 3.30193 25.4335 3.98526 28.0168C4.3686 29.4452 5.4936 30.5735 6.9236 30.9585C9.56026 31.6752 19.9736 31.6868 19.9736 31.6868C19.9736 31.6868 30.4153 31.6985 33.0253 31.0152C34.4519 30.6318 35.5819 29.5052 35.9703 28.0768C36.6603 25.4685 36.6653 20.0568 36.6653 20.0568C36.6653 20.0568 36.6986 14.6152 35.9869 12.0052ZM16.6586 25.0085L16.6669 15.0085L25.3453 20.0168L16.6586 25.0085Z" fill="white"/>
</svg>
