<svg width="24" height="24" viewBox="0 0 24 24" fill="none" xmlns="http://www.w3.org/2000/svg">
<path d="M14.25 10.125H17.25M6.75 10.125H9.75M8.25 8.62499V11.625M20.9277 9.25407L22.4606 17.1687C22.5575 17.7185 22.4766 18.2849 22.2297 18.7856C21.9827 19.2862 21.5826 19.6952 21.0874 19.953C20.5923 20.2107 20.0278 20.304 19.476 20.2191C18.9243 20.1342 18.4139 19.8756 18.0191 19.4809L13.9688 14.9842M16.1267 5.2256L7.87542 5.24999C6.72925 5.25008 5.61974 5.65389 4.74165 6.39055C3.86357 7.1272 3.27302 8.14961 3.07368 9.27831L3.07448 9.27846L1.54032 17.1687C1.44342 17.7185 1.5243 18.2849 1.77123 18.7856C2.01816 19.2862 2.41826 19.6952 2.91344 19.953C3.40862 20.2107 3.97309 20.3039 4.52485 20.2191C5.07662 20.1342 5.58696 19.8756 5.98175 19.4809L10.0349 15L16.1267 14.9756C17.4196 14.9756 18.6596 14.462 19.5739 13.5477C20.4881 12.6335 21.0017 11.3935 21.0017 10.1006C21.0017 8.80767 20.4881 7.5677 19.5739 6.65346C18.6596 5.73922 17.4196 5.2256 16.1267 5.2256Z" stroke="#F2C94C" stroke-width="1.5" stroke-linecap="round" stroke-linejoin="round"/>
</svg>